<svg width="527" height="503" viewBox="0 0 527 503" fill="none" xmlns="http://www.w3.org/2000/svg">
<g clip-path="url(#clip0_1417_5448)">
<path d="M88.1158 431.549C81.2625 427.566 74.828 422.903 68.9097 417.63C60.8029 410.339 53.7168 401.987 47.843 392.8C44.734 387.945 42.8254 384.188 39.9385 378.498C33.9366 366.638 32.2741 360.882 31.6619 358.559C30.8696 355.558 28.2048 351.957 29.7833 348.776C30.3799 347.657 31.2974 346.741 32.4181 346.147C29.6086 341.028 27.0957 335.752 24.8917 330.344C22.6438 324.959 20.759 319.429 19.2499 313.791C18.0495 309.392 18.9979 311.883 16.249 298.738C15.3727 294.537 14.5024 290.6 15.4987 285.57C15.9189 283.439 16.465 280.859 18.1336 280.306C19.388 279.886 21.2966 280.613 26.0321 285.948C32.3341 293.043 34.6868 297.61 34.6868 297.61C38.9242 305.839 50.946 326.785 67.4153 355.552C62.4997 344.461 58.7965 334.966 56.1317 327.71C53.6145 321.101 51.608 314.309 50.1298 307.393C49.1282 301.932 48.624 296.392 48.6233 290.84C48.5693 282.545 49.6016 279.778 51.6242 278.422C53.8629 276.927 56.6178 277.6 56.8879 277.672C60.8792 278.704 62.6317 283.187 65.5427 289.712C67.8054 294.783 70.7523 299.555 72.6909 304.758C81.0216 327.157 91.3509 348.758 100.156 370.977C103.601 379.674 108.924 393.07 115.581 409.726C114.699 415.483 111.919 420.782 107.682 424.778C99.6875 432.197 89.8264 431.669 88.1158 431.549Z" fill="white"/>
<path d="M88.7752 431.123C61.0884 414.749 40.2918 387.429 32.0992 356.297C31.565 354.268 30.5327 351.597 31.1269 349.503C31.7271 347.312 34.8661 347.54 36.3966 348.764C37.4177 349.616 38.3562 350.563 39.1995 351.591C42.5217 355.565 44.8396 360.279 45.9576 365.336L47.3921 364.501C31.4234 346.561 20.941 324.413 17.1905 300.689C16.5627 296.712 16.138 292.706 15.9181 288.685C15.828 287.095 15.5039 284.94 16.2002 283.44C18.1688 279.238 22.2021 283.794 24.0026 285.624C35.4063 297.292 42.1524 312.735 49.9069 326.857C58.5616 342.606 67.6725 358.109 77.0175 373.456C87.5148 390.694 98.3063 407.751 109.098 424.803C109.698 425.733 111.168 424.875 110.574 423.938C89.2854 390.31 67.9786 356.615 49.0066 321.612C44.8053 313.845 40.82 305.917 36.0785 298.444C33.9296 295.023 31.5661 291.742 29.0022 288.619C26.6495 285.774 23.8046 282.017 20.4735 280.289C13.3192 276.573 14.1415 288.469 14.4296 291.968C15.1358 300.389 16.6881 308.718 19.0631 316.828C24.3755 334.925 33.637 351.617 46.1797 365.702C46.7799 366.374 47.7882 365.648 47.6081 364.867C46.5712 360.193 44.5519 355.792 41.6843 351.957C39.7697 349.425 36.4326 345.001 32.6814 345.661C29.5184 346.226 29.0803 349.719 29.4224 352.353C30.0226 356.939 31.7211 361.602 33.2516 365.96C39.5244 383.676 49.6463 399.781 62.889 413.117C70.3643 420.647 78.7734 427.188 87.911 432.581C88.1052 432.674 88.3275 432.691 88.5336 432.628C88.7397 432.565 88.9145 432.427 89.0234 432.241C89.1323 432.055 89.1672 431.835 89.1212 431.624C89.0752 431.414 88.9517 431.228 88.7752 431.105V431.123Z" fill="#102067"/>
<path d="M68.4601 353.837C61.858 341.485 56.0721 328.587 52.7111 314.939C51.031 308.257 50.0534 301.418 49.7941 294.532C49.6501 290.037 48.9179 274.126 57.8847 279.168C60.8857 280.848 62.1641 284.473 63.4725 287.426C64.985 290.847 66.4895 294.272 67.9859 297.701C70.9869 304.556 73.9578 311.422 76.8988 318.3C82.7566 331.988 88.5084 345.721 94.1542 359.497C100.556 375.074 106.806 390.705 112.904 406.39C113.3 407.404 114.957 406.99 114.555 405.934C102.495 375.024 89.9209 344.322 76.8327 313.829C73.5077 306.082 70.1566 298.366 66.7795 290.679C64.5949 285.71 62.4582 277.781 56.1262 276.737C50.8985 275.873 48.7738 280.77 48.3237 285.109C47.5554 292.492 48.1856 300.114 49.416 307.425C52.2249 324.122 59.0191 339.883 67.0016 354.726C67.5178 355.698 69.0003 354.834 68.4781 353.861L68.4601 353.837Z" fill="#102067"/>
<path d="M15.559 282.961C33.0138 320.819 53.2998 357.306 76.2444 392.112C82.7264 401.943 89.4206 411.63 96.3268 421.173C96.963 422.061 98.4514 421.209 97.8032 420.309C73.3926 386.518 51.5657 350.933 32.5084 313.859C27.1227 303.384 21.9671 292.796 17.0415 282.097C16.5794 281.1 15.1029 281.971 15.559 282.961Z" fill="#102067"/>
<path d="M22.0962 321.695C27.0612 324.596 32.6214 326.328 38.3554 326.761C39.4537 326.851 39.4477 325.134 38.3554 325.05C32.9255 324.641 27.6604 322.999 22.9605 320.249C22.7662 320.155 22.544 320.139 22.3379 320.202C22.1318 320.265 21.9569 320.403 21.848 320.589C21.7392 320.775 21.7043 320.995 21.7502 321.205C21.7962 321.416 21.9197 321.602 22.0962 321.725V321.695Z" fill="#102067"/>
<path d="M62.6722 366.357C64.7626 360.886 65.6589 355.031 65.301 349.185C65.235 348.087 63.5005 348.081 63.5845 349.185C63.9345 354.876 63.0606 360.576 61.0217 365.901C60.6255 366.933 62.2821 367.383 62.6722 366.357Z" fill="#102067"/>
<path d="M80.1886 393.31C82.8618 389.842 84.2719 385.565 84.1859 381.186C84.1859 380.959 84.0955 380.74 83.9345 380.579C83.7736 380.419 83.5552 380.328 83.3276 380.328C83.1 380.328 82.8817 380.419 82.7207 380.579C82.5598 380.74 82.4694 380.959 82.4694 381.186C82.5395 385.26 81.2018 389.233 78.6821 392.434C78.0099 393.304 79.4984 394.163 80.1646 393.298L80.1886 393.31Z" fill="#102067"/>
<path d="M1.40625 49.4391L10.5472 29.7528L281.209 0.931641L384.55 365.092L134.979 448.746L105.455 434.69L1.40625 49.4391Z" fill="white"/>
<path d="M134.925 449.67L104.729 435.325L0.5 49.4027L9.97701 28.9962L281.833 0.0429688L282.032 0.739188L385.595 365.643L384.82 365.901L134.925 449.67ZM106.176 434.065L135.039 447.809L383.518 364.521L280.579 1.86155L11.0934 30.5567L2.31858 49.5167L106.176 434.065Z" fill="#102067"/>
<path d="M12.0738 30.204L10.4297 30.6973L134.868 445.471L136.512 444.977L12.0738 30.204Z" fill="#102067"/>
<path d="M65.0607 45.2655C61.5616 44.7973 57.9724 44.3412 54.5153 45.0674C51.0582 45.7937 47.6851 47.9543 46.4908 51.2854C45.1883 54.8866 46.7909 59.0879 49.5817 61.7167C52.3726 64.3456 56.1358 65.702 59.875 66.5783C63.6142 67.4546 67.3354 67.9107 71.0146 67.1785C74.6937 66.4462 78.2469 64.4356 80.1375 61.1766C82.0281 57.9175 81.908 53.4521 79.3452 50.7212C76.7824 47.9904 71.7708 47.8043 69.4241 50.7212" stroke="#231F20" stroke-width="1.80057" stroke-miterlimit="10" stroke-linecap="round"/>
<path d="M238.754 27.6444C246.065 28.1765 253.412 27.8745 260.655 26.7441" stroke="#231F20" stroke-width="1.80057" stroke-miterlimit="10" stroke-linecap="round"/>
<path d="M244.117 37.3143L261.523 34.1152" stroke="#231F20" stroke-width="1.80057" stroke-miterlimit="10" stroke-linecap="round"/>
<path d="M244.434 45.4329L267.505 41.5977" stroke="#231F20" stroke-width="1.80057" stroke-miterlimit="10" stroke-linecap="round"/>
<path d="M122.884 299.602L135.056 296.763C139.18 295.72 143.355 294.89 147.564 294.278L142.636 282.875C141.772 280.858 140.788 278.673 138.891 277.599C137.283 276.657 135.32 276.651 133.489 276.711C129.12 276.855 118.755 275.75 117.368 280.912C116.81 282.875 122.878 299.608 122.884 299.602Z" stroke="#231F20" stroke-width="1.80057" stroke-miterlimit="10" stroke-linecap="round"/>
<path d="M163.194 294.803L195.82 287.895C241.177 278.291 286.533 268.688 332.148 260.4C327.139 255.465 324.034 248.92 323.379 241.92C323.535 243.672 251.266 255.436 244.574 256.571C218.069 261.066 191.331 264.259 164.845 268.796C148.669 271.569 158.386 285.428 163.194 294.803Z" stroke="#231F20" stroke-width="1.80057" stroke-miterlimit="10" stroke-linecap="round"/>
<path d="M135.077 342.846L147.249 340.007C151.371 338.971 155.544 338.147 159.751 337.54L154.829 326.089C153.959 324.072 152.981 321.924 151.078 320.813C149.475 319.877 147.513 319.865 145.676 319.925C141.301 320.069 130.936 318.965 129.555 324.126C129.003 326.125 135.065 342.846 135.077 342.846Z" stroke="#231F20" stroke-width="1.80057" stroke-miterlimit="10" stroke-linecap="round"/>
<path d="M175.414 338.041L208.047 331.133C253.397 321.53 298.76 311.927 344.374 303.644C339.368 298.708 336.263 292.164 335.605 285.164C335.761 286.911 263.492 298.674 256.8 299.809C230.29 304.304 203.557 307.497 177.071 312.035C160.854 314.808 170.571 328.666 175.414 338.041Z" stroke="#231F20" stroke-width="1.80057" stroke-miterlimit="10" stroke-linecap="round"/>
<path d="M148.225 389.062L160.408 386.223C164.53 385.184 168.703 384.363 172.91 383.762L167.977 372.304C167.113 370.288 166.128 368.133 164.232 367.029C162.629 366.086 160.66 366.08 158.83 366.14C154.455 366.284 144.089 365.18 142.703 370.342C142.157 372.346 148.219 389.068 148.225 389.062Z" stroke="#231F20" stroke-width="1.80057" stroke-miterlimit="10" stroke-linecap="round"/>
<path d="M188.535 384.262L221.168 377.354C266.524 367.75 311.887 358.147 357.495 349.859C352.49 344.922 349.385 338.378 348.726 331.379C348.888 333.131 276.613 344.895 269.921 346.03C243.417 350.525 216.678 353.718 190.198 358.255C174.011 361.028 183.728 374.887 188.535 384.262Z" stroke="#231F20" stroke-width="1.80057" stroke-miterlimit="10" stroke-linecap="round"/>
<path d="M284.647 186.04L292.161 184.288C294.704 183.647 297.278 183.14 299.874 182.769L296.837 175.705C296.297 174.463 295.69 173.136 294.52 172.452C293.478 171.963 292.32 171.774 291.177 171.906C288.476 171.996 282.084 171.306 281.226 174.517C280.878 175.723 284.647 186.04 284.647 186.04Z" stroke="#231F20" stroke-width="1.80057" stroke-miterlimit="10" stroke-linecap="round"/>
<path d="M284.961 178.966L291.707 182.273L302.294 170.209" stroke="#231F20" stroke-width="1.80057" stroke-miterlimit="10" stroke-linecap="round"/>
<path d="M370.194 343.807C369.03 337.51 368.587 331.101 368.873 324.703C369.119 319.536 369.804 315.436 371.184 307.244C371.898 302.97 372.57 299.021 373.819 293.74C374.785 289.634 375.998 285.625 378.428 277.6C378.428 277.6 379.227 274.966 382.384 266.401C383.523 263.552 385.076 260.886 386.993 258.49C388.5 256.6 389.268 256.09 389.958 256.186C391.975 256.474 392.563 261.839 392.593 262.115C394.084 259.067 395.733 256.098 397.532 253.221C399.711 249.752 401.134 247.951 403.462 246.619C404.549 246.018 406.559 244.854 408.072 245.628C409.428 246.318 409.722 248.191 410.052 250.898C410.773 256.846 411.133 259.817 411.037 261.767C410.779 267.534 410.008 273.267 408.732 278.897C406.422 288.28 403.562 297.519 400.167 306.566C394.976 319.662 389.448 333.886 382.708 351.364L370.194 343.807Z" fill="white"/>
<path d="M393.883 348.087C394.119 344.315 394.679 340.57 395.557 336.894C396.212 334.127 396.578 333.37 400.827 322.075C403.582 314.746 404.392 312.472 406.757 309.555C410.484 304.921 413.233 304.615 414.331 304.615C414.757 304.615 416.684 304.615 417.932 305.93C419.181 307.244 419.199 309.261 418.917 311.529C418.245 317.057 416.402 320.808 414.637 325.334C413.167 329.133 413.605 328.701 411.672 334.229C409.183 341.292 406.325 348.22 403.108 354.983L393.883 348.087Z" fill="white"/>
<path d="M370.055 340.861C369.103 322.672 371.169 304.452 376.171 286.939C378.701 278.084 381.98 269.46 385.972 261.161C386.753 259.541 389.033 254.661 391.122 258.292C392.208 260.177 391.974 262.944 391.812 265.02C391.408 269.692 389.851 274.189 387.281 278.111L388.679 278.489C389.699 269.623 392.847 261.135 397.856 253.749C399.813 250.874 407.165 242.153 409.176 249.836C410.31 254.157 409.824 259.439 409.506 263.844C408.125 282.756 401.181 300.75 394.417 318.269C390.416 328.701 386.392 339.128 382.347 349.551C381.999 350.452 383.446 350.842 383.794 349.947C387.943 339.244 392.086 328.527 396.224 317.795C400.167 307.556 404.068 297.275 406.931 286.675C409.71 276.376 411.661 265.597 411.168 254.865C411.03 251.81 411.234 246.907 407.747 245.544C404.416 244.242 400.845 247.345 398.948 249.746C392.425 258.03 388.354 267.977 387.197 278.459C387.101 279.251 388.229 279.407 388.595 278.843C390.719 275.588 392.183 271.948 392.905 268.129C393.463 265.044 393.949 261.221 392.742 258.226C392.04 256.474 390.474 254.907 388.439 255.561C385.636 256.462 384.406 260.885 383.338 263.214C372.217 287.524 367.145 314.165 368.555 340.861C368.603 341.821 370.103 341.827 370.055 340.861Z" fill="#102067"/>
<path d="M394.285 346.338C395.457 338.637 397.538 331.102 400.485 323.891C402.032 320.114 403.837 316.448 405.887 312.92C407.622 309.919 410.131 305.976 413.69 305.021C419.782 303.407 417.243 314.276 416.493 317.127C415.386 320.946 414.086 324.706 412.597 328.393L403.751 351.968C403.414 352.874 404.861 353.265 405.197 352.364C408.798 342.761 412.513 333.158 416 323.555C417.543 319.288 418.929 314.87 419.073 310.303C419.157 307.644 418.833 303.527 415.394 303.263C412.153 303.017 409.044 305.928 407.184 308.244C404.567 311.521 402.664 315.447 400.9 319.222C396.951 327.707 394.225 336.71 392.803 345.96C392.659 346.903 394.105 347.311 394.249 346.356L394.285 346.338Z" fill="#102067"/>
<path d="M405.66 248.528C393.945 278.289 383.429 308.483 374.114 339.109C373.832 340.033 375.279 340.429 375.561 339.505C384.872 308.907 395.381 278.713 407.089 248.924C407.443 248.024 405.991 247.633 405.642 248.528H405.66Z" fill="#102067"/>
<path d="M387.505 303.48C392.692 298.44 398.423 293.991 404.592 290.215C405.414 289.711 404.664 288.415 403.836 288.919C397.553 292.761 391.715 297.288 386.43 302.417C385.734 303.09 386.796 304.152 387.493 303.48H387.505Z" fill="#102067"/>
<path d="M397.91 274.99L409.181 268.268C409.353 268.167 409.478 268.003 409.529 267.811C409.58 267.618 409.552 267.413 409.451 267.241C409.351 267.07 409.187 266.945 408.994 266.894C408.802 266.843 408.597 266.871 408.425 266.971L397.154 273.694C396.982 273.794 396.857 273.958 396.806 274.151C396.755 274.343 396.783 274.548 396.883 274.72C396.984 274.892 397.148 275.017 397.341 275.067C397.533 275.118 397.738 275.09 397.91 274.99Z" fill="#102067"/>
<path d="M414.456 303.884C408.334 320.313 402.894 336.97 398.137 353.856C398.083 354.047 398.109 354.252 398.206 354.426C398.304 354.599 398.467 354.726 398.659 354.78C398.851 354.833 399.056 354.808 399.229 354.71C399.403 354.612 399.53 354.449 399.583 354.258C404.337 337.38 409.776 320.721 415.902 304.28C416.239 303.373 414.786 302.983 414.456 303.884Z" fill="#102067"/>
<path d="M404.974 337.782L410.184 335.453C411.06 335.057 410.298 333.766 409.428 334.157L404.212 336.485C403.336 336.875 404.098 338.172 404.974 337.782Z" fill="#102067"/>
<path d="M269.363 235.918L284.29 285.176L342.004 271.743L326.579 225.475L269.363 235.918Z" fill="white"/>
<path d="M283.773 286.069L268.402 235.335L327.083 224.615L342.976 272.288L283.773 286.069ZM270.323 236.505L284.8 284.286L341.031 271.202L326.063 226.326L270.323 236.505Z" fill="#102067"/>
<path d="M289.266 303.582L304.192 352.84L361.907 339.408L346.482 293.133L289.266 303.582Z" fill="white"/>
<path d="M303.674 353.735L288.297 303.001L346.984 292.281L362.877 339.954L303.674 353.735ZM290.223 304.171L304.7 351.952L360.932 338.862L345.969 293.992L290.223 304.171Z" fill="#102067"/>
<path d="M284.391 186.793C282.512 183.942 284.691 180.137 286.66 177.898C287.494 176.95 289.433 175.12 290.861 175.456L292.836 177.334C292.977 178.044 292.977 178.774 292.836 179.483C292.734 180.263 292.588 181.037 292.397 181.8C291.007 187.528 288.158 192.798 284.127 197.099L285.327 198.011C286.077 196.666 290.285 200.286 291.209 200.73C292.505 201.393 293.959 201.684 295.41 201.57C298.297 201.264 299.876 199.079 300.56 196.432C300.613 196.241 300.588 196.035 300.49 195.862C300.393 195.689 300.23 195.561 300.038 195.508C299.846 195.455 299.641 195.48 299.468 195.578C299.294 195.676 299.167 195.838 299.114 196.03C298.393 198.821 296.353 200.676 293.34 199.926C291.395 199.439 289.895 198.125 288.298 196.985C286.828 195.946 285.075 195.406 284.049 197.255C283.641 197.981 284.649 198.803 285.249 198.161C288.418 194.777 290.904 190.813 292.572 186.487C293.73 183.486 296.083 177.64 293.172 174.892C290.573 172.437 286.858 175.27 285.165 177.4C282.968 180.161 280.964 184.255 283.131 187.55C283.659 188.354 284.931 187.604 284.421 186.793H284.391Z" fill="#102067"/>
<path d="M291.526 241.121C291.652 245.785 290.896 255.886 296.994 257.428C302.732 258.887 305.835 249.992 305.997 245.797C306.039 244.83 304.538 244.83 304.496 245.797C304.352 249.398 300.103 260.201 295.289 254.577C293.771 252.777 293.645 250.184 293.429 247.975C293.213 245.767 293.08 243.42 293.02 241.139C292.99 240.173 291.49 240.167 291.52 241.139L291.526 241.121Z" fill="#102067"/>
<path d="M304.056 239.548C303.306 241.415 303.768 243.629 303.984 245.58C304.2 247.531 304.459 249.301 304.801 251.138C305.646 255.576 306.902 259.926 308.552 264.132C308.894 265.026 310.352 264.636 309.998 263.736C308.57 260.091 307.436 256.338 306.607 252.512C306.179 250.512 305.839 248.511 305.587 246.51C305.341 244.5 304.741 241.889 305.503 239.974C305.863 239.08 304.411 238.69 304.056 239.578V239.548Z" fill="#102067"/>
<path d="M246.051 326.486C250.39 324.482 254.926 322.933 259.585 321.865C260.527 321.649 260.131 320.202 259.189 320.418C254.404 321.534 249.747 323.143 245.294 325.22C244.418 325.628 245.18 326.925 246.051 326.516V326.486Z" fill="#102067"/>
<path d="M245.688 326.089L246.714 331.556C246.746 331.666 246.803 331.768 246.88 331.853C246.957 331.938 247.052 332.004 247.158 332.047C247.265 332.09 247.379 332.108 247.494 332.1C247.608 332.092 247.719 332.058 247.819 332C252.956 329.336 259.606 332.451 259.762 338.561C259.9 343.962 254.361 347.767 249.457 345.259C248.599 344.821 247.837 346.111 248.701 346.549C250.041 347.235 251.537 347.558 253.041 347.485C254.544 347.413 256.003 346.948 257.271 346.137C258.539 345.326 259.572 344.197 260.269 342.863C260.965 341.528 261.299 340.035 261.239 338.531C261.077 331.25 253.166 327.499 247.032 330.68L248.137 331.124L247.11 325.656C246.93 324.708 245.484 325.11 245.664 326.059L245.688 326.089Z" fill="#102067"/>
<path d="M325.257 304.41C321.974 305.389 319.993 308.426 318.247 311.186C316.078 314.625 314.407 318.353 313.283 322.26C312.281 325.729 311.194 330.062 311.777 333.724C312.209 336.418 314.627 339.089 317.538 337.751C320.449 336.412 322.832 332.739 324.2 329.978C325.203 327.956 326.997 324.301 325.143 322.236C323.288 320.171 319.909 322.206 318.145 323.394C315.32 325.301 313.111 327.989 311.788 331.131C311.41 332.007 312.701 332.769 313.079 331.887C313.938 329.823 315.203 327.954 316.8 326.389C317.626 325.595 318.535 324.892 319.513 324.295C320.026 323.979 320.557 323.694 321.103 323.442L322.262 322.986L324.387 324.379C325.143 326.053 322.586 329.996 321.746 331.275C321.071 332.322 320.304 333.306 319.453 334.216C319.122 334.623 318.748 334.994 318.337 335.32C318.074 335.61 317.724 335.807 317.34 335.881C316.955 335.955 316.557 335.901 316.206 335.728C314.639 336.412 313.697 335.896 313.397 334.18C312.617 331.779 313.433 328.382 313.913 325.981C314.392 323.603 315.077 321.272 315.96 319.013C316.936 316.548 318.142 314.181 319.561 311.943C321.073 309.542 322.808 306.715 325.677 305.857C325.869 305.803 326.032 305.676 326.129 305.503C326.227 305.329 326.252 305.124 326.199 304.932C326.146 304.741 326.018 304.578 325.845 304.48C325.672 304.382 325.467 304.357 325.275 304.41H325.257Z" fill="#102067"/>
<path d="M320.499 293.27C316.195 298.991 311.472 304.386 306.37 309.409C301.275 314.402 297.968 316.863 284.847 327.235C272.297 337.156 266.019 342.119 264.333 343.716C258.013 349.718 249.784 357.598 243.482 370.28C237.882 381.552 237.234 389.708 237.09 392.145C236.796 397.307 236.49 403.819 240.457 409.971C243.158 414.172 246.645 416.363 249.874 418.374C253.938 420.912 258.523 422.809 267.694 424.766C275.114 426.366 282.651 427.37 290.231 427.766C296.011 427.965 308.729 428.139 350.766 422.365C365.771 420.312 373.388 419.256 380.698 417.653C385.043 416.705 392.576 414.922 404.237 412.612C407.899 411.885 410.93 411.309 412.982 410.931C415.297 401.77 415.297 392.177 412.982 383.016L424.08 378.977C424.587 380.614 425.265 382.193 426.102 383.688C427.789 386.689 429.421 388.088 431.504 390.417C433.94 393.214 436.082 396.255 437.896 399.492C441.263 405.187 440.297 405.727 442.938 409.587C444.996 412.588 447.139 414.388 451.34 417.989C457.144 422.953 457.852 422.425 461.43 426.062C463.272 427.935 465.031 430.227 468.494 434.807C470.246 437.111 471.981 439.398 473.896 442.207C478.265 448.689 478.217 450.178 480.618 453.641C485.749 461.035 492.97 464.366 497.423 466.419C502.393 468.712 506.9 470.716 512.56 469.786C514.252 469.504 517.703 468.886 520.626 466.083C523.339 463.484 524.228 460.327 524.666 458.688C525.2 456.75 525.266 455.273 525.338 451.96C525.446 445.784 525.5 442.699 525.338 440.557C524.939 434.079 523.461 427.713 520.962 421.723C518.503 415.923 515.084 410.578 510.849 405.914C509.041 401.75 507.462 397.49 506.12 393.153C504.319 387.224 504.247 385.351 502.081 382.728C499.914 380.105 498.041 379.595 497.039 376.672C496.337 374.626 496.505 372.663 496.703 370.28C496.991 366.853 497.687 366.319 497.711 363.894C497.711 361.175 496.889 359.183 496.031 357.166C495.058 354.897 493.336 350.84 488.966 347.749C486.287 345.851 483.155 344.692 479.885 344.388C477.019 344.205 474.149 344.665 471.483 345.732C467.852 347.077 467.576 348.271 463.41 349.766C460.541 350.798 459.053 351.338 457.024 351.116C453.807 350.762 453.183 348.943 448.952 347.749C447.105 347.163 445.164 346.935 443.232 347.077C437.902 347.677 434.505 352.539 433.479 354.141C433.059 353.655 430.214 350.504 426.084 350.774C425.448 350.816 422.597 351.008 421.037 353.133C420.563 353.781 420.16 354.669 420.028 357.838C419.928 360.31 420.04 362.786 420.365 365.239L411.29 367.255C410.375 360.694 407.438 354.58 402.887 349.766C399.622 350.366 396.285 351.02 392.798 351.788C388.092 352.827 383.603 353.961 379.347 355.149C370.621 357.07 361.42 358.781 351.769 360.191C348.36 360.695 344.997 361.145 341.679 361.541C345.989 358.503 350.142 355.248 354.121 351.788C360.285 346.435 363.394 343.794 366.569 339.34C369.874 334.63 372.373 329.403 373.964 323.873C375.573 318.175 376.478 312.302 376.659 306.384C377.211 285.017 365.987 259.263 364.211 255.266C340.677 270.727 327.905 283.787 320.499 293.27Z" fill="white"/>
<path d="M368.076 266.669C373.43 285.209 379.078 305.166 373.304 324.324C368.124 341.483 353.498 352.275 339.009 361.386C329.406 367.388 319.713 373.281 310.062 379.217C309.24 379.727 309.996 381.018 310.818 380.514C320.019 374.854 329.244 369.224 338.427 363.516C345.755 358.955 353.035 354.183 359.403 348.307C365.561 342.624 370.645 335.871 373.64 327.997C376.965 319.258 377.721 309.655 376.959 300.388C375.999 288.738 372.758 277.455 369.529 266.267C369.475 266.075 369.348 265.911 369.174 265.813C369 265.714 368.794 265.689 368.601 265.742C368.409 265.795 368.245 265.923 368.147 266.097C368.048 266.271 368.023 266.477 368.076 266.669Z" fill="#102067"/>
<path d="M312.256 302.562C304.23 310.556 295.782 318.113 286.946 325.201C279.173 331.431 271.077 337.271 263.598 343.861C249.194 356.549 237.478 373.444 236.434 393.196C235.965 402.043 238.456 410.812 245.605 416.478C253.119 422.444 263.298 425.355 272.613 426.927C293.74 430.528 315.827 427.437 336.888 424.929C349.652 423.416 362.378 421.587 375.066 419.443C387.904 417.27 400.754 415.049 413.268 411.43C413.454 411.373 413.611 411.245 413.704 411.074C413.798 410.904 413.822 410.703 413.77 410.515C413.719 410.327 413.596 410.167 413.429 410.067C413.261 409.968 413.061 409.938 412.872 409.984C402.23 413.063 391.385 415.061 380.462 416.988C369.382 418.945 358.266 420.663 347.115 422.144C336.251 423.58 325.364 424.78 314.452 425.745C304.393 426.639 294.274 427.275 284.179 426.687C274.084 426.099 263.958 424.232 254.703 420.085C250.454 418.176 246.301 415.746 243.228 412.15C239.957 408.297 238.39 403.346 237.97 398.346C237.16 388.743 240.113 378.672 244.326 370.137C248.6 361.452 254.8 354.004 261.858 347.438C269.66 340.194 278.273 333.958 286.598 327.367C295.938 319.959 304.853 312.03 313.3 303.618C313.409 303.474 313.463 303.296 313.451 303.115C313.439 302.935 313.363 302.765 313.236 302.637C313.109 302.508 312.94 302.43 312.76 302.416C312.58 302.402 312.401 302.454 312.256 302.562Z" fill="#102067"/>
<path d="M341.067 362.024C354.356 360.667 367.56 358.679 380.68 356.058C381.628 355.866 381.226 354.419 380.284 354.611C367.3 357.204 354.227 359.175 341.067 360.523C340.119 360.619 340.107 362.126 341.067 362.024Z" fill="#102067"/>
<path d="M380.308 356.507C384.15 359.238 386.19 363.523 387.511 367.91C389.044 373.065 390.077 378.355 390.596 383.707C391.699 394.438 390.985 405.277 388.483 415.77C388.255 416.706 389.683 417.108 389.929 416.166C392.656 404.73 393.289 392.896 391.796 381.235C390.632 372.334 388.945 360.828 381.047 355.21C380.26 354.652 379.51 355.955 380.29 356.507H380.308Z" fill="#102067"/>
<path d="M380.706 355.019C387.926 353.346 395.242 352.117 402.613 351.339C403.561 351.237 403.573 349.737 402.613 349.839C395.107 350.626 387.657 351.872 380.304 353.572C379.368 353.788 379.764 355.235 380.706 355.019Z" fill="#102067"/>
<path d="M402.544 351.428C405.971 354.609 407.789 358.841 409.146 363.234C410.642 368.09 411.76 373.054 412.489 378.083C413.991 388.58 413.868 399.247 412.123 409.707C411.967 410.649 413.413 411.057 413.569 410.103C415.368 399.383 415.491 388.45 413.935 377.693C413.165 372.271 411.932 366.926 410.25 361.715C408.858 357.478 406.943 353.445 403.648 350.372C402.94 349.718 401.848 350.774 402.586 351.434L402.544 351.428Z" fill="#102067"/>
<path d="M411.958 367.706C415.822 366.373 419.825 365.487 423.89 365.065C424.844 364.969 424.85 363.469 423.89 363.565C419.692 363.987 415.555 364.889 411.562 366.254C410.65 366.566 411.04 368.018 411.958 367.706Z" fill="#102067"/>
<path d="M414.53 382.749C418.648 381.693 422.71 380.431 426.702 378.968C427.602 378.638 427.212 377.167 426.306 377.521C422.312 378.985 418.248 380.247 414.128 381.303C414.033 381.329 413.944 381.374 413.866 381.435C413.789 381.495 413.724 381.571 413.675 381.657C413.627 381.742 413.596 381.837 413.584 381.935C413.572 382.033 413.579 382.132 413.606 382.227C413.632 382.322 413.677 382.411 413.738 382.488C413.798 382.566 413.874 382.631 413.96 382.679C414.045 382.728 414.14 382.759 414.238 382.771C414.336 382.783 414.435 382.776 414.53 382.749Z" fill="#102067"/>
<path d="M421.017 364.166C420.566 360.895 420.128 351.49 425.218 351.412C428.219 351.37 430.83 354.233 433.891 354.629C434.845 354.755 434.833 353.248 433.891 353.128C430.097 352.636 426.088 347.727 422.235 350.938C418.73 353.897 419.036 360.541 419.588 364.568C419.72 365.516 421.161 365.114 421.035 364.166H421.017Z" fill="#102067"/>
<path d="M434.401 354.298C435.505 351.871 437.451 349.926 439.878 348.822C442.306 347.719 445.051 347.532 447.605 348.296C451.705 349.497 455.678 352.3 460.131 351.555C462.328 351.183 464.111 349.899 466.019 348.848C468.456 347.515 471.117 346.64 473.87 346.268C479.454 345.506 485.125 346.769 489.859 349.827C490.675 350.349 491.425 349.047 490.615 348.53C486.076 345.608 480.714 344.231 475.328 344.605C472.645 344.788 470.009 345.408 467.526 346.442C464.771 347.606 462.256 349.929 459.189 350.157C453.673 350.571 449.088 345.902 443.494 346.292C441.27 346.467 439.133 347.23 437.301 348.501C435.468 349.773 434.006 351.508 433.063 353.53C432.655 354.4 433.951 355.162 434.359 354.286L434.401 354.298Z" fill="#102067"/>
<path d="M424.788 361.303C424.492 363.797 424.908 366.323 425.99 368.589C427.071 370.855 428.773 372.768 430.898 374.105C431.714 374.628 432.465 373.325 431.654 372.809C429.757 371.602 428.244 369.877 427.295 367.839C426.345 365.8 425.998 363.533 426.295 361.303C426.409 360.349 424.908 360.355 424.794 361.303H424.788Z" fill="#102067"/>
<path d="M424.492 379.903C424.396 385.436 429.048 388.905 432.469 392.603C437.157 397.656 438.339 404.528 442.072 410.146C445.805 415.764 452.275 418.993 457.203 423.5C462.833 428.614 467.502 434.658 472.13 440.666C472.73 441.422 474.014 440.666 473.42 439.91C469.255 434.508 465.065 429.046 460.18 424.251C455.294 419.455 449.034 416.304 444.695 411.161C440.356 406.017 439.359 399.199 435.476 393.881C432.265 389.482 425.873 385.953 425.981 379.903C425.981 379.704 425.902 379.513 425.761 379.372C425.621 379.231 425.43 379.152 425.231 379.152C425.032 379.152 424.841 379.231 424.7 379.372C424.56 379.513 424.48 379.704 424.48 379.903H424.492Z" fill="#102067"/>
<path d="M489.739 349.681C493.43 353.199 496.539 358.774 496.941 363.93C497.325 368.593 493.892 372.753 496.491 377.29C497.409 378.893 498.754 380.183 499.96 381.564C501.971 383.862 503.117 386.419 504.095 389.288C505.896 394.624 507.66 399.983 509.443 405.331C509.743 406.243 511.196 405.853 510.889 404.935C509.089 399.443 507.288 393.934 505.398 388.472C504.662 386.063 503.534 383.792 502.061 381.75C500.692 379.949 498.892 378.497 497.787 376.534C496.167 373.647 497.325 370.79 498.039 367.837C498.615 365.6 498.568 363.249 497.901 361.037C496.575 356.398 494.3 351.968 490.777 348.619C490.075 347.959 489.013 349.015 489.715 349.681H489.739Z" fill="#102067"/>
<path d="M472.192 440.469C476.027 448.817 480.168 456.782 488.091 461.913C495.533 466.715 504.65 471.685 513.791 470.442C514.745 470.31 514.337 468.864 513.395 468.996C504.542 470.196 495.245 464.956 488.139 460.149C480.853 455.221 477.059 447.473 473.488 439.706C473.086 438.83 471.796 439.592 472.192 440.469Z" fill="#102067"/>
<path d="M510.138 406.515C518.271 414.617 522.262 425.655 523.72 436.872C525.017 446.818 526.955 466.024 513.883 468.977C512.947 469.187 513.343 470.633 514.285 470.423C527.67 467.422 526.541 449.074 525.437 438.703C524.134 426.459 520.077 414.299 511.2 405.452C511.059 405.312 510.868 405.232 510.669 405.232C510.47 405.232 510.279 405.312 510.138 405.452C509.997 405.593 509.918 405.784 509.918 405.984C509.918 406.183 509.997 406.374 510.138 406.515Z" fill="#102067"/>
<path d="M463.639 351.035C471.117 353.22 474.316 360.884 478.787 366.52C483.025 371.856 488.991 374.923 495.887 374.581C496.847 374.527 496.853 373.026 495.887 373.08C491.924 373.343 487.985 372.301 484.669 370.115C481.464 367.96 479.232 364.755 477.101 361.61C473.722 356.605 470.127 351.365 464.035 349.607C463.845 349.561 463.645 349.591 463.478 349.69C463.31 349.79 463.187 349.95 463.136 350.138C463.085 350.326 463.108 350.527 463.202 350.697C463.296 350.868 463.452 350.996 463.639 351.053V351.035Z" fill="#102067"/>
<path d="M472.695 346.912C476.344 345.711 479.693 351.407 481.278 353.976C482.862 356.545 483.732 359.294 485.215 361.826C486.421 363.839 488.108 365.521 490.125 366.722C492.141 367.922 494.424 368.603 496.769 368.705C497.729 368.759 497.729 367.258 496.769 367.204C493.409 367.044 490.248 365.567 487.97 363.093C485.713 360.59 484.831 357.163 483.168 354.276C481.2 350.795 477.166 343.887 472.269 345.465C471.356 345.765 471.747 347.212 472.671 346.912H472.695Z" fill="#102067"/>
<path d="M501.728 383.529C498.535 391.583 501.914 400.064 504.855 407.657C508.216 416.343 511.852 424.916 515.761 433.375C517.669 437.51 520.79 443.578 516.961 447.695C514.392 450.456 509.837 450.042 506.854 452.293C504.706 453.97 503.174 456.311 502.499 458.951C501.823 461.591 502.042 464.381 503.121 466.883C503.499 467.766 504.795 467.003 504.411 466.127C503.717 464.45 503.461 462.624 503.665 460.82C503.87 459.017 504.529 457.295 505.582 455.816C508.078 452.215 511.686 452.167 515.347 450.576C521.823 447.755 520.58 440.373 518.234 435.109C514.512 426.749 510.737 418.448 507.376 409.931C504.201 401.889 499.778 392.568 503.205 383.931C503.565 383.031 502.113 382.641 501.758 383.529H501.728Z" fill="#102067"/>
<path d="M475.431 443.5C475.947 440.001 478.816 437.768 481.319 435.565C484.014 433.164 486.721 430.842 489.656 428.729C495.604 424.408 502.326 421.107 509.768 420.662C510.728 420.602 510.734 419.102 509.768 419.162C501.749 419.636 494.547 423.219 488.161 427.955C485.058 430.265 482.159 432.804 479.236 435.379C476.836 437.522 474.435 439.766 473.955 443.098C473.817 444.046 475.257 444.448 475.401 443.5H475.431Z" fill="#102067"/>
<path d="M479.9 450.504C483.903 445.103 489.803 440.745 495.505 437.3C501.097 433.951 507.137 431.416 513.445 429.774C513.631 429.716 513.788 429.589 513.881 429.418C513.975 429.247 513.999 429.047 513.947 428.859C513.896 428.671 513.773 428.51 513.606 428.411C513.438 428.312 513.238 428.282 513.049 428.327C506.348 430.071 499.944 432.802 494.047 436.43C488.369 439.947 482.601 444.34 478.598 449.742C477.998 450.516 479.324 451.267 479.894 450.498L479.9 450.504Z" fill="#102067"/>
<path d="M437.783 384.843C434.476 385.263 432.675 388.823 430.976 391.325C428.543 394.86 426.44 398.611 424.693 402.531C423.059 406.198 421.927 410.068 421.325 414.037C420.983 416.437 420.035 420.681 422.406 422.385C424.777 424.09 427.886 421.929 429.668 420.309C432.059 418.028 433.905 415.238 435.07 412.146C438.377 403.905 438.503 394.548 438.881 385.804L437.483 386.182C438.696 388.099 440.318 389.725 442.234 390.941C444.149 392.157 446.311 392.934 448.562 393.216C452.055 393.69 458.921 393.006 460.35 388.979C462.018 384.279 454.612 380.228 451.077 379.442C448.445 378.893 445.712 379.097 443.19 380.029C440.668 380.961 438.459 382.583 436.816 384.711C436.216 385.461 437.278 386.512 437.879 385.774C440.64 382.286 444.871 380.18 449.372 380.672C451.532 380.91 453.597 381.69 455.374 382.941C457.481 384.417 460.836 387.832 457.415 390.041C451.317 393.978 442.5 391.379 438.809 385.425C438.723 385.287 438.595 385.18 438.444 385.121C438.293 385.061 438.126 385.052 437.969 385.094C437.812 385.137 437.673 385.229 437.572 385.356C437.472 385.484 437.415 385.641 437.411 385.804C437.11 392.802 436.882 399.932 435.22 406.768C434.019 411.84 431.097 419.714 425.413 421.317C420.887 422.589 422.82 414.043 423.252 411.948C423.947 408.698 424.998 405.534 426.385 402.513C427.633 399.781 429.067 397.138 430.676 394.602C432.135 392.286 434.806 386.728 437.831 386.344C438.779 386.224 438.791 384.717 437.831 384.843H437.783Z" fill="#102067"/>
<path d="M440.368 399.312C443.336 394.802 447.693 391.382 452.78 389.571C453.687 389.247 453.296 387.771 452.384 388.125C446.927 390.055 442.251 393.719 439.072 398.556C438.538 399.366 439.834 400.117 440.368 399.312Z" fill="#102067"/>
<path d="M445.097 409.266C446.309 406.386 448.131 403.803 450.437 401.696C452.744 399.588 455.48 398.006 458.457 397.058C459.369 396.758 458.979 395.312 458.055 395.606C454.835 396.637 451.878 398.357 449.391 400.647C446.903 402.936 444.944 405.74 443.65 408.864C443.278 409.752 444.731 410.142 445.097 409.266Z" fill="#102067"/>
<path d="M451.346 414.782C455.136 410.273 460.182 406.993 465.84 405.359C466.032 405.305 466.195 405.178 466.293 405.005C466.391 404.831 466.416 404.626 466.363 404.434C466.309 404.243 466.182 404.08 466.009 403.982C465.835 403.884 465.63 403.859 465.438 403.912C459.536 405.618 454.27 409.03 450.301 413.719C449.701 414.452 450.74 415.52 451.364 414.776L451.346 414.782Z" fill="#102067"/>
<path d="M460.292 422.469C464.294 417.304 469.127 412.841 474.595 409.264C475.399 408.736 474.649 407.434 473.839 407.968C468.259 411.609 463.325 416.152 459.236 421.412C458.636 422.168 459.704 423.213 460.292 422.475V422.469Z" fill="#102067"/>
<path d="M434.805 354.299C441.857 354.569 448.723 356.635 454.754 360.3C460.785 363.966 465.78 369.11 469.268 375.246C475.312 385.785 477.724 397.891 482.772 408.856C485.515 414.816 489.116 420.32 494.176 424.569C494.908 425.169 495.976 424.131 495.238 423.507C485.179 415.044 481.578 402.062 477.358 390.136C473.103 378.132 467.629 366.675 456.544 359.527C450.041 355.355 442.532 353.017 434.811 352.762C433.844 352.726 433.844 354.227 434.811 354.263L434.805 354.299Z" fill="#102067"/>
<path d="M295.872 290.373C289.648 294.208 281.882 299.214 273.161 305.378C259.813 314.849 249.982 322.993 245.216 327.038C234.215 336.365 227.102 343.424 221.106 349.402C211.227 359.245 207.776 363.584 204.685 368.968C201.594 374.351 198.221 380.371 198.047 388.882C198.026 394.581 199.342 400.205 201.888 405.303C203.143 407.836 206.612 414.108 216.215 421.022C221.557 424.876 229.299 429.281 249.057 434.299C261.118 437.353 273.375 439.571 285.741 440.937C302.882 442.875 315.655 442.971 330.113 443.037C343.449 443.097 360.909 442.773 381.471 441.285C382 436.741 382.378 431.838 382.522 426.616C382.606 423.465 382.6 420.434 382.522 417.529L391.603 417.877C391.799 420.062 392.391 422.194 393.349 424.167C395.172 427.8 398.119 430.747 401.752 432.57C404.387 437.197 406.932 441.051 409.092 444.1C411.721 447.809 413.894 450.522 416.078 453.187C419.338 457.196 422.327 460.593 424.811 463.318C426.21 465.424 428.364 468.792 430.753 473.101C434.48 479.823 434.726 481.504 437.391 484.979C440.206 488.579 443.636 491.654 447.523 494.06C451.703 496.781 456.308 498.789 461.147 500.001C462.745 500.964 464.536 501.56 466.393 501.748C470.384 502.132 473.427 500.38 475.822 498.951C480.036 496.378 483.523 492.771 485.953 488.472C488.799 483.974 490.369 478.788 490.496 473.467C490.568 467.105 488.384 462.394 487.003 459.489C484.332 453.889 482.802 454.243 477.568 445.864C475.272 442.134 473.174 438.286 471.284 434.335C468.613 428.933 467.281 426.274 466.038 422.805C464.838 419.48 464.496 417.715 462.893 415.122C461.493 412.861 459.722 410.853 457.654 409.181C459.087 406.857 459.928 404.217 460.103 401.492C460.283 398.299 459.442 395.988 458.356 393.089C456.975 389.44 455.247 384.849 450.667 381.212C448.378 379.239 445.604 377.913 442.631 377.37C439.168 376.806 436.503 377.635 432.848 378.769C429.4 379.84 426.11 381.366 423.065 383.306C419.721 382.725 416.326 382.492 412.934 382.61C408.132 382.778 406.649 383.558 405.947 384.009C403.114 385.809 402.106 388.9 401.746 390.299C400.107 389.92 398.415 389.566 396.68 389.224C395.186 388.93 393.715 388.666 392.281 388.426L387.077 377.623C385.637 377.948 384.278 378.56 383.08 379.423C380.638 381.283 378.995 384.001 378.483 387.028C379.867 388.968 381.636 390.603 383.68 391.829C384.994 392.614 386.407 393.219 387.882 393.63L388.278 397.429L379.275 397.831C377.464 390.587 373.968 383.872 369.072 378.235C360.227 379.02 351.349 379.352 342.471 379.231C338.468 379.177 331.109 378.985 306.28 376.632C298.969 375.942 288.994 374.952 277.08 373.631C282.206 370.762 289.324 366.651 297.679 361.435C307.96 355.013 315.354 350.368 324.273 343.238C333.192 336.107 338.282 331.984 343.671 324.632C348.169 318.805 351.621 312.241 353.875 305.234C357.746 292.882 356.654 282.198 355.879 275.224C355.396 270.903 354.593 266.624 353.479 262.422L295.872 290.373Z" fill="white"/>
<path d="M292.12 292.183C272.714 304.34 254.367 318.111 237.275 333.35C228.872 340.853 220.469 348.613 213.039 357.082C206.119 364.95 200.165 374.001 198.226 384.457C197.313 389.226 197.435 394.136 198.584 398.853C199.734 403.571 201.883 407.987 204.888 411.801C211.124 419.856 220.025 425.12 229.358 428.865C251.103 437.586 275.015 440.995 298.248 442.669C311.824 443.648 325.455 443.984 339.061 444.068C352.991 444.152 366.94 443.744 380.768 441.925C381.711 441.805 381.723 440.298 380.768 440.424C357.565 443.473 333.845 442.933 310.546 441.877C287.739 440.845 264.841 438.336 242.868 431.872C223.524 426.176 199.205 415.066 199.108 391.389C199.06 380.243 204.474 369.986 211.304 361.499C217.966 353.211 225.883 345.846 233.691 338.65C252.001 321.809 271.823 306.69 292.906 293.486C293.723 292.97 292.972 291.685 292.15 292.189L292.12 292.183Z" fill="#102067"/>
<path d="M350.995 309.375C344.633 325.682 331.092 337.584 317.27 347.661C301.677 358.971 285.173 368.968 267.928 377.551C267.07 377.977 267.826 379.273 268.691 378.841C282.792 371.813 296.405 363.844 309.438 354.99C320.805 347.259 332.191 338.982 341.128 328.431C345.919 322.884 349.753 316.578 352.471 309.771C352.825 308.877 351.373 308.487 351.025 309.375H350.995Z" fill="#102067"/>
<path d="M275.969 375.06C306.896 376.374 337.752 382.556 368.752 379.183C369.706 379.081 369.712 377.581 368.752 377.683C337.752 381.056 306.896 374.874 275.969 373.559C275.002 373.523 275.008 375.024 275.969 375.06Z" fill="#102067"/>
<path d="M368.547 378.972C372.436 382.327 374.428 387.02 376.097 391.768C381.624 407.507 383.185 424.366 380.64 440.852C380.496 441.794 381.943 442.202 382.087 441.248C383.831 429.864 383.685 418.271 381.655 406.935C380.617 401.189 379.085 395.545 377.075 390.063C375.407 385.532 373.324 381.121 369.597 377.91C368.871 377.309 367.796 378.342 368.541 378.972H368.547Z" fill="#102067"/>
<path d="M343.394 379.802C346.575 383.775 348.292 389.285 349.948 394.032C351.546 398.644 352.841 403.356 353.826 408.137C354.024 409.085 355.47 408.683 355.272 407.74C354.166 402.359 352.663 397.067 350.777 391.907C349.144 387.454 347.452 382.478 344.457 378.745C343.856 377.989 342.8 379.057 343.394 379.802Z" fill="#102067"/>
<path d="M349.218 408.916C349.043 411.085 349.368 413.265 350.166 415.29C350.514 416.178 351.967 415.794 351.613 414.894C350.856 412.989 350.549 410.935 350.718 408.892C350.79 407.932 349.29 407.938 349.218 408.892V408.916Z" fill="#102067"/>
<path d="M349.853 409C351.516 409.792 353.1 409.744 354.883 409.402C357.632 408.886 360.356 408.202 363.081 407.547C364.024 407.337 363.621 405.891 362.679 406.101L357.103 407.373C355.015 407.847 352.686 408.694 350.609 407.703C349.739 407.289 348.977 408.58 349.853 409Z" fill="#102067"/>
<path d="M351.437 415.632C353.518 416.288 355.722 416.457 357.878 416.125C360.035 415.793 362.086 414.969 363.873 413.717C364.659 413.171 363.909 411.869 363.117 412.421C361.5 413.576 359.636 414.338 357.672 414.645C355.709 414.952 353.701 414.797 351.809 414.191C350.885 413.909 350.488 415.356 351.413 415.638L351.437 415.632Z" fill="#102067"/>
<path d="M362.518 407.499C363.01 409.002 363.214 410.584 363.118 412.163C363.07 413.129 364.571 413.123 364.619 412.163C364.709 410.449 364.479 408.733 363.94 407.103C363.64 406.191 362.194 406.581 362.494 407.499H362.518Z" fill="#102067"/>
<path d="M355.435 415.724C356.337 424.737 355.932 433.834 354.234 442.732C354.054 443.681 355.501 444.083 355.681 443.134C357.408 434.106 357.825 424.877 356.917 415.73C356.821 414.775 355.321 414.769 355.417 415.73L355.435 415.724Z" fill="#102067"/>
<path d="M379.281 398.366C383.102 398.494 386.922 398.452 390.739 398.24C391.699 398.186 391.705 396.686 390.739 396.74C386.922 396.948 383.102 396.99 379.281 396.866C378.315 396.866 378.321 398.336 379.281 398.366Z" fill="#102067"/>
<path d="M382.911 418.471C388.22 418.596 393.522 418.029 398.684 416.784L398.282 415.338L397.472 415.65C396.583 415.998 396.973 417.451 397.874 417.097L398.684 416.784C398.779 416.758 398.868 416.713 398.945 416.652C399.023 416.592 399.088 416.516 399.137 416.43C399.185 416.345 399.216 416.25 399.228 416.152C399.24 416.054 399.233 415.955 399.206 415.86C399.18 415.765 399.135 415.676 399.074 415.599C399.013 415.521 398.938 415.456 398.852 415.408C398.766 415.359 398.672 415.328 398.574 415.316C398.476 415.304 398.377 415.312 398.282 415.338C393.243 416.552 388.068 417.101 382.887 416.97C382.688 416.97 382.497 417.05 382.356 417.19C382.216 417.331 382.137 417.522 382.137 417.721C382.137 417.92 382.216 418.111 382.356 418.251C382.497 418.392 382.688 418.471 382.887 418.471H382.911Z" fill="#102067"/>
<path d="M388.721 397.361C388.604 395.932 388.651 394.494 388.859 393.076C389.225 390.675 389.759 389.613 392.316 389.408C395.566 389.198 398.829 389.385 402.033 389.967C402.981 390.123 403.383 388.682 402.435 388.52C400.188 388.13 397.915 387.903 395.635 387.842C393.792 387.806 391.35 387.56 389.633 388.406C386.818 389.799 387.046 394.786 387.232 397.361C387.304 398.321 388.805 398.327 388.733 397.361H388.721Z" fill="#102067"/>
<path d="M402.17 389.288C403.641 388.022 404.331 386.155 405.772 384.871C407.572 383.25 410.057 383.07 412.338 383.31C416.731 383.736 420.476 385.057 424.78 383.31C428.777 381.666 432.102 379.109 436.501 378.509C441.003 377.896 445.579 378.845 449.465 381.198C449.637 381.298 449.842 381.326 450.035 381.275C450.227 381.224 450.392 381.099 450.492 380.927C450.592 380.756 450.62 380.551 450.569 380.358C450.519 380.166 450.394 380.001 450.222 379.901C446.645 377.74 442.514 376.674 438.338 376.834C433.68 377.032 430.019 379.025 425.98 381.12C423.233 382.616 420.061 383.143 416.977 382.614C414.678 382.26 412.398 381.654 410.051 381.81C408.381 381.854 406.76 382.379 405.381 383.322C403.581 384.643 402.831 386.845 401.18 388.28C400.448 388.91 401.51 389.966 402.242 389.342L402.17 389.288Z" fill="#102067"/>
<path d="M449.474 380.784C452.631 383.785 454.708 387.476 456.461 391.401C458.309 395.549 460.89 400.2 458.735 404.672C457.607 407.012 456.335 409.119 458.255 411.454C459.498 412.984 461.166 414.017 462.294 415.655C463.653 417.689 464.496 420.023 464.749 422.455C464.857 423.404 466.358 423.416 466.25 422.455C465.909 418.913 464.436 415.575 462.048 412.936C461.358 412.192 460.536 411.61 459.828 410.89C458.291 409.311 458.813 407.787 459.678 406.058C460.464 404.48 461.16 403.057 461.178 401.257C461.22 397.349 459.023 393.322 457.421 389.853C455.686 386.084 453.58 382.549 450.543 379.68C449.84 379.019 448.778 380.076 449.48 380.742L449.474 380.784Z" fill="#102067"/>
<path d="M391.159 393.91C390.595 399.954 394.592 404.557 398.487 408.657C399.153 409.353 400.216 408.291 399.55 407.594C395.912 403.771 392.131 399.552 392.659 393.91C392.749 392.944 391.249 392.95 391.159 393.91Z" fill="#102067"/>
<path d="M397.915 429.276C395.749 426.677 391.313 421.894 392.514 418.202C392.82 417.284 391.373 416.888 391.067 417.8C389.585 422.26 394.218 427.187 396.841 430.338C397.441 431.077 398.522 430.014 397.904 429.276H397.915Z" fill="#102067"/>
<path d="M398.757 423.406C398.213 421.219 398.397 418.914 399.28 416.841C400.164 414.768 401.7 413.04 403.655 411.918C403.827 411.818 403.952 411.653 404.002 411.461C404.053 411.268 404.025 411.064 403.925 410.892C403.825 410.72 403.66 410.595 403.468 410.544C403.275 410.494 403.07 410.521 402.899 410.622C400.666 411.915 398.915 413.898 397.907 416.273C396.899 418.648 396.69 421.286 397.311 423.79C397.539 424.726 398.985 424.33 398.757 423.388V423.406Z" fill="#102067"/>
<path d="M398.383 407.981C398.283 408.905 398.396 409.84 398.714 410.713C399.033 411.586 399.548 412.375 400.22 413.017C400.916 413.689 401.979 412.627 401.282 411.954C400.752 411.45 400.349 410.826 400.106 410.136C399.862 409.445 399.786 408.707 399.884 407.981C399.992 407.027 398.491 407.033 398.383 407.981Z" fill="#102067"/>
<path d="M396.675 430.523C404.921 434.634 407.82 443.727 412.73 450.876C415.094 454.315 418.083 457.19 420.916 460.233C423.929 463.52 426.522 467.169 428.635 471.096C432.518 478.13 435.921 485.309 441.953 490.812C447.46 495.823 454.201 499.28 461.483 500.83C462.426 501.028 462.828 499.581 461.879 499.383C453.809 497.675 446.453 493.544 440.795 487.541C435.105 481.467 432.17 473.665 427.825 466.697C423.347 459.494 416.469 454.363 412.124 447.07C408.132 440.378 404.765 432.84 397.431 429.185C396.567 428.759 395.81 430.049 396.675 430.481V430.523Z" fill="#102067"/>
<path d="M465.037 423.322C467.99 427.079 469.238 431.682 470.847 436.094C472.344 440.062 474.452 443.772 477.095 447.089C479.975 450.798 482.922 454.37 485.041 458.589C487.363 463.286 488.787 468.374 489.242 473.594C489.332 474.548 490.833 474.554 490.743 473.594C489.825 463.643 485.635 455.462 479.501 447.738C476.134 443.689 473.494 439.087 471.699 434.137C470.222 429.936 468.836 425.783 466.045 422.235C465.445 421.479 464.394 422.548 464.989 423.298L465.037 423.322Z" fill="#102067"/>
<path d="M461.824 500.396C463.691 503.067 466.83 503.337 469.771 502.431C473.422 501.285 476.851 499.523 479.908 497.221C486.672 492.054 489.679 482.096 491.186 474.096C491.366 473.154 489.919 472.746 489.739 473.694C488.503 480.242 486.324 487.276 482.315 492.696C480.178 495.589 477.135 497.497 473.948 499.028C470.947 500.492 465.708 503.337 463.145 499.628C462.599 498.842 461.296 499.592 461.848 500.384L461.824 500.396Z" fill="#102067"/>
<path d="M401.261 427.739C396.253 431.4 392.324 436.343 389.887 442.048C388.571 445.074 387.76 448.296 387.487 451.585C387.318 453.896 387.282 457.317 388.975 459.159C390.475 460.792 392.714 460.167 394.275 458.955C396.861 456.944 398.08 453.337 399.352 450.45C402.317 443.716 404.64 436.646 403.842 429.174C403.74 428.225 402.239 428.213 402.341 429.174C402.941 434.701 401.789 440.055 399.874 445.229C398.854 447.99 397.66 450.69 396.381 453.343C395.851 454.599 395.153 455.776 394.305 456.842C393.945 457.251 393.254 458.091 392.732 458.205L389.491 457.082C389.381 456.749 389.295 456.408 389.233 456.062C387.132 445.955 394.245 434.797 402.029 429.054C402.797 428.483 402.029 427.181 401.273 427.757L401.261 427.739Z" fill="#102067"/>
<path d="M403.155 427.908C401.313 423.19 404.998 417.434 408.119 414.025C409.687 412.306 411.496 410.824 413.491 409.626C414.501 408.992 415.57 408.457 416.684 408.029C417.236 407.825 418.166 407.387 418.742 407.513C420.543 407.903 421.287 409.632 421.143 411.276C420.801 415.55 417.584 419.913 414.541 422.728C411.263 425.756 407.191 427.79 402.801 428.592C401.853 428.766 402.255 430.212 403.198 430.038C409.052 428.94 414.321 425.788 418.058 421.15C420.597 417.993 425.044 410.946 421.389 407.183C417.734 403.42 410.436 409.53 407.819 412.147C404.026 415.958 399.53 422.722 401.685 428.31C402.033 429.198 403.486 428.808 403.131 427.908H403.155Z" fill="#102067"/>
<path d="M406.787 437.724C408.804 433.151 412.394 429.452 416.906 427.299C417.77 426.879 417.014 425.582 416.144 426.003C411.404 428.278 407.628 432.165 405.49 436.968C405.1 437.844 406.397 438.607 406.787 437.724Z" fill="#102067"/>
<path d="M411.791 446.351C412.915 443.893 414.548 441.702 416.584 439.924C418.619 438.146 421.01 436.822 423.597 436.039C424.515 435.757 424.125 434.311 423.195 434.593C420.421 435.425 417.854 436.836 415.665 438.732C413.476 440.628 411.714 442.967 410.495 445.594C410.093 446.465 411.383 447.227 411.791 446.351Z" fill="#102067"/>
<g clip-path="url(#clip1_1417_5448)">
<g clip-path="url(#clip2_1417_5448)">
<path d="M302.841 180.199L304.043 187.094C304.134 187.617 304.014 188.154 303.709 188.588C303.404 189.022 302.939 189.317 302.416 189.408L288.624 191.813C288.102 191.904 287.564 191.784 287.131 191.479C286.697 191.174 286.402 190.709 286.311 190.186L283.906 176.394C283.815 175.872 283.935 175.334 284.24 174.9C284.545 174.466 285.01 174.171 285.533 174.08L296.369 172.191" stroke="black" stroke-width="2" stroke-linecap="round" stroke-linejoin="round"/>
</g>
<line x1="95.5978" y1="233.073" x2="306.418" y2="196.318" stroke="#231F20" stroke-width="2"/>
<path d="M101.933 166.496C102.105 165.148 100.556 163.67 98.0424 162.57C98.9807 160.008 98.9928 157.88 97.8791 157.07C97.6132 156.878 97.2996 156.76 96.971 156.729L96.8488 157.65C97.015 157.666 97.1745 157.722 97.3133 157.813C97.8467 158.202 97.9341 159.447 97.5432 161.025C97.445 161.408 97.3201 161.807 97.1619 162.218C96.312 161.906 95.4423 161.648 94.5582 161.446C94.1164 160.656 93.6197 159.896 93.0717 159.174C94.6022 158.082 95.9705 157.548 96.8431 157.651L96.9586 156.725C95.8092 156.588 94.1904 157.207 92.4908 158.445C91.1376 156.869 89.7282 155.883 88.5788 155.747L88.4576 156.674C89.3291 156.772 90.5298 157.608 91.7342 159.006C91.0331 159.582 90.3717 160.204 89.7544 160.867C88.8432 160.851 87.9317 160.897 87.0264 161.006C86.9527 160.583 86.963 160.169 86.9601 159.78C86.9625 158.171 87.3667 156.974 87.973 156.7C88.1302 156.642 88.2996 156.625 88.4651 156.649L88.5816 155.729C88.2521 155.68 87.9148 155.721 87.6062 155.847C86.3428 156.375 85.8122 158.436 86.0883 161.135C83.3773 161.607 81.5157 162.693 81.3478 164.028C81.18 165.364 82.7245 166.855 85.2384 167.955C84.3001 170.517 84.288 172.645 85.4016 173.455C85.6702 173.648 85.9857 173.767 86.3164 173.801C87.4716 173.936 89.0846 173.318 90.789 172.074C92.1375 173.657 93.5459 174.637 94.7019 174.778C95.0317 174.822 95.3678 174.779 95.6764 174.654C96.9455 174.125 97.4703 172.065 97.1943 169.367C99.8995 168.895 101.761 167.81 101.929 166.474L101.933 166.496ZM96.8238 163.084C96.5955 163.6 96.3339 164.128 96.0485 164.653C95.916 164.299 95.7787 163.951 95.6174 163.567C95.4562 163.183 95.3067 162.866 95.1351 162.525C95.7513 162.679 96.2836 162.859 96.8189 163.056L96.8238 163.084ZM94.3415 167.268C93.9424 167.785 93.5394 168.279 93.1286 168.728C92.494 168.705 91.8612 168.659 91.2236 168.584C90.5859 168.509 89.945 168.383 89.3387 168.286C89.0517 167.755 88.7817 167.186 88.5249 166.592C88.2681 165.998 88.0506 165.427 87.8596 164.838C88.1871 164.317 88.5556 163.794 88.9394 163.291C89.3233 162.789 89.7358 162.281 90.1456 161.827C90.7802 161.85 91.4187 161.895 92.0564 161.97C92.6941 162.044 93.3196 162.15 93.9365 162.275C94.2178 162.807 94.4935 163.374 94.7503 163.968C95.0071 164.562 95.218 165.129 95.4146 165.716C95.0757 166.24 94.7187 166.761 94.3358 167.269L94.3415 167.268ZM95.7659 166.886C95.9205 167.469 96.0446 168.046 96.1362 168.604C95.5593 168.676 94.9766 168.714 94.3613 168.734C94.6098 168.435 94.8468 168.138 95.0923 167.822C95.3378 167.507 95.5719 167.193 95.7659 166.886ZM90.9505 170.804C90.5911 170.334 90.2581 169.845 89.9527 169.34C90.329 169.402 90.7099 169.458 91.1013 169.505C91.4927 169.553 91.8879 169.589 92.2983 169.61C91.833 170.052 91.3847 170.455 90.9562 170.803L90.9505 170.804ZM88.1389 167.995C87.5514 167.836 86.9904 167.661 86.4609 167.463C86.6834 166.948 86.9451 166.421 87.2305 165.895C87.362 166.243 87.5003 166.597 87.6615 166.981C87.8228 167.365 87.9731 167.653 88.1389 167.995ZM92.3236 159.716C92.6829 160.186 93.016 160.675 93.3213 161.18C92.9508 161.117 92.5642 161.062 92.1727 161.015C91.7813 160.967 91.3862 160.931 90.9758 160.91C91.4051 160.498 91.8567 160.109 92.3285 159.745L92.3236 159.716ZM88.9128 161.786C88.6633 162.079 88.4273 162.382 88.1818 162.698C87.9363 163.013 87.7012 163.321 87.5129 163.627C87.3583 163.044 87.2342 162.468 87.1426 161.909C87.7204 161.843 88.3032 161.805 88.8899 161.79L88.9128 161.786ZM84.4354 166.527C83.0279 165.721 82.1703 164.791 82.2509 164.138C82.3316 163.485 83.3985 162.777 84.96 162.336C85.3609 162.221 85.7673 162.127 86.1778 162.054C86.3233 162.945 86.5318 163.824 86.8018 164.686C86.3436 165.465 85.9413 166.275 85.5976 167.109C85.195 166.929 84.821 166.745 84.4747 166.549L84.4354 166.527ZM85.9436 172.71C85.4092 172.316 85.3228 171.076 85.7136 169.498C85.8195 169.094 85.9468 168.696 86.095 168.305C86.9449 168.617 87.8146 168.875 88.6987 169.077C89.1405 169.867 89.6372 170.627 90.1852 171.349C88.6547 172.441 87.2864 172.975 86.4138 172.872C86.2493 172.856 86.0917 172.8 85.9551 172.708L85.9436 172.71ZM96.2948 170.731C96.2925 172.34 95.8883 173.537 95.2819 173.811C95.1247 173.869 94.9554 173.887 94.7898 173.862C93.9173 173.759 92.7167 172.923 91.5132 171.53C92.217 170.954 92.8825 170.333 93.5055 169.673C94.4164 169.687 95.3277 169.639 96.2324 169.528C96.2855 169.935 96.3156 170.345 96.3226 170.755L96.2948 170.731ZM98.2577 168.165C97.8757 168.272 97.4668 168.361 97.0456 168.446C96.8939 167.554 96.6852 166.673 96.4207 165.808C96.891 165.038 97.3086 164.237 97.6708 163.412C98.0666 163.587 98.4416 163.777 98.7937 163.972C100.201 164.777 101.059 165.708 100.978 166.361C100.898 167.014 99.8306 167.722 98.2634 168.164L98.2577 168.165Z" fill="#61DAFB"/>
<path d="M91.9613 167.152C93.0132 166.968 93.7194 165.98 93.5387 164.943C93.3579 163.907 92.3588 163.215 91.3069 163.398C90.2551 163.582 89.5488 164.571 89.7295 165.607C89.9103 166.644 90.9095 167.335 91.9613 167.152Z" fill="#61DAFB"/>
<g clip-path="url(#clip3_1417_5448)">
<path d="M289.993 132.699L291.195 139.594C291.287 140.117 291.166 140.654 290.861 141.088C290.556 141.522 290.091 141.817 289.569 141.908L275.777 144.313C275.254 144.404 274.717 144.284 274.283 143.979C273.849 143.674 273.554 143.209 273.463 142.686L271.058 128.894C270.967 128.372 271.087 127.834 271.393 127.4C271.698 126.966 272.163 126.671 272.685 126.58L283.522 124.691" stroke="black" stroke-width="2" stroke-linecap="round" stroke-linejoin="round"/>
</g>
<line x1="84.879" y1="184.7" x2="295.699" y2="147.945" stroke="#231F20" stroke-width="2"/>
<path d="M90.4993 107.467C91.536 108.15 92.259 109.216 92.5095 110.432L94.4018 119.642C94.5253 120.247 94.5285 120.87 94.4111 121.476C94.2937 122.083 94.0581 122.66 93.7177 123.175C93.3773 123.69 92.9388 124.132 92.4272 124.478C91.9156 124.823 91.3409 125.065 90.736 125.188L81.5312 127.074C80.9268 127.198 80.3038 127.202 79.6978 127.085C79.0918 126.969 78.5148 126.734 77.9997 126.394C77.4846 126.054 77.0416 125.616 76.6961 125.104C76.3506 124.593 76.1093 124.019 75.986 123.414L74.0999 114.203C73.9755 113.599 73.9715 112.976 74.0881 112.37C74.2048 111.764 74.4398 111.187 74.7797 110.672C75.1196 110.157 75.5578 109.714 76.0691 109.368C76.5804 109.023 77.1548 108.781 77.7595 108.658L86.9643 106.772C88.1862 106.522 89.4574 106.768 90.4985 107.455L90.4993 107.467ZM90.7453 115.137C90.5714 115.026 90.4214 114.881 90.3042 114.711C90.187 114.541 90.1049 114.35 90.0628 114.148L89.4331 111.094C89.3903 110.891 89.308 110.699 89.1908 110.528C89.0737 110.357 88.9239 110.211 88.7502 110.098C88.5788 109.984 88.3862 109.906 88.1839 109.868C87.9815 109.83 87.7736 109.833 87.5725 109.877L86.039 110.186L87.6095 117.858L79.8946 111.448L78.3615 111.763C78.1592 111.805 77.9673 111.886 77.7973 112.004C77.6272 112.121 77.4826 112.271 77.3719 112.446C77.258 112.617 77.1792 112.81 77.1401 113.012C77.1011 113.214 77.1026 113.422 77.1445 113.624L77.7742 116.677C77.8159 116.879 77.8173 117.087 77.7783 117.29C77.7393 117.492 77.6607 117.685 77.5469 117.856C77.4332 118.028 77.2865 118.176 77.1155 118.291C76.9444 118.406 76.7523 118.486 76.5502 118.526C76.9574 118.443 77.3808 118.525 77.7282 118.753C78.0755 118.981 78.3187 119.337 78.4047 119.743L79.0282 122.798C79.0685 122.999 79.1485 123.191 79.2635 123.362C79.3785 123.533 79.5262 123.679 79.6981 123.792C79.87 123.906 80.0627 123.984 80.265 124.022C80.4672 124.06 80.6751 124.058 80.8765 124.015L82.4095 123.7L80.8395 116.035L88.5791 122.443L90.1121 122.128C90.3147 122.087 90.5069 122.005 90.677 121.888C90.8471 121.771 90.9916 121.62 91.1017 121.445C91.2156 121.274 91.2945 121.081 91.3335 120.879C91.3725 120.677 91.371 120.469 91.3291 120.267L90.6994 117.213C90.6583 117.011 90.6578 116.803 90.6979 116.601C90.738 116.398 90.818 116.206 90.933 116.035C91.0432 115.86 91.1876 115.709 91.3577 115.592C91.5278 115.475 91.72 115.393 91.9226 115.352C91.5153 115.43 91.0935 115.349 90.7445 115.125L90.7453 115.137Z" fill="#3C5AFD"/>
<g clip-path="url(#clip4_1417_5448)">
<path d="M283.438 83.1868L284.641 90.0828C284.732 90.6053 284.612 91.1427 284.307 91.5766C284.001 92.0105 283.537 92.3054 283.014 92.3965L269.222 94.8011C268.699 94.8922 268.162 94.772 267.728 94.4669C267.294 94.1619 266.999 93.6969 266.908 93.1743L264.504 79.3824C264.413 78.8598 264.533 78.3225 264.838 77.8886C265.143 77.4547 265.608 77.1597 266.13 77.0686L276.967 75.1793" stroke="black" stroke-width="2" stroke-linecap="round" stroke-linejoin="round"/>
</g>
<line x1="77.4728" y1="136.253" x2="288.293" y2="99.4976" stroke="#231F20" stroke-width="2"/>
</g>
<path d="M417.974 454.208C420.838 450.091 424.939 446.994 429.683 445.367C430.59 445.049 430.199 443.602 429.287 443.92C424.177 445.669 419.76 449.007 416.683 453.445C416.125 454.244 417.427 454.994 417.974 454.208Z" fill="#102067"/>
<path d="M426.241 463.862C429.094 460.588 432.853 458.234 437.044 457.098C437.231 457.041 437.387 456.913 437.481 456.742C437.575 456.571 437.598 456.371 437.547 456.183C437.496 455.995 437.373 455.834 437.205 455.735C437.038 455.636 436.838 455.606 436.648 455.652C432.209 456.854 428.224 459.344 425.197 462.806C424.56 463.526 425.617 464.606 426.253 463.862H426.241Z" fill="#102067"/>
<path d="M432.295 475.231C435.59 471.596 439.706 468.8 444.299 467.074C445.181 466.72 444.797 465.274 443.897 465.622C439.095 467.549 434.666 470.243 431.233 474.169C430.602 474.895 431.659 475.969 432.295 475.231Z" fill="#102067"/>
<path d="M423.474 383.637C431.565 385.438 435.058 393.396 439.506 399.476C443.707 405.22 450.075 408.479 457.049 409.433C457.991 409.559 458.4 408.113 457.445 407.987C453.588 407.517 449.88 406.214 446.576 404.17C442.795 401.769 440.478 398.324 438.083 394.627C434.602 389.261 430.467 383.649 423.877 382.191C422.934 381.981 422.532 383.427 423.474 383.637Z" fill="#102067"/>
<path d="M433.825 378.763C441.778 386.619 445.379 405.261 459.934 402.915C460.882 402.758 460.48 401.312 459.532 401.468C446.171 403.623 442.264 384.987 434.888 377.7C434.747 377.56 434.556 377.48 434.357 377.48C434.157 377.48 433.966 377.56 433.825 377.7C433.685 377.841 433.605 378.032 433.605 378.232C433.605 378.431 433.685 378.622 433.825 378.763Z" fill="#102067"/>
<path d="M462.782 416.923C458.581 421.629 460.561 428.777 462.698 433.987C465.399 440.589 469.966 446.062 474.306 451.632C479.185 457.886 484.305 464.957 484.851 473.149C485.343 480.489 481.784 489.582 473.292 489.558C470.195 489.558 466.755 489.186 464.517 491.791C462.578 494.048 462.518 497.313 462.716 500.116C462.794 501.07 464.295 501.082 464.217 500.116C463.923 496.364 464.337 491.947 468.796 491.155C471.857 490.615 475.014 491.581 477.973 490.321C482.853 488.238 485.529 482.584 486.184 477.615C488.11 463.174 476.106 452.563 468.682 441.747C466.197 438.231 464.266 434.355 462.956 430.253C461.756 426.304 460.814 421.365 463.845 417.986C464.487 417.265 463.43 416.185 462.782 416.923Z" fill="#102067"/>
<path d="M439.033 484.834C443.019 477.71 450.365 472.662 456.943 468.131C463.712 463.49 470.869 459.442 478.334 456.031C479.21 455.629 478.454 454.339 477.578 454.735C469.569 458.392 461.917 462.786 454.722 467.861C448.402 472.332 441.59 477.2 437.737 484.066C437.269 484.906 438.565 485.663 439.033 484.822V484.834Z" fill="#102067"/>
<path d="M444.552 490.291C450.282 484.315 456.546 478.874 463.266 474.038C466.543 471.697 469.916 469.497 473.385 467.436C475.125 466.416 476.884 465.443 478.661 464.495C479.897 463.829 481.019 463.295 481.614 461.98C481.998 461.104 480.707 460.342 480.317 461.224C479.531 462.989 476.488 463.943 474.873 464.825C473.121 465.81 471.39 466.836 469.682 467.904C466.509 469.877 463.422 471.984 460.421 474.224C454.378 478.739 448.716 483.742 443.489 489.181C442.823 489.877 443.88 490.94 444.552 490.243V490.291Z" fill="#102067"/>
<path d="M402.171 390.31C420.141 391.168 431.868 407.013 438.783 421.952C442.528 430.055 445.385 438.554 449.25 446.608C452.431 453.264 456.716 459.758 463.655 462.903C464.531 463.299 465.293 462.003 464.411 461.607C456.446 458.006 452.263 449.939 448.938 442.281C445.211 433.686 442.108 424.803 437.786 416.473C430.662 402.746 418.646 389.596 402.189 388.81C401.229 388.762 401.229 390.262 402.189 390.31H402.171Z" fill="#102067"/>
<path d="M387.636 393.407C385.986 392.767 384.423 391.922 382.984 390.892C381.634 389.92 379.251 388.281 379.143 386.457C379.083 385.497 377.582 385.491 377.642 386.457C377.768 388.624 379.557 390.1 381.148 391.372C382.988 392.834 385.04 394.008 387.233 394.854C388.134 395.214 388.524 393.761 387.636 393.407Z" fill="#102067"/>
<path d="M379.088 386.709C379.785 385.23 380.606 383.812 381.543 382.472C381.939 381.914 384.364 378.324 385.144 378.583L384.592 377.862V378.084C384.694 379.033 386.194 379.045 386.092 378.084V377.862C386.088 377.7 386.033 377.542 385.935 377.412C385.837 377.282 385.701 377.186 385.546 377.136C383.896 376.59 382.371 379.003 381.513 380.047C380.038 381.859 378.786 383.842 377.786 385.953C377.378 386.817 378.668 387.579 379.082 386.709H379.088Z" fill="#102067"/>
<path d="M385.179 378.307C386.012 382.264 387.773 385.966 390.316 389.11C390.917 389.866 391.973 388.798 391.379 388.048C389.008 385.085 387.378 381.599 386.625 377.88C386.427 376.938 384.981 377.334 385.179 378.283V378.307Z" fill="#102067"/>
<path d="M386.518 378.704C388.725 381.586 390.356 384.867 391.319 388.367C391.377 388.554 391.504 388.71 391.675 388.804C391.846 388.898 392.047 388.921 392.235 388.87C392.422 388.818 392.583 388.696 392.682 388.528C392.781 388.36 392.811 388.161 392.766 387.971C391.767 384.341 390.08 380.936 387.796 377.942C387.196 377.186 385.918 377.942 386.5 378.704H386.518Z" fill="#102067"/>
<path d="M281.214 301.271C286.682 307.429 296.039 305.88 302.491 302.297C311.026 297.556 316.518 289.189 321.697 281.194C322.219 280.384 320.923 279.634 320.401 280.438C315.791 287.569 311.002 294.975 303.794 299.752C297.672 303.81 287.936 306.571 282.289 300.209C281.646 299.488 280.584 300.551 281.226 301.271H281.214Z" fill="#102067"/>
<path d="M296.306 312.045C283.552 339.566 265.423 364.258 242.985 384.669C242.265 385.317 243.333 386.379 244.048 385.731C266.58 365.227 284.788 340.428 297.603 312.79C298.005 311.919 296.708 311.151 296.306 312.027V312.045Z" fill="#102067"/>
<path d="M240.066 389.476C239.751 389.934 239.605 390.488 239.653 391.042C239.701 391.596 239.94 392.117 240.329 392.514C240.719 392.912 241.234 393.162 241.787 393.222C242.34 393.282 242.896 393.148 243.361 392.843C244.214 392.393 243.457 391.096 242.605 391.547C242.424 391.644 242.215 391.68 242.012 391.647C241.808 391.614 241.621 391.516 241.48 391.366C241.338 391.216 241.25 391.024 241.229 390.819C241.208 390.614 241.255 390.408 241.363 390.232C241.463 390.06 241.491 389.855 241.44 389.663C241.39 389.471 241.265 389.306 241.093 389.206C240.921 389.105 240.716 389.078 240.524 389.128C240.331 389.179 240.167 389.304 240.066 389.476Z" fill="#102067"/>
<path d="M246.321 394.198C252.575 398.039 260.401 398.801 267.525 399.822C275.16 400.908 282.836 401.622 290.525 402.072C306.634 403.021 322.773 402.829 338.9 402.637C339.099 402.637 339.29 402.558 339.431 402.417C339.571 402.276 339.65 402.085 339.65 401.886C339.65 401.687 339.571 401.497 339.431 401.356C339.29 401.215 339.099 401.136 338.9 401.136C323.427 401.322 307.936 401.502 292.475 400.68C284.589 400.26 276.714 399.588 268.894 398.507C261.638 397.505 253.445 396.809 247.077 392.901C246.249 392.397 245.499 393.694 246.321 394.198Z" fill="#102067"/>
<path d="M274.853 186.107C274.301 191.909 273.751 197.711 273.202 203.513C270.519 208.579 268.693 214.055 267.801 219.718C266.674 226.862 267.084 234.165 269.001 241.139C270.648 246.996 273.361 252.499 277.002 257.374C276.52 271.416 278.511 285.434 282.884 298.787C292.005 293.093 301.523 288.059 311.363 283.722C325.692 277.514 340.588 272.706 355.843 269.366C361.845 268.027 366.97 267.133 370.667 266.539C377.769 265.679 384.966 266.908 391.38 270.074C391.093 265.313 390.384 260.587 389.261 255.951C384.838 237.688 374.923 224.874 368.081 217.587C365.97 203.037 360.666 189.134 352.548 176.876C344.947 175.389 337.227 174.599 329.482 174.518C310.652 174.415 292.02 178.368 274.853 186.107Z" fill="#FFDE59"/>
<path d="M275.148 187.29C299.469 176.374 326.551 173.171 352.747 178.113C353.689 178.287 354.091 176.847 353.143 176.667C326.557 171.645 299.07 174.9 274.392 185.994C273.51 186.39 274.272 187.686 275.148 187.29Z" fill="#102067"/>
<path d="M352.169 177.843C360.787 189.811 364.172 204.323 367.324 218.476C367.534 219.418 368.98 219.022 368.77 218.08C365.577 203.801 362.168 189.157 353.459 177.087C352.901 176.313 351.598 177.087 352.169 177.843Z" fill="#102067"/>
<path d="M367.204 218.498C380.278 232.993 388.638 251.12 391.175 270.474C391.295 271.423 392.796 271.435 392.676 270.474C390.111 250.732 381.597 232.239 368.266 217.454C367.618 216.739 366.561 217.802 367.204 218.516V218.498Z" fill="#102067"/>
<path d="M272.873 203.008C263.516 219.945 264.741 241.69 276.018 257.433C276.576 258.207 277.879 257.433 277.315 256.677C266.343 241.366 265.053 220.269 274.17 203.764C274.638 202.924 273.341 202.161 272.873 203.008Z" fill="#102067"/>
<path d="M276.406 256.967C276.44 271.504 278.42 285.971 282.294 299.983C282.347 300.175 282.475 300.337 282.648 300.435C282.821 300.533 283.027 300.558 283.218 300.505C283.41 300.452 283.573 300.324 283.671 300.151C283.769 299.978 283.794 299.772 283.741 299.581C279.902 285.7 277.94 271.368 277.907 256.967C277.907 256.768 277.828 256.577 277.687 256.437C277.546 256.296 277.355 256.217 277.156 256.217C276.958 256.217 276.767 256.296 276.626 256.437C276.485 256.577 276.406 256.768 276.406 256.967Z" fill="#102067"/>
<path d="M283.765 300.082C299.38 289.428 316.471 281.118 334.493 275.415C343.385 272.608 352.47 270.455 361.676 268.975C371.279 267.426 381.566 266.472 390.725 270.535C391.602 270.925 392.364 269.629 391.488 269.239C378.109 263.309 362.078 266.88 348.418 270.055C325.017 275.49 302.833 285.233 282.997 298.786C282.205 299.326 282.955 300.629 283.753 300.082H283.765Z" fill="#102067"/>
<path d="M274.503 185.915C273.092 191.589 272.504 197.437 272.756 203.278C272.798 204.239 274.299 204.245 274.256 203.278C274.004 197.573 274.575 191.86 275.949 186.317C276.002 186.125 275.977 185.92 275.879 185.747C275.781 185.573 275.619 185.446 275.427 185.393C275.235 185.339 275.03 185.364 274.857 185.462C274.683 185.56 274.556 185.723 274.503 185.915Z" fill="#102067"/>
<path d="M281.611 183.543C275.624 207.859 273.974 233.041 276.738 257.931C276.84 258.885 278.346 258.891 278.238 257.931C275.472 233.177 277.097 208.128 283.04 183.939C283.268 183.003 281.839 182.601 281.593 183.543H281.611Z" fill="#102067"/>
<path d="M289.954 181.277C284.433 219.089 282.2 257.747 289.618 295.451C289.804 296.399 291.251 295.997 291.065 295.049C283.7 257.633 285.921 219.185 291.401 181.673C291.539 180.73 290.092 180.322 289.954 181.277Z" fill="#102067"/>
<path d="M300.045 178.396C298.752 196.73 298.352 215.1 298.844 233.506C299.096 242.709 299.58 251.886 300.297 261.037C300.969 269.685 301.575 278.442 304.114 286.785C304.396 287.709 305.842 287.313 305.56 286.389C302.872 277.56 302.325 268.233 301.647 259.074C300.991 250.239 300.547 241.388 300.315 232.522C299.843 214.472 300.243 196.43 301.515 178.396C301.587 177.43 300.087 177.436 300.015 178.396H300.045Z" fill="#102067"/>
<path d="M312.041 176.084C309.426 210.918 311.53 245.946 318.295 280.217C318.481 281.165 319.928 280.763 319.742 279.821C313.012 245.679 310.927 210.784 313.542 176.084C313.614 175.118 312.113 175.124 312.041 176.084Z" fill="#102067"/>
<path d="M325.618 175.772C325.173 208.932 326.044 242.393 333.912 274.803C334.14 275.74 335.587 275.343 335.359 274.401C327.52 242.129 326.662 208.8 327.118 175.772C327.118 175.573 327.039 175.382 326.898 175.241C326.758 175.101 326.567 175.021 326.368 175.021C326.169 175.021 325.978 175.101 325.837 175.241C325.697 175.382 325.618 175.573 325.618 175.772Z" fill="#102067"/>
<path d="M338.541 175.526C342.283 206.876 346.548 238.152 351.337 269.354C351.487 270.308 352.934 269.9 352.79 268.958C348.02 237.888 343.771 206.744 340.042 175.526C339.928 174.578 338.427 174.566 338.541 175.526Z" fill="#102067"/>
<path d="M349.289 177.631L370.607 267.06C370.83 267.996 372.276 267.6 372.054 266.658L350.735 177.241C350.513 176.305 349.067 176.701 349.289 177.643V177.631Z" fill="#102067"/>
<path d="M375.522 228.936C379.455 241.823 382.675 254.917 385.167 268.158C385.347 269.107 386.794 268.705 386.614 267.756C384.124 254.516 380.904 241.424 376.968 228.54C376.686 227.615 375.234 228.012 375.522 228.936Z" fill="#102067"/>
<path d="M275.322 186.105C272.783 186.862 271.175 189.941 268.264 195.516C266.598 198.751 265.251 202.14 264.243 205.636C261.572 214.038 257.718 219.902 252.713 227.525C248.749 233.55 244.267 239.217 239.317 244.462C239.941 246.339 240.567 248.221 241.195 250.11L233.195 261.405C228.933 258.11 224.6 254.509 220.255 250.602C205.585 237.308 192.761 222.111 182.124 205.414C182.956 201.695 183.507 197.919 183.775 194.118C184.309 186.442 183.445 181.946 183.067 180.236C182.281 176.634 181.2 171.701 178.595 171.287C177.005 171.041 175.414 172.571 174.358 173.88C169.61 166.353 166.087 160.075 163.771 155.754C161.142 150.88 157.241 143.306 151.293 133.871C146.251 125.864 142.998 121.687 140.939 122.335C139.649 122.743 138.797 125.054 138.587 126.572C138.473 127.413 138.509 128.325 139.055 130.336C139.572 132.286 140.281 134.18 141.173 135.989C142.92 139.279 147.734 148.948 154.378 162.11C153.54 161.148 152.441 160.45 151.215 160.1C149.989 159.749 148.687 159.761 147.468 160.134C146.249 160.508 145.163 161.226 144.343 162.203C143.524 163.18 143.004 164.373 142.848 165.639C141.243 165.3 139.571 165.552 138.136 166.347C137.065 167.011 136.193 167.952 135.613 169.071C135.033 170.19 134.766 171.445 134.841 172.703C133.627 172.934 132.54 173.603 131.786 174.582C130.814 175.974 131.012 177.631 131.312 179.293C132.018 183.114 133.204 186.831 134.841 190.355C138.01 197.017 139.703 197.983 140.495 198.355C141.896 198.985 143.44 199.23 144.967 199.064C146.826 202.689 149.109 206.082 151.767 209.171C154.094 211.866 156.697 214.31 159.533 216.463C171.687 233.238 182.569 247.847 191.776 260.007C214.583 290.161 195.209 263.122 211.546 283.54C211.546 283.54 214.109 286.745 227.547 298.599C229.083 299.956 232.108 302.561 236.49 303.071C238.303 303.282 240.141 303.123 241.891 302.603C244.82 301.714 246.693 299.986 248.95 297.663C253.547 292.903 255.84 290.527 258.367 286.361C261.23 281.633 263.298 276.467 264.489 271.068C269.53 273.243 275.009 274.209 280.49 273.889C282.891 270.288 286.198 265.175 289.901 258.825C295.759 248.795 298.688 243.778 300.026 238.586C303.123 226.582 299.69 216.067 298.375 212.226C293.652 198.307 281.942 184.137 275.322 186.105Z" fill="white"/>
<path d="M273.989 186.498C270.076 189.439 268.131 193.766 266.301 198.172C263.948 203.831 261.583 209.491 258.93 215.019C253.817 225.672 247.593 235.846 238.878 243.936C238.17 244.596 239.232 245.653 239.94 244.998C248.127 237.394 254.183 227.953 259.147 217.99C261.547 213.116 263.75 208.129 265.857 203.111C268.101 197.769 269.926 191.401 274.758 187.776C275.52 187.206 274.758 185.904 274.001 186.48L273.989 186.498Z" fill="#102067"/>
<path d="M238.752 245.404C245.888 261.963 260.989 275.798 279.973 274.886C280.934 274.844 280.94 273.343 279.973 273.385C261.469 274.273 246.963 260.739 240.043 244.648C239.664 243.766 238.374 244.528 238.752 245.404Z" fill="#102067"/>
<path d="M280.527 274.905C286.229 269.149 289.638 261.449 293.275 254.331C297.225 246.606 300.868 238.726 303.34 230.395C303.394 230.203 303.369 229.998 303.271 229.825C303.173 229.651 303.01 229.524 302.818 229.471C302.627 229.417 302.421 229.443 302.248 229.54C302.075 229.638 301.947 229.801 301.894 229.993C299.457 238.204 295.892 245.964 291.979 253.568C288.378 260.567 285.065 268.195 279.471 273.843C278.787 274.533 279.849 275.595 280.527 274.905Z" fill="#102067"/>
<path d="M301.279 237.597C303.46 236.781 305.4 235.429 306.921 233.666C307.521 232.94 306.495 231.865 305.865 232.604C304.527 234.183 302.814 235.401 300.883 236.145C299.989 236.487 300.373 237.945 301.279 237.597Z" fill="#102067"/>
<path d="M242.111 249.583C251.114 242.711 257.716 233.48 262.818 223.469C265.367 218.386 267.659 213.177 269.684 207.864C272.085 201.736 274.101 195.344 278.261 190.128C278.861 189.378 277.799 188.328 277.198 189.066C273.639 193.531 271.545 198.753 269.546 204.071C267.427 209.652 265.207 215.198 262.59 220.57C257.452 231.133 250.778 241.102 241.355 248.299C240.593 248.899 241.355 250.177 242.111 249.595V249.583Z" fill="#102067"/>
<path d="M246.265 255.633C256.414 248.977 263.49 238.828 268.94 228.174C274.672 216.969 277.259 203.536 285.895 194.041C286.544 193.327 285.487 192.241 284.833 192.979C276.658 201.982 274.03 214.268 268.862 224.969C263.406 236.301 256.186 247.332 245.509 254.337C244.704 254.865 245.455 256.137 246.265 255.633Z" fill="#102067"/>
<path d="M252.492 263.069C263.896 260.891 270.378 249.217 275.149 239.734C281.217 227.694 285.575 214.868 292.165 203.086C292.266 202.914 292.294 202.709 292.244 202.516C292.194 202.323 292.07 202.158 291.898 202.057C291.726 201.956 291.521 201.927 291.328 201.977C291.135 202.027 290.969 202.152 290.868 202.324C284.716 213.319 280.497 225.257 275.047 236.559C270.324 246.378 263.932 259.366 252.096 261.617C251.148 261.797 251.55 263.243 252.498 263.063L252.492 263.069Z" fill="#102067"/>
<path d="M265.763 271.365C269.886 268.412 272.833 264.397 275.468 260.118C278.733 254.812 281.794 249.368 284.795 243.913C290.937 232.733 296.627 221.319 301.864 209.672C302.261 208.801 300.964 208.039 300.568 208.916C295.586 219.963 290.203 230.813 284.417 241.464C281.596 246.642 278.683 251.769 275.678 256.847C272.767 261.756 269.718 266.69 265.001 270.051C264.226 270.603 265.001 271.906 265.763 271.341V271.365Z" fill="#102067"/>
<path d="M263.226 272.359C260.648 281.691 255.698 290.198 248.858 297.051C247.213 298.689 245.455 300.442 243.414 301.588C240.299 303.335 237.274 302.818 234.165 301.39C229.738 299.277 225.642 296.532 222.005 293.239C214.593 286.721 208.441 278.835 202.199 271.2C195.245 262.714 188.443 254.111 181.793 245.392C174.306 235.609 167.012 225.696 159.91 215.653C159.351 214.872 158.055 215.617 158.613 216.409C172.31 235.795 186.688 254.669 201.749 273.031C208.477 281.224 215.139 289.836 223.482 296.438C227.173 299.373 231.356 302.224 235.87 303.707C240.383 305.189 244.122 303.353 247.549 300.352C255.805 292.997 261.753 283.407 264.673 272.743C264.718 272.553 264.688 272.354 264.589 272.186C264.49 272.018 264.329 271.896 264.142 271.844C263.954 271.793 263.753 271.816 263.582 271.91C263.411 272.004 263.284 272.161 263.226 272.347V272.359Z" fill="#102067"/>
<path d="M181.74 206.544C189.371 218.278 198.105 229.255 207.825 239.326C212.71 244.388 217.836 249.2 223.202 253.761C228.537 258.304 234.155 262.548 238.489 268.118C239.089 268.88 240.139 267.805 239.551 267.055C235.308 261.606 229.834 257.452 224.6 252.987C219.366 248.521 214.289 243.864 209.481 238.9C199.61 228.75 190.753 217.66 183.037 205.788C182.515 204.977 181.236 205.728 181.74 206.544Z" fill="#102067"/>
<path d="M234.618 261.27L242.192 249.818C242.726 249.014 241.43 248.258 240.896 249.062L233.321 260.514C232.787 261.324 234.09 262.074 234.618 261.27Z" fill="#102067"/>
<path d="M182.947 206.29C184.196 197.45 185.444 188.453 184.028 179.552C183.553 176.551 182.923 172.644 179.826 171.209C177.203 170.009 175.265 171.569 173.746 173.64C173.146 174.414 174.473 175.165 175.037 174.396C176.405 172.536 178.488 171.707 180.27 173.46C181.405 174.576 181.801 176.083 182.143 177.595C182.826 180.809 183.166 184.087 183.157 187.372C183.217 193.584 182.365 199.754 181.501 205.888C181.369 206.837 182.815 207.245 182.947 206.29Z" fill="#102067"/>
<path d="M158.889 215.469C153.766 210.567 149.41 204.922 145.967 198.723C144.953 196.893 140.787 185.813 137.432 188.916C136.718 189.57 137.78 190.633 138.489 189.978C139.359 189.174 143.26 196.815 143.656 197.577C147.284 204.644 152.075 211.051 157.827 216.531C158.523 217.197 159.585 216.141 158.889 215.469Z" fill="#102067"/>
<path d="M144.492 198.591C140.89 199.719 138.388 194.767 136.875 192.247C135.245 189.532 133.89 186.66 132.83 183.676C131.677 180.417 130.087 173.701 135.831 174.349C139.03 174.709 142.019 178.706 144.233 180.801C144.936 181.467 145.998 180.411 145.296 179.745C142.475 177.05 138.844 172.194 134.384 172.777C130.507 173.281 129.667 177.458 130.369 180.675C131.395 185.393 133.718 190.08 136.293 194.125C138.19 197.09 140.776 201.328 144.912 200.037C145.83 199.749 145.434 198.303 144.51 198.591H144.492Z" fill="#102067"/>
<path d="M136.123 173.437C136.075 171.451 136.057 169.386 137.551 167.892C139.406 166.037 142.083 166.403 144.274 167.459C145.688 168.171 146.993 169.081 148.151 170.16C148.829 170.761 151.242 173.071 151.152 173.491L152.076 172.969L151.902 172.921L152.43 173.84L152.466 173.719C152.754 172.795 151.302 172.399 151.02 173.323L150.984 173.443C150.934 173.635 150.96 173.839 151.057 174.011C151.155 174.184 151.316 174.312 151.506 174.368L151.674 174.416C151.866 174.466 152.069 174.439 152.242 174.342C152.415 174.245 152.542 174.084 152.598 173.894C152.934 172.327 150.492 170.292 149.501 169.374C147.539 167.52 145.114 165.773 142.425 165.227C141.436 164.991 140.406 164.982 139.414 165.201C138.421 165.421 137.491 165.862 136.693 166.493C134.689 168.228 134.569 170.983 134.623 173.437C134.623 173.636 134.702 173.827 134.842 173.968C134.983 174.109 135.174 174.188 135.373 174.188C135.572 174.188 135.763 174.109 135.903 173.968C136.044 173.827 136.123 173.636 136.123 173.437Z" fill="#102067"/>
<path d="M143.238 165.729C144.109 161.606 148.376 160.051 151.809 162.404C154.474 164.235 156.719 166.87 158.765 169.336C159.366 170.081 160.44 169.018 159.828 168.28C157.253 165.171 153.652 160.387 149.312 159.787C145.633 159.271 142.536 161.816 141.792 165.327C141.594 166.269 143.04 166.671 143.238 165.729Z" fill="#102067"/>
<path d="M174.07 172.29L158.171 144.52C155.855 140.48 153.616 136.381 151.143 132.432C149.12 129.209 146.612 124.875 143.419 122.667C141.018 121.016 138.671 122.469 137.951 125.109C136.985 128.711 138.887 132.408 140.262 135.601C144.295 144.964 148.843 154.097 153.886 162.957C153.994 163.112 154.156 163.22 154.341 163.26C154.525 163.301 154.717 163.27 154.88 163.175C155.043 163.08 155.164 162.926 155.219 162.746C155.274 162.565 155.258 162.371 155.176 162.201C151.175 155.139 147.476 147.913 144.079 140.522C142.428 136.921 140.34 133.128 139.475 129.239C139.211 128.038 138.905 126.136 139.607 125.001C140.742 123.201 142.854 124.107 144.001 125.337C145.428 126.888 146.742 128.538 147.932 130.277C152.379 136.687 155.987 143.727 159.858 150.485L172.78 173.041C172.886 173.202 173.05 173.316 173.237 173.359C173.425 173.403 173.622 173.372 173.788 173.274C173.954 173.176 174.076 173.018 174.129 172.833C174.181 172.647 174.16 172.449 174.07 172.278V172.29Z" fill="#102067"/>
<path d="M294.995 61.8494C293.741 62.0775 293.333 65.4506 292.594 72.2567C291.955 77.8187 291.674 83.4161 291.754 89.0141C294.501 92.2576 298.348 94.3751 302.557 94.962L303.758 97.1227C300.841 97.6137 298.01 98.5255 295.355 99.8295C283.952 105.471 279.216 117.019 276.293 124.161C274.148 129.342 272.734 134.796 272.092 140.366C271.594 144.928 271.005 150.312 272.77 156.86C273.844 160.863 275.663 167.603 281.827 172.537C288.321 177.746 297.888 179.535 305.889 176.456C315.089 172.921 318.631 164.332 322.094 155.911C328.57 140.228 325.929 126.394 324.53 119.552C323.024 112.205 320.683 100.796 312.497 97.6508C310.987 97.0804 309.381 96.8053 307.767 96.8406L309.256 94.8119C310.94 95.1865 312.662 95.3677 314.387 95.3521C317.01 95.3521 319.303 95.3521 320.743 93.8696C321.776 92.8193 321.884 91.5169 322.094 89.6683C322.382 87.1415 323.582 79.6631 323.582 79.6631C323.906 74.7355 324.218 70.06 324.53 65.0665C323.565 65.2408 322.644 65.6082 321.824 66.1468C319.711 67.5452 318.937 69.7479 318.583 70.7443C317.136 74.7235 314.981 78.4207 313.445 82.364C312.515 84.7647 311.044 88.2638 308.986 92.5072L305.985 91.0187C305.768 89.3502 305.384 86.9614 304.784 84.1225C302.581 73.8653 297.654 61.4053 294.995 61.8494Z" fill="white"/>
<path d="M273.846 131.898L265.605 149.904L272.514 153.679C271.594 146.4 272.046 139.012 273.846 131.898Z" fill="#102067"/>
<path d="M277.208 126.561C278.774 126.609 280.605 130.12 279.266 131.411C278.318 132.329 275.719 132.173 274.807 130.955C273.594 129.352 275.773 126.513 277.208 126.561Z" fill="#102067"/>
<path d="M275.756 141.788C276.16 141.788 276.488 140.12 276.488 138.061C276.488 136.003 276.16 134.334 275.756 134.334C275.351 134.334 275.023 136.003 275.023 138.061C275.023 140.12 275.351 141.788 275.756 141.788Z" fill="#102067"/>
<path d="M295.479 138.578C292.981 138.198 290.573 137.366 288.373 136.124C280.18 131.46 277.978 122.553 277.521 120.489L274.676 126.947C274.518 126.438 274.388 125.921 274.286 125.398C274.058 124.15 273.848 122.043 274.809 118.292C275.459 115.468 276.551 112.763 278.044 110.279C279.082 108.569 283.643 101.054 292.772 98.5216C295.251 97.8355 297.828 97.5737 300.395 97.7473C298.744 100.357 297.359 103.126 296.259 106.012C291.104 119.582 293.649 132.264 295.479 138.578Z" fill="#FFDE59"/>
<path d="M295.871 139.742C296.295 134.183 297.291 128.682 298.842 123.327C301.56 114.027 305.898 105.28 311.656 97.4887C314.62 96.8614 317.678 96.8166 320.659 97.3567C321.859 97.5727 325.461 98.341 330.742 101.882C334.103 104.127 339.661 108.52 344.955 116.887C347.692 121.208 348.61 123.825 351.677 131.099C355.386 139.898 358.141 145.786 363.435 157.076C369.821 170.7 373.092 177.608 376.873 182.284C379.152 184.891 381.186 187.704 382.947 190.686C385.654 195.429 387.573 200.58 388.631 205.937L375.318 192.733C380.692 202.199 384.695 212.38 387.208 222.971C385.966 224.261 384.207 225.972 382.041 227.88C377.009 232.133 371.552 235.856 365.757 238.99C349.222 247.62 327.489 248.245 325.184 248.293C323.023 247.307 320.949 246.141 318.984 244.806C308.097 237.423 303.187 226.68 301.021 220.516C300.919 223.475 300.907 226.626 301.021 229.945C301.117 232.754 301.297 235.425 301.537 237.957C300.065 235.288 298.77 232.525 297.66 229.687C295.133 223.217 294.059 217.617 293.266 211.729C291.268 197.114 289.701 185.639 292.624 170.916C293.642 165.757 295.112 160.698 297.017 155.797C298.359 156.374 299.826 156.597 301.279 156.445C302.512 156.275 303.698 155.855 304.764 155.211C305.83 154.567 306.754 153.713 307.479 152.7C310.708 148.325 308.643 143.061 308.517 142.749C308.037 141.585 306.867 138.746 303.866 137.708C301.249 136.765 298.176 137.575 295.871 139.742Z" fill="#FFDE59"/>
<path d="M276.846 121.046C268.005 139.484 267.171 173.359 292.901 178.239C293.843 178.419 294.245 176.972 293.297 176.792C268.617 172.111 269.698 139.412 278.142 121.803C278.557 120.938 277.26 120.176 276.846 121.046Z" fill="#102067"/>
<path d="M298.245 140.517C299.716 137.829 303.089 137.559 305.375 139.389C307.662 141.22 308.376 144.341 308.124 147.192C307.914 149.844 307.098 152.695 304.823 154.304C303.786 155.031 302.581 155.484 301.321 155.618C300.062 155.752 298.788 155.565 297.621 155.072C296.739 154.7 295.976 155.99 296.865 156.369C298.317 157.017 299.915 157.269 301.496 157.1C303.078 156.93 304.586 156.344 305.868 155.402C308.869 153.175 309.841 149.046 309.691 145.457C309.547 142.012 307.89 138.411 304.487 137.084C303.128 136.535 301.614 136.501 300.232 136.991C298.85 137.481 297.695 138.46 296.985 139.743C296.517 140.589 297.813 141.346 298.275 140.499L298.245 140.517Z" fill="#102067"/>
<path d="M296.342 139.719C294.213 132.936 293.54 125.78 294.368 118.719C295.195 111.658 297.504 104.851 301.144 98.7438C301.244 98.5719 301.272 98.3672 301.221 98.1747C301.17 97.9822 301.045 97.8177 300.874 97.7175C300.702 97.6172 300.497 97.5893 300.304 97.6399C300.112 97.6906 299.947 97.8156 299.847 97.9876C296.103 104.265 293.724 111.262 292.867 118.521C292.009 125.78 292.692 133.138 294.872 140.115C295.16 141.033 296.606 140.643 296.318 139.719H296.342Z" fill="#102067"/>
<path d="M301.302 98.539C304.453 97.6627 308.018 96.8944 311.247 97.7707C311.437 97.8162 311.636 97.7862 311.804 97.687C311.972 97.5878 312.094 97.4273 312.146 97.2394C312.197 97.0514 312.174 96.8508 312.08 96.68C311.986 96.5093 311.83 96.3817 311.643 96.3242C308.156 95.3759 304.315 96.1442 300.9 97.0865C300.722 97.1523 300.576 97.2824 300.489 97.4511C300.403 97.6198 300.383 97.8148 300.434 97.9975C300.484 98.1802 300.602 98.3372 300.762 98.4375C300.923 98.5377 301.116 98.574 301.302 98.539Z" fill="#102067"/>
<path d="M310.32 96.9079C302.655 110.286 294.853 124.367 295.063 140.242C295.063 140.441 295.142 140.632 295.283 140.772C295.423 140.913 295.614 140.992 295.813 140.992C296.012 140.992 296.203 140.913 296.343 140.772C296.484 140.632 296.563 140.441 296.563 140.242C296.359 124.637 304.09 110.832 311.616 97.6702C311.717 97.4983 311.746 97.2932 311.696 97.1002C311.646 96.9072 311.521 96.7419 311.349 96.6408C311.177 96.5398 310.972 96.5111 310.779 96.5612C310.586 96.6113 310.421 96.736 310.32 96.9079Z" fill="#102067"/>
<path d="M304.958 95.8578C303.968 94.4353 304.562 92.4187 306.38 92.1306C307.233 91.9925 308.103 92.2626 308.259 93.1929C308.411 94.1588 308.21 95.1471 307.695 95.9778C307.605 96.1483 307.584 96.3468 307.637 96.5322C307.689 96.7176 307.811 96.8757 307.977 96.9737C308.143 97.0717 308.34 97.1021 308.528 97.0586C308.715 97.0151 308.879 96.901 308.985 96.7401C309.382 96.0917 309.64 95.3682 309.743 94.6152C309.847 93.8622 309.793 93.0959 309.585 92.3647C309.171 91.0262 307.677 90.4981 306.38 90.6181C305.716 90.6836 305.08 90.9224 304.536 91.3106C303.993 91.6988 303.561 92.2228 303.283 92.8303C303.005 93.4378 302.892 94.1075 302.954 94.7725C303.016 95.4375 303.252 96.0746 303.637 96.62C304.184 97.4063 305.486 96.656 304.934 95.8638L304.958 95.8578Z" fill="#102067"/>
<path d="M307.047 91.008C305.695 85.0304 303.977 79.1415 301.903 73.3744C300.999 70.8616 300.025 68.3768 298.98 65.9201C298.182 64.0295 297.588 61.8508 295.451 61.2026C295.34 61.1734 295.224 61.1699 295.112 61.1923C294.999 61.2146 294.893 61.2623 294.802 61.3317C294.71 61.4011 294.636 61.4904 294.584 61.5928C294.532 61.6952 294.505 61.8081 294.503 61.9228C293.75 67.8133 294.925 73.789 297.852 78.9562C298.32 79.8025 299.616 79.0462 299.148 78.2C296.364 73.2583 295.258 67.5465 295.997 61.9228L295.043 62.649C296.453 63.0752 297.006 65.0798 297.504 66.2502C298.076 67.6026 298.628 68.963 299.16 70.3315C300.049 72.6122 300.881 74.9169 301.657 77.2457C303.206 81.8971 304.502 86.6206 305.594 91.4042C305.804 92.3465 307.257 91.9443 307.041 91.008H307.047Z" fill="#102067"/>
<path d="M294.481 61.7401C293.046 65.8928 292.091 70.1962 291.636 74.5661C291.167 78.5514 290.435 82.9268 290.825 86.9421C291.492 94.3004 299.27 93.106 303.687 96.8692C304.42 97.4694 305.488 96.4371 304.75 95.8069C302.895 94.2284 300.705 93.5442 298.43 92.806C294.607 91.5276 292.212 89.805 292.29 85.4116C292.416 77.6511 293.298 69.4945 295.927 62.1662C296.251 61.2539 294.805 60.8638 294.481 61.7641V61.7401Z" fill="#102067"/>
<path d="M310.261 92.4882C312.061 87.5126 313.862 82.531 316.022 77.7175C317.001 75.5568 318.057 73.4321 319.221 71.3675C320.524 69.0748 321.934 66.1218 324.737 65.4736L323.891 65.1255C324.491 66.3259 322.558 69.1168 322.03 70.2091L319.882 74.6505C319.467 75.5148 320.758 76.277 321.178 75.4068C322.378 72.892 323.651 70.3952 324.827 67.8624C325.427 66.626 325.824 65.6477 325.181 64.3693C325.096 64.2285 324.968 64.1192 324.815 64.0575C324.662 63.9959 324.494 63.9852 324.335 64.0271C319.66 65.1075 317.313 71.5055 315.476 75.3467C312.975 80.8109 310.752 86.3977 308.814 92.0861C308.484 92.9984 309.936 93.3885 310.261 92.4882Z" fill="#102067"/>
<path d="M324.467 65.9426C323.862 72.2206 323.044 78.4726 322.012 84.6986C321.778 86.109 321.532 87.5255 321.274 88.9359C321.046 90.1723 321.016 91.9369 320.313 93.0352C318.723 95.496 311.743 94.1936 309.39 93.9715C308.43 93.8755 308.436 95.376 309.39 95.472C312.493 95.7661 316.634 96.5163 319.635 95.4C322.306 94.4097 322.372 91.2586 322.804 88.8639C324.177 81.2615 325.231 73.621 325.967 65.9426C326.063 64.9823 324.563 64.9883 324.467 65.9426Z" fill="#102067"/>
<path d="M300.253 96.3056C296.432 96.4698 292.685 97.4212 289.248 99.1001C285.811 100.779 282.757 103.149 280.279 106.062C277.8 108.976 275.949 112.369 274.842 116.031C273.735 119.692 273.395 123.543 273.845 127.341C273.959 128.284 275.459 128.296 275.345 127.341C274.898 123.741 275.2 120.087 276.232 116.609C277.265 113.13 279.005 109.903 281.344 107.13C283.683 104.356 286.57 102.096 289.824 100.492C293.078 98.8871 296.629 97.9728 300.253 97.806C301.214 97.764 301.22 96.2635 300.253 96.3056Z" fill="#102067"/>
<path d="M278.047 121.845L278.557 120.896L277.159 120.518C276.756 124.912 280.243 129.437 283.16 132.408C286.359 135.642 290.32 138.02 294.678 139.322C295.602 139.604 295.998 138.152 295.08 137.876C291.212 136.721 287.674 134.664 284.757 131.874C281.942 129.167 278.281 124.672 278.659 120.512C278.731 119.762 277.603 119.51 277.261 120.134L276.75 121.082C276.288 121.929 277.585 122.685 278.047 121.839V121.845Z" fill="#102067"/>
<path d="M312.083 98.1087C331.361 95.936 343.503 113.864 350.453 129.175C354.498 138.093 358.202 147.18 362.073 156.183C365.72 164.553 370.065 172.602 375.061 180.245C380.331 188.419 385.624 196.726 387.707 206.359C387.911 207.301 389.357 206.899 389.153 205.957C387.281 197.308 382.857 189.656 378.146 182.273C372.93 174.105 368.015 166.068 364.131 157.143C359.966 147.582 356.059 137.901 351.75 128.4C348.028 120.226 343.617 111.997 336.925 105.821C330.233 99.6452 321.32 95.5579 312.083 96.6022C311.135 96.7102 311.123 98.2107 312.083 98.1027V98.1087Z" fill="#102067"/>
<path d="M296.462 155.359C293.461 161.961 292.321 169.085 291.841 176.276C291.343 183.628 291.193 191.04 291.409 198.405C291.829 212.587 294.103 226.884 301.012 239.464C301.48 240.31 302.77 239.554 302.308 238.707C295.538 226.361 293.305 212.299 292.921 198.405C292.723 191.622 292.867 184.816 293.245 178.046C293.659 170.544 294.638 163.041 297.771 156.115C298.161 155.245 296.87 154.483 296.474 155.359H296.462Z" fill="#102067"/>
<path d="M303.255 239.176C301.769 232.806 301.267 226.246 301.767 219.724C301.839 218.764 300.338 218.77 300.266 219.724C299.766 226.38 300.286 233.073 301.809 239.572C302.031 240.514 303.477 240.118 303.255 239.176Z" fill="#102067"/>
<path d="M300.683 220.455C305.03 232.892 313.785 243.304 325.291 249.721C326.138 250.189 326.894 248.898 326.054 248.424C314.872 242.215 306.356 232.121 302.118 220.053C301.8 219.153 300.317 219.543 300.671 220.455H300.683Z" fill="#102067"/>
<path d="M325.578 249.127C348.253 247.992 371.937 241.882 387.368 224.105C387.998 223.379 386.941 222.304 386.305 223.048C371.132 240.526 347.893 246.51 325.578 247.626C324.618 247.674 324.612 249.175 325.578 249.127Z" fill="#102067"/>
<path d="M375.188 193.689C380.313 203.158 384.275 213.212 386.987 223.632C387.041 223.824 387.168 223.987 387.341 224.085C387.515 224.183 387.72 224.208 387.912 224.154C388.104 224.101 388.266 223.974 388.364 223.8C388.462 223.627 388.487 223.422 388.434 223.23C385.684 212.686 381.67 202.513 376.478 192.933C376.022 192.08 374.726 192.836 375.182 193.689H375.188Z" fill="#102067"/>
<path d="M375.711 193.633C380.253 197.681 384.415 202.135 388.147 206.939C388.747 207.696 389.797 206.627 389.209 205.877C385.477 201.073 381.312 196.621 376.767 192.577C376.053 191.934 374.967 192.991 375.711 193.633Z" fill="#102067"/>
<path d="M54.1289 88.9711L279.801 56.8789" stroke="#231F20" stroke-width="1.80057" stroke-miterlimit="10" stroke-linecap="round"/>
</g>
<defs>
<clipPath id="clip0_1417_5448">
<rect width="525.557" height="502.9" fill="white" transform="translate(0.5)"/>
</clipPath>
<clipPath id="clip1_1417_5448">
<rect width="221" height="93" fill="white" transform="translate(71.5 107.957) rotate(-9.88986)"/>
</clipPath>
<clipPath id="clip2_1417_5448">
<rect width="24" height="24" fill="white" transform="translate(280.094 171.984) rotate(-9.88986)"/>
</clipPath>
<clipPath id="clip3_1417_5448">
<rect width="24" height="24" fill="white" transform="translate(267.246 124.484) rotate(-9.88986)"/>
</clipPath>
<clipPath id="clip4_1417_5448">
<rect width="24" height="24" fill="white" transform="translate(260.691 74.9727) rotate(-9.88986)"/>
</clipPath>
</defs>
</svg>
