<svg width="505" height="541" viewBox="0 0 505 541" fill="none" xmlns="http://www.w3.org/2000/svg">
<g clip-path="url(#clip0_1417_5000)">
<path d="M489.287 0.0898438C500.84 140.826 505.104 282.065 502.065 423.242C338.232 383.93 168.491 375.607 1.59766 398.703L16.7399 97.1867C17.9222 73.6437 11.0978 30.9896 33.9218 15.3773C55.0448 0.926469 93.2668 7.08014 116.976 6.69295L357.225 2.43377C368.288 2.24018 489.287 0.442471 489.287 0.0898438Z" fill="white" stroke="black" stroke-width="2.07428" stroke-miterlimit="10"/>
<path d="M46.2969 68.4852L411.217 66.3556C425.647 66.2726 440.458 66.1136 453.885 60.8242" stroke="black" stroke-width="2.07428" stroke-miterlimit="10"/>
<path d="M90.1722 27.9461C88.7678 27.0084 87.1728 26.3941 85.5023 26.1476C83.8317 25.9011 82.1273 26.0285 80.5119 26.5207C78.8966 27.0128 77.4107 27.8574 76.1613 28.9935C74.912 30.1296 73.9305 31.5289 73.2876 33.0903C71.2686 37.9856 73.0248 43.9388 76.8346 47.6103C80.6443 51.2817 86.1343 52.8651 91.4237 52.7061C95.3855 52.5816 99.5064 51.4477 102.293 48.6267C105.079 45.8056 106.082 41.021 103.821 37.7575C101.401 34.3003 96.4641 33.6988 92.2672 34.3003" stroke="black" stroke-width="2.07428" stroke-miterlimit="10"/>
<path d="M350.493 31.0032L350.002 39.5354C336.367 39.4179 322.11 40.4273 308.586 39.0376C307.051 30.0491 313.585 30.215 320.34 30.8926C323.285 31.1899 350.451 31.7154 350.493 31.0032Z" fill="black"/>
<path d="M364.832 41.008C378.68 40.1362 392.577 40.4439 406.373 41.9276C406.837 40.2823 407.045 38.575 406.988 36.8663C406.955 36.0127 406.73 35.1775 406.329 34.4232C405.928 33.6689 405.361 33.015 404.672 32.5103C403.483 31.7498 402.01 31.6322 400.606 31.5423C391.784 30.9546 382.961 30.284 374.139 29.7723C365.067 29.2606 365.351 32.6832 364.832 41.008Z" fill="black"/>
<path d="M431.709 46.533C435.629 46.8511 440.068 45.6411 442.018 42.2255C446.353 34.6198 435.187 27.4013 428.549 30.008C419.173 33.7002 422.222 45.7725 431.709 46.533Z" stroke="black" stroke-width="2.07428" stroke-miterlimit="10"/>
<path d="M251.354 134.826C254.452 135.075 257.951 134.135 259.492 131.424C262.908 125.423 254.099 119.719 248.865 121.779C241.46 124.69 243.887 134.218 251.354 134.826Z" fill="black"/>
<path d="M196.673 214.308C199.77 214.557 203.269 213.617 204.811 210.906C208.233 204.905 199.424 199.207 194.183 201.268C186.778 204.179 189.212 213.706 196.673 214.308Z" fill="black"/>
<path d="M159.016 199.574C162.114 199.823 165.613 198.882 167.155 196.172C170.577 190.17 161.761 184.473 156.527 186.533C149.108 189.451 151.549 198.979 159.016 199.574Z" fill="black"/>
<path d="M347.487 161.545C350.585 161.794 354.083 160.854 355.625 158.144C359.082 152.142 350.239 146.438 344.998 148.464C337.593 151.423 340.02 160.951 347.487 161.545Z" fill="black"/>
<path d="M301.064 197.665C304.155 197.914 307.66 196.974 309.195 194.264C312.652 188.262 303.809 182.565 298.568 184.625C291.17 187.536 293.618 197.064 301.064 197.665Z" fill="black"/>
<path d="M72.2763 108.305L70.7344 316.493L432.647 314.19" stroke="black" stroke-width="2.07428" stroke-miterlimit="10"/>
<path d="M100.5 301.859L101.374 266L120.5 266.942L119.817 307" fill="#17161A"/>
<path d="M100.5 301.859L101.374 266L120.5 266.942L119.817 307" stroke="black" stroke-width="2.07428" stroke-miterlimit="10"/>
<path d="M145.5 303.05L146.245 220.084L167.126 219L169.5 304" fill="#17161A"/>
<path d="M145.5 303.05L146.245 220.084L167.126 219L169.5 304" stroke="black" stroke-width="2.07428" stroke-miterlimit="10"/>
<path d="M185.5 305C189.114 288.671 190.712 271.888 190.252 255.096L209.323 255L209.5 303.281" fill="#17161A"/>
<path d="M185.5 305C189.114 288.671 190.712 271.888 190.252 255.096L209.323 255L209.5 303.281" stroke="black" stroke-width="2.07428" stroke-miterlimit="10"/>
<path d="M236.773 298.776C229.32 253.459 229.771 207.158 238.104 162L260.5 163.245C258.075 208.496 255.65 253.748 253.225 299" fill="#17161A"/>
<path d="M236.773 298.776C229.32 253.459 229.771 207.158 238.104 162L260.5 163.245C258.075 208.496 255.65 253.748 253.225 299" stroke="black" stroke-width="2.07428" stroke-miterlimit="10"/>
<path d="M286.5 294.278L288.721 230.47C292.045 228.869 295.509 227.243 299.212 227.021C302.915 226.799 306.991 228.327 308.62 231.593C309.71 233.8 309.551 236.38 309.371 238.823L304.225 307" fill="#17161A"/>
<path d="M286.5 294.278L288.721 230.47C292.045 228.869 295.509 227.243 299.212 227.021C302.915 226.799 306.991 228.327 308.62 231.593C309.71 233.8 309.551 236.38 309.371 238.823L304.225 307" stroke="black" stroke-width="2.07428" stroke-miterlimit="10"/>
<path d="M337.468 297.178C330.301 268.458 329.583 238.926 335.348 210H359.5C352.688 240.674 350.823 271.936 353.953 303" fill="#17161A"/>
<path d="M337.468 297.178C330.301 268.458 329.583 238.926 335.348 210H359.5C352.688 240.674 350.823 271.936 353.953 303" stroke="black" stroke-width="2.07428" stroke-miterlimit="10"/>
<path d="M385.079 301.727L383.573 280.584C383.424 278.552 383.342 276.369 385.011 274.673C388.042 271.586 394.798 271.773 400.267 272.318C400.685 282.882 401.096 293.442 401.5 304" fill="#17161A"/>
<path d="M385.079 301.727L383.573 280.584C383.424 278.552 383.342 276.369 385.011 274.673C388.042 271.586 394.798 271.773 400.267 272.318C400.685 282.882 401.096 293.442 401.5 304" stroke="black" stroke-width="2.07428" stroke-miterlimit="10"/>
<path d="M110.711 255.392L152.335 196.51C153.749 194.508 155.886 193.136 158.295 192.684C160.704 192.232 163.194 192.737 165.237 194.09L185.751 207.649C186.793 208.338 187.961 208.813 189.188 209.047C190.415 209.281 191.676 209.269 192.898 209.012C194.12 208.755 195.279 208.257 196.307 207.548C197.336 206.84 198.213 205.934 198.888 204.883L243.748 134.71C244.587 133.396 245.74 132.31 247.101 131.551C248.463 130.791 249.992 130.381 251.551 130.357C253.111 130.333 254.651 130.696 256.036 131.413C257.421 132.131 258.606 133.18 259.485 134.468L294.402 185.571C295.171 186.698 296.176 187.643 297.346 188.344C298.516 189.044 299.824 189.482 301.18 189.628C302.536 189.774 303.907 189.624 305.2 189.189C306.492 188.753 307.675 188.043 308.666 187.106L340.354 157.119C341.417 156.117 342.697 155.374 344.096 154.95C345.494 154.527 346.972 154.434 348.412 154.678C349.853 154.923 351.217 155.499 352.397 156.36C353.577 157.222 354.541 158.346 355.213 159.643L390.206 227.34C391.001 228.877 392.203 230.166 393.681 231.065C395.159 231.965 396.856 232.442 398.586 232.443H432.645" stroke="black" stroke-width="2.07428" stroke-miterlimit="10"/>
<path d="M204.526 456.783L206.268 489.882C203.18 493.731 200.665 498.007 198.801 502.576C196.111 509.214 195.516 514.766 194.825 521.245C194.232 526.781 194.065 532.354 194.327 537.915C204.929 538.288 215.713 538.537 226.679 538.662C257.178 538.994 286.501 538.247 314.524 536.67C314.142 532.465 313.395 528.301 312.291 524.225C310.832 518.463 308.569 512.935 305.57 507.803C304.381 505.805 302.286 502.963 298.103 497.349C295.524 493.892 293.353 491.043 291.88 489.135L289.64 463.504L204.526 456.783Z" fill="white"/>
<path d="M204.083 463.904L205.272 491.277C205.314 492.211 206.766 492.211 206.724 491.277L205.542 463.904C205.5 462.97 204.041 462.963 204.083 463.904Z" fill="black"/>
<path d="M205.309 490.014C194.246 504.105 193.423 522.103 193.554 539.305C193.554 539.498 193.631 539.683 193.767 539.819C193.903 539.955 194.088 540.031 194.28 540.031C194.473 540.031 194.658 539.955 194.794 539.819C194.93 539.683 195.006 539.498 195.006 539.305C194.875 522.545 195.511 504.796 206.332 491.037C206.899 490.345 205.876 489.274 205.302 490.014H205.309Z" fill="black"/>
<path d="M289.469 468.468C289.973 474.878 289.6 482.179 291.073 488.437C292.186 493.152 297.69 497.038 300.449 500.882C307.907 511.362 312.441 523.638 313.586 536.449C313.669 537.376 315.121 537.383 315.038 536.449C314.068 525.471 310.677 514.845 305.109 505.335C302.391 500.723 299.004 496.983 295.74 492.806C290.693 486.342 291.591 476.42 290.955 468.468C290.879 467.535 289.427 467.528 289.496 468.468H289.469Z" fill="black"/>
<path d="M273.925 481.203C278.889 485.414 275.944 494.693 278.557 500.363C280.334 504.214 283.757 506.869 288.078 506.586C289.005 506.523 289.012 505.071 288.078 505.127C278.855 505.707 278.634 494.624 278.136 488.187C277.901 485.075 277.444 482.268 274.948 480.166C274.257 479.558 273.206 480.588 273.925 481.19V481.203Z" fill="black"/>
<path d="M183.431 342.312C180.043 342.624 177.768 345.313 175.058 348.598C172.088 352.265 169.761 356.41 168.178 360.857C166.22 366.181 164.819 371.693 163.995 377.306C162.909 383.667 161.672 392.067 160.704 402.128C158.381 407.355 156.251 411.517 154.723 414.387C151.224 420.934 149.06 424.067 146.35 430.234C145.107 433.069 144.008 435.965 143.059 438.912C144.282 441.096 145.791 443.107 147.546 444.892C151.111 448.458 155.543 451.034 160.406 452.367C159.005 458.964 158.204 465.676 158.014 472.418C157.873 477.51 158.072 482.605 158.609 487.671C160.517 507.224 163.629 530.048 164.59 537.011C167.547 538.163 170.688 538.771 173.862 538.809C178.816 538.83 183.68 537.483 187.918 534.916C187.974 525.367 188.271 517.63 188.513 512.486C188.651 509.617 188.727 508.566 189.709 492.151C190.594 477.528 190.732 475.045 190.594 470.904C190.421 465.087 189.82 459.291 188.796 453.563C195.098 452.373 201.101 449.943 206.455 446.413C205.688 433.498 204.948 422.601 204.381 414.414C201.118 368.732 201.968 397.516 200.198 374.312C199.341 363.104 198.905 353.258 192.122 346.503C190.712 345.113 187.441 341.946 183.431 342.312Z" fill="white"/>
<path d="M174.472 348.553C167.461 357.41 164.536 368.162 162.794 379.156C160.72 392.41 159.213 405.824 158.12 419.189C158.044 420.123 159.503 420.123 159.572 419.189C160.616 406.46 162.068 393.71 163.963 381.078C165.643 369.877 168.332 358.641 175.503 349.584C176.076 348.858 175.053 347.82 174.472 348.553Z" fill="black"/>
<path d="M159.925 399.623C157.159 414.026 146.47 425.116 142.674 439.18C142.652 439.352 142.693 439.527 142.789 439.672C142.886 439.817 143.031 439.922 143.198 439.969C143.366 440.016 143.544 440.001 143.702 439.928C143.86 439.854 143.985 439.726 144.056 439.567C147.845 425.51 158.514 414.427 161.308 400.011C161.487 399.091 160.084 398.704 159.925 399.623Z" fill="black"/>
<path d="M142.927 440.189C148.811 449.647 160.835 454.183 171.455 455.441C183.548 456.876 195.762 454.039 205.985 447.421C206.773 446.916 206.04 445.658 205.252 446.169C196.113 452.106 185.305 454.943 174.428 454.259C163.414 453.568 150.291 449.281 144.185 439.449C143.687 438.661 142.429 439.387 142.927 440.189Z" fill="black"/>
<path d="M198.953 372.485C202.461 396.989 204.592 421.67 205.335 446.413C205.335 447.346 206.822 447.353 206.794 446.413C206.036 421.538 203.887 396.726 200.357 372.091C200.218 371.165 198.822 371.559 198.974 372.479L198.953 372.485Z" fill="black"/>
<path d="M146.178 432.382C151.619 442.532 163.643 447.068 174.526 448.334C186.557 449.716 198.858 445.948 205.952 435.708C206.484 434.934 205.226 434.208 204.693 434.968C197.731 445.028 185.472 448.354 173.78 446.764C163.602 445.381 152.525 441.157 147.429 431.649C146.987 430.827 145.728 431.56 146.171 432.382H146.178Z" fill="black"/>
<path d="M159.682 452.434C156.529 465.654 157.283 479.144 158.645 492.537C160.125 507.056 161.826 521.576 163.589 536.096C163.699 537.009 165.151 537.023 165.041 536.096C163.354 522.206 161.743 508.301 160.291 494.383C158.839 480.464 157.815 466.532 161.086 452.828C161.307 451.915 159.903 451.528 159.703 452.441L159.682 452.434Z" fill="black"/>
<path d="M189.147 454.267C190.848 467.328 189.838 480.506 189.147 493.609C188.483 507.267 187.824 520.918 187.169 534.562C187.121 535.502 188.552 535.495 188.621 534.562C189.285 520.913 189.944 507.262 190.599 493.609C191.235 480.472 192.265 467.334 190.564 454.267C190.447 453.347 188.988 453.34 189.112 454.267H189.147Z" fill="black"/>
<path d="M149.755 424.023C152.199 429.756 154.066 435.718 155.328 441.821C155.522 442.74 156.925 442.353 156.711 441.434C155.412 435.21 153.494 429.132 150.986 423.291C150.619 422.426 149.368 423.173 149.734 424.023H149.755Z" fill="black"/>
<path d="M156.245 412.99C159.066 417.519 159.875 423.264 160.912 428.429C162.053 434.113 162.931 439.845 163.608 445.604C163.712 446.524 165.171 446.531 165.06 445.604C164.369 439.713 163.484 433.85 162.295 428.042C161.223 422.697 160.4 416.979 157.455 412.257C156.957 411.462 155.699 412.195 156.196 412.99H156.245Z" fill="black"/>
<path d="M161.304 395.205C168.999 411.516 173.483 429.154 174.511 447.159C174.559 448.086 176.018 448.093 175.963 447.159C174.916 428.899 170.365 411.012 162.556 394.472C162.162 393.622 160.903 394.362 161.304 395.205Z" fill="black"/>
<path d="M164.693 373.481C177.889 395.629 186.199 420.342 189.065 445.963C189.169 446.883 190.628 446.89 190.517 445.963C187.64 420.087 179.264 395.124 165.951 372.748C165.854 372.582 165.694 372.46 165.508 372.411C165.321 372.362 165.122 372.388 164.955 372.486C164.789 372.583 164.667 372.742 164.618 372.929C164.569 373.116 164.596 373.314 164.693 373.481Z" fill="black"/>
<path d="M170.79 355.992C188.768 380.51 195.972 410.414 202.133 439.655C202.326 440.574 203.723 440.187 203.516 439.267C197.334 409.882 190.102 379.846 172.028 355.232C171.482 354.485 170.217 355.232 170.77 355.964L170.79 355.992Z" fill="black"/>
<path d="M179.471 346.895C191.848 360.032 197.165 377.498 201.839 394.541C201.91 394.7 202.036 394.828 202.193 394.902C202.351 394.975 202.529 394.99 202.697 394.943C202.864 394.896 203.01 394.791 203.106 394.646C203.202 394.501 203.243 394.327 203.222 394.154C198.478 376.868 193.037 359.216 180.474 345.865C179.831 345.173 178.807 346.211 179.45 346.895H179.471Z" fill="black"/>
<path d="M310.71 345.814C313.647 347.913 316.217 350.483 318.315 353.42C321.586 358.039 322.747 362.326 323.764 366.225C327.02 378.712 328.652 384.956 329.482 389.914C331.267 400.558 332.451 411.294 333.029 422.072C337.109 427.074 339.997 432.941 341.471 439.226C340.033 440.786 338.487 442.244 336.845 443.589C335.725 444.508 334.626 445.317 333.575 446.037C334.266 450.558 335.11 456.408 336.03 463.191C336.652 467.83 338.208 479.605 339.839 495.059C341.022 506.267 342.28 519.742 343.379 535.092L325.679 535.908C323.549 529.962 320.839 521.9 318.073 512.213C315.423 503.439 313.242 494.53 311.539 485.524C309.728 475.539 308.635 465.436 308.269 455.295C305.343 456.133 302.323 456.598 299.28 456.678C292.717 456.786 286.238 455.185 280.48 452.031C281.027 443.928 281.739 435.568 282.665 426.974C283.944 415.005 285.514 403.555 287.291 392.659L282.928 376.576C283.039 374.356 283.924 360.798 295.18 352.065C299.699 348.621 305.065 346.462 310.71 345.814Z" fill="white"/>
<path d="M310.329 346.896C316.856 350.049 319.601 356.818 321.793 363.317C323.995 369.925 325.784 376.663 327.152 383.493C330.132 398.013 331.563 412.844 332.994 427.606C333.084 428.532 334.536 428.539 334.446 427.606C332.89 411.516 331.328 395.358 327.795 379.552C325.319 368.489 322.554 351.162 311.069 345.61C310.225 345.202 309.486 346.46 310.329 346.868V346.896Z" fill="black"/>
<path d="M333.325 422.286C336.133 428.113 338.652 434.059 340.883 440.125C341.208 440.996 342.611 440.623 342.266 439.738C339.993 433.547 337.426 427.486 334.563 421.553C334.155 420.71 332.904 421.443 333.305 422.286H333.325Z" fill="black"/>
<path d="M285.058 384.274C286.698 386.211 287.964 388.436 288.792 390.835C289.096 391.72 290.5 391.34 290.175 390.448C289.26 387.815 287.868 385.372 286.068 383.243C285.466 382.552 284.436 383.561 285.038 384.274H285.058Z" fill="black"/>
<path d="M286.534 390.917C285.469 411.037 279.959 430.681 280.125 450.891C280.125 451.084 280.201 451.268 280.337 451.404C280.474 451.541 280.658 451.617 280.851 451.617C281.043 451.617 281.228 451.541 281.364 451.404C281.5 451.268 281.577 451.084 281.577 450.891C281.418 430.681 286.928 411.037 287.993 390.917C288.042 389.983 286.61 389.983 286.534 390.917Z" fill="black"/>
<path d="M280.346 452.156C286.728 459.403 301.372 457.536 309.753 456.063C321.489 453.967 332.455 448.784 341.523 441.045C342.215 440.437 341.205 439.413 340.493 440.015C332.41 446.892 322.78 451.708 312.428 454.051C307.402 455.182 302.258 455.707 297.106 455.614C291.803 455.51 285.131 455.392 281.376 451.126C280.754 450.435 279.731 451.451 280.346 452.156Z" fill="black"/>
<path d="M281.507 445.352C289.873 450.842 301.635 449.874 310.969 447.765C321.444 445.356 331.111 440.261 339.02 432.982C339.711 432.353 338.681 431.33 337.99 431.959C330.647 438.709 321.746 443.533 312.082 446.002C302.838 448.339 290.599 449.583 282.24 444.1C281.452 443.582 280.726 444.84 281.507 445.352Z" fill="black"/>
<path d="M282.463 433.013C286.175 437.355 289.314 442.156 291.804 447.298C292.219 448.141 293.471 447.401 293.063 446.565C290.51 441.317 287.293 436.418 283.493 431.989C282.885 431.298 281.855 432.308 282.463 433.013Z" fill="black"/>
<path d="M283.493 420.532C290.901 428.628 296.93 437.885 301.339 447.933C301.712 448.791 302.963 448.051 302.59 447.201C298.117 437.056 292.012 427.713 284.516 419.544C283.887 418.852 282.857 419.882 283.493 420.567V420.532Z" fill="black"/>
<path d="M285.942 409.767C298.869 419.054 309.01 431.7 315.265 446.337C315.631 447.194 316.883 446.454 316.516 445.597C310.146 430.754 299.836 417.938 286.702 408.536C285.942 407.99 285.209 409.228 285.969 409.795L285.942 409.767Z" fill="black"/>
<path d="M288.389 394.017C303.736 406.677 316.06 422.606 324.46 440.64C324.854 441.483 326.106 440.75 325.712 439.9C317.258 421.753 304.856 405.725 289.412 392.987C288.721 392.399 287.663 393.422 288.389 394.017Z" fill="black"/>
<path d="M290.803 380.726C301.306 385.953 308.434 396.089 315.169 405.34C322.149 414.961 328.518 425.011 334.238 435.431C334.688 436.254 335.946 435.521 335.49 434.698C329.2 423.235 322.124 412.222 314.311 401.738C307.936 393.171 301.278 384.287 291.543 379.433C290.706 379.018 289.966 380.269 290.81 380.691L290.803 380.726Z" fill="black"/>
<path d="M290.811 362.747C308.092 373.17 321.643 388.782 329.531 407.358C329.897 408.215 331.149 407.476 330.789 406.618C322.784 387.81 309.05 372.006 291.544 361.454C291.377 361.357 291.178 361.33 290.992 361.38C290.805 361.429 290.645 361.55 290.548 361.717C290.451 361.884 290.424 362.083 290.473 362.269C290.523 362.456 290.644 362.616 290.811 362.713V362.747Z" fill="black"/>
<path d="M333.766 448.36C338.057 476.755 341.023 505.304 342.664 534.007C342.713 534.934 344.172 534.941 344.116 534.007C342.471 505.202 339.488 476.524 335.169 447.973C335.024 447.053 333.627 447.448 333.786 448.36H333.766Z" fill="black"/>
<path d="M307.165 456.093C308.327 483.453 316.748 509.582 325.266 535.393C325.557 536.278 326.96 535.898 326.649 535.006C318.193 509.333 309.779 483.322 308.617 456.093C308.575 455.16 307.123 455.153 307.165 456.093Z" fill="black"/>
<path d="M175.129 349.465L173.863 363.011C175.218 368.593 176.689 374.262 178.275 380.02C182.423 395.072 187.007 409.26 191.82 422.549C190.34 427.562 188.95 432.92 187.726 438.611C185.499 448.991 184.025 459.519 183.315 470.112C187.798 473.869 192.665 477.141 197.835 479.875C202.08 482.143 211.339 486.513 229.316 489.327C243.656 491.546 256.24 493.476 272.184 490.585C293.134 486.762 308.477 476.598 317.541 469.151C317.189 467.077 316.594 463.869 315.654 460.017C313.69 451.976 311.941 448.173 309.984 441.432C308.489 436.263 307.334 431.001 306.527 425.681C307.91 414.114 309.459 404.738 310.62 398.28C313.704 381.188 316.152 373.271 314.402 361.42C313.652 356.336 312.278 351.364 310.309 346.617C302.852 341.364 294.666 337.229 286.012 334.344C277.95 331.716 269.586 330.129 261.121 329.622C252.382 328.93 246.304 329.352 234.66 330.251C217.036 331.634 208.22 332.325 199.066 335.602C190.343 338.799 182.243 343.49 175.129 349.465Z" fill="#FFDE59"/>
<path d="M173.405 361.837C177.981 383.999 184.513 405.712 192.924 426.72C193.27 427.578 194.68 427.204 194.307 426.333C185.891 405.326 179.359 383.613 174.788 361.45C174.594 360.53 173.191 360.917 173.405 361.837Z" fill="black"/>
<path d="M191.044 421.859C186.674 437.617 183.951 453.786 182.92 470.106C182.858 471.04 184.303 471.04 184.372 470.106C185.401 453.917 188.108 437.877 192.448 422.246C192.469 422.073 192.428 421.899 192.332 421.754C192.236 421.609 192.091 421.503 191.923 421.457C191.756 421.41 191.577 421.424 191.419 421.498C191.262 421.572 191.136 421.7 191.065 421.859H191.044Z" fill="black"/>
<path d="M183.139 470.952C201.586 486.308 225.641 491.694 249.163 492.324C275.002 493.015 299.236 487.256 318.575 469.299C319.267 468.656 318.236 467.633 317.545 468.269C298.496 485.956 274.607 491.549 249.163 490.872C226.063 490.249 202.298 485.022 184.169 469.921C183.478 469.327 182.42 470.35 183.139 470.952Z" fill="black"/>
<path d="M175.672 350.186C192.37 334.567 216.591 332.009 238.399 330.612C263.027 329.029 289.184 331.165 309.387 346.777C310.12 347.344 311.157 346.321 310.417 345.747C289.875 329.844 263.477 327.549 238.399 329.153C216.169 330.577 191.644 333.253 174.642 349.156C173.951 349.799 174.988 350.829 175.672 350.186Z" fill="black"/>
<path d="M314.027 355.876C312.771 383.264 309.221 410.498 303.414 437.292C303.214 438.204 304.617 438.599 304.797 437.679C310.632 410.757 314.201 383.394 315.466 355.876C315.507 354.936 314.083 354.943 314.007 355.876H314.027Z" fill="black"/>
<path d="M306.064 425.488C306.893 440.416 315.204 453.491 316.843 468.253C316.947 469.173 318.406 469.187 318.302 468.253C316.656 453.491 308.345 440.396 307.523 425.488C307.467 424.562 306.015 424.555 306.064 425.488Z" fill="black"/>
<path d="M184.461 462.632C224.501 485.511 275.279 486.141 315.887 464.292C316.709 463.849 315.977 462.591 315.154 463.033C275.003 484.64 224.778 483.99 185.166 461.381C185 461.283 184.802 461.256 184.616 461.305C184.43 461.353 184.271 461.474 184.174 461.64C184.076 461.806 184.049 462.004 184.098 462.19C184.146 462.376 184.267 462.535 184.433 462.632H184.461Z" fill="black"/>
<path d="M185.463 450.67C188.917 455.754 191.797 461.206 194.05 466.925C194.389 467.782 195.799 467.409 195.433 466.538C193.137 460.699 190.199 455.133 186.673 449.944C186.154 449.176 184.889 449.902 185.421 450.677L185.463 450.67Z" fill="black"/>
<path d="M188.58 432.334C195.089 444.826 200.601 457.812 205.064 471.171C205.361 472.056 206.765 471.676 206.447 470.784C201.956 457.306 196.408 444.205 189.853 431.601C189.417 430.771 188.159 431.504 188.594 432.334H188.58Z" fill="black"/>
<path d="M185.94 405.3C194.804 415.188 200.992 427.592 207.291 439.18C213.707 450.99 219.37 463.186 222.744 476.234C222.815 476.392 222.941 476.52 223.099 476.594C223.256 476.668 223.435 476.683 223.603 476.636C223.77 476.589 223.915 476.483 224.011 476.339C224.108 476.194 224.149 476.019 224.127 475.846C220.718 462.675 215 450.367 208.529 438.447C202.161 426.693 195.903 414.247 186.942 404.249C186.32 403.558 185.29 404.581 185.919 405.28L185.94 405.3Z" fill="black"/>
<path d="M180.541 386.714C188.147 392.508 194.155 400.405 200.226 407.734C206.144 414.883 211.862 422.212 217.062 429.908C227.191 444.884 235.239 461.25 238.939 479.04C239.125 479.953 240.529 479.566 240.321 478.653C236.477 460.164 227.959 443.204 217.311 427.723C212.139 420.214 206.504 413.037 200.675 406.026C194.674 398.821 188.762 391.167 181.253 385.456C180.506 384.889 179.78 386.147 180.52 386.714H180.541Z" fill="black"/>
<path d="M175.222 360.793C195.522 374 210.713 393.235 224.928 412.505C239.745 432.556 250.622 454.682 256.271 479.048C256.485 479.961 257.888 479.573 257.653 478.661C251.825 453.514 240.451 431.001 225.108 410.348C211.01 391.368 195.964 372.568 175.941 359.542C175.153 359.03 174.42 360.289 175.201 360.793H175.222Z" fill="black"/>
<path d="M181.559 344.925C205.696 357.515 225.512 376.225 239.97 399.243C255.022 423.208 269.093 449.406 273.325 477.706C273.463 478.626 274.866 478.238 274.707 477.319C270.386 448.403 255.825 421.362 240.254 397.003C225.935 374.459 205.951 356.068 182.298 343.666C181.469 343.238 180.729 344.489 181.559 344.925Z" fill="black"/>
<path d="M202.577 335.943C216.835 339.67 227.828 352.081 237.405 362.632C265.482 393.604 284.738 431.54 293.168 472.486C293.362 473.405 294.765 473.018 294.551 472.106C285.843 429.87 265.689 390.843 236.291 359.293C226.992 349.336 216.586 338.121 202.965 334.56C202.792 334.539 202.617 334.58 202.473 334.676C202.328 334.772 202.222 334.917 202.175 335.085C202.128 335.252 202.143 335.431 202.217 335.589C202.291 335.746 202.419 335.872 202.577 335.943Z" fill="black"/>
<path d="M228.718 331.123C241.212 336.89 251.037 346.846 259.735 357.218C268.343 367.602 275.878 378.831 282.228 390.731C294.929 414.239 303.461 439.781 310.016 465.633C310.087 465.792 310.213 465.92 310.37 465.993C310.528 466.067 310.707 466.082 310.874 466.035C311.042 465.988 311.187 465.883 311.283 465.738C311.379 465.593 311.42 465.418 311.399 465.246C304.685 438.75 295.876 412.587 282.684 388.567C276.441 377.086 269.093 366.242 260.745 356.187C251.943 345.671 242.007 335.659 229.403 329.837C228.559 329.45 227.819 330.701 228.67 331.095L228.718 331.123Z" fill="black"/>
<path d="M256.419 330.826C263.334 332.582 269.045 341.888 273.345 347.199C278.557 353.573 283.427 360.22 287.934 367.112C296.702 380.381 303.507 394.848 308.138 410.063C308.209 410.222 308.335 410.35 308.492 410.423C308.65 410.497 308.829 410.512 308.996 410.465C309.164 410.418 309.309 410.313 309.405 410.168C309.501 410.023 309.542 409.848 309.521 409.676C304.632 393.22 296.909 377.87 287.333 363.613C282.646 356.688 277.606 350.01 272.232 343.603C268.084 338.639 263.423 331.116 256.779 329.429C256.688 329.403 256.593 329.396 256.499 329.407C256.406 329.419 256.315 329.448 256.233 329.495C256.151 329.541 256.079 329.603 256.02 329.677C255.962 329.751 255.919 329.836 255.894 329.927C255.868 330.018 255.861 330.112 255.872 330.206C255.884 330.3 255.913 330.39 255.959 330.472C256.006 330.555 256.068 330.627 256.142 330.685C256.216 330.743 256.301 330.786 256.392 330.812L256.419 330.826Z" fill="black"/>
<path d="M285.353 334.553C299.714 347.691 307.168 365.944 311.628 384.544C311.849 385.449 313.252 385.062 313.01 384.156C308.482 365.329 300.876 346.819 286.349 333.523C285.658 332.894 284.627 333.917 285.319 334.553H285.353Z" fill="black"/>
<path d="M242.45 223.621C240.714 223.517 237.188 223.358 234.955 220.855C233.634 219.383 233.309 217.709 232.977 215.926C232.562 213.651 232.417 210.698 233.966 203.888C234.617 200.59 235.542 197.352 236.732 194.208C238.668 189.301 241.33 184.712 244.628 180.594C245.026 183.117 245.552 185.619 246.204 188.089C246.536 189.34 247.767 193.883 251.528 202.491C253.125 206.135 255.331 210.864 258.242 216.32L263.172 217.308C265.979 214.045 268.185 211.307 269.685 209.412C272.029 206.439 274.449 203.521 276.786 200.534C278.743 198.038 280.347 195.943 283.299 194.222C286.438 192.389 287.842 192.873 288.229 193.039C289.612 193.62 290.2 195.148 290.794 196.787C291.483 198.75 291.818 200.819 291.783 202.899C291.831 207.241 291.873 210.422 290.794 214.743C290.111 217.477 289.118 220.124 287.835 222.632C286.633 223.652 285.307 224.514 283.887 225.198C279.738 227.196 275.853 227.085 273.232 226.975C248.119 225.931 253.665 224.271 242.45 223.621Z" fill="black"/>
<path d="M259.224 223.512C257.039 222.246 254.63 221.41 252.13 221.05C246.481 220.255 242.105 222.267 237.375 224.431C232.541 226.547 228.16 229.575 224.473 233.351C221.157 236.872 218.455 240.925 216.48 245.34C213.943 250.913 214.372 252.946 211.564 265.018C210.472 269.727 209.4 273.592 207.257 281.315C205.058 289.246 203.62 294.452 201.414 300.993C198.842 308.647 198.593 308.142 194.963 318.209C192.64 324.64 190.075 331.803 187.579 340.964C185.567 348.363 184.371 352.767 183.582 358.485C182.358 367.68 182.566 377.01 184.198 386.142C184.605 378.799 187.171 371.739 191.575 365.849L191.271 387.974C194.566 389.605 197.953 391.043 201.414 392.282C213.245 396.506 222.89 397.302 229.701 397.813C241.728 398.604 253.807 397.882 265.655 395.663C271.598 394.588 277.472 393.159 283.244 391.383C284.06 386.571 284.879 381.754 285.699 376.932C286.114 381.242 286.524 385.547 286.93 389.848C289.594 389.613 292.145 388.657 294.307 387.082C295.779 385.995 297.032 384.639 298 383.086C301.553 371.111 302.383 358.493 300.426 346.157L305.654 360.608C306.71 354.107 307.019 347.507 306.573 340.937C306.241 335.979 305.716 334.714 303.496 321.259C301.844 311.233 300.731 303.62 300.115 299.133C298.829 290.055 298.179 285.519 297.661 280.382C296.098 265.129 297.191 264.078 295.503 256.092C293.996 248.936 292.572 242.547 287.511 236.103C283.896 231.265 278.998 227.537 273.371 225.344C268.858 223.659 264.018 223.032 259.224 223.512Z" fill="#FFDE59"/>
<path d="M259.673 222.679C248.61 215.896 231.532 225.901 223.429 233.7C217.745 239.163 215.007 246.146 212.981 253.641C210.485 262.823 208.487 272.13 206.198 281.36C201.621 299.863 194.444 317.197 188.38 335.201C182.814 351.706 179.392 369.247 183.72 386.45C183.791 386.609 183.917 386.737 184.074 386.81C184.232 386.884 184.411 386.899 184.578 386.852C184.746 386.805 184.891 386.7 184.987 386.555C185.083 386.41 185.124 386.235 185.103 386.063C176.764 353.068 196.912 321.573 205.292 290.708C207.477 282.667 209.337 274.536 211.28 266.432C213.14 258.695 214.599 250.35 218.194 243.18C221.617 236.376 227.446 231.515 234.021 227.885C241.205 223.917 251.113 219.146 258.912 223.93C259.078 224.028 259.276 224.055 259.462 224.006C259.648 223.958 259.808 223.837 259.905 223.671C260.002 223.505 260.029 223.307 259.981 223.121C259.932 222.935 259.811 222.776 259.645 222.679H259.673Z" fill="black"/>
<path d="M185.656 386.602C186.402 379.48 187.35 372.144 192.376 366.64L191.139 366.129C190.228 373.07 190.058 380.088 190.634 387.065C190.71 387.991 192.169 387.998 192.086 387.065C191.514 380.088 191.683 373.07 192.591 366.129C192.674 365.492 191.747 365.181 191.353 365.61C186.05 371.404 184.985 379.072 184.204 386.602C184.107 387.528 185.587 387.521 185.656 386.602Z" fill="black"/>
<path d="M191.126 388.332C208.46 397.812 228.297 399.706 247.705 398.158C248.632 398.088 248.639 396.629 247.705 396.706C228.553 398.227 208.985 396.429 191.859 387.074C191.036 386.625 190.303 387.883 191.126 388.332Z" fill="black"/>
<path d="M259.944 224.299C272.77 221.734 284.504 230.84 289.904 241.924C295.836 254.093 295.878 268.094 297.018 281.335C298.118 294.085 300.344 306.489 302.833 319.032C305.641 333.185 306.45 347.097 304.645 361.437C304.527 362.363 305.986 362.349 306.104 361.437C308.005 346.294 306.878 331.705 303.871 316.805C300.648 300.902 298.906 285.096 297.496 268.931C296.438 256.845 294.571 243.887 286.689 234.166C280.099 226.049 270.094 220.815 259.557 222.923C258.637 223.11 259.025 224.514 259.944 224.306V224.299Z" fill="black"/>
<path d="M305.951 361.624C305.109 355.995 303.365 350.539 300.786 345.466C300.365 344.629 299.113 345.369 299.535 346.198C302.045 351.163 303.738 356.5 304.548 362.004C304.686 362.931 306.083 362.537 305.931 361.617L305.951 361.624Z" fill="black"/>
<path d="M299.301 345.581C301.376 357.338 300.766 369.412 297.517 380.899C297.496 381.072 297.537 381.247 297.633 381.392C297.729 381.536 297.874 381.642 298.042 381.689C298.209 381.736 298.388 381.721 298.546 381.647C298.703 381.573 298.829 381.445 298.9 381.287C302.201 369.545 302.811 357.211 300.684 345.201C300.525 344.275 299.121 344.669 299.301 345.581Z" fill="black"/>
<path d="M246.759 398.097C259.181 398.253 271.524 396.115 283.17 391.791C284.041 391.466 283.661 390.062 282.783 390.408C271.263 394.699 259.051 396.827 246.759 396.686C246.578 396.704 246.41 396.788 246.288 396.923C246.165 397.058 246.098 397.233 246.098 397.415C246.098 397.598 246.165 397.773 246.288 397.908C246.41 398.043 246.578 398.127 246.759 398.145V398.097Z" fill="black"/>
<path d="M284.075 377.779C284.17 382.239 283.62 386.689 282.443 390.992C282.422 391.164 282.463 391.339 282.559 391.484C282.655 391.629 282.8 391.734 282.968 391.781C283.135 391.828 283.314 391.813 283.472 391.739C283.629 391.666 283.755 391.538 283.826 391.379C285.04 386.951 285.606 382.37 285.506 377.779C285.506 377.586 285.43 377.402 285.293 377.265C285.157 377.129 284.973 377.053 284.78 377.053C284.588 377.053 284.403 377.129 284.267 377.265C284.131 377.402 284.054 377.586 284.054 377.779H284.075Z" fill="black"/>
<path d="M284.532 378.3C285.791 381.716 285.735 384.793 285.853 388.34C285.901 389.64 286.371 390.31 287.768 390.255C292.435 390.054 297.628 386.335 298.699 381.764C298.914 380.858 297.51 380.464 297.317 381.377C297.042 382.509 296.535 383.572 295.828 384.498C295.121 385.424 294.229 386.193 293.21 386.756C292.207 387.344 288.605 389.321 287.623 388.547C287.014 388.077 287.409 384.184 287.277 383.14C287.038 381.353 286.595 379.599 285.957 377.913C285.638 377.042 284.228 377.415 284.574 378.3H284.532Z" fill="black"/>
<path d="M257.611 221.464C256.968 219.155 259.416 216.348 261.822 217.447C262.258 217.675 262.641 217.994 262.944 218.382C263.247 218.77 263.464 219.218 263.58 219.697C263.696 220.175 263.708 220.673 263.616 221.157C263.524 221.64 263.33 222.099 263.046 222.501C262.493 223.255 263.737 223.981 264.304 223.234C266.116 220.766 264.809 216.735 261.815 215.898C258.413 214.944 255.309 218.664 256.208 221.845C256.279 222.002 256.404 222.129 256.561 222.202C256.717 222.276 256.895 222.291 257.062 222.245C257.228 222.199 257.373 222.095 257.47 221.952C257.567 221.809 257.61 221.636 257.591 221.464H257.611Z" fill="black"/>
<path d="M259.735 217.009C253.17 205.854 248.444 193.714 245.741 181.055C245.547 180.136 244.144 180.523 244.358 181.442C247.09 194.23 251.865 206.494 258.498 217.763C258.595 217.93 258.754 218.051 258.941 218.1C259.128 218.15 259.327 218.123 259.493 218.026C259.66 217.928 259.782 217.769 259.831 217.582C259.88 217.395 259.853 217.197 259.756 217.03L259.735 217.009Z" fill="black"/>
<path d="M244.076 179.957C231.997 192.506 245.251 211.499 257.821 217.425C258.665 217.819 259.405 216.568 258.554 216.167C246.897 210.67 233.663 192.886 245.106 180.98C245.756 180.289 244.726 179.279 244.076 179.957Z" fill="white"/>
<path d="M243.383 181.015C236.987 187.895 233.959 196.697 232.908 205.907C232.458 209.813 231.255 216.243 233.378 219.853C235.031 222.66 238.287 223.254 241.274 223.656C242.194 223.78 242.588 222.376 241.661 222.273C235.902 221.498 233.897 219.383 233.904 213.519C233.904 209.771 234.232 206.03 234.885 202.339C236.227 194.733 239.131 187.715 244.413 182.032C245.049 181.34 244.026 180.317 243.383 181.002V181.015Z" fill="black"/>
<path d="M264.371 217.964C267.911 213.4 271.431 208.83 274.978 204.281C276.395 202.462 277.806 200.637 279.361 198.936C280.419 197.781 284.125 193.363 285.584 193.653L288.772 198.376L286.946 200.713C286.255 201.536 285.564 202.345 284.81 203.126C283.163 204.901 281.416 206.579 279.576 208.153C276.119 211.105 268.776 217.66 263.867 217.528C263.674 217.528 263.489 217.605 263.353 217.741C263.217 217.877 263.141 218.062 263.141 218.254C263.141 218.447 263.217 218.631 263.353 218.768C263.489 218.904 263.674 218.98 263.867 218.98C266.75 219.063 269.612 216.906 271.977 215.454C275.251 213.466 278.342 211.191 281.214 208.657C284.367 205.892 293.494 198.742 290.964 193.515C286.124 183.51 265.602 214.009 263.307 216.934C262.74 217.667 263.763 218.704 264.337 217.964H264.371Z" fill="white"/>
<path d="M290.053 195.585C291.623 201.918 290.98 208.127 289.791 214.468C289.383 216.618 289.175 219.481 288.034 221.382C285.863 225.005 281.265 225.323 277.539 225.531C276.605 225.586 276.598 227.038 277.539 226.989C283.201 226.664 288.47 225.607 290.226 219.57C292.466 211.889 293.386 202.976 291.457 195.184C291.236 194.278 289.832 194.658 290.074 195.571L290.053 195.585Z" fill="black"/>
<path d="M236.427 199.684C238.301 199.684 238.308 196.773 236.427 196.773C234.547 196.773 234.554 199.684 236.427 199.684Z" fill="white"/>
<path d="M240.757 202.927C242.631 202.927 242.631 200.016 240.757 200.016C238.883 200.016 238.883 202.927 240.757 202.927Z" fill="white"/>
<path d="M235.616 207.255C237.49 207.255 237.49 204.344 235.616 204.344C233.742 204.344 233.742 207.255 235.616 207.255Z" fill="white"/>
<path d="M235.351 216.167C237.224 216.167 237.224 213.256 235.351 213.256C233.477 213.256 233.477 216.167 235.351 216.167Z" fill="white"/>
<path d="M241.295 210.496C243.168 210.496 243.175 207.592 241.295 207.592C239.414 207.592 239.421 210.496 241.295 210.496Z" fill="white"/>
<path d="M241.026 218.884C242.9 218.884 242.9 215.973 241.026 215.973C239.153 215.973 239.153 218.884 241.026 218.884Z" fill="white"/>
<path d="M246.439 214.288C248.306 214.288 248.313 211.377 246.439 211.377C244.565 211.377 244.558 214.288 246.439 214.288Z" fill="white"/>
<path d="M251.576 219.425C253.443 219.425 253.45 216.514 251.576 216.514C249.702 216.514 249.695 219.425 251.576 219.425Z" fill="white"/>
<path d="M259.417 222.127C261.291 222.127 261.291 219.223 259.417 219.223C257.543 219.223 257.543 222.127 259.417 222.127Z" fill="white"/>
<path d="M267.802 222.127C269.669 222.127 269.676 219.223 267.802 219.223C265.929 219.223 265.922 222.127 267.802 222.127Z" fill="white"/>
<path d="M276.724 218.344C278.598 218.344 278.605 215.434 276.724 215.434C274.844 215.434 274.851 218.344 276.724 218.344Z" fill="white"/>
<path d="M280.245 223.214C282.119 223.214 282.119 220.303 280.245 220.303C278.371 220.303 278.371 223.214 280.245 223.214Z" fill="white"/>
<path d="M284.025 212.933C285.899 212.933 285.906 210.029 284.025 210.029C282.144 210.029 282.151 212.933 284.025 212.933Z" fill="white"/>
<path d="M274.291 224.02C276.164 224.02 276.171 221.109 274.291 221.109C272.41 221.109 272.417 224.02 274.291 224.02Z" fill="white"/>
<path d="M284.025 218.077C285.899 218.077 285.906 215.166 284.025 215.166C282.144 215.166 282.151 218.077 284.025 218.077Z" fill="white"/>
<path d="M288.9 204.28C290.767 204.28 290.774 201.369 288.9 201.369C287.026 201.369 287.019 204.28 288.9 204.28Z" fill="white"/>
<path d="M288.9 216.167C290.767 216.167 290.774 213.256 288.9 213.256C287.026 213.256 287.019 216.167 288.9 216.167Z" fill="white"/>
<path d="M286.459 224.83C288.332 224.83 288.339 221.926 286.459 221.926C284.578 221.926 284.585 224.83 286.459 224.83Z" fill="white"/>
</g>
<defs>
<clipPath id="clip0_1417_5000">
<rect width="503.579" height="540.01" fill="white" transform="translate(0.5)"/>
</clipPath>
</defs>
</svg>
