<svg width="234" height="508" viewBox="0 0 234 508" fill="none" xmlns="http://www.w3.org/2000/svg">
<g clip-path="url(#clip0_1417_1317)">
<path d="M215.425 0.662109H35.2334C29.3788 0.662109 24.6328 5.40576 24.6328 11.2573V290.486C24.6328 296.337 29.3788 301.081 35.2334 301.081H215.425C221.28 301.081 226.026 296.337 226.026 290.486V11.2573C226.026 5.40576 221.28 0.662109 215.425 0.662109Z" fill="black" stroke="#102067" stroke-width="0.890561" stroke-miterlimit="10"/>
<path d="M38.0078 25.9746H213.694" stroke="white" stroke-width="0.890561" stroke-miterlimit="10"/>
<path d="M198.615 13.612L206.407 20.2694C206.981 20.755 207.82 19.9338 207.237 19.4394L199.446 12.7821C198.871 12.2964 198.032 13.1264 198.615 13.612Z" fill="#FFDE59"/>
<path d="M198.608 20.0152L206.214 12.9517C206.771 12.4396 205.94 11.6096 205.384 12.1217L197.769 19.1852C197.221 19.7062 198.052 20.5361 198.608 20.0152Z" fill="#FFDE59"/>
<path d="M40.3615 12.803C39.9496 14.3886 40.1174 16.0692 40.8348 17.5421C41.5522 19.0151 42.7721 20.1837 44.2749 20.8377C48.7536 22.6036 55.3259 18.0741 53.0556 13.0237C50.962 8.41482 41.9516 7.3553 40.3615 12.803Z" stroke="#FFDE59" stroke-width="0.890561" stroke-miterlimit="10"/>
<path d="M45.207 119.813L203.04 118.93" stroke="white" stroke-width="0.890561" stroke-miterlimit="10"/>
<path d="M52.9234 103.653C53.1442 106.116 53.4799 108.844 55.3085 110.451C56.9957 111.934 59.4251 111.996 61.6424 111.979L102.622 111.617L105.484 55.2764C105.608 52.7336 105.688 49.9788 104.301 47.8863C102.534 45.2375 99.1418 44.5311 96.0676 44.1338C89.0006 43.2509 64.266 43.6747 54.222 43.9131C53.044 43.9544 51.9288 44.4537 51.1137 45.3047C50.2987 46.1556 49.8481 47.291 49.8581 48.469C49.8581 55.1793 49.7785 67.5757 50.1761 71.8845C51.1566 82.462 52.0135 93.0661 52.9234 103.653Z" stroke="white" stroke-width="0.890561" stroke-miterlimit="10"/>
<path d="M58.6797 92.9412L59.0949 96.1374C59.0774 96.3087 59.103 96.4818 59.1695 96.6407C59.236 96.7996 59.3412 96.9394 59.4755 97.0473C59.6098 97.1553 59.769 97.2279 59.9386 97.2587C60.1082 97.2894 60.2828 97.2773 60.4464 97.2234L62.9906 97.0556C63.1526 97.0673 63.3153 97.0441 63.4676 96.9878C63.62 96.9314 63.7585 96.8432 63.874 96.729C63.9952 96.5176 64.0477 96.2739 64.0241 96.0314V92.7293C64.0619 92.586 64.0631 92.4356 64.0275 92.2918C63.9918 92.148 63.9206 92.0155 63.8203 91.9065C63.72 91.7974 63.5939 91.7153 63.4535 91.6678C63.3132 91.6202 63.1631 91.6088 63.0171 91.6344H59.2451" stroke="white" stroke-width="0.890561" stroke-miterlimit="10" stroke-linecap="round"/>
<path d="M67.9008 96.8051L96.6902 97.0788L95.8686 91.5781C86.9642 91.6929 78.042 91.6929 69.1376 91.9401C68.0687 91.9401 67.6358 91.9401 67.6447 93.1233C67.6535 94.3064 67.8213 95.5866 67.9008 96.8051Z" stroke="white" stroke-width="0.890561" stroke-miterlimit="10" stroke-linecap="round"/>
<path d="M58.6797 101.564L59.0949 104.752C59.1033 105.079 59.2286 105.392 59.4482 105.635C59.7426 105.828 60.1011 105.898 60.4464 105.829L62.9906 105.67C63.153 105.678 63.3155 105.653 63.4675 105.595C63.6196 105.537 63.758 105.449 63.874 105.335C63.9957 105.124 64.0482 104.88 64.0241 104.637V101.335C64.0477 101.167 64.0338 100.996 63.9834 100.834C63.933 100.672 63.8474 100.524 63.7326 100.399C63.5172 100.271 63.2665 100.215 63.0171 100.24H59.2451" stroke="white" stroke-width="0.890561" stroke-miterlimit="10" stroke-linecap="round"/>
<path d="M67.9008 105.418L96.6902 105.692L95.8686 100.191C86.9642 100.315 78.042 100.306 69.1376 100.553C68.0687 100.553 67.6358 100.598 67.6447 101.737C67.6535 102.876 67.8213 104.2 67.9008 105.418Z" stroke="white" stroke-width="0.890561" stroke-miterlimit="10" stroke-linecap="round"/>
<path d="M74.2782 54.8379C71.4783 55.4676 68.9365 56.9343 66.9908 59.043C65.0452 61.1517 63.7879 63.8025 63.3862 66.6427C63.0264 69.5093 63.5323 72.4179 64.8388 74.995C66.1453 77.5721 68.1927 79.6999 70.7182 81.1052C73.6378 82.5888 76.9989 82.9562 80.1704 82.1383C82.1138 81.6262 85.4706 80.6461 87.2374 79.5689C89.543 78.1033 90.1614 76.3286 91.4246 73.8475C92.6878 71.3665 92.8115 68.1084 91.1596 65.9011" stroke="#FFDE59" stroke-width="2.37483" stroke-miterlimit="10" stroke-linecap="round"/>
<path d="M64.6866 56.665C62.4289 59.1247 60.942 62.192 60.4098 65.4873C59.8775 68.7827 60.3233 72.1618 61.692 75.2066C63.2061 78.245 65.541 80.799 68.4324 82.5794C71.3238 84.3599 74.6561 85.2957 78.0521 85.2809C81.2345 85.1769 84.364 84.4384 87.257 83.1089C90.0396 81.8905 92.7604 80.1687 94.1385 77.5376C95.8169 74.3325 95.1544 70.4741 94.3063 66.9953C93.6058 63.5033 92.3217 60.1543 90.5078 57.0888C88.688 54.2987 85.5962 51.2879 82.0008 51.0495C78.0582 50.6585 74.079 51.2124 70.3932 52.6653C68.2405 53.6 66.2993 54.9606 64.6866 56.665V56.665Z" stroke="white" stroke-width="0.890561" stroke-miterlimit="10" stroke-linecap="round"/>
<path d="M69.412 60.8155C67.9754 62.3801 67.0283 64.3307 66.6877 66.4269C66.347 68.523 66.6277 70.673 67.4951 72.6116C68.4607 74.5468 69.9486 76.1734 71.7907 77.3077C73.6327 78.442 75.7554 79.0388 77.919 79.0305C79.9467 78.9606 81.9403 78.4894 83.7846 77.6443C85.6117 76.9958 87.1674 75.7518 88.2015 74.1125C89.2704 72.073 88.8464 69.6273 88.3075 67.4023C87.8593 65.1775 87.0411 63.0436 85.887 61.0892C84.7298 59.3234 82.7599 57.3898 80.4719 57.2397C77.9625 57.0016 75.4323 57.3585 73.0869 58.2815C71.7014 58.866 70.4506 59.7284 69.412 60.8155V60.8155Z" stroke="white" stroke-width="0.890561" stroke-miterlimit="10" stroke-linecap="round"/>
<path d="M115.66 47.3516L117.365 110.87L197.496 113.13" stroke="white" stroke-width="0.890561" stroke-miterlimit="10" stroke-linecap="round"/>
<path d="M123.201 106.02C121.605 98.753 122.694 91.1541 126.266 84.6266C127.415 82.5517 129.031 80.4592 131.346 79.9647C133.996 79.3997 136.708 81.2273 138.139 83.5494C139.57 85.8716 140.074 88.6175 140.789 91.2398C141.478 93.6503 142.441 96.0872 144.279 97.8C146.116 99.5129 149.031 100.263 151.204 99.0097C153.377 97.7559 154.128 95.1159 154.738 92.7055C156.187 86.6574 157.626 80.415 161.239 75.347C164.852 70.2789 171.266 66.6589 177.282 68.2835C183.015 69.8198 186.592 75.347 189.34 80.6446C190.374 82.8867 191.696 84.985 193.271 86.8869C194.067 87.831 195.058 88.5925 196.175 89.1196C197.293 89.6468 198.51 89.9273 199.746 89.9419" stroke="#FFDE59" stroke-width="0.890561" stroke-miterlimit="10" stroke-linecap="round"/>
<path d="M117.16 90.5031C123.697 94.9178 133.883 92.11 137.239 84.9935C138.759 81.762 139.006 78.1067 139.766 74.6279C140.526 71.1491 142.257 67.5644 145.508 66.0634C149.651 64.1827 154.562 66.6108 157.698 69.9042C161.479 73.8774 163.732 79.0072 166.126 83.9429C168.52 88.8785 171.232 93.8759 175.596 97.1869C179.96 100.498 186.391 101.716 190.931 98.6438" stroke="#FFDE59" stroke-width="0.890561" stroke-miterlimit="10" stroke-linecap="round"/>
<path d="M46.0006 149.772L45.1172 158.345L55.8237 158.593L56.2036 148.174C54.2955 147.291 52.2726 146.461 50.2055 146.708C48.1384 146.956 46.0977 148.766 46.4157 150.823" stroke="white" stroke-width="1.18741" stroke-miterlimit="10"/>
<path d="M203.04 145.318C172.646 147.049 142.223 148.053 111.77 148.329C101.69 148.417 91.611 148.329 81.5316 148.329C78.2454 148.329 73.4575 147.376 70.8692 148.002C68.6608 150.024 70.1095 152.894 69.5 158.236C86.0104 160.655 104.217 159.066 120.939 159.048C137.959 159.048 154.976 158.813 171.99 158.342C182.343 158.059 192.693 157.691 203.04 157.238V145.318Z" stroke="white" stroke-width="1.18741" stroke-miterlimit="10"/>
<path d="M46.0006 173.388L45.1172 181.962L55.8237 182.209L56.2036 171.799C54.2955 170.916 52.2726 170.086 50.2055 170.325C48.1384 170.563 46.0977 172.391 46.4157 174.448" stroke="white" stroke-width="1.18741" stroke-miterlimit="10"/>
<path d="M203.04 168.932C172.646 170.698 142.223 171.704 111.77 171.951C101.69 172.04 91.611 171.951 81.5316 171.951C78.2454 171.951 73.4575 170.998 70.8692 171.616C68.6608 173.647 70.1095 176.516 69.5 181.858C86.0104 184.268 104.217 182.679 120.939 182.67C137.959 182.67 154.976 182.432 171.99 181.955C182.343 181.672 192.693 181.305 203.04 180.851V168.932Z" stroke="white" stroke-width="1.18741" stroke-miterlimit="10"/>
<path d="M46.0006 197.014L45.1172 205.588L55.8237 205.835L56.2566 195.416C54.3485 194.533 52.3256 193.703 50.2585 193.942C48.1914 194.18 46.1507 195.999 46.4687 198.056" stroke="white" stroke-width="1.18741" stroke-miterlimit="10"/>
<path d="M203.04 192.564C172.646 194.295 142.223 195.299 111.77 195.575C101.69 195.672 91.611 195.619 81.5316 195.575C78.2454 195.575 73.4575 194.631 70.8692 195.249C68.6608 197.279 70.1095 200.149 69.5 205.491C86.0104 207.901 104.217 206.312 120.939 206.303C137.959 206.303 154.976 206.065 171.99 205.588C182.343 205.305 192.693 204.937 203.04 204.484V192.564Z" stroke="white" stroke-width="1.18741" stroke-miterlimit="10"/>
<path d="M116.097 140.792C114.092 140.677 110.011 140.491 107.414 137.595C105.894 135.891 105.514 133.958 105.135 131.892C104.649 129.243 104.481 125.835 106.274 117.959C107.029 114.145 108.099 110.401 109.472 106.763C111.714 101.085 114.796 95.7757 118.615 91.0117C119.078 93.9338 119.688 96.8306 120.444 99.691C120.823 101.13 122.21 106.392 126.627 116.361C128.473 120.572 131.044 126.073 134.392 132.342L140.108 133.49C143.358 129.711 145.92 126.541 147.652 124.351C150.372 120.908 153.164 117.526 155.876 114.074C158.137 111.187 159.992 108.776 163.411 106.763C167.051 104.644 168.711 105.209 169.127 105.395C170.734 106.075 171.406 107.84 172.095 109.739C172.89 112.007 173.279 114.399 173.243 116.802C173.296 121.817 173.34 125.499 172.095 130.497C171.307 133.664 170.157 136.73 168.667 139.635C167.279 140.817 165.744 141.814 164.1 142.602C159.277 144.924 154.798 144.783 151.733 144.659C122.652 143.467 129.074 141.56 116.097 140.792Z" fill="black"/>
<path d="M133.652 138.305C132.901 135.656 135.737 132.38 138.519 133.652C139.022 133.917 139.463 134.287 139.813 134.735C140.162 135.184 140.412 135.702 140.547 136.254C140.681 136.807 140.697 137.382 140.592 137.941C140.488 138.499 140.266 139.03 139.941 139.497C139.297 140.38 140.754 141.219 141.39 140.38C143.493 137.528 141.982 132.857 138.51 131.886C134.571 130.782 130.984 135.056 132.026 138.773C132.128 138.931 132.277 139.052 132.452 139.119C132.628 139.186 132.82 139.196 133.001 139.147C133.182 139.098 133.343 138.992 133.46 138.846C133.577 138.699 133.644 138.519 133.652 138.331V138.305Z" fill="white"/>
<path d="M136.084 133.147C128.474 120.229 122.997 106.168 119.865 91.5079C119.644 90.4483 118.018 90.8898 118.239 91.9493C121.405 106.755 126.935 120.955 134.617 134.004C134.758 134.137 134.938 134.22 135.131 134.241C135.323 134.262 135.518 134.219 135.683 134.118C135.849 134.018 135.977 133.866 136.048 133.686C136.119 133.505 136.128 133.307 136.075 133.121L136.084 133.147Z" fill="white"/>
<path d="M117.975 90.2507C103.982 104.784 119.335 126.769 133.876 133.621C134.856 134.088 135.713 132.632 134.759 132.172C121.252 125.807 105.917 105.225 119.185 91.4426C119.936 90.6657 118.743 89.4737 117.993 90.2507H117.975Z" fill="white"/>
<path d="M117.211 91.4788C109.809 99.4252 106.293 109.632 105.074 120.315C104.561 124.827 103.166 132.279 105.63 136.456C107.538 139.705 111.31 140.385 114.764 140.87C115.824 141.011 116.284 139.387 115.215 139.246C108.545 138.363 106.222 135.899 106.231 129.118C106.23 124.785 106.611 120.459 107.37 116.192C108.916 107.425 112.291 99.2663 118.404 92.6884C119.137 91.8938 117.953 90.7018 117.211 91.4964V91.4788Z" fill="black"/>
<path d="M141.473 134.251C145.572 128.954 149.644 123.656 153.761 118.412C155.395 116.31 157.029 114.2 158.831 112.231C160.051 110.898 164.353 105.794 166.04 106.121L169.741 111.586L167.621 114.288C166.826 115.251 165.996 116.178 165.148 117.087C163.242 119.142 161.219 121.085 159.088 122.906C155.104 126.323 146.579 133.916 140.899 133.757C140.719 133.813 140.561 133.925 140.45 134.077C140.338 134.228 140.278 134.412 140.278 134.6C140.278 134.789 140.338 134.972 140.45 135.124C140.561 135.276 140.719 135.388 140.899 135.443C144.238 135.532 147.551 133.024 150.289 131.355C154.082 129.056 157.662 126.424 160.987 123.488C164.635 120.283 175.209 112.01 172.277 105.962C166.649 94.3869 142.913 129.687 140.281 133.068C139.627 133.951 140.811 135.117 141.473 134.26V134.251Z" fill="white"/>
<path d="M171.223 108.342C173.034 115.671 172.292 122.867 170.914 130.195C170.446 132.685 170.207 136.005 168.882 138.212C166.364 142.415 161.038 142.777 156.718 143.024C155.64 143.086 155.631 144.79 156.718 144.71C163.281 144.34 169.386 143.086 171.417 136.119C174.014 127.228 175.074 116.924 172.848 107.865C172.746 107.707 172.596 107.586 172.42 107.519C172.244 107.452 172.051 107.443 171.87 107.493C171.688 107.543 171.528 107.65 171.411 107.798C171.295 107.946 171.229 108.128 171.223 108.316V108.342Z" fill="black"/>
<path d="M109.112 113.087C109.537 113.056 109.935 112.865 110.226 112.553C110.516 112.241 110.677 111.831 110.677 111.405C110.677 110.978 110.516 110.568 110.226 110.256C109.935 109.944 109.537 109.753 109.112 109.723C108.687 109.753 108.289 109.944 107.999 110.256C107.708 110.568 107.547 110.978 107.547 111.405C107.547 111.831 107.708 112.241 107.999 112.553C108.289 112.865 108.687 113.056 109.112 113.087Z" fill="white"/>
<path d="M114.119 116.836C114.567 116.836 114.996 116.658 115.312 116.342C115.629 116.026 115.807 115.597 115.807 115.149C115.807 114.702 115.629 114.273 115.312 113.957C114.996 113.641 114.567 113.463 114.119 113.463C111.955 113.463 111.955 116.836 114.119 116.836Z" fill="white"/>
<path d="M108.175 121.854C108.6 121.823 108.998 121.633 109.288 121.321C109.578 121.009 109.74 120.598 109.74 120.172C109.74 119.746 109.578 119.336 109.288 119.024C108.998 118.712 108.6 118.521 108.175 118.49C107.749 118.521 107.352 118.712 107.061 119.024C106.771 119.336 106.609 119.746 106.609 120.172C106.609 120.598 106.771 121.009 107.061 121.321C107.352 121.633 107.749 121.823 108.175 121.854Z" fill="white"/>
<path d="M107.858 132.186C108.283 132.155 108.681 131.965 108.972 131.653C109.262 131.341 109.423 130.93 109.423 130.504C109.423 130.078 109.262 129.668 108.972 129.356C108.681 129.044 108.283 128.853 107.858 128.822C107.433 128.853 107.035 129.044 106.745 129.356C106.454 129.668 106.293 130.078 106.293 130.504C106.293 130.93 106.454 131.341 106.745 131.653C107.035 131.965 107.433 132.155 107.858 132.186Z" fill="white"/>
<path d="M114.752 125.615C115.2 125.615 115.629 125.437 115.945 125.121C116.262 124.805 116.439 124.376 116.439 123.929C116.439 123.481 116.262 123.052 115.945 122.736C115.629 122.42 115.2 122.242 114.752 122.242C112.588 122.242 112.588 125.615 114.752 125.615Z" fill="white"/>
<path d="M114.438 135.32C116.603 135.32 116.612 131.947 114.438 131.947C112.265 131.947 112.265 135.32 114.438 135.32Z" fill="white"/>
<path d="M120.749 129.993C121.174 129.962 121.572 129.771 121.862 129.459C122.153 129.147 122.314 128.737 122.314 128.311C122.314 127.885 122.153 127.474 121.862 127.162C121.572 126.85 121.174 126.66 120.749 126.629C120.324 126.66 119.926 126.85 119.635 127.162C119.345 127.474 119.184 127.885 119.184 128.311C119.184 128.737 119.345 129.147 119.635 129.459C119.926 129.771 120.324 129.962 120.749 129.993Z" fill="white"/>
<path d="M126.656 135.945C128.82 135.945 128.829 132.572 126.656 132.572C126.208 132.572 125.779 132.75 125.463 133.066C125.146 133.382 124.969 133.811 124.969 134.259C124.969 134.706 125.146 135.135 125.463 135.451C125.779 135.767 126.208 135.945 126.656 135.945Z" fill="white"/>
<path d="M135.761 139.067C136.186 139.036 136.584 138.846 136.874 138.534C137.164 138.222 137.326 137.811 137.326 137.385C137.326 136.959 137.164 136.549 136.874 136.237C136.584 135.925 136.186 135.734 135.761 135.703C135.335 135.734 134.938 135.925 134.647 136.237C134.357 136.549 134.195 136.959 134.195 137.385C134.195 137.811 134.357 138.222 134.647 138.534C134.938 138.846 135.335 139.036 135.761 139.067Z" fill="white"/>
<path d="M145.483 139.067C145.908 139.036 146.306 138.846 146.597 138.534C146.887 138.222 147.049 137.811 147.049 137.385C147.049 136.959 146.887 136.549 146.597 136.237C146.306 135.925 145.908 135.734 145.483 135.703C145.058 135.734 144.66 135.925 144.37 136.237C144.079 136.549 143.918 136.959 143.918 137.385C143.918 137.811 144.079 138.222 144.37 138.534C144.66 138.846 145.058 139.036 145.483 139.067Z" fill="white"/>
<path d="M155.778 134.689C157.943 134.689 157.951 131.316 155.778 131.316C153.605 131.316 153.605 134.689 155.778 134.689Z" fill="white"/>
<path d="M159.85 140.323C160.276 140.292 160.673 140.102 160.964 139.79C161.254 139.477 161.416 139.067 161.416 138.641C161.416 138.215 161.254 137.804 160.964 137.492C160.673 137.18 160.276 136.99 159.85 136.959C159.425 136.99 159.027 137.18 158.737 137.492C158.447 137.804 158.285 138.215 158.285 138.641C158.285 139.067 158.447 139.477 158.737 139.79C159.027 140.102 159.425 140.292 159.85 140.323Z" fill="white"/>
<path d="M164.236 128.433C164.683 128.433 165.113 128.256 165.429 127.939C165.745 127.623 165.923 127.194 165.923 126.747C165.923 126.3 165.745 125.871 165.429 125.554C165.113 125.238 164.683 125.061 164.236 125.061C162.072 125.061 162.063 128.433 164.236 128.433Z" fill="white"/>
<path d="M152.964 141.26C153.389 141.23 153.787 141.039 154.077 140.727C154.368 140.415 154.529 140.005 154.529 139.578C154.529 139.152 154.368 138.742 154.077 138.43C153.787 138.118 153.389 137.927 152.964 137.896C152.538 137.927 152.141 138.118 151.85 138.43C151.56 138.742 151.398 139.152 151.398 139.578C151.398 140.005 151.56 140.415 151.85 140.727C152.141 141.039 152.538 141.23 152.964 141.26Z" fill="white"/>
<path d="M164.237 134.374C164.662 134.343 165.06 134.152 165.351 133.84C165.641 133.528 165.802 133.118 165.802 132.692C165.802 132.266 165.641 131.855 165.351 131.543C165.06 131.231 164.662 131.041 164.237 131.01C163.812 131.041 163.414 131.231 163.124 131.543C162.833 131.855 162.672 132.266 162.672 132.692C162.672 133.118 162.833 133.528 163.124 133.84C163.414 134.152 163.812 134.343 164.237 134.374Z" fill="white"/>
<path d="M169.874 118.411C170.299 118.38 170.697 118.189 170.987 117.877C171.278 117.565 171.439 117.155 171.439 116.729C171.439 116.303 171.278 115.892 170.987 115.58C170.697 115.268 170.299 115.078 169.874 115.047C169.449 115.078 169.051 115.268 168.76 115.58C168.47 115.892 168.309 116.303 168.309 116.729C168.309 117.155 168.47 117.565 168.76 117.877C169.051 118.189 169.449 118.38 169.874 118.411Z" fill="white"/>
<path d="M169.874 132.186C170.299 132.155 170.697 131.965 170.987 131.653C171.278 131.341 171.439 130.93 171.439 130.504C171.439 130.078 171.278 129.668 170.987 129.356C170.697 129.044 170.299 128.853 169.874 128.822C169.449 128.853 169.051 129.044 168.76 129.356C168.47 129.668 168.309 130.078 168.309 130.504C168.309 130.93 168.47 131.341 168.76 131.653C169.051 131.965 169.449 132.155 169.874 132.186Z" fill="white"/>
<path d="M167.057 142.203C167.504 142.203 167.933 142.025 168.25 141.709C168.566 141.393 168.744 140.964 168.744 140.516C168.744 140.069 168.566 139.64 168.25 139.324C167.933 139.008 167.504 138.83 167.057 138.83C164.893 138.83 164.893 142.203 167.057 142.203Z" fill="white"/>
<path d="M72.1614 410.68L74.1755 448.99C70.5999 453.446 67.687 458.394 65.5272 463.682C62.4089 471.373 61.7199 477.809 60.916 485.288C60.2377 491.698 60.0457 498.15 60.3418 504.589C72.6384 505.024 85.1294 505.319 97.8147 505.472C133.15 505.851 167.089 504.986 199.554 503.167C199.103 498.301 198.234 493.483 196.956 488.767C195.273 482.092 192.652 475.689 189.174 469.748C187.796 467.444 185.375 464.177 180.526 457.652C177.54 453.626 175.031 450.35 173.326 448.143L170.729 418.476L72.1614 410.68Z" fill="white"/>
<path d="M71.6562 418.928L73.0432 450.59C73.0962 451.667 74.8099 451.676 74.7304 450.59L73.3612 418.901C73.3082 417.824 71.5944 417.815 71.6739 418.901L71.6562 418.928Z" fill="#102067"/>
<path d="M73.0483 449.147C60.2128 465.455 59.2853 486.292 59.4443 506.211C59.5002 506.391 59.6123 506.548 59.7641 506.66C59.9159 506.772 60.0994 506.832 60.2879 506.832C60.4764 506.832 60.66 506.772 60.8118 506.66C60.9636 506.548 61.0757 506.391 61.1316 506.211C60.9726 486.787 61.7057 466.258 74.2409 450.339C74.9034 449.456 73.7197 448.291 73.0483 449.147Z" fill="#102067"/>
<path d="M170.508 424.203C171.082 431.629 170.658 440.096 172.363 447.318C173.653 452.784 180.022 457.278 183.22 461.728C191.847 473.857 197.086 488.066 198.396 502.89C198.493 503.959 200.163 503.967 200.083 502.89C198.965 490.187 195.043 477.89 188.599 466.884C185.446 461.587 181.532 457.172 177.743 452.378C171.904 444.899 172.919 433.421 172.204 424.203C172.116 423.135 170.437 423.126 170.517 424.203H170.508Z" fill="#102067"/>
<path d="M152.547 438.959C158.306 443.833 154.888 454.57 157.918 461.13C159.976 465.544 163.933 468.661 168.942 468.343C170.02 468.281 170.029 466.577 168.942 466.666C158.262 467.337 158.006 454.508 157.458 447.056C157.175 443.453 156.645 440.204 153.766 437.767C152.944 437.07 151.743 438.253 152.573 438.959H152.547Z" fill="#102067"/>
<path d="M47.734 278.186C43.8118 278.548 41.1705 281.656 38.0168 285.453C34.5829 289.702 31.8946 294.503 30.0664 299.65C27.7961 305.811 26.1709 312.191 25.2166 318.686C23.9622 326.05 22.5665 335.771 21.4004 347.417C18.7503 353.465 16.2504 358.295 14.4748 361.606C10.4289 369.19 7.92011 372.784 4.75761 379.953C2.92902 384.121 1.70111 387.653 0.941406 389.992C2.35525 392.522 4.10227 394.85 6.13568 396.915C10.2594 401.049 15.3942 404.032 21.0294 405.567C19.4167 413.201 18.4943 420.964 18.2733 428.762C18.11 434.657 18.3402 440.556 18.9624 446.421C21.1708 469.05 24.775 495.477 25.888 503.529C29.3106 504.865 32.9469 505.571 36.6211 505.613C42.359 505.636 47.9922 504.078 52.9018 501.11C52.9724 490.055 53.3081 481.129 53.5908 475.152C53.7498 471.823 53.8381 470.604 54.9777 451.612C55.9936 434.722 56.1614 431.817 56.0201 427.032C55.8197 420.297 55.1259 413.587 53.9442 406.954C61.2399 405.569 68.1862 402.745 74.3767 398.645C73.4933 383.697 72.61 371.089 71.9474 361.606C68.1666 308.727 69.156 342.058 67.0977 315.225C66.1083 302.246 65.6048 290.847 57.7515 283.034C56.1614 281.427 52.3805 277.762 47.734 278.186Z" fill="white"/>
<path d="M37.3571 285.41C29.2388 295.67 25.8731 308.11 23.8325 320.842C21.4032 336.179 19.6895 351.745 18.4174 367.179C18.3291 368.256 20.0164 368.247 20.1047 367.179C21.3149 352.442 22.9933 337.68 25.1841 323.032C27.1364 310.061 30.2547 297.056 38.5497 286.575C39.2122 285.737 38.0284 284.536 37.3571 285.383V285.41Z" fill="#102067"/>
<path d="M20.5211 344.522C17.2791 361.192 4.92946 374.039 0.539062 390.311C0.54765 390.497 0.614657 390.675 0.730522 390.821C0.846388 390.966 1.0052 391.071 1.18434 391.121C1.36349 391.171 1.55386 391.163 1.72826 391.099C1.90266 391.034 2.05223 390.916 2.15566 390.762C6.57256 374.489 18.9399 361.625 22.1465 344.973C22.3497 343.913 20.7243 343.454 20.5211 344.522Z" fill="#102067"/>
<path d="M0.82699 391.43C7.63784 402.387 21.5599 407.632 33.8654 409.088C47.8703 410.749 62.0155 407.467 73.8559 399.809C74.7393 399.217 73.9178 397.76 72.9725 398.352C62.3875 405.222 49.8718 408.507 37.2752 407.72C24.5192 406.908 9.32508 401.954 2.24922 390.582C1.67502 389.699 0.217478 390.511 0.791674 391.465L0.82699 391.43Z" fill="#102067"/>
<path d="M65.708 313.107C69.7695 341.475 72.238 370.047 73.1019 398.69C73.1578 398.87 73.2698 399.028 73.4216 399.139C73.5734 399.251 73.757 399.311 73.9455 399.311C74.134 399.311 74.3176 399.251 74.4694 399.139C74.6212 399.028 74.7332 398.87 74.7891 398.69C73.9138 369.899 71.4246 341.179 67.3334 312.666C67.1744 311.598 65.5667 312.048 65.708 313.107Z" fill="#102067"/>
<path d="M4.59189 382.443C10.8992 394.195 24.8213 399.44 37.4271 400.906C51.3668 402.521 65.6157 398.142 73.8223 386.293C74.4407 385.41 72.9389 384.527 72.3736 385.41C64.3083 397.056 50.1036 400.906 36.5614 399.06C24.7859 397.453 11.9504 392.571 6.04943 381.569C5.53707 380.616 4.07953 381.463 4.59189 382.452V382.443Z" fill="#102067"/>
<path d="M20.2323 405.649C16.5751 420.959 17.4497 436.552 19.0221 452.1C20.7358 468.876 22.7058 485.705 24.7464 502.48C24.8789 503.549 26.5662 503.558 26.4337 502.48C24.4784 486.399 22.644 470.306 20.9302 454.201C19.2518 438.141 18.0681 421.965 21.8136 406.099C22.0609 405.048 20.4355 404.598 20.1882 405.649H20.2323Z" fill="#102067"/>
<path d="M54.3517 407.778C56.3216 422.894 55.1291 438.151 54.3517 453.32C53.592 469.112 52.8293 484.914 52.0637 500.725C52.0107 501.802 53.698 501.802 53.751 500.725C54.5107 484.92 55.2733 469.118 56.0389 453.32C56.7721 438.151 57.9647 422.894 56.0389 407.778C55.8976 406.718 54.2104 406.701 54.3517 407.778Z" fill="#102067"/>
<path d="M8.74485 372.764C11.5731 379.399 13.7333 386.3 15.1935 393.363C15.4232 394.422 17.0397 393.981 16.8189 392.921C15.3181 385.716 13.0986 378.679 10.1936 371.916C9.76953 370.919 8.32083 371.775 8.74485 372.799V372.764Z" fill="#102067"/>
<path d="M16.2487 359.989C19.5084 365.234 20.4536 371.891 21.655 377.86C22.9801 384.446 23.9959 391.104 24.7733 397.743C24.897 398.803 26.5401 398.821 26.4606 397.743C25.6567 390.927 24.6319 384.146 23.2804 377.436C22.0348 371.255 21.0808 364.598 17.7062 359.168C17.1321 358.285 15.6745 359.097 16.2487 360.051V359.989Z" fill="#102067"/>
<path d="M22.1109 339.411C31.0261 358.288 36.2179 378.706 37.4022 399.547C37.464 400.624 39.1689 400.633 39.0894 399.547C37.8847 378.412 32.618 357.707 23.5773 338.563C23.1179 337.583 21.6603 338.43 22.1197 339.446L22.1109 339.411Z" fill="#102067"/>
<path d="M26.043 314.263C41.3366 339.89 50.9746 368.489 54.3111 398.142C54.4259 399.201 56.0779 399.219 55.9984 398.142C52.661 368.184 42.9568 339.284 27.5359 313.38C27.3947 313.251 27.2154 313.171 27.0249 313.153C26.8344 313.134 26.6431 313.178 26.4798 313.278C26.3164 313.377 26.1897 313.527 26.1189 313.705C26.0481 313.882 26.037 314.078 26.0872 314.263H26.043Z" fill="#102067"/>
<path d="M33.1025 294.027C53.9503 322.404 62.254 357.016 69.4006 390.894C69.6214 391.953 71.2468 391.512 71.026 390.452C63.8618 356.433 55.4873 321.663 34.5601 293.17C33.924 292.287 32.4665 293.17 33.1025 294.053V294.027Z" fill="#102067"/>
<path d="M43.1444 283.489C57.4905 298.729 63.6388 318.904 69.0539 338.637C69.1559 338.796 69.306 338.917 69.482 338.984C69.658 339.051 69.8508 339.06 70.0323 339.01C70.2138 338.96 70.3746 338.853 70.4909 338.705C70.6073 338.557 70.6733 338.375 70.6793 338.187C65.1847 318.144 58.9127 297.749 44.337 282.297C43.5949 281.503 42.4024 282.695 43.1444 283.489Z" fill="#102067"/>
<path d="M195.128 282.246C198.543 284.679 201.528 287.663 203.962 291.075C207.752 296.373 209.095 301.388 210.27 305.891C214.042 320.354 215.932 327.585 216.895 333.315C218.953 345.628 220.321 358.047 220.994 370.513C225.719 376.308 229.063 383.101 230.773 390.379C229.098 392.176 227.307 393.86 225.411 395.421C224.112 396.489 222.84 397.425 221.621 398.255C222.416 403.491 223.388 410.236 224.465 418.112C225.19 423.48 226.992 437.113 228.882 455.001C230.252 467.98 231.709 483.573 232.981 501.338L212.478 502.283C210.013 495.404 206.86 486.072 203.644 474.859C200.573 464.7 198.049 454.384 196.082 443.956C193.986 432.398 192.722 420.704 192.302 408.965C188.912 409.921 185.416 410.452 181.895 410.546C174.298 410.675 166.797 408.828 160.129 405.186C160.753 395.809 161.595 386.141 162.655 376.182C164.139 362.328 165.959 349.075 168.017 336.449C166.339 330.245 164.658 324.044 162.973 317.846C163.097 315.277 164.122 299.587 177.16 289.477C182.387 285.49 188.596 282.991 195.128 282.246Z" fill="white"/>
<path d="M194.695 283.48C202.257 287.136 205.437 294.958 207.946 302.49C210.486 310.152 212.551 317.963 214.13 325.879C217.584 342.725 219.244 359.854 220.896 376.948C221.002 378.016 222.663 378.025 222.584 376.948C220.817 358.318 218.971 339.609 214.872 321.323C212.01 308.52 208.812 288.469 195.508 282.041C194.536 281.573 193.679 283.021 194.625 283.489L194.695 283.48Z" fill="#102067"/>
<path d="M221.326 370.762C224.577 377.478 227.495 384.368 230.081 391.432C230.452 392.438 232.077 392.006 231.706 390.981C229.062 383.824 226.088 376.807 222.784 369.932C222.307 368.961 220.858 369.809 221.326 370.815V370.762Z" fill="#102067"/>
<path d="M165.427 326.753C167.322 328.997 168.786 331.571 169.746 334.346C170.1 335.371 171.734 334.929 171.372 333.905C170.319 330.853 168.707 328.024 166.619 325.561C165.921 324.731 164.729 325.932 165.427 326.753Z" fill="#102067"/>
<path d="M167.144 334.449C165.916 357.732 159.529 380.476 159.715 403.865C159.771 404.045 159.883 404.202 160.035 404.314C160.186 404.426 160.37 404.486 160.559 404.486C160.747 404.486 160.931 404.426 161.082 404.314C161.234 404.202 161.346 404.045 161.402 403.865C161.217 380.476 167.586 357.732 168.831 334.449C168.884 333.371 167.206 333.371 167.144 334.449Z" fill="#102067"/>
<path d="M159.971 405.33C167.365 413.718 184.326 411.564 194.025 409.86C207.618 407.431 220.32 401.431 230.827 392.475C231.657 391.768 230.456 390.585 229.634 391.283C220.271 399.238 209.121 404.809 197.135 407.52C191.311 408.817 185.353 409.41 179.388 409.286C173.204 409.171 165.519 409.039 161.164 404.094C160.448 403.282 159.264 404.474 159.971 405.286V405.33Z" fill="#102067"/>
<path d="M161.319 397.466C171.037 403.814 184.632 402.693 195.436 400.256C207.567 397.465 218.764 391.568 227.926 383.145C228.721 382.412 227.529 381.229 226.734 381.953C218.22 389.769 207.901 395.354 196.699 398.207C185.992 400.918 171.814 402.357 162.132 396.009C161.249 395.409 160.365 396.892 161.249 397.466H161.319Z" fill="#102067"/>
<path d="M162.424 383.179C166.721 388.205 170.358 393.759 173.245 399.708C173.722 400.688 175.171 399.831 174.703 398.825C171.742 392.751 168.016 387.081 163.616 381.952C162.909 381.122 161.726 382.323 162.424 383.144V383.179Z" fill="#102067"/>
<path d="M163.616 368.728C172.195 378.098 179.176 388.812 184.279 400.444C184.72 401.432 186.169 400.576 185.736 399.561C180.565 387.8 173.495 376.969 164.809 367.501C164.076 366.698 162.883 367.89 163.616 368.693V368.728Z" fill="#102067"/>
<path d="M166.452 356.289C181.423 367.038 193.166 381.675 200.409 398.617C200.833 399.615 202.282 398.758 201.858 397.734C194.476 380.539 182.524 365.693 167.3 354.806C166.417 354.17 165.533 355.627 166.417 356.254L166.452 356.289Z" fill="#102067"/>
<path d="M169.333 338.033C187.106 352.684 201.376 371.122 211.099 391.998C211.559 392.978 213.016 392.121 212.557 391.115C202.771 370.105 188.407 351.549 170.517 336.805C169.686 336.125 168.494 337.308 169.333 337.997V338.033Z" fill="#102067"/>
<path d="M172.079 322.603C184.243 328.66 192.503 340.385 200.303 351.095C208.385 362.233 215.761 373.867 222.388 385.927C222.909 386.881 224.366 386.033 223.845 385.044C216.56 371.775 208.363 359.028 199.314 346.892C191.929 337.012 184.226 326.735 172.936 321.111C171.973 320.634 171.116 322.082 172.053 322.567L172.079 322.603Z" fill="#102067"/>
<path d="M172.087 301.799C192.118 313.869 207.826 331.952 216.972 353.469C217.396 354.458 218.844 353.601 218.42 352.586C209.139 330.822 193.221 312.542 172.935 300.351C172.751 300.301 172.555 300.312 172.377 300.383C172.199 300.454 172.049 300.58 171.949 300.744C171.85 300.907 171.806 301.098 171.824 301.288C171.843 301.479 171.923 301.658 172.052 301.799H172.087Z" fill="#102067"/>
<path d="M221.833 400.941C226.815 433.816 230.252 466.847 232.142 500.033C232.204 501.111 233.909 501.119 233.829 500.033C231.921 466.694 228.464 433.501 223.458 400.456C223.299 399.387 221.692 399.847 221.833 400.906V400.941Z" fill="#102067"/>
<path d="M191.042 409.874C192.385 441.545 202.146 471.785 211.996 501.699C212.341 502.723 213.966 502.282 213.622 501.249C203.79 471.485 194.072 441.395 192.721 409.874C192.677 408.797 190.954 408.788 191.042 409.874Z" fill="#102067"/>
<path d="M38.1138 286.469L36.6562 302.15C38.2287 308.625 39.9307 315.188 41.7622 321.839C46.5766 339.26 51.8769 355.682 57.451 371.063C55.7372 376.864 54.1206 383.071 52.7072 389.657C50.1263 401.67 48.4199 413.854 47.6013 426.114C52.7796 430.467 58.4059 434.259 64.3855 437.424C69.3325 440.073 80.0125 445.132 100.86 448.364C117.468 450.933 132.044 453.185 150.48 449.821C174.737 445.406 192.502 433.628 203.005 425.028C202.599 422.609 201.91 418.909 200.823 414.433C198.544 405.118 196.521 400.721 194.251 392.916C192.52 386.934 191.18 380.847 190.241 374.692C191.839 361.298 193.633 350.446 194.984 342.968C198.518 323.19 201.362 314.025 199.401 300.304C198.539 294.417 196.946 288.66 194.657 283.167C186.039 277.088 176.578 272.299 166.575 268.951C157.239 265.908 147.552 264.068 137.75 263.477C127.627 262.656 120.586 263.168 107.106 264.21C86.6908 265.782 76.4878 266.576 65.8873 270.391C55.7631 274.092 46.364 279.533 38.1138 286.469Z" fill="#FFDE59"/>
<path d="M36.1208 300.783C41.4205 326.437 48.9883 351.57 58.7353 375.886C59.1328 376.883 60.7671 376.451 60.3607 375.444C50.6041 351.129 43.0244 325.996 37.7109 300.342C37.4989 299.273 35.8734 299.724 36.0854 300.783H36.1208Z" fill="#102067"/>
<path d="M56.5508 370.241C51.4885 388.477 48.3355 407.19 47.1428 426.078C47.0721 427.164 48.7594 427.164 48.8301 426.078C50.021 407.339 53.1531 388.775 58.1762 370.682C58.1684 370.495 58.1012 370.315 57.9841 370.168C57.8671 370.022 57.7064 369.916 57.5252 369.867C57.3441 369.818 57.152 369.827 56.9768 369.895C56.8016 369.962 56.6524 370.083 56.5508 370.241Z" fill="#102067"/>
<path d="M47.4268 427.086C68.7869 444.868 96.6487 451.093 123.883 451.808C153.812 452.611 181.877 445.936 204.271 425.152C205.066 424.419 203.873 423.227 203.078 423.96C180.994 444.435 153.344 450.916 123.874 450.121C97.1257 449.406 69.6085 443.349 48.6106 425.876C47.7802 425.187 46.5876 426.379 47.418 427.068L47.4268 427.086Z" fill="#102067"/>
<path d="M38.7555 287.296C58.0927 269.214 86.14 266.256 111.396 264.64C139.92 262.812 170.211 265.276 193.612 283.349C194.495 284.012 195.661 282.828 194.804 282.166C171.015 263.784 140.441 261.091 111.396 262.954C85.6541 264.605 57.2535 267.695 37.563 286.104C36.7679 286.846 37.9605 288.038 38.7555 287.296Z" fill="#102067"/>
<path d="M198.979 293.885C197.524 325.588 193.41 357.113 186.682 388.129C186.453 389.18 188.078 389.63 188.308 388.571C195.069 357.41 199.206 325.737 200.675 293.885C200.728 292.799 199.041 292.799 198.988 293.885H198.979Z" fill="#102067"/>
<path d="M189.749 374.464C190.712 391.743 200.349 406.877 202.231 423.97C202.355 425.03 203.998 425.047 203.918 423.97C202.019 406.877 192.434 391.717 191.436 374.464C191.374 373.387 189.669 373.387 189.749 374.464Z" fill="#102067"/>
<path d="M48.9295 417.46C95.3069 443.948 154.105 444.672 201.136 419.376C202.09 418.863 201.242 417.407 200.252 417.928C153.76 442.932 95.5985 442.182 49.7511 416.003C49.5648 415.95 49.3662 415.959 49.1858 416.03C49.0054 416.1 48.8533 416.228 48.7529 416.394C48.6525 416.56 48.6093 416.754 48.6301 416.946C48.6508 417.139 48.7343 417.319 48.8677 417.46H48.9295Z" fill="#102067"/>
<path d="M50.0757 403.617C54.0882 409.496 57.4332 415.804 60.049 422.424C60.4465 423.421 62.072 422.989 61.6745 421.982C59.0158 415.22 55.6146 408.773 51.5333 402.761C50.9238 401.878 49.4662 402.716 50.0757 403.644V403.617Z" fill="#102067"/>
<path d="M53.6952 382.387C61.24 396.841 67.6234 411.872 72.7851 427.337C73.1296 428.361 74.755 427.92 74.4104 426.896C69.1999 411.289 62.7605 396.12 55.1528 381.53C54.6493 380.568 53.2005 381.424 53.6952 382.413V382.387Z" fill="#102067"/>
<path d="M50.6392 351.091C60.904 362.57 68.0683 376.9 75.3738 390.338C82.7942 404.006 89.3577 418.124 93.2711 433.222C93.374 433.376 93.5228 433.494 93.6964 433.559C93.87 433.624 94.0597 433.632 94.2384 433.583C94.4172 433.535 94.5761 433.431 94.6926 433.287C94.8091 433.143 94.8773 432.966 94.8876 432.781C90.9477 417.524 84.2871 403.291 76.8226 389.517C69.4552 375.902 62.2026 361.475 51.8406 349.935C51.1074 349.131 49.9237 350.323 50.648 351.127L50.6392 351.091Z" fill="#102067"/>
<path d="M44.3858 329.625C53.2196 336.326 60.1541 345.473 67.1858 353.95C74.0409 362.231 80.6574 370.725 86.682 379.616C98.4133 396.957 107.733 415.896 112.017 436.486C112.238 437.546 113.864 437.096 113.643 436.036C109.226 414.643 99.332 395.006 86.9912 377.091C81.0107 368.403 74.4737 360.095 67.7247 351.981C60.7813 343.637 53.9263 334.781 45.2339 328.141C44.3505 327.488 43.5378 328.945 44.3505 329.598L44.3858 329.625Z" fill="#102067"/>
<path d="M38.2323 299.604C61.739 314.888 79.3359 337.155 95.8021 359.458C112.957 382.68 125.554 408.205 132.1 436.459C132.339 437.519 133.964 437.068 133.717 436.018C126.977 406.881 113.805 380.843 96.0318 356.942C79.6981 334.975 62.2778 313.21 39.0891 298.13C38.2058 297.538 37.3224 299.013 38.2058 299.586L38.2323 299.604Z" fill="#102067"/>
<path d="M45.5714 281.205C73.3236 295.764 96.6767 317.474 113.212 344.087C130.641 371.82 146.939 402.149 151.842 434.906C152.001 435.966 153.609 435.515 153.467 434.456C148.459 400.984 131.595 369.684 113.565 341.491C96.9836 315.39 73.8318 294.101 46.4282 279.757C45.4653 279.253 44.6173 280.71 45.5448 281.205H45.5714Z" fill="#102067"/>
<path d="M69.9087 270.81C86.419 275.128 99.1485 289.484 110.244 301.713C142.758 337.56 165.06 381.465 174.828 428.856C175.04 429.915 176.665 429.465 176.444 428.405C166.359 379.518 143.01 334.346 108.954 297.837C98.1856 286.306 86.1364 273.326 70.3592 269.203C70.1709 269.209 69.9895 269.275 69.8414 269.391C69.6933 269.508 69.5863 269.668 69.536 269.85C69.4857 270.031 69.4947 270.224 69.5618 270.4C69.6288 270.576 69.7504 270.726 69.9087 270.828V270.81Z" fill="#102067"/>
<path d="M100.18 265.231C114.65 271.906 126.028 283.402 136.134 295.463C146.098 307.488 154.826 320.486 162.185 334.259C176.893 361.489 186.778 391.032 194.366 420.954C194.468 421.112 194.617 421.233 194.792 421.301C194.967 421.368 195.159 421.378 195.341 421.329C195.522 421.279 195.682 421.174 195.8 421.027C195.917 420.88 195.984 420.7 195.992 420.513C188.209 389.849 178.015 359.59 162.732 331.751C155.498 318.476 146.989 305.935 137.326 294.306C127.132 282.13 115.631 270.537 101.037 263.801C100.057 263.35 99.1997 264.798 100.154 265.257L100.18 265.231Z" fill="#102067"/>
<path d="M132.233 264.902C140.236 266.933 146.844 277.722 151.826 283.841C157.863 291.222 163.504 298.917 168.725 306.894C178.881 322.254 186.762 339 192.126 356.613C192.228 356.77 192.377 356.892 192.552 356.959C192.727 357.026 192.919 357.036 193.1 356.987C193.282 356.937 193.442 356.832 193.559 356.685C193.676 356.539 193.744 356.358 193.751 356.171C188.098 337.117 179.149 319.308 168.063 302.842C162.634 294.832 156.799 287.105 150.581 279.691C145.784 273.943 140.378 265.229 132.683 263.277C132.495 263.283 132.314 263.349 132.166 263.466C132.018 263.582 131.911 263.743 131.86 263.924C131.81 264.105 131.819 264.298 131.886 264.474C131.953 264.65 132.075 264.8 132.233 264.902Z" fill="#102067"/>
<path d="M165.798 269.199C182.424 284.447 191.054 305.541 196.248 327.067C196.496 328.117 198.121 327.676 197.874 326.616C192.618 304.825 183.819 283.432 166.956 268.016C166.152 267.283 164.959 268.466 165.763 269.199H165.798Z" fill="#102067"/>
<path d="M135.519 140.679C132.994 139.22 130.215 138.255 127.33 137.836C120.784 136.953 115.713 139.24 110.236 141.747C104.631 144.19 99.552 147.695 95.2808 152.069C91.4423 156.147 88.3132 160.839 86.023 165.949C83.0814 172.403 83.576 174.778 80.3252 188.728C79.062 194.176 77.8164 198.644 75.3429 207.588C72.7988 216.77 71.1292 222.783 68.5763 230.368C65.5904 239.197 65.2989 238.641 61.1029 250.295C58.4527 257.739 55.4404 266.029 52.5518 276.633C50.2196 285.198 48.8327 290.292 47.9229 296.941C46.5026 307.591 46.744 318.397 48.6384 328.974C49.0868 320.463 52.0469 312.275 57.1453 305.444L56.792 331.049C60.6092 332.933 64.5321 334.596 68.541 336.029C82.2333 340.92 93.408 341.838 101.297 342.43C115.233 343.351 129.23 342.515 142.957 339.94C149.823 338.687 156.607 337.024 163.275 334.96C164.223 329.38 165.171 323.788 166.119 318.184C166.596 323.176 167.07 328.159 167.541 333.132C170.63 332.869 173.588 331.763 176.092 329.936C177.794 328.677 179.242 327.107 180.359 325.31C184.478 311.463 185.453 296.873 183.212 282.602L189.264 299.325C190.489 291.833 190.853 284.226 190.35 276.651C189.961 270.912 189.361 269.402 186.817 253.871C184.9 242.27 183.636 233.458 182.894 228.266C181.401 217.759 180.659 212.506 180.05 206.555C178.283 188.896 179.511 187.686 177.559 178.442C175.792 170.16 174.158 162.761 168.301 155.309C164.112 149.71 158.438 145.395 151.923 142.851C146.694 140.878 141.081 140.135 135.519 140.679Z" fill="#FFDE59"/>
<path d="M136.039 139.709C123.221 131.869 103.443 143.444 94.0611 152.468C87.4799 158.79 84.344 166.904 81.9589 175.557C79.0702 186.152 76.7557 196.95 74.1056 207.634C68.8053 229.054 60.5016 249.132 53.4699 269.96C47.0212 289.067 43.0371 309.366 48.0812 329.276C48.1842 329.43 48.333 329.548 48.5066 329.612C48.6803 329.677 48.8698 329.686 49.0486 329.637C49.2274 329.588 49.3863 329.484 49.5028 329.34C49.6193 329.196 49.6876 329.019 49.6978 328.834C40.0337 290.63 63.3549 254.182 73.0544 218.467C75.5809 209.152 77.7363 199.749 79.9889 190.372C82.1443 181.411 83.8316 171.751 88.01 163.452C91.9675 155.576 98.7254 149.952 106.34 145.793C114.653 141.202 126.128 135.674 135.182 141.219C136.066 141.784 136.949 140.336 136.066 139.762L136.039 139.709Z" fill="#102067"/>
<path d="M50.3169 329.449C51.2002 321.211 52.278 312.717 58.0994 306.351L56.6684 305.751C55.6089 313.786 55.4134 321.911 56.0853 329.987C56.1736 331.065 57.8521 331.073 57.7637 329.987C57.1006 321.911 57.296 313.786 58.3467 305.751C58.4439 305.018 57.375 304.656 56.9157 305.159C50.732 311.861 49.5395 320.734 48.6384 329.449C48.5236 330.526 50.2109 330.517 50.3169 329.449Z" fill="#102067"/>
<path d="M56.6471 331.483C76.7175 342.458 99.6942 344.638 122.176 342.873C123.245 342.784 123.254 341.107 122.176 341.186C99.9945 342.952 77.3094 340.868 57.4952 330.044C56.5499 329.523 55.7284 330.926 56.6118 331.492L56.6471 331.483Z" fill="#102067"/>
<path d="M136.335 141.559C151.193 138.584 164.788 149.126 171.042 161.955C177.906 176.082 177.959 192.249 179.276 207.541C180.548 222.304 183.136 236.678 186.016 251.176C189.381 267.314 190.088 283.893 188.109 300.258C187.977 301.335 189.664 301.318 189.797 300.258C192.005 282.732 190.68 265.824 187.208 248.606C183.48 230.171 181.458 211.894 179.823 193.185C178.604 179.199 176.449 164.198 167.306 152.94C159.682 143.546 148.11 137.489 135.893 139.935C134.824 140.147 135.274 141.771 136.335 141.559Z" fill="#102067"/>
<path d="M189.649 300.545C188.674 294.032 186.658 287.718 183.677 281.845C183.182 280.882 181.733 281.73 182.219 282.727C185.124 288.475 187.084 294.652 188.023 301.022C188.182 302.09 189.79 301.64 189.649 300.58V300.545Z" fill="#102067"/>
<path d="M181.93 281.945C184.324 295.554 183.618 309.527 179.863 322.825C179.871 323.013 179.938 323.193 180.055 323.339C180.172 323.486 180.333 323.592 180.514 323.641C180.695 323.69 180.888 323.68 181.063 323.613C181.238 323.546 181.387 323.424 181.489 323.267C185.31 309.675 186.016 295.397 183.556 281.495C183.361 280.435 181.745 280.886 181.93 281.945Z" fill="#102067"/>
<path d="M121.072 342.743C135.458 342.92 149.753 340.439 163.236 335.424C164.243 335.044 163.81 333.42 162.794 333.799C149.455 338.778 135.311 341.253 121.072 341.101C120.896 341.159 120.742 341.272 120.633 341.422C120.524 341.573 120.465 341.754 120.465 341.94C120.465 342.126 120.524 342.307 120.633 342.458C120.742 342.608 120.896 342.721 121.072 342.779V342.743Z" fill="#102067"/>
<path d="M164.289 319.242C164.4 324.404 163.763 329.555 162.398 334.535C162.406 334.722 162.473 334.902 162.59 335.049C162.708 335.195 162.868 335.301 163.049 335.35C163.231 335.399 163.423 335.39 163.598 335.322C163.773 335.255 163.922 335.134 164.024 334.976C165.431 329.853 166.089 324.553 165.976 319.242C165.92 319.062 165.808 318.905 165.656 318.793C165.505 318.681 165.321 318.621 165.132 318.621C164.944 318.621 164.76 318.681 164.609 318.793C164.457 318.905 164.345 319.062 164.289 319.242Z" fill="#102067"/>
<path d="M164.82 319.843C166.278 323.799 166.207 327.357 166.349 331.463C166.402 332.964 166.949 333.749 168.566 333.679C173.972 333.449 179.988 329.14 181.233 323.852C181.481 322.801 179.855 322.351 179.608 323.401C179.285 324.705 178.695 325.927 177.875 326.99C177.056 328.054 176.025 328.937 174.847 329.582C173.689 330.271 169.546 332.549 168.371 331.657C167.674 331.109 168.124 326.606 167.974 325.397C167.696 323.329 167.183 321.3 166.446 319.349C166.075 318.342 164.449 318.775 164.82 319.799V319.843Z" fill="#102067"/>
</g>
<defs>
<clipPath id="clip0_1417_1317">
<rect width="233.327" height="507.026" fill="white" transform="translate(0.5)"/>
</clipPath>
</defs>
</svg>
