<svg width="533" height="532" viewBox="0 0 533 532" fill="none" xmlns="http://www.w3.org/2000/svg">
<g clip-path="url(#clip0_1076_15738)">
<path d="M177.276 165.368C173.253 195.621 169.925 227.49 167.589 260.865C163.783 315.214 162.859 369.727 164.821 424.174C168.445 425.294 175.21 427.354 183.732 429.71C183.732 429.71 209.956 436.958 240.016 442.629C267.624 447.83 369.429 461.167 508.046 474.459C513.041 419.767 517.343 365.022 520.952 310.223C525.102 247.386 528.335 184.496 530.652 121.553C510.46 122.357 481.687 123.735 447.147 126.162C399.444 129.522 354.926 132.656 299.988 140.928C269.046 145.575 226.994 153.035 177.276 165.368Z" fill="white"/>
<path d="M175.9 166.515C167.102 233.308 162.819 300.618 163.077 367.988C163.15 387.05 163.592 406.105 164.403 425.154C164.455 426.389 166.386 426.396 166.335 425.154C163.494 357.842 165.197 290.415 171.432 223.333C173.196 204.357 175.327 185.418 177.824 166.515C177.985 165.285 176.054 165.298 175.893 166.515H175.9Z" fill="#102067"/>
<path d="M166.132 425.519C209.465 437.749 253.75 446.194 298.28 452.631C342.81 459.068 387.559 463.541 432.315 467.938L509.879 475.578C511.115 475.701 511.108 473.769 509.879 473.647C464.673 469.206 419.441 464.996 374.28 460.13C329.37 455.296 284.512 449.554 240.149 440.974C215.425 436.191 190.882 430.514 166.641 423.684C166.399 423.632 166.146 423.673 165.934 423.802C165.723 423.93 165.568 424.134 165.503 424.373C165.438 424.612 165.467 424.866 165.584 425.084C165.701 425.302 165.897 425.467 166.132 425.545V425.519Z" fill="#102067"/>
<path d="M179.414 166.747C223.79 155.077 268.931 146.536 314.369 140.273C360.425 133.919 406.783 129.871 453.179 127.064C479.017 125.5 504.88 124.329 530.75 123.357C531.986 123.312 531.992 121.381 530.75 121.426C484.404 123.164 438.059 125.564 391.823 129.665C346.025 133.733 300.337 139.462 255.111 147.875C229.519 152.642 204.114 158.313 178.899 164.887C178.659 164.961 178.458 165.126 178.337 165.346C178.217 165.567 178.187 165.825 178.254 166.067C178.321 166.309 178.479 166.516 178.696 166.643C178.913 166.77 179.17 166.807 179.414 166.747Z" fill="#102067"/>
<path d="M530.604 122.112C528.514 167.827 526.094 213.528 523.343 259.217C520.584 305.112 517.484 350.985 514.042 396.837C512.107 422.635 510.064 448.43 507.914 474.22C507.811 475.456 509.742 475.45 509.845 474.22C513.643 428.617 517.108 382.985 520.241 337.322C523.395 291.444 526.205 245.55 528.673 199.638C530.072 173.8 531.359 147.958 532.535 122.112C532.587 120.87 530.655 120.87 530.604 122.112Z" fill="#102067"/>
<path d="M170.948 225.251C217.005 221.723 263.095 218.72 309.217 216.239C355.339 213.759 401.487 211.806 447.661 210.382C473.734 209.584 499.814 208.951 525.901 208.483C527.143 208.483 527.149 206.552 525.901 206.552C479.723 207.384 433.556 208.736 387.399 210.607C341.243 212.478 295.112 214.887 249.007 217.836C222.968 219.492 196.944 221.318 170.935 223.313C169.705 223.41 169.692 225.341 170.935 225.244L170.948 225.251Z" fill="#102067"/>
<path d="M175.294 191.38C221.15 184.085 267.189 178.106 313.409 173.441C359.047 168.828 404.795 165.479 450.656 163.393C476.635 162.23 502.629 161.475 528.638 161.127C528.894 161.127 529.14 161.026 529.321 160.845C529.502 160.663 529.604 160.418 529.604 160.162C529.604 159.906 529.502 159.66 529.321 159.479C529.14 159.298 528.894 159.196 528.638 159.196C482.319 159.849 436.059 161.775 389.86 164.977C343.66 168.178 297.581 172.701 251.622 178.545C225.948 181.802 200.327 185.45 174.76 189.488C173.537 189.681 174.058 191.541 175.275 191.348L175.294 191.38Z" fill="#102067"/>
<path d="M181.017 418.517C199.875 424.843 219.322 429.251 239.064 431.674C240.294 431.829 240.287 429.898 239.064 429.743C219.494 427.326 200.216 422.942 181.525 416.657C180.347 416.258 179.839 418.125 181.017 418.517Z" fill="#102067"/>
<path d="M182.611 416.843V409.37C182.611 409.114 182.509 408.868 182.328 408.687C182.147 408.506 181.901 408.404 181.645 408.404C181.389 408.404 181.144 408.506 180.962 408.687C180.781 408.868 180.68 409.114 180.68 409.37V416.843C180.68 417.099 180.781 417.345 180.962 417.526C181.144 417.707 181.389 417.809 181.645 417.809C181.901 417.809 182.147 417.707 182.328 417.526C182.509 417.345 182.611 417.099 182.611 416.843Z" fill="#102067"/>
<path d="M180.982 409.28C189.724 413.464 199.829 414.494 209.259 416.315L240.034 422.25C241.25 422.488 241.772 420.621 240.549 420.39L211.004 414.687C201.4 412.833 190.863 411.874 181.954 407.606C180.841 407.078 179.856 408.739 180.982 409.28Z" fill="#102067"/>
<path d="M239.209 421.677C238.229 424.575 237.96 427.666 238.424 430.689C238.598 431.912 240.458 431.391 240.284 430.174C239.912 427.497 240.181 424.77 241.07 422.218C241.469 421.034 239.608 420.532 239.209 421.703V421.677Z" fill="#102067"/>
<path d="M437.741 194.671C457.63 195.254 477.528 193.833 497.133 190.429C498.356 190.216 497.777 188.369 496.573 188.581C477.144 191.942 457.425 193.338 437.715 192.746C436.473 192.707 436.524 194.638 437.766 194.677L437.741 194.671Z" fill="#102067"/>
<path d="M438.784 192.603L436.628 185.451C436.549 185.212 436.379 185.014 436.156 184.898C435.932 184.782 435.672 184.759 435.432 184.832C435.191 184.905 434.988 185.069 434.866 185.289C434.745 185.509 434.714 185.769 434.781 186.011L436.95 193.163C437.029 193.402 437.199 193.6 437.422 193.716C437.646 193.831 437.905 193.855 438.146 193.782C438.387 193.709 438.59 193.545 438.712 193.325C438.833 193.104 438.864 192.845 438.797 192.603H438.784Z" fill="#102067"/>
<path d="M435.034 185.852C444.612 187.319 454.589 185.375 464.141 184.384L495.315 181.166C496.544 181.037 496.499 179.106 495.263 179.235L465.338 182.35C455.612 183.361 445.243 185.498 435.484 184.004C434.261 183.811 433.804 185.691 435.034 185.877V185.852Z" fill="#102067"/>
<path d="M494.354 180.812C494.256 183.859 494.889 186.885 496.201 189.637C496.722 190.757 498.351 189.721 497.836 188.607C496.707 186.155 496.175 183.471 496.285 180.774C496.323 179.531 494.392 179.583 494.354 180.825V180.812Z" fill="#102067"/>
<path d="M362.463 199.066C382.347 199.652 402.239 198.229 421.837 194.818C423.053 194.605 422.48 192.764 421.277 192.97C401.845 196.334 382.124 197.729 362.412 197.135C361.17 197.096 361.227 199.027 362.463 199.066Z" fill="#102067"/>
<path d="M363.504 197.005L361.315 189.854C361.236 189.615 361.067 189.416 360.843 189.301C360.62 189.185 360.36 189.161 360.119 189.234C359.878 189.307 359.675 189.471 359.554 189.691C359.432 189.912 359.401 190.171 359.468 190.414L361.631 197.565C361.71 197.804 361.88 198.002 362.103 198.118C362.327 198.234 362.586 198.258 362.827 198.185C363.068 198.112 363.271 197.948 363.393 197.727C363.514 197.507 363.545 197.248 363.478 197.005H363.504Z" fill="#102067"/>
<path d="M359.759 190.253C369.337 191.72 379.307 189.776 388.86 188.779L420.033 185.56C421.263 185.432 421.224 183.5 419.988 183.629L390.057 186.745C380.331 187.755 369.961 189.892 360.203 188.399C358.98 188.212 358.529 190.092 359.759 190.278V190.253Z" fill="#102067"/>
<path d="M419.076 185.207C418.98 188.255 419.616 191.281 420.93 194.032C421.451 195.159 423.08 194.116 422.558 193.002C421.427 190.547 420.895 187.857 421.007 185.156C421.046 183.914 419.114 183.972 419.076 185.207Z" fill="#102067"/>
<path d="M276.997 300.079L287.637 322.769C283.163 342.485 278.967 363.321 275.227 385.154C271.584 406.396 268.674 426.897 266.363 446.485L337.973 456.41C337.849 445.049 338.322 433.69 339.389 422.379C342.53 389.703 350.536 357.68 363.141 327.371C363.141 326.161 363.328 297.993 341.9 284.836C322.544 272.967 293.945 278.406 276.997 300.079Z" fill="white"/>
<path d="M279.004 304.321C281.086 310.243 283.382 316.079 285.892 321.829C286.388 322.969 288.055 321.984 287.565 320.857C285.119 315.249 282.886 309.565 280.865 303.806C280.453 302.641 278.593 303.163 279.004 304.321Z" fill="#102067"/>
<path d="M286.454 322.383C277.376 362.326 270.41 402.719 265.586 443.395C265.438 444.631 267.369 444.618 267.517 443.395C272.327 402.89 279.269 362.666 288.315 322.891C288.591 321.681 286.731 321.16 286.454 322.376V322.383Z" fill="#102067"/>
<path d="M356.843 338.892C344.236 374.409 337.608 411.771 337.23 449.457C337.23 449.713 337.332 449.959 337.513 450.14C337.694 450.321 337.94 450.423 338.196 450.423C338.452 450.423 338.698 450.321 338.879 450.14C339.06 449.959 339.162 449.713 339.162 449.457C339.539 411.939 346.143 374.743 358.704 339.387C359.122 338.216 357.255 337.707 356.843 338.872V338.892Z" fill="#102067"/>
<path d="M291.959 300.435C292.969 308.481 298.009 326.33 286.417 328.989C285.206 329.265 285.721 331.126 286.932 330.849C299.934 327.869 295.023 309.434 293.89 300.435C293.735 299.218 291.804 299.205 291.959 300.435Z" fill="#102067"/>
<path d="M287.894 308.583C289.644 312.082 290.211 316.056 289.51 319.905C289.291 321.122 291.151 321.643 291.37 320.42C292.186 316.057 291.55 311.547 289.561 307.579C289.014 306.465 287.347 307.444 287.894 308.557V308.583Z" fill="#102067"/>
<path d="M339.754 249.736C340.172 251.185 340.765 253.129 341.531 255.414C342.297 257.699 342.96 259.488 343.301 260.376C345.058 264.691 347.192 268.842 349.68 272.78C353.688 273.207 357.623 274.162 361.382 275.619C366.282 277.577 370.827 280.328 374.835 283.761C388.648 295.122 397.164 309.29 397.164 309.29C410.978 332.269 416.397 356.279 417.369 360.688C424.334 392.55 432.026 427.805 440.059 467.392L375.897 460.311C367.091 441.052 358.346 421.312 349.66 401.092C338.791 375.74 328.515 350.812 318.834 326.309L306.791 325.601C303.122 308.942 299.457 292.282 295.797 275.619L339.754 249.736Z" fill="white"/>
<path d="M341.427 259.135C343.527 264.096 345.952 268.912 348.687 273.553C348.817 273.775 349.029 273.935 349.277 274C349.526 274.064 349.789 274.028 350.01 273.898C350.231 273.768 350.392 273.556 350.456 273.308C350.521 273.06 350.484 272.796 350.355 272.575C347.618 267.935 345.193 263.118 343.094 258.157C342.611 257.017 340.944 258.002 341.427 259.135Z" fill="#102067"/>
<path d="M349.777 273.779C363.198 274.583 375.003 284.721 383.944 293.958C393.328 303.763 400.726 315.291 405.732 327.906C411.152 341.314 415.059 355.411 418.76 369.372C422.558 383.707 425.841 398.177 428.789 412.712C432.149 429.273 435.071 445.926 437.859 462.597C438.058 463.82 439.918 463.299 439.719 462.082C434.569 431.185 428.905 400.353 420.936 370.035C413.74 342.666 405.99 314.402 386.042 293.334C376.618 283.376 364.08 272.685 349.783 271.828C348.541 271.751 348.541 273.682 349.783 273.759L349.777 273.779Z" fill="#102067"/>
<path d="M308.003 327.121L319.673 328.112C320.908 328.215 320.902 326.284 319.673 326.181L308.003 325.19C306.767 325.087 306.773 327.018 308.003 327.121Z" fill="#102067"/>
<path d="M318.945 328.176C336.11 372.487 354.798 416.157 375.01 459.185C375.537 460.312 377.198 459.333 376.677 458.213C356.538 415.365 337.914 371.848 320.805 327.661C320.361 326.515 318.494 327.017 318.945 328.176Z" fill="#102067"/>
<path d="M322.304 275.214C329.069 284.921 332.191 297.924 342.651 304.65C349.937 309.355 361.434 308.737 365.405 299.996C365.914 298.87 364.247 297.885 363.738 299.018C359.232 308.931 346.513 306.336 340.108 300.151C332.674 292.98 329.809 282.572 324.016 274.242C323.315 273.232 321.635 274.197 322.349 275.214H322.304Z" fill="#102067"/>
<path d="M332.48 268.557C334.649 275.11 337.468 283.323 343.641 287.173C348.398 290.134 355.105 289.516 357.616 284.006C358.131 282.886 356.463 281.901 355.948 283.034C353.058 289.374 345.431 287.173 341.71 282.982C337.99 278.792 336.033 273.147 334.34 268.042C333.954 266.864 332.087 267.399 332.48 268.557Z" fill="#102067"/>
<path d="M359.719 284.656C376.181 309.691 388.442 337.248 396.016 366.237C396.09 366.477 396.255 366.678 396.475 366.799C396.696 366.919 396.954 366.949 397.196 366.882C397.438 366.815 397.645 366.657 397.772 366.44C397.899 366.223 397.936 365.966 397.877 365.722C390.261 336.572 377.935 308.861 361.386 283.684C360.71 282.648 359.037 283.614 359.719 284.656Z" fill="#102067"/>
<path d="M404.618 395.511L417.697 448.937C417.994 450.147 419.854 449.632 419.564 448.422L406.478 394.996C406.182 393.792 404.322 394.301 404.618 395.511Z" fill="#102067"/>
<path d="M300.864 291.429C302.338 297.531 304.308 313.314 314.381 309.664C315.54 309.246 315.025 307.379 313.873 307.804C305.505 310.842 303.966 296.044 302.724 290.914C302.428 289.71 300.568 290.219 300.864 291.429Z" fill="#102067"/>
<path d="M309.032 292.305C311.47 300.658 314.583 308.8 318.339 316.649C318.874 317.769 320.541 316.791 320.006 315.677C316.326 307.975 313.278 299.986 310.892 291.79C310.818 291.55 310.653 291.348 310.433 291.228C310.212 291.107 309.954 291.077 309.712 291.144C309.47 291.211 309.263 291.37 309.136 291.587C309.009 291.803 308.972 292.061 309.032 292.305Z" fill="#102067"/>
<path d="M225.42 171.515C222.845 178.81 220.09 186.184 217.155 193.638C207.555 218.113 196.624 242.044 184.411 265.325L186.181 266.799L176.738 279.486C174.122 276.971 171.365 274.607 168.48 272.406C163.239 268.412 157.606 264.961 151.667 262.107C144.715 258.67 134.184 251.403 118.33 234.673C115.151 229.402 111.6 224.364 107.703 219.598C105.128 216.438 102.554 213.593 100.03 211.044L96.4901 212.222C93.7909 204.508 90.1134 197.172 85.5475 190.394C72.6738 171.283 55.8608 161.39 46.315 156.762C41.9592 158.34 37.8011 160.418 33.9241 162.954C25.215 168.657 20.3037 175.152 15.3345 181.84C9.91382 189.154 5.3604 197.073 1.76562 205.437L11.2085 205.733C7.82935 209.78 6.04398 214.921 6.18773 220.19L13.5644 218.42L12.0903 228.449C18.6136 226.092 25.5751 225.198 32.4822 225.829C31.2736 228.088 30.9566 230.718 31.5939 233.199C33.0808 238.587 38.6745 240.202 38.9706 240.28C39.127 241.526 39.5273 242.729 40.1485 243.82C42.7876 248.416 48.4713 249.053 49.2952 249.13C50.454 250.349 51.75 251.429 53.1573 252.349C55.1468 253.677 57.3379 254.674 59.6457 255.303C59.8877 256.392 60.3939 257.404 61.1197 258.251C63.3662 260.826 66.8356 260.646 67.3184 260.614C92.48 253.07 88.7144 253.926 123.963 282.441C136.959 292.302 145.037 300.303 150.186 306.038C154.39 310.731 158.001 313.492 165.236 319.015C169.638 322.382 172.02 323.843 175.264 324.036C181.218 324.383 185.936 320.232 187.655 318.725C191.17 315.636 192.702 312.501 194.44 309.283C198.015 302.709 202.057 296.399 206.534 290.403C209.694 295.755 212.362 301.382 214.503 307.216C215.916 311.076 217.098 315.016 218.043 319.015C221.069 316.768 223.928 314.305 226.598 311.645C235.101 303.155 239.472 294.813 242.529 288.929C246.465 281.331 249.533 273.314 251.676 265.029C255.783 248.802 253.272 242.906 256.69 225.797C258.238 218.03 260.51 210.425 263.475 203.081L225.42 171.515Z" fill="white"/>
<path d="M224.144 173.479C213.044 204.907 199.672 235.486 184.133 264.972C183.553 266.073 185.214 267.045 185.8 265.944C201.415 236.308 214.852 205.575 226.004 173.987C226.416 172.816 224.556 172.307 224.144 173.479Z" fill="#102067"/>
<path d="M184.714 266.382C189.548 268.744 192.612 273.398 195.798 277.55C198.984 281.702 202.145 285.918 205.015 290.359C210.751 299.145 215.314 308.64 216.782 319.106C216.956 320.335 218.816 319.814 218.649 318.598C217.085 307.61 212.173 297.639 206.09 288.473C203.129 284.025 199.917 279.751 196.654 275.522C193.494 271.428 190.455 267.045 185.711 264.708C184.598 264.168 183.619 265.828 184.733 266.382H184.714Z" fill="#102067"/>
<path d="M219.585 319.332C232.566 308.911 242.494 295.179 248.319 279.584C251.165 271.939 252.97 263.946 253.687 255.819C254.582 245.688 254.06 235.176 258.573 225.779C259.107 224.665 257.446 223.68 256.905 224.8C253.043 232.795 252.644 241.536 252.142 250.226C251.627 259.109 250.321 267.779 247.463 276.237C241.896 292.652 231.749 307.132 218.22 317.967C217.255 318.74 218.626 320.104 219.585 319.332Z" fill="#102067"/>
<path d="M190.317 259.302C193.162 257.57 195.678 259.907 195.743 262.855C195.775 264.438 195.447 266.015 195.794 267.586C196.284 269.807 197.725 271.12 199.772 272.034C202.888 273.45 206.113 273.856 207.535 277.422C208.552 279.996 208.565 282.816 209.035 285.487C209.415 287.624 209.994 289.8 211.404 291.505C213.644 294.215 217.725 294.679 219.482 297.833C222.301 302.905 219.926 309.316 223.511 314.221C224.232 315.219 225.912 314.221 225.178 313.249C221.349 308.003 224.496 300.375 220.113 295.393C217.538 292.471 213.283 292.136 211.745 288.197C210.554 285.178 210.683 281.837 209.936 278.709C209.389 276.424 208.417 274.261 206.473 272.832C203.293 270.489 197.738 270.901 197.564 265.874C197.468 263.093 198.247 260.036 195.807 257.995C194.909 257.265 193.803 256.837 192.647 256.772C191.491 256.708 190.345 257.009 189.37 257.635C188.315 258.278 189.28 259.952 190.349 259.302H190.317Z" fill="#102067"/>
<path d="M195.101 249.645C196.832 247.418 198.795 250.031 199.182 251.415C199.461 252.544 199.595 253.703 199.581 254.865C199.551 256.136 199.681 257.405 199.967 258.644C200.198 259.607 200.683 260.491 201.373 261.202C202.063 261.913 202.931 262.426 203.887 262.686C205.747 263.33 207.034 263.484 207.903 265.46C208.374 266.712 208.725 268.005 208.953 269.323C209.455 271.498 210.021 273.648 211.598 275.315C213.278 277.105 215.595 278.019 217.72 279.177C221.53 281.224 222.721 283.915 222.496 288.189C222.354 290.802 221.929 293.57 222.985 296.068C224.388 299.395 229.866 301.571 229.171 305.613C228.958 306.83 230.819 307.351 231.031 306.128C231.63 302.633 229.467 300.535 227.092 298.295C222.959 294.433 224.852 290.274 224.453 285.37C224.387 284.065 224.024 282.793 223.392 281.651C222.759 280.508 221.874 279.526 220.803 278.778C217.726 276.545 213.388 275.83 211.746 272.02C210.562 269.277 210.723 265.962 209.011 263.433C206.977 260.42 202.419 261.418 201.647 257.369C201.055 254.241 202.291 250.25 199.368 247.965C197.637 246.62 195.139 246.523 193.736 248.326C192.983 249.291 194.341 250.669 195.101 249.69V249.645Z" fill="#102067"/>
<path d="M199.109 240.9C203.969 238.287 206.576 244.601 207.291 248.2C207.863 251.096 208.147 254.186 209.743 256.748C212.961 261.936 220.28 262.232 222.584 268.257C224.329 272.814 223.743 278.054 226.221 282.366C227.592 284.761 229.826 285.739 231.77 287.516C234.48 290.033 235.117 293.895 235.716 297.371C235.922 298.594 237.782 298.072 237.576 296.856C237.029 293.676 236.417 290.284 234.448 287.632C232.368 284.832 228.912 283.77 227.425 280.416C225.056 275.099 226.311 268.431 222.205 263.835C220.068 261.44 216.978 260.359 214.365 258.614C210.252 255.879 210.007 251.534 209.054 247.15C207.992 242.213 203.905 236.085 198.112 239.201C197.011 239.787 197.989 241.454 199.084 240.868L199.109 240.9Z" fill="#102067"/>
<path d="M204.155 228.186C210.16 226.499 210.495 234.957 211.062 238.658C211.474 241.394 212.285 244.033 214.473 245.868C217.048 248.03 220.73 248.384 223.066 250.914C225.306 253.347 225.944 256.836 226.6 259.926C227.154 262.539 227.643 265.204 228.789 267.65C230.134 270.489 232.252 271.712 234.421 273.816C238.972 278.258 235.708 286.8 242.589 289.612C243.735 290.082 244.237 288.216 243.098 287.746C238.766 285.976 239.416 280.144 238.219 276.468C237.144 273.166 234.749 272.085 232.477 269.716C228.048 265.088 229.078 257.718 226.298 252.247C225.063 249.865 223.05 247.977 220.595 246.898C218.915 246.093 217.106 245.526 215.677 244.284C213.643 242.508 213.16 239.984 212.838 237.435C212.227 232.511 210.585 224.356 203.64 226.3C203.412 226.385 203.225 226.552 203.114 226.768C203.004 226.985 202.978 227.235 203.043 227.469C203.107 227.703 203.257 227.905 203.463 228.034C203.669 228.163 203.916 228.21 204.155 228.166V228.186Z" fill="#102067"/>
<path d="M209.124 218.809C210.759 217.463 213.038 218.3 214.274 219.562C215.183 220.484 215.827 221.633 216.141 222.89C216.585 224.312 216.784 225.793 217.138 227.247C217.602 229.694 218.756 231.957 220.466 233.768C222.352 235.654 224.772 236.864 226.955 238.364C228.426 239.288 229.669 240.534 230.59 242.008C231.511 243.482 232.086 245.145 232.271 246.873C233.037 252.299 233.037 256.825 237.672 260.474C240.665 262.83 242.635 264.536 243.684 268.327C244.392 270.902 244.971 273.193 246.754 275.215C247.585 276.141 248.943 274.77 248.119 273.85C245.692 271.121 245.924 267.272 244.257 264.195C242.693 261.33 239.79 260.127 237.575 257.9C232.567 252.847 236.03 244.53 231.081 239.278C229.053 237.128 226.349 235.821 223.961 234.128C220.183 231.463 219.411 228.11 218.393 223.829C217.286 219.163 212.845 213.292 207.786 217.45C206.82 218.242 208.198 219.6 209.15 218.815L209.124 218.809Z" fill="#102067"/>
<path d="M213.39 211.024C216.396 206.898 220.831 211.784 221.899 214.713C222.82 217.236 223.064 219.952 224.011 222.469C224.688 224.481 225.938 226.251 227.609 227.561C229.45 228.938 231.819 229.492 233.441 231.191C236.794 234.654 236.08 240.331 239.06 244.097C242.246 248.126 249.359 248.809 250.26 254.531C250.447 255.754 252.313 255.233 252.12 254.016C251.071 247.245 242.768 246.968 239.768 241.67C238.307 239.095 238.082 235.993 236.962 233.302C235.945 230.816 234.034 228.8 231.606 227.651C229.868 226.73 228.22 225.926 227.1 224.259C225.98 222.591 225.414 220.583 224.938 218.594C224.294 215.768 223.65 212.743 221.777 210.439C219.202 207.323 214.285 206.577 211.748 210.072C211.015 211.076 212.688 212.041 213.416 211.05L213.39 211.024Z" fill="#102067"/>
<path d="M216.943 202.433C222.781 200.437 224.365 210.369 227.802 213.118C229.379 214.405 231.419 214.772 233.048 215.912C235.288 217.476 235.848 220.128 237.238 222.31C238.307 223.99 239.658 224.885 241.242 226.043C243.801 227.827 245.676 230.428 246.559 233.42C247.659 236.638 248.638 240.417 252.854 239.715C254.077 239.509 253.556 237.649 252.339 237.848C249.05 238.395 248.258 231.971 247.222 229.892C246.445 228.262 245.338 226.811 243.971 225.631C241.628 223.649 239.465 222.542 238.036 219.722C237.142 217.978 236.395 216.195 234.876 214.882C232.945 213.227 230.267 212.906 228.439 211.116C226.611 209.327 225.961 206.707 224.654 204.589C222.897 201.738 219.885 199.388 216.422 200.573C215.256 200.972 215.778 202.838 216.936 202.433H216.943Z" fill="#102067"/>
<path d="M185.198 266.182L177.364 277.259C176.643 278.276 178.317 279.242 179.031 278.238L186.878 267.16C187.592 266.143 185.919 265.177 185.211 266.182H185.198Z" fill="#102067"/>
<path d="M124.439 283.569C132.297 290.967 140.235 298.262 148.256 305.454C152.272 309.05 156.31 312.627 160.37 316.184C163.665 319.068 167.006 322.441 171.119 324.153C178.798 327.372 186.169 322.576 190.797 316.59C197.053 308.499 201.977 299.095 207.371 290.411C208.015 289.349 206.361 288.377 205.704 289.433C200.857 297.241 196.216 305.229 191.099 312.857C188.66 316.5 185.737 320.046 181.689 321.965C176.7 324.327 171.924 323.033 167.676 319.847C160.338 314.35 153.643 307.726 146.839 301.586C139.755 295.192 132.736 288.723 125.785 282.179C124.877 281.329 123.512 282.693 124.42 283.543L124.439 283.569Z" fill="#102067"/>
<path d="M118.646 235.814C127.952 244.971 138.034 253.306 148.776 260.725C154.183 264.452 159.861 267.702 165.377 271.249C171.17 274.944 176.448 279.714 177.517 286.807C177.697 288.03 179.564 287.509 179.377 286.292C177.446 273.463 163.156 267.947 153.63 261.652C141.577 253.694 130.326 244.584 120.036 234.45C119.148 233.574 117.783 234.939 118.671 235.814H118.646Z" fill="#102067"/>
<path d="M120.36 234.919C114.451 227.195 108.909 218.924 102.504 211.637C100.219 209.062 97.9984 210.022 95.1726 211.322C91.4218 213.028 87.8956 215.189 84.6742 217.759C81.3849 220.391 73.7959 228.334 80.7541 231.81C83.3804 233.098 87.1266 231.752 89.6176 230.787C93.5892 229.242 97.1552 226.873 100.683 224.511C101.706 223.822 100.741 222.149 99.7042 222.844C95.0954 225.933 90.0875 229.454 84.4553 230.253C81.5652 230.665 79.4217 228.785 80.1684 225.85C80.6447 223.977 82.1638 222.541 83.522 221.273C85.7602 219.213 88.199 217.382 90.802 215.808C91.8963 215.139 93.0163 214.51 94.1621 213.922C95.3915 213.279 97.4642 211.824 98.8095 211.895C101.764 212.049 105.118 218.177 106.759 220.314L118.693 235.878C119.433 236.85 121.113 235.878 120.36 234.9V234.919Z" fill="#102067"/>
<path d="M1.43415 205.941C21.7038 205.188 39.1605 216.381 55.4328 227.092C56.4691 227.781 57.4411 226.107 56.4048 225.425C39.8492 214.521 22.0513 203.244 1.43415 204.01C0.191838 204.061 0.185401 205.992 1.43415 205.941Z" fill="#102067"/>
<path d="M2.58782 204.434C12.8868 185.902 24.7949 165.658 46.133 158.616C47.3045 158.23 46.7767 156.363 45.6181 156.756C23.7328 163.972 11.5028 184.434 0.92068 203.462C0.322054 204.55 1.9892 205.522 2.58782 204.434Z" fill="#102067"/>
<path d="M47.3022 157.935C68.8162 168.446 85.5896 186.665 94.2911 208.972C94.7352 210.118 96.6019 209.616 96.1513 208.458C87.3052 185.662 70.2041 167.03 48.2484 156.268C47.1348 155.727 46.1564 157.394 47.2764 157.935H47.3022Z" fill="#102067"/>
<path d="M9.45372 205.586L6.64726 213.658C6.15162 215.074 4.71621 217.462 5.28909 219.058C5.42002 219.462 5.68006 219.811 6.02906 220.051C6.37806 220.292 6.79663 220.411 7.22014 220.391C8.1921 220.468 9.42797 219.863 10.3742 219.663C12.0044 219.33 13.6565 219.115 15.3177 219.02C26.904 218.292 37.8788 222.624 48.403 226.86C49.5552 227.323 50.0573 225.457 48.918 224.993C40.3377 221.543 31.6158 218.125 22.3403 217.23C17.9809 216.768 13.5757 217.01 9.2928 217.945C7.84451 218.273 7.32313 218.743 7.52267 217.063C7.65141 215.936 8.34659 214.681 8.72636 213.606L11.3397 206.114C11.7452 204.936 9.87855 204.434 9.47303 205.599L9.45372 205.586Z" fill="#102067"/>
<path d="M13.5477 218.467C12.2347 221.847 11.3062 225.364 10.7799 228.952C10.6897 229.596 11.1982 230.42 11.9707 230.137C22.1113 226.378 33.1328 225.682 43.6657 228.135C44.8758 228.418 45.3907 226.558 44.1806 226.274C33.3117 223.722 21.9325 224.418 11.4557 228.276L12.6465 229.461C13.1677 225.874 14.0941 222.359 15.4079 218.982C15.8585 217.816 13.9918 217.314 13.5477 218.467Z" fill="#102067"/>
<path d="M32.4672 229.429C30.1435 231.547 30.195 235.061 32.126 237.456C34.5141 240.404 38.7495 241.048 42.2962 241.357C51.3078 242.135 60.461 239.316 67.0073 232.989C67.902 232.126 66.5309 230.762 65.6362 231.624C60.9045 236.133 54.7707 238.884 48.2567 239.419C45.2162 239.723 42.1477 239.579 39.1486 238.994C35.7822 238.299 29.7444 234.54 33.8382 230.8C34.7587 229.963 33.3876 228.599 32.4736 229.436L32.4672 229.429Z" fill="#102067"/>
<path d="M39.2761 231.841C45.8674 227.554 59.4684 222.308 64.9848 231.12C65.6285 232.169 67.3149 231.204 66.6519 230.148C60.5176 220.345 45.8867 225.243 38.3299 230.148C37.2871 230.792 38.259 232.491 39.3018 231.815L39.2761 231.841Z" fill="#102067"/>
<path d="M38.4086 239.47C37.4237 246.892 45.6951 249.55 51.617 249.544C58.9871 249.544 65.8681 246.274 71.2751 241.42C72.202 240.584 70.8309 239.225 69.9104 240.049C65.78 243.896 60.6046 246.435 55.0349 247.349C49.6344 248.147 39.3033 247.246 40.3396 239.47C40.507 238.241 38.5759 238.253 38.4086 239.47Z" fill="#102067"/>
<path d="M66.0973 233.664C66.7123 233.667 67.3188 233.809 67.8715 234.079C68.4242 234.349 68.9088 234.74 69.2893 235.223C69.6698 235.706 69.9364 236.269 70.0691 236.87C70.2019 237.47 70.1973 238.093 70.0559 238.692C70.0121 238.931 70.0595 239.177 70.1886 239.383C70.3177 239.589 70.5193 239.739 70.7535 239.804C70.9877 239.868 71.2377 239.843 71.4541 239.732C71.6705 239.622 71.8377 239.434 71.9226 239.207C72.1375 238.324 72.1506 237.404 71.9609 236.515C71.7712 235.627 71.3836 234.792 70.8269 234.074C70.2702 233.356 69.5587 232.772 68.7455 232.367C67.9322 231.962 67.038 231.745 66.1295 231.733C64.8872 231.733 64.8807 233.664 66.1295 233.664H66.0973Z" fill="#102067"/>
<path d="M47.9776 248.85C54.923 260.133 70.8864 256.677 78.1342 247.717C78.9131 246.764 77.5549 245.386 76.7696 246.352C70.3778 254.237 55.9979 258.157 49.6448 247.858C49.0011 246.803 47.3211 247.768 47.9776 248.83V248.85Z" fill="#102067"/>
<path d="M72.2142 241.614C72.491 240.745 74.7439 242.83 74.9241 243.03C75.829 244.06 76.4891 245.281 76.8551 246.602C77.2027 247.793 79.0694 247.284 78.7154 246.087C78.0796 243.713 76.6308 241.638 74.6216 240.223C73.1926 239.316 70.9332 239.2 70.3282 241.099C69.9484 242.289 71.8087 242.798 72.1884 241.614H72.2142Z" fill="#102067"/>
<path d="M58.8488 255.837C61.0888 261.521 70.4351 261.933 75.2499 259.899C80.4895 257.698 83.1994 250.54 77.6508 246.987C76.6016 246.343 75.6361 247.984 76.6789 248.654C81.9571 252.04 76.8784 257.768 72.643 258.689C69.225 259.436 62.241 259.204 60.7091 255.322C60.2585 254.183 58.3918 254.679 58.8488 255.837Z" fill="#102067"/>
<path d="M98.0892 229.359C102.93 232.339 100.896 238.371 97.5421 241.589C94.5747 244.441 89.3222 247.665 85.2219 248.18C84.0054 248.328 83.9925 250.266 85.2219 250.111C90.8413 249.403 97.8639 245.207 101.031 240.456C103.844 236.246 103.638 230.518 99.0998 227.698C98.0377 227.055 97.0657 228.715 98.1214 229.365L98.0892 229.359Z" fill="#102067"/>
<path d="M225.104 176.184C222.713 181.322 220.693 186.624 219.06 192.051C214.959 205.173 213.346 218.946 214.303 232.661C214.876 240.546 215.648 251.064 221.918 262.804C226.419 271.149 232.702 278.402 240.321 284.046C240.411 288.191 240.533 291.77 240.636 294.512C240.951 302.88 241.209 305.455 241.923 308.474C242.477 310.866 243.226 313.208 244.163 315.477C246.391 314.73 249.789 313.662 253.999 312.619C265.714 309.716 272.202 309.864 279.701 308.808C290.509 307.23 300.935 303.683 310.463 298.342C315.818 295.355 325.119 290.051 333.307 279.624C343.464 266.679 346.335 252.943 347.269 245.354C345.782 239.239 343.497 230.446 340.291 219.974C335.708 205.027 332.174 193.499 325.377 179.357C320.627 169.483 315.181 158.341 304.779 146.047C299.249 139.528 293.084 133.574 286.376 128.274C278.149 131.248 270.257 135.077 262.83 139.7C247.861 149.113 235.013 161.538 225.104 176.184Z" fill="#FFDE59"/>
<path d="M223.364 177.121C215.343 195.402 211.642 215.742 214.12 235.619C216.367 253.694 223.917 274.704 239.868 285.061C240.911 285.743 241.883 284.07 240.84 283.394C224.934 273.095 217.667 251.538 215.8 233.527C213.869 214.635 217.416 195.434 225.018 178.1C225.514 176.967 223.847 175.989 223.351 177.121H223.364Z" fill="#102067"/>
<path d="M239.75 284.064C239.918 290.179 240.034 296.294 240.265 302.403C240.439 307.198 240.98 311.929 243.529 316.1C244.173 317.156 245.846 316.184 245.196 315.122C242.435 310.616 242.274 305.422 242.126 300.266L241.681 284.064C241.649 282.828 239.718 282.822 239.75 284.064Z" fill="#102067"/>
<path d="M245.185 316.505C249.447 313.628 254.442 313.345 259.424 313.119C264.097 312.907 268.744 312.54 273.379 311.909C283.067 310.645 292.551 308.129 301.591 304.423C317.754 297.671 331.915 286.245 340.425 270.771C345.014 262.526 347.632 253.33 348.072 243.904C348.123 242.662 346.192 242.668 346.141 243.904C345.162 266.806 330.152 286.696 310.7 297.812C300.227 303.799 288.57 307.468 276.707 309.463C270.64 310.41 264.523 311.001 258.387 311.233C253.405 311.484 248.449 311.98 244.226 314.838C243.203 315.533 244.162 317.207 245.198 316.505H245.185Z" fill="#102067"/>
<path d="M289.513 131.242C305.773 143.015 316.059 160.761 323.983 178.842C333.072 199.856 340.275 221.636 345.507 243.925C345.797 245.135 347.664 244.62 347.374 243.41C342.017 220.618 334.599 198.36 325.212 176.911C317.211 158.843 306.751 141.367 290.492 129.587C289.481 128.86 288.516 130.534 289.513 131.255V131.242Z" fill="#102067"/>
<path d="M226.645 175.469C240.089 157.182 257.467 142.145 277.496 131.467C278.59 130.881 277.618 129.214 276.517 129.8C256.208 140.653 238.593 155.925 224.971 174.491C224.237 175.495 225.911 176.46 226.645 175.469Z" fill="#102067"/>
<path d="M218.521 195.911C224.739 190.71 233.461 189.352 238.99 183.217C244.52 177.083 246.071 168.413 253.995 164.377C257.477 162.594 261.281 161.551 264.731 159.704C268.015 157.875 270.834 155.316 272.971 152.224C278.081 145.202 281.461 135.334 290.788 132.972C291.991 132.669 291.483 130.809 290.273 131.111C282.22 133.145 278.043 140.509 274.026 147.1C271.535 151.162 268.793 155.108 264.603 157.567C260.947 159.717 256.782 160.785 253.016 162.716C245.183 166.752 243.432 174.74 238.212 181.145C232.843 187.788 223.568 189.172 217.131 194.546C216.178 195.344 217.549 196.703 218.496 195.911H218.521Z" fill="#102067"/>
<path d="M216.946 207.164C219.443 201.532 226.093 201.68 231.249 200.624C235.751 199.694 239.79 197.227 242.674 193.646C249.111 186.051 251.274 175.527 259.687 169.553C266.522 164.7 275.013 162.66 281.462 157.201C284.636 154.517 286.612 151.118 288.472 147.475C290.506 143.542 292.572 139.146 297.136 137.755C298.32 137.395 297.812 135.528 296.621 135.895C288.363 138.412 287.294 148.402 281.977 154.06C275.489 160.98 265.454 162.827 258 168.408C249.555 174.729 247.527 185.459 240.659 193.022C236.224 197.908 231.178 198.423 225.037 199.639C221.008 200.437 217.03 202.214 215.279 206.147C214.783 207.273 216.444 208.252 216.946 207.119V207.164Z" fill="#102067"/>
<path d="M216.152 221.819C218.971 215.839 226.071 215.672 231.761 214.964C236.125 214.423 240.033 213.181 243.496 210.406C251.406 204.079 254.284 193.947 259.517 185.676C262.504 180.815 266.887 176.968 272.094 174.637C276.748 172.493 281.66 170.942 285.683 167.653C292.918 161.737 296.625 151.509 305.766 148.014C306.911 147.576 306.409 145.71 305.251 146.154C298.55 148.728 294.598 154.522 290.298 159.948C287.82 163.057 285.148 166.018 281.724 168.09C277.772 170.472 273.298 171.779 269.211 173.884C261.828 177.681 257.663 184.44 254.02 191.63C250.286 199 246.373 207.645 238.43 211.327C230.77 214.873 218.849 211.584 214.485 220.847C213.957 221.967 215.624 222.945 216.152 221.819Z" fill="#102067"/>
<path d="M217.13 237.782C218.732 226.376 234.76 229.807 242.497 227.297C250.234 224.786 255.944 218.362 260.359 211.778C265.683 203.841 269.789 194.868 277.327 188.682C283.571 183.533 291.205 180.507 298.407 177.006C305.842 173.395 312.987 169.166 317.718 162.201C318.42 161.171 316.746 160.206 316.051 161.229C306.801 174.875 288.585 177.141 276.297 187.06C261.775 198.775 257.965 224.22 236.62 226.511C228.954 227.335 216.698 227.104 215.269 237.287C215.095 238.503 216.956 239.031 217.13 237.802V237.782Z" fill="#102067"/>
<path d="M220.485 254.745C224.707 242.753 239.338 244.543 249.399 242.818C257.381 241.447 263.322 236.96 267.95 230.478C272.578 223.996 275.578 216.819 279.884 210.273C282.137 206.861 284.756 203.604 288.065 201.165C292.243 198.094 297.244 197.077 302.033 195.372C312.39 191.625 317.745 182.64 322.592 173.325C323.159 172.218 321.498 171.246 320.925 172.347C318.576 176.853 316.188 181.442 312.931 185.375C309.152 189.939 304.563 192.572 298.995 194.342C294.682 195.706 290.459 197 286.797 199.742C283.994 201.912 281.54 204.5 279.523 207.415C274.94 213.787 271.863 221.074 267.57 227.627C265.291 231.109 262.627 234.443 259.202 236.889C254.754 240.069 249.508 241.06 244.159 241.55C234.234 242.457 222.461 243.307 218.611 254.249C218.193 255.427 220.06 255.929 220.472 254.764L220.485 254.745Z" fill="#102067"/>
<path d="M223.898 262.391C227.116 256.965 233.707 257.242 239.179 257.66C243.646 257.982 248.1 258.02 252.484 256.965C261.193 254.86 265.846 248.771 270.719 241.787C273.448 237.88 276.429 234.513 280.574 232.067C284.043 230.02 287.809 228.565 291.517 226.982C298.797 223.86 305.188 220.088 308.478 212.551C310.57 207.768 311.548 202.458 314.605 198.132C317.915 193.487 322.822 190.226 328.387 188.972C329.59 188.689 329.082 186.829 327.872 187.112C323.942 188.025 320.29 189.872 317.226 192.496C314.161 195.121 311.774 198.445 310.267 202.187C308.252 207.028 307.229 212.409 303.901 216.599C301.172 220.037 297.316 222.238 293.39 224.053C285.961 227.497 277.941 229.911 272.451 236.341C269.38 239.927 267.114 244.123 264.051 247.722C260.695 251.675 256.085 254.358 250.99 255.323C245.055 256.521 239.327 255.227 233.385 255.536C228.88 255.768 224.599 257.409 222.243 261.419C222.125 261.64 222.097 261.897 222.165 262.138C222.233 262.378 222.392 262.583 222.608 262.709C222.824 262.835 223.081 262.872 223.323 262.813C223.566 262.754 223.777 262.602 223.91 262.391H223.898Z" fill="#102067"/>
<path d="M232.496 275.394C235.849 265.739 249.444 269.421 256.988 267.76C264.197 266.177 268.89 260.319 273.595 255.112C276.105 252.344 278.744 249.576 282.021 247.716C286.166 245.367 291.032 245.071 295.403 243.268C302.619 240.282 305.792 233.053 309.39 226.668C314.616 217.254 322.995 209.985 333.052 206.141C334.198 205.696 333.696 203.83 332.537 204.274C324.396 207.328 317.249 212.558 311.875 219.394C306.609 226.146 304.08 236.658 296.079 240.835C291.83 243.049 286.88 243.281 282.561 245.296C279.131 246.886 276.285 249.448 273.711 252.17C267.506 258.697 262.524 265.739 252.759 266.383C244.957 266.885 233.86 265.572 230.635 274.886C230.23 276.064 232.097 276.572 232.496 275.401V275.394Z" fill="#102067"/>
<path d="M242.399 284.405C243.937 278.799 250.239 277.968 255.176 277.968C259.733 277.968 264.052 277.968 268.391 276.346C276.147 273.475 280.653 267.483 285.77 261.342C288.654 257.866 291.847 254.757 296.217 253.277C300.466 251.841 304.92 251.436 308.891 249.202C312.03 247.402 314.72 244.913 316.757 241.922C318.907 238.807 319.976 235.176 321.591 231.784C323.793 227.072 326.805 224.897 331.813 223.815C335.031 223.12 338.05 222.431 339.962 219.554C340.657 218.511 338.984 217.546 338.295 218.576C336.042 221.968 331.214 221.627 327.751 222.85C325.054 223.822 322.778 225.701 321.314 228.167C319.287 231.385 318.289 235.112 316.551 238.466C314.388 242.702 310.894 246.112 306.606 248.172C302.377 250.155 297.595 250.322 293.346 252.311C289.883 253.946 287.141 256.682 284.708 259.578C278.773 266.659 273.592 273.739 263.911 275.58C256.264 277.054 243.397 273.591 240.571 283.89C240.511 284.134 240.549 284.392 240.676 284.608C240.802 284.825 241.009 284.984 241.251 285.051C241.493 285.118 241.752 285.088 241.972 284.967C242.192 284.847 242.357 284.645 242.431 284.405H242.399Z" fill="#102067"/>
<path d="M242.31 300.435C243.296 298.335 244.699 296.459 246.434 294.92C248.17 293.382 250.201 292.214 252.403 291.487C257.553 289.82 262.702 291.841 267.942 291.275C275.936 290.406 280.326 284.902 284.613 278.755C287.613 274.455 290.806 271.314 296.27 270.851C300.95 270.458 305.63 271.443 310.174 269.853C318.503 266.937 320.537 259.683 324.238 252.596C327.187 246.964 331.853 245.721 337.048 242.889C340.517 240.997 343.33 238.152 343.594 234.051C343.671 232.809 341.74 232.816 341.663 234.051C341.283 239.973 334.679 241.685 330.289 243.9C327.08 245.487 324.455 248.049 322.79 251.218C320.924 254.662 319.816 258.505 317.641 261.781C314.461 266.545 309.234 268.862 303.628 268.939C299.424 269.01 295.054 268.347 291.076 270.065C288.076 271.353 285.881 273.773 283.995 276.348C281.672 279.489 279.741 283.036 276.702 285.578C272.261 289.299 267.079 289.698 261.569 289.125C252.835 288.217 244.692 291.133 240.669 299.424C240.128 300.538 241.795 301.516 242.336 300.396L242.31 300.435Z" fill="#102067"/>
<path d="M244.888 310.295C250.037 301.644 262.441 305.191 270.583 302.365C274.259 301.065 277.599 298.963 280.361 296.211C281.951 294.654 283.412 292.993 285.208 291.641C287.686 289.807 290.499 289.208 293.524 288.918C297.451 288.545 301.409 288.603 305.111 286.987C308.142 285.636 310.653 283.409 312.874 280.975C315.307 278.317 317.379 275.382 319.8 272.685C322.564 269.618 325.876 267.093 329.564 265.237C338.228 260.641 342.586 252.924 346.66 244.318C347.188 243.204 345.521 242.219 344.993 243.346C343.178 247.208 341.344 251.07 338.911 254.546C336.033 258.678 332.519 261.478 328.103 263.828C321.274 267.452 317.321 272.942 312.359 278.632C309.842 281.523 306.99 284.284 303.347 285.616C298.951 287.206 294.142 286.524 289.624 287.547C285.659 288.461 282.949 290.888 280.162 293.714C276.589 297.331 272.598 300.074 267.571 301.219C259.28 303.105 248.447 300.679 243.278 309.31C243.16 309.531 243.132 309.788 243.201 310.029C243.269 310.27 243.427 310.474 243.643 310.6C243.859 310.726 244.116 310.763 244.359 310.704C244.601 310.645 244.812 310.494 244.946 310.282L244.888 310.295Z" fill="#102067"/>
<path d="M167.736 110.61C164.466 107.607 161.978 103.85 160.488 99.6674C157.051 89.8383 160.759 80.9104 163.134 75.2074C167.07 65.9306 173.621 57.9998 181.987 52.3824C188.89 47.8202 196.777 44.9617 204.999 44.0418C213.222 43.122 221.545 44.1671 229.285 47.0913C231.726 47.0846 234.163 47.3001 236.565 47.735C245.39 49.3635 251.37 53.5732 256.075 56.9976C262.175 61.4156 267.535 66.7732 271.955 72.8708C275.096 77.2028 281.951 86.8838 284.185 100.987C284.932 105.673 284.79 109.953 284.513 118.514C284.195 127.711 283.312 136.879 281.868 145.968C280.04 158.101 278.385 165.079 275.585 178.383C273.732 187.176 271.17 199.722 268.312 215.073C267.254 216.531 266.032 217.862 264.669 219.039C257.524 225.199 248.538 225.179 245.158 224.993C244.051 216.947 242.948 208.898 241.85 200.848C237.389 208.543 235.972 217.63 237.878 226.319C235.961 217.738 234.964 208.977 234.905 200.185C234.808 186.301 237.087 175.796 238.87 167.776C240.911 158.638 243.677 149.677 247.141 140.979L241.187 127.751C238.87 140.32 236.555 152.889 234.242 165.458C231.578 173.263 229.368 181.215 227.625 189.275C223.693 207.519 222.137 226.194 222.996 244.837C220.158 240.607 217.827 236.057 216.051 231.281C212.892 222.719 211.539 213.595 212.08 204.485C209.762 211.102 207.447 217.717 205.134 224.33C204.634 217.062 204.634 209.77 205.134 202.502C206.45 184.018 210.924 165.895 218.362 148.922L167.736 110.61Z" fill="#FFDE59"/>
<path d="M208.604 59.001C198.113 60.7135 188.363 65.4879 180.578 72.7243C176.286 79.6316 172.829 87.0233 170.279 94.7447C168.071 101.458 165.548 109.363 165.702 119.906C165.779 124.753 165.863 130.489 168.566 137.35C169.796 140.485 173.716 150.037 184.015 156.513C193.4 162.415 202.65 162.338 207.464 162.229C213.46 162.089 219.376 160.83 224.908 158.515L234.917 168.234L238.921 166.805C240.475 161.471 242.009 156.043 243.523 150.52C246.253 140.388 248.731 130.476 250.958 120.782C252.535 120.943 254.125 120.643 255.535 119.919C256.597 119.359 257.723 118.413 259.538 115.059C261.437 111.545 262.834 108.964 263.252 105.05C263.548 102.302 263.864 99.3728 262.107 96.4763C260.882 94.5416 259.081 93.04 256.957 92.1829C257.805 89.757 258.474 87.2721 258.959 84.7483C260.196 78.6157 260.196 72.2978 258.959 66.1652C257.311 58.7564 254.453 55.6989 253.81 55.0101C252.865 54.0309 251.809 53.1667 250.662 52.4354L251.524 48.4317C252.583 50.346 254.046 52.0067 255.811 53.2979C258.809 55.4159 262.45 56.4262 266.11 56.1559C267.232 52.5201 267.999 48.7844 268.402 45.0009C268.865 40.5723 268.402 39.9994 266.973 23.2701C266.606 19.0797 266.207 14.1233 263.536 8.40099C261.572 4.17842 260.382 3.85015 259.822 3.8244C256.938 3.70853 254.46 11.2139 253.243 14.9794C251.074 21.7188 248.737 31.8954 248.956 45.5737L246.665 44.1448C246.021 39.9093 245.01 33.6591 243.523 26.1216C240.582 11.2203 238.438 0.657474 235.799 0.676784C234.203 0.676784 233.057 4.5775 231.512 9.82353C230.264 14.0718 228.416 20.5731 229.227 29.2692C229.799 35.3623 231.547 41.2865 234.377 46.713C237.372 47.1935 240.214 48.3685 242.674 50.1439C244.425 51.4312 248.094 54.6497 250.964 64.7298C253.297 73.1009 253.976 81.8461 252.966 90.4771C250.326 90.8945 247.797 91.8447 245.536 93.27C243.274 94.6953 241.326 96.5658 239.809 98.7678C234.552 98.4879 229.445 96.916 224.94 94.1912C207.966 83.7249 208.546 60.5072 208.604 59.001Z" fill="white"/>
<path d="M189.731 87.0459C185.466 95.2808 181.203 103.513 176.941 111.744L184.878 120.563C186.496 109.388 188.114 98.216 189.731 87.0459Z" fill="#102067"/>
<path d="M178.703 83.0814C177.641 81.3048 180.068 76.4772 183.112 76.6832C185.494 76.8505 187.534 80.0561 186.858 81.9742C185.932 84.6069 179.855 85.0124 178.703 83.0814Z" fill="#102067"/>
<path d="M197.888 80.2088C197.244 78.2778 199.503 74.6731 202.516 74.48C206.281 74.2354 208.817 79.43 207.807 81.316C206.577 83.6203 198.866 83.0732 197.888 80.2088Z" fill="#102067"/>
<path d="M181.198 92.571C181.663 89.9601 181.323 87.7157 180.438 87.5578C179.552 87.3999 178.457 89.3884 177.991 91.9992C177.526 94.6101 177.866 96.8545 178.752 97.0124C179.637 97.1703 180.732 95.1818 181.198 92.571Z" fill="#102067"/>
<path d="M201.999 92.2536C202.464 89.6428 202.124 87.3983 201.238 87.2404C200.353 87.0825 199.258 89.071 198.792 91.6818C198.327 94.2927 198.667 96.5372 199.552 96.695C200.438 96.8529 201.533 94.8644 201.999 92.2536Z" fill="#102067"/>
<path d="M233.437 32.9437C235.68 32.9437 237.498 30.9033 237.498 28.3864C237.498 25.8695 235.68 23.8291 233.437 23.8291C231.193 23.8291 229.375 25.8695 229.375 28.3864C229.375 30.9033 231.193 32.9437 233.437 32.9437Z" fill="#102067"/>
<path d="M242.347 45.8103C244.59 45.8103 246.408 43.9054 246.408 41.5555C246.408 39.2057 244.59 37.3008 242.347 37.3008C240.104 37.3008 238.285 39.2057 238.285 41.5555C238.285 43.9054 240.104 45.8103 242.347 45.8103Z" fill="#102067"/>
<path d="M255.12 30.3687C256.98 30.3687 258.487 28.8615 258.487 27.0022C258.487 25.143 256.98 23.6357 255.12 23.6357C253.261 23.6357 251.754 25.143 251.754 27.0022C251.754 28.8615 253.261 30.3687 255.12 30.3687Z" fill="#102067"/>
<path d="M263.44 20.6629C265.189 20.6629 266.607 19.2451 266.607 17.496C266.607 15.747 265.189 14.3291 263.44 14.3291C261.691 14.3291 260.273 15.747 260.273 17.496C260.273 19.2451 261.691 20.6629 263.44 20.6629Z" fill="#102067"/>
<path d="M263.534 54.3339C265.556 54.3339 267.196 52.6941 267.196 50.6714C267.196 48.6486 265.556 47.0088 263.534 47.0088C261.511 47.0088 259.871 48.6486 259.871 50.6714C259.871 52.6941 261.511 54.3339 263.534 54.3339Z" fill="#102067"/>
<path d="M254.922 42.252C256.344 42.252 257.497 41.0993 257.497 39.6773C257.497 38.2553 256.344 37.1025 254.922 37.1025C253.5 37.1025 252.348 38.2553 252.348 39.6773C252.348 41.0993 253.5 42.252 254.922 42.252Z" fill="#102067"/>
<path d="M264.321 35.9185C266.045 35.9185 267.443 34.5208 267.443 32.7967C267.443 31.0725 266.045 29.6748 264.321 29.6748C262.597 29.6748 261.199 31.0725 261.199 32.7967C261.199 34.5208 262.597 35.9185 264.321 35.9185Z" fill="#102067"/>
<path d="M179.336 72.5163C167.164 94.5174 157.135 123.696 173.214 146.54C186.494 165.413 214.301 168.547 232.247 154.631C237.296 150.646 241.482 145.676 244.551 140.022C247.619 134.369 249.506 128.151 250.096 121.745C250.212 120.509 248.281 120.516 248.165 121.745C246.054 144.049 227.071 162.799 204.137 161.351C193.433 160.675 182.979 155.79 176.22 147.351C168.857 138.14 166.198 125.852 166.926 114.24C167.853 99.6926 174.006 86.0723 180.984 73.4947C181.582 72.4069 179.915 71.4285 179.317 72.5163H179.336Z" fill="#102067"/>
<path d="M249.13 121.798C254.762 123.427 258.238 118.425 260.678 114.138C263.503 109.156 265.711 103.118 263.465 97.4798C261.701 93.0641 257.247 90.2963 252.522 90.1675C247.199 90.0259 242.629 93.2765 239.822 97.5892C239.146 98.632 240.814 99.5975 241.489 98.5612C243.736 95.1046 247.36 92.3046 251.621 92.1243C255.882 91.9441 260.047 94.2227 261.63 98.2522C263.323 102.565 262.042 107.206 260.06 111.177C258.077 115.149 254.962 121.476 249.619 119.951C249.375 119.891 249.118 119.929 248.901 120.056C248.684 120.183 248.526 120.389 248.459 120.631C248.392 120.873 248.422 121.132 248.542 121.352C248.663 121.572 248.864 121.737 249.104 121.811L249.13 121.798Z" fill="#102067"/>
<path d="M166.489 107.341C153.719 92.6324 162.292 70.2064 174.78 58.4206C189.585 44.4397 211.245 41.3436 230.098 48.1216C231.27 48.54 231.778 46.6733 230.613 46.2614C210.485 39.0328 187.222 42.9142 172.038 58.4334C159.583 71.1204 152.122 93.7395 165.125 108.679C165.936 109.619 167.3 108.255 166.489 107.315V107.341Z" fill="#102067"/>
<path d="M209.15 60.4424C208.049 70.4195 210.134 80.9888 216.764 88.7645C222.789 95.845 232.078 99.6685 241.308 98.2524C242.531 98.0657 242.01 96.2054 240.793 96.3921C231.782 97.7696 222.731 93.4891 217.286 86.3378C211.673 78.9676 210.083 69.4604 211.081 60.4231C211.216 59.1872 209.285 59.2001 209.15 60.4231V60.4424Z" fill="#102067"/>
<path d="M180.84 73.0398C188.83 65.7861 199.038 61.4486 209.806 60.7325C211.035 60.6488 211.048 58.7178 209.806 58.8015C198.539 59.5438 187.857 64.0818 179.501 71.6752C178.581 72.5119 179.945 73.8701 180.866 73.0398H180.84Z" fill="#102067"/>
<path d="M231.448 47.9286C241.045 46.1327 247.431 55.0928 249.651 63.2226C251.975 71.6999 253.043 81.4131 251.544 90.1092C251.331 91.3258 253.192 91.8472 253.404 90.6242C254.369 85.0177 254.176 79.4112 253.481 73.7918C252.838 68.6745 252.11 63.4929 250.16 58.6588C247.019 50.9346 239.764 44.4141 230.933 46.0684C229.716 46.2937 230.231 48.1603 231.448 47.9286Z" fill="#102067"/>
<path d="M246.128 53.5274C255.03 52.0341 257.682 62.7901 258.325 69.4136C259.031 76.8192 258.437 84.2912 256.568 91.4919C256.259 92.6956 258.119 93.2106 258.428 92.0069C260.746 82.9116 261.447 73.0439 259.433 63.8135C257.978 57.1385 253.266 50.3863 245.6 51.6801C244.377 51.886 244.898 53.7463 246.115 53.5403L246.128 53.5274Z" fill="#102067"/>
<path d="M245.929 49.9615C244.77 49.3178 245.317 48.0305 245.929 47.2323C246.765 46.1895 247.744 45.6617 248.954 46.4856C250.383 47.4576 251.413 49.8457 250.177 51.3326C249.385 52.2852 250.743 53.6563 251.541 52.6972C253.949 49.807 251.934 44.5996 248.117 44.1233C244.551 43.6792 241.23 49.601 244.899 51.6287C245.993 52.2273 246.965 50.5601 245.877 49.9615H245.929Z" fill="#102067"/>
<path d="M250.061 45.0568C249.311 36.3918 250.168 27.6628 252.59 19.3094C253.812 15.0817 255.448 10.9851 257.476 7.07945C257.682 6.67393 257.901 6.27484 258.12 5.88863L260.257 6.97646C260.585 7.56221 260.321 9.82797 260.257 10.4717C260.079 13.1071 259.542 15.706 258.66 18.1959C258.255 19.3738 260.121 19.8823 260.521 18.7108C261.517 15.8757 262.085 12.9079 262.207 9.90522C262.265 8.21877 262.606 4.94241 261.209 3.59711C257.811 0.327201 254.94 7.78105 254.097 9.66705C249.147 20.774 247.09 32.9532 248.117 45.0697C248.213 46.2991 250.151 46.312 250.048 45.0697L250.061 45.0568Z" fill="#102067"/>
<path d="M260.593 4.403C264.661 14.2166 266.928 24.6826 267.287 35.2998C267.472 40.55 267.166 45.806 266.373 50.9993C265.684 55.3441 263.032 55.3184 259.512 54.0568C256.842 53.063 254.466 51.4113 252.605 49.2549C251.774 48.328 250.416 49.699 251.24 50.6195C254.285 54.0246 259.969 57.7708 264.841 56.786C269.347 55.8591 268.845 47.2917 269.07 43.8673C269.933 30.2221 267.672 16.5599 262.46 3.92024C261.99 2.78736 260.123 3.27656 260.593 4.43519V4.403Z" fill="#102067"/>
<path d="M247.617 44.0908C246.553 37.1304 245.265 30.2108 243.755 23.332C242.242 16.4639 240.897 9.17093 238.399 2.54743C237.221 -0.561566 234.338 -1.01858 232.909 2.23846C230.598 7.5038 232.072 14.0887 233.141 19.457C233.379 20.6736 235.239 20.1586 235.001 18.9421C234.449 16.4477 234.052 13.9219 233.81 11.3788C233.649 9.20312 233.308 5.90103 234.383 3.93135C236.275 0.442587 236.539 3.101 237.003 4.57504C237.37 5.75942 237.685 6.9631 238.013 8.16035C238.67 10.5549 239.301 12.9579 239.906 15.3696C242.313 25.0034 244.244 34.7423 245.699 44.5864C245.885 45.8094 247.752 45.288 247.565 44.0715L247.617 44.0908Z" fill="#102067"/>
<path d="M233.222 1.38383C227.429 15.944 225.588 32.551 233.756 46.6091C233.89 46.8204 234.1 46.9716 234.343 47.0309C234.586 47.0902 234.843 47.0529 235.059 46.927C235.275 46.8011 235.433 46.5963 235.501 46.3557C235.569 46.1151 235.541 45.8575 235.423 45.6371C227.506 32.0103 229.502 15.9697 235.089 1.89878C235.546 0.740153 233.679 0.238077 233.222 1.38383Z" fill="#102067"/>
<path d="M255.194 56.9724C269.57 67.8226 279.414 83.6172 282.821 101.303C283.053 102.52 284.913 102.005 284.682 100.788C281.137 82.6205 270.979 66.414 256.173 55.3053C255.175 54.5586 254.242 56.2386 255.194 56.9724Z" fill="#102067"/>
<path d="M224.001 158.997C227.053 162.77 230.652 166.066 234.679 168.774C235.709 169.469 236.675 167.796 235.651 167.107C231.766 164.478 228.295 161.285 225.352 157.632C224.573 156.66 223.215 158.037 223.988 158.997H224.001Z" fill="#102067"/>
<path d="M250.031 120.91C249.6 125.77 247.933 130.411 246.536 135.071C245.217 139.449 243.904 143.832 242.674 148.228C240.17 157.008 237.898 165.865 236.276 174.858C233.218 191.793 232.6 209.262 236.862 226.05C237.119 227.073 238.863 226.899 238.754 225.792C237.933 217.207 239.176 208.549 242.378 200.541C242.835 199.382 240.968 198.88 240.518 200.026C237.254 208.191 235.987 217.019 236.823 225.773L238.722 225.515C234.216 207.833 235.291 189.431 238.838 171.684C240.543 163.13 242.796 154.697 245.223 146.323C247.624 138.045 251.216 129.523 251.982 120.904C252.091 119.668 250.16 119.675 250.051 120.904L250.031 120.91Z" fill="#102067"/>
<path d="M241.268 199.599C240.702 208.071 241.616 216.577 243.972 224.735C244.057 224.963 244.224 225.15 244.44 225.261C244.657 225.371 244.907 225.397 245.141 225.332C245.375 225.268 245.577 225.118 245.706 224.912C245.835 224.706 245.882 224.459 245.839 224.22C243.53 216.23 242.637 207.897 243.199 199.599C243.283 198.363 241.352 198.37 241.268 199.599Z" fill="#102067"/>
<path d="M244.338 224.491C250.537 227.265 259.484 224.33 264.698 220.423C267.865 218.048 269.113 214.598 270.021 210.871C271.244 205.818 272.332 200.726 273.394 195.641C277.706 174.953 281.44 154.066 284.587 133.165C286.261 122.068 287.162 110.875 285.289 99.7388C285.077 98.5158 283.216 99.0307 283.422 100.247C285.508 112.477 284.021 124.842 282.045 136.995C280.191 148.363 278.236 159.715 276.181 171.053C274.134 182.394 271.933 193.71 269.403 204.955C268.116 210.665 267.472 216.864 261.833 219.966C257.27 222.483 250.35 225.077 245.316 222.824C244.19 222.322 243.205 223.983 244.338 224.491Z" fill="#102067"/>
<path d="M211.71 161.461C206.561 182.11 201.521 203.429 205.563 224.742C205.782 225.881 207.365 225.495 207.494 224.484C208.099 217.975 209.733 211.602 212.335 205.605L210.539 205.116C210.409 219.269 214.165 233.186 221.398 245.352C221.528 245.573 221.74 245.734 221.988 245.798C222.236 245.863 222.499 245.826 222.721 245.697C222.942 245.567 223.102 245.355 223.167 245.107C223.231 244.859 223.195 244.595 223.065 244.374C216.003 232.503 212.338 218.921 212.47 205.109C212.47 204.221 211.067 203.712 210.668 204.626C207.917 210.932 206.188 217.635 205.544 224.484L207.436 224.227C203.465 203.288 208.543 182.258 213.59 161.969C213.886 160.766 212.026 160.251 211.723 161.461H211.71Z" fill="#102067"/>
<path d="M223.789 243.21C222.316 217.537 225.988 191.83 234.59 167.596C235.008 166.418 233.141 165.916 232.73 167.081C224.072 191.48 220.376 217.363 221.858 243.21C221.928 244.446 223.86 244.459 223.789 243.21Z" fill="#102067"/>
<path d="M253.482 147.12C254.132 140.304 255.934 133.648 258.812 127.436C262.269 120.013 267.306 113.436 273.572 108.164C279.68 103.182 283.381 102.577 285.055 102.422C286.168 102.319 291.447 101.837 295.714 105.293C298.534 107.572 299.692 110.578 300.638 113.906C302.615 121.112 303.445 128.584 303.097 136.048C302.859 142.485 302.608 152.025 302.685 164.37C304.127 170.267 305.576 175.255 306.786 179.137C307.996 183.018 310.197 190.079 313.757 198.814C316.685 205.997 317.715 207.439 318.263 211.527C318.636 214.307 319.234 219.167 317.033 224.651C315.121 229.235 311.824 233.106 307.603 235.723C306.605 247.702 306.367 257.756 306.374 265.242C306.374 273.037 306.374 278.605 307.191 286.155C308.215 295.869 309.418 298.385 310.879 307.886C311.896 314.51 312.257 321.822 312.933 336.208C313.763 353.832 313.351 355.274 314.162 369.828C314.806 381.936 315.173 387.993 316.216 395.665C317.748 406.968 318.868 415.233 321.545 425.597C322.595 429.671 323.064 432.548 324.004 438.309C325.601 448.1 325.292 450.539 324.004 452.657C322.485 455.129 320.013 456.519 315.804 458.811C312.74 460.497 312.308 460.227 308.833 462.087C304.134 464.604 301.752 465.859 300.632 468.241C299.512 470.622 299.988 473.01 301.044 477.671C302.215 482.82 303.117 483.464 304.732 488.742C306.31 493.788 307.138 499.039 307.191 504.326C307.191 508.831 307.191 511.664 305.962 512.114C303.484 513.015 296.95 504.306 294.073 495.713C292.38 490.699 291.53 488.188 291.202 485.871C290.893 483.702 290.751 481.256 289.149 478.495C288.447 477.278 287.16 475.064 285.872 475.212C283.851 475.444 282.358 481.398 282.59 486.695C282.731 489.984 283.452 491.001 285.872 498.996C287.184 503.034 288.278 507.141 289.149 511.297C289.651 513.871 291.801 524.975 289.149 526.056C287.334 526.797 284.456 522.362 283.002 523.186C281.547 524.01 283.903 529.346 282.59 530.157C281.006 531.142 274.865 525.007 270.289 518.268C266.865 513.233 264.236 507.701 262.494 501.867C260.342 494.272 259.786 486.315 260.859 478.495C257.011 483.053 253.449 487.844 250.193 492.842C247.618 496.82 244.773 500.631 242.404 504.731C239.527 509.72 237.551 513.949 235.021 513.743C234.616 513.684 234.226 513.544 233.875 513.333C233.523 513.122 233.217 512.844 232.974 512.513C231.822 510.936 233.013 507.75 235.433 501.442C236.779 497.934 237.454 496.177 237.487 496.112C242.295 485.125 250.193 474.375 250.193 474.375C256.691 465.546 264.114 457.437 272.336 450.185C280.402 443.118 289.2 436.932 298.579 431.731C295.727 416.443 293.011 401.903 292.837 400.982C281.894 342.278 280.955 337.573 279.719 330.454C274.86 302.208 271.439 273.733 269.471 245.14C263.13 243.462 257.246 240.383 252.253 236.128C251.161 228.527 250.749 220.843 251.023 213.168C251.583 197.334 254.763 190.453 255.529 175.834C256.012 166.215 255.325 156.573 253.482 147.12Z" fill="white"/>
<path d="M253.666 149.874C255.396 138.756 259.442 128.124 265.542 118.669C268.67 113.854 272.333 108.955 277.251 105.834C282.561 102.461 289.957 101.424 295.029 105.834C298.66 109.001 300.101 113.95 300.88 118.534C301.859 124.327 302.007 130.319 302.168 136.177C302.519 148.772 301.906 161.376 300.333 173.877C300.179 175.107 302.11 175.094 302.264 173.877C303.715 162.419 304.36 150.873 304.195 139.325C304.047 130.191 304.388 119.66 300.848 111.002C297.868 103.748 291.154 99.7058 283.301 101.257C274.367 103.014 268.233 110.861 263.592 118.102C257.565 127.587 253.557 138.212 251.819 149.314C251.626 150.531 253.486 151.052 253.679 149.823L253.666 149.874Z" fill="#102067"/>
<path d="M301.879 163.141C303.469 173.942 307.834 183.913 311.644 194.038C315.455 204.163 319.542 215.015 316.066 225.733C315.68 226.917 317.547 227.426 317.927 226.248C321.28 215.917 317.894 205.386 314.283 195.615C310.273 184.769 305.439 174.141 303.746 162.607C303.566 161.384 301.699 161.905 301.879 163.122V163.141Z" fill="#102067"/>
<path d="M256.357 164.641C254.883 188.612 245.859 212.647 251.8 236.663C252.096 237.873 253.963 237.358 253.66 236.148C247.777 212.331 256.827 188.412 258.288 164.641C258.366 163.398 256.435 163.398 256.357 164.641Z" fill="#102067"/>
<path d="M252.384 237.262C254.454 239.614 256.976 241.525 259.799 242.884C262.621 244.243 265.688 245.021 268.817 245.173C270.06 245.244 270.053 243.313 268.817 243.242C265.941 243.095 263.123 242.369 260.534 241.107C257.944 239.845 255.637 238.073 253.749 235.898C252.925 234.964 251.56 236.336 252.384 237.262Z" fill="#102067"/>
<path d="M254.464 236.933C262.793 230.226 272.931 226.634 283.165 224.008C293.715 221.279 306.248 218.453 315.646 225.791C316.611 226.544 317.989 225.186 317.01 224.426C307.606 217.075 295.569 218.942 284.775 221.607C273.465 224.407 262.291 228.166 253.099 235.568C252.133 236.347 253.504 237.705 254.464 236.933Z" fill="#102067"/>
<path d="M315.893 225.455C313.894 229.598 310.82 233.128 306.991 235.677C305.961 236.366 306.926 238.039 307.969 237.344C312.087 234.62 315.399 230.841 317.56 226.402C318.101 225.288 316.44 224.31 315.893 225.43V225.455Z" fill="#102067"/>
<path d="M267.089 228.065C270.423 281.4 279.319 334.169 289.489 386.578C292.366 401.428 295.346 416.258 298.32 431.082C298.565 432.305 300.431 431.79 300.187 430.574C289.708 378.384 279.196 326.11 273.068 273.193C271.337 258.183 269.959 243.14 269.02 228.065C268.942 226.829 267.005 226.816 267.089 228.065Z" fill="#102067"/>
<path d="M306.863 221.396C305.878 236.69 304.887 252.016 305.26 267.349C305.621 282.153 307.906 296.669 310.062 311.299C312.321 326.638 313.081 341.984 313.39 357.477C313.686 372.282 313.873 387.138 315.849 401.84C316.898 409.648 318.681 417.25 320.522 424.897C322.646 433.715 324.468 442.688 323.097 451.771C322.916 452.987 324.777 453.515 324.957 452.286C327.094 437.841 321.739 424.086 319.093 410.098C316.235 395.011 315.746 379.607 315.43 364.287C315.121 349.206 314.935 334.112 313.049 319.127C311.118 303.949 308.17 288.944 307.397 273.638C306.522 256.213 307.648 238.776 308.768 221.396C308.852 220.154 306.921 220.16 306.837 221.396H306.863Z" fill="#102067"/>
<path d="M323.804 450.198C318.654 460.284 300.213 459.209 298.893 471.819C298.282 477.67 301.905 483.56 303.399 489.07C305.254 496.032 306.05 503.234 305.761 510.434C305.716 511.676 307.647 511.676 307.692 510.434C307.926 504.442 307.433 498.444 306.225 492.571C305.579 489.489 304.732 486.453 303.688 483.483C302.568 480.303 300.882 476.981 300.792 473.55C300.599 465.826 308.664 462.968 314.489 460.284C318.944 458.237 323.179 455.675 325.477 451.176C326.037 450.069 324.37 449.09 323.81 450.198H323.804Z" fill="#102067"/>
<path d="M298.353 431.056C279.836 441.076 263.714 454.995 251.101 471.853C244.631 480.39 239.227 489.685 235.008 499.532C233.782 502.401 232.756 505.352 231.938 508.363C231.539 509.882 230.767 512.019 231.487 513.596C233.251 517.458 237.602 512.952 239.083 511.317C243.061 506.812 245.488 501.179 248.687 496.159C252.48 490.256 256.86 484.753 261.76 479.732C262.629 478.837 261.264 477.473 260.395 478.367C253.681 485.367 247.896 493.203 243.183 501.681C242.089 503.612 241.001 505.544 239.727 507.352C238.922 508.535 238.022 509.65 237.036 510.687C236.73 511.09 236.363 511.444 235.948 511.736C235.549 512.302 235.034 512.257 234.416 511.607C233.367 511.607 233.026 511.285 233.386 510.577C233.026 508.743 234.912 505.099 235.568 503.323C236.633 500.486 237.843 497.706 239.192 494.994C252.29 468.496 273.311 446.733 299.338 432.724C300.432 432.138 299.461 430.471 298.366 431.056H298.353Z" fill="#102067"/>
<path d="M260.256 476.357C258.415 496.826 263.88 518.905 281.807 530.941C282.843 531.637 283.809 529.963 282.779 529.274C265.399 517.624 260.417 496.099 262.181 476.357C262.29 475.115 260.359 475.121 260.25 476.357H260.256Z" fill="#102067"/>
<path d="M282.79 475.38C276.83 492.566 292.548 508.369 288.004 525.517C287.944 525.761 287.982 526.018 288.109 526.235C288.236 526.451 288.442 526.61 288.684 526.677C288.926 526.744 289.185 526.714 289.405 526.594C289.625 526.473 289.79 526.272 289.864 526.032C294.428 508.807 278.748 492.901 284.65 475.895C285.062 474.717 283.196 474.215 282.79 475.38Z" fill="#102067"/>
<path d="M283.256 530.627C284.807 527.808 283.848 525.053 282.786 522.208C281.144 517.824 279.303 513.518 277.688 509.128C274.437 500.329 272.03 491.047 273.536 481.617C273.736 480.401 271.875 479.879 271.676 481.109C270.44 488.833 271.573 496.467 273.851 503.876C275.107 507.957 276.671 511.935 278.248 515.9C279.638 519.408 283.623 525.954 281.589 529.655C280.996 530.743 282.664 531.722 283.256 530.627Z" fill="#102067"/>
<path d="M277.202 511.4C278.315 515.514 280.052 519.432 282.352 523.019C283.89 525.362 285.699 527.525 288.724 527.042C289.954 526.849 289.432 524.989 288.216 525.182C285.293 525.639 283.279 520.978 282.191 518.893C280.875 516.343 279.833 513.661 279.082 510.892C279.004 510.657 278.84 510.461 278.622 510.343C278.404 510.226 278.149 510.197 277.91 510.263C277.671 510.328 277.467 510.482 277.339 510.694C277.211 510.906 277.169 511.159 277.222 511.4H277.202Z" fill="#102067"/>
<path d="M284.023 476.074C287.718 472.61 289.282 481.538 289.778 483.457C290.389 485.832 291.065 488.2 291.786 490.537C293.036 494.613 294.641 498.572 296.581 502.368C298.364 505.773 300.669 510.015 303.7 512.493C305.361 513.845 308.071 513.6 307.872 510.993C307.781 509.757 305.85 509.751 305.94 510.993C305.51 511.01 305.084 510.906 304.711 510.692C304.338 510.478 304.032 510.163 303.829 509.783C303.398 509.294 302.992 508.786 302.606 508.264C301.791 507.208 301.023 506.114 300.302 504.981C299.206 503.227 298.211 501.411 297.322 499.542C295.308 495.175 293.676 490.641 292.442 485.993C291.503 482.626 291.265 477.361 288.58 474.844C287.809 474.055 286.76 473.599 285.657 473.573C284.553 473.548 283.484 473.956 282.678 474.709C281.77 475.559 283.135 476.923 284.042 476.074H284.023Z" fill="#102067"/>
<path d="M257.91 135.484C260.279 130.405 266.458 131.911 270.783 132.819C274.562 133.61 278.224 133.765 281.951 132.606C285.339 131.489 288.44 129.641 291.034 127.193C294.194 124.316 296.917 120.93 301.075 119.469C302.24 119.057 301.719 117.19 300.567 117.602C296.705 118.973 293.963 121.709 291.066 124.502C287.294 128.107 282.981 131.042 277.639 131.518C271.131 132.104 260.15 126.06 256.217 134.512C255.696 135.632 257.363 136.61 257.884 135.484H257.91Z" fill="#102067"/>
<path d="M261.958 125.358C267.185 119.61 275.611 121.973 282.427 121.149C285.364 120.817 288.166 119.736 290.563 118.007C293.402 115.993 295.842 113.547 299.305 112.658C300.508 112.349 299.993 110.489 298.79 110.798C295.867 111.545 293.608 113.27 291.259 115.079C287.689 117.987 283.201 119.53 278.597 119.43C272.289 119.494 265.254 118.87 260.574 123.994C259.737 124.908 261.102 126.279 261.939 125.358H261.958Z" fill="#102067"/>
<path d="M254.195 146.811C257.748 143.439 262.312 141.739 267.146 141.282C271.98 140.825 276.512 142.19 281.243 141.965C289.649 141.572 296.17 135.528 301.841 129.928C302.735 129.052 301.364 127.688 300.476 128.563C297.071 131.897 293.569 135.27 289.366 137.575C284.216 140.413 279.473 139.95 273.847 139.403C266.316 138.662 258.456 140.079 252.818 145.434C251.91 146.29 253.281 147.655 254.182 146.799L254.195 146.811Z" fill="#102067"/>
<path d="M270.56 112.761C274.532 109.304 279.971 110.572 284.766 109.851C288.269 109.302 291.606 107.983 294.537 105.989C295.567 105.3 294.602 103.627 293.565 104.322C289.143 107.276 284.657 108.1 279.404 108.261C275.626 108.377 272.118 108.853 269.183 111.409C268.243 112.226 269.614 113.591 270.547 112.774L270.56 112.761Z" fill="#102067"/>
<path d="M257.91 155.881C261.373 152.457 266.278 154.04 270.52 154.594C274.449 155.11 278.438 154.947 282.312 154.111C290.32 152.379 296.956 147.487 303.348 142.628C304.326 141.887 303.348 140.207 302.376 140.96C294.871 146.657 287.166 152.109 277.465 152.881C270.823 153.409 262.017 149.109 256.546 154.51C255.657 155.385 257.028 156.75 257.91 155.875V155.881Z" fill="#102067"/>
<path d="M258.033 168.542C262.146 165.651 266.227 165.323 271.093 165.754C275.058 166.102 278.624 165.407 282.402 164.235C285.846 163.167 289.232 161.924 292.199 159.839C295.418 157.592 298.224 154.438 302.369 154.175C303.599 154.097 303.612 152.166 302.369 152.243C299.112 152.456 296.666 154.001 294.13 155.938C290.486 158.821 286.34 161.003 281.9 162.375C279.558 163.198 277.124 163.732 274.652 163.965C272.219 164.1 269.838 163.534 267.417 163.521C263.691 163.524 260.06 164.702 257.041 166.887C256.031 167.595 256.996 169.269 258.013 168.554L258.033 168.542Z" fill="#102067"/>
<path d="M257.468 180.895C259.515 176.318 265.102 177.413 268.977 178.32C272.568 179.163 275.922 179.64 279.449 178.256C286.897 175.327 292.638 165.176 301.605 167.693C301.853 167.76 302.117 167.727 302.339 167.599C302.562 167.472 302.725 167.261 302.793 167.014C302.86 166.766 302.826 166.502 302.699 166.279C302.572 166.057 302.361 165.894 302.114 165.826C291.976 162.988 286.511 173.962 278.02 176.73C271.584 178.829 259.753 171.072 255.8 179.917C255.298 181.043 256.959 182.021 257.468 180.888V180.895Z" fill="#102067"/>
<path d="M255.036 191.715C257.727 186.366 264.517 188.117 269.107 189.083C273.947 190.106 278.009 190.009 282.315 187.383C286.905 184.577 291.327 179.492 297.217 180.303C300.995 180.805 304.143 183.103 307.599 180.419C308.584 179.659 307.207 178.301 306.235 179.054C303.55 181.139 300.178 178.681 297.384 178.333C295.198 178.11 292.992 178.488 291.005 179.427C286.261 181.506 282.772 185.928 277.758 187.435C270.542 189.597 258.126 181.307 253.369 190.763C252.815 191.87 254.482 192.848 255.036 191.741V191.715Z" fill="#102067"/>
<path d="M253.311 205.508C254.367 200.088 260.958 204.633 263.481 205.862C265.216 206.819 267.219 207.174 269.178 206.873C274.417 205.875 276.992 200.725 280.906 197.713C286.19 193.677 292.447 196.767 298.253 197.571C303.576 198.299 308.121 196.632 311.835 192.763C312.691 191.868 311.333 190.504 310.47 191.398C307.696 194.289 304.31 196.052 300.235 195.84C297.126 195.679 294.14 194.681 291.095 194.121C285.901 193.169 281.627 194.083 277.829 197.867C275.692 199.992 273.877 202.541 271.212 204.053C267.086 206.409 264.234 203.796 260.623 202.09C257.263 200.5 252.326 200.507 251.451 204.993C251.213 206.21 253.073 206.731 253.311 205.508Z" fill="#102067"/>
<path d="M251.679 225.92C253.907 223.409 256.308 220.77 259.404 219.386C263.182 217.674 265.931 219.451 269.6 220.242C275.167 221.446 280.233 219.251 284.192 215.421C286.303 213.387 288.279 210.915 290.996 209.66C295.122 207.729 299.55 209.789 303.554 211.005C307.963 212.351 313.428 212.782 316.621 208.836C317.4 207.877 316.041 206.5 315.256 207.472C310.531 213.31 302.279 207.813 296.589 207.073C290.436 206.274 286.934 210.13 282.84 214.057C280.066 216.741 276.835 218.607 272.87 218.646C269.651 218.646 266.993 216.927 263.858 216.638C258.206 216.11 253.733 220.686 250.302 224.555C249.478 225.482 250.843 226.853 251.667 225.92H251.679Z" fill="#102067"/>
<path d="M80.0273 257.057C97.0206 259.149 113.119 268.456 123.914 282.437" stroke="black" stroke-width="1.93105" stroke-miterlimit="10" stroke-linecap="round"/>
<path d="M60.3884 193.002C60.3494 192.886 60.2779 192.783 60.1825 192.706C60.0876 192.625 59.9713 192.574 59.8477 192.558C59.7257 192.541 59.6013 192.556 59.4873 192.603C59.3744 192.654 59.2767 192.734 59.2041 192.835L55.0974 198.686L50.9327 186.366C50.8937 186.249 50.8222 186.147 50.7267 186.069C50.6373 185.996 50.5312 185.945 50.4178 185.921C50.2952 185.904 50.17 185.921 50.0573 185.973C49.9433 186.019 49.845 186.098 49.7741 186.198L45.6674 192.049L41.4963 179.736C41.4584 179.617 41.3868 179.512 41.2903 179.433C41.1935 179.356 41.0782 179.305 40.9556 179.285C40.833 179.267 40.7079 179.285 40.5952 179.337C40.4812 179.383 40.3829 179.461 40.3119 179.562L34.5188 187.833C34.4558 187.919 34.4152 188.02 34.4006 188.125C34.386 188.231 34.3978 188.338 34.4351 188.438L38.722 201.106C38.76 201.225 38.8315 201.33 38.928 201.408C39.0248 201.486 39.1402 201.537 39.2627 201.557C39.3853 201.574 39.5105 201.557 39.6232 201.505C39.7372 201.459 39.8355 201.38 39.9064 201.28L44.0131 195.422L48.1778 207.742C48.2194 207.861 48.2929 207.965 48.3902 208.045C48.4851 208.126 48.6013 208.177 48.7249 208.193C48.8475 208.211 48.9726 208.193 49.0853 208.141C49.2002 208.093 49.2986 208.013 49.3686 207.91L53.4688 202.059L57.6399 214.379C57.6778 214.497 57.7494 214.602 57.8459 214.681C57.9427 214.759 58.0581 214.81 58.1806 214.829C58.3035 214.845 58.4283 214.827 58.5417 214.777C58.6551 214.727 58.7528 214.647 58.8243 214.546L64.6174 206.281C64.681 206.197 64.721 206.097 64.7333 205.991C64.7595 205.888 64.7595 205.78 64.7333 205.676L60.3884 193.002Z" fill="black"/>
</g>
<defs>
<clipPath id="clip0_1076_15738">
<rect width="532.05" height="531.11" fill="white" transform="translate(0.5)"/>
</clipPath>
</defs>
</svg>
