<svg width="453" height="423" viewBox="0 0 453 423" fill="none" xmlns="http://www.w3.org/2000/svg">
<g clip-path="url(#clip0_1417_5258)">
<g clip-path="url(#clip1_1417_5258)">
<path d="M271.424 65.1866C271.424 65.1866 334.518 52.1187 451.358 51.8398C451.358 51.8398 435.698 92.9955 441.836 109.22C447.975 125.444 340.066 100.645 310.632 106.9C281.199 113.155 264.232 114.418 271.424 65.1866Z" fill="white" stroke="black" stroke-width="1.73846" stroke-miterlimit="10"/>
</g>
<path d="M52.1176 242.429C42.6865 241.962 33.3266 244.279 25.2071 249.092C17.0877 253.905 10.5688 261 6.46495 269.491C2.71416 277.323 1.07933 285.997 1.72264 294.654C2.24957 303.897 5.02118 310.568 6.94972 315.071C9.44734 320.895 13.0093 328.939 21.2188 335.962C25.5865 339.908 30.7767 342.836 36.4153 344.537C41.4 345.973 45.373 345.984 49.7306 345.963C53.4191 345.963 60.8592 345.847 69.2268 343.112C82.0205 338.903 90.33 330.749 94.4295 326.019C98.3725 326.573 102.374 326.573 106.317 326.019C112.593 325.093 118.596 322.826 123.916 319.375C129.269 315.991 133.945 311.644 137.706 306.554C140.398 302.924 145.283 296.353 146.742 286.61C148.323 275.952 144.909 267.671 142.938 262.873C139.113 253.902 133.055 246.055 125.339 240.078C113.894 231.187 102.354 229.183 96.3317 228.209C88.4278 226.936 78.606 225.353 67.7988 230.108C61.6415 232.874 56.2572 237.104 52.1176 242.429Z" fill="white"/>
<path d="M50.859 240.695C40.0716 240.839 29.6014 244.359 20.9245 250.759C12.1674 257.256 5.75867 266.414 2.66131 276.858C1.09955 282.087 0.377486 287.529 0.521996 292.983C0.740156 298.868 1.92205 304.677 4.02077 310.181C6.01345 315.597 8.58381 320.785 11.6875 325.653C14.5343 330.22 18.104 334.295 22.2576 337.721C26.6587 341.205 31.7642 343.695 37.2222 345.018C42.855 346.428 48.7197 346.791 54.5105 346.644C55.949 346.607 57.3823 346.533 58.8155 346.444C59.8219 346.375 59.8325 344.797 58.8155 344.865C47.7501 345.581 35.9312 344.865 26.3465 338.731C17.3572 332.944 11.4398 323.438 7.21392 313.868C4.8375 308.481 2.99854 302.768 2.3715 296.897C1.80241 291.649 2.07634 286.344 3.18296 281.183C5.36444 270.828 10.8411 261.455 18.7957 254.463C26.7151 247.625 36.5805 243.434 47.0072 242.479C48.2893 242.367 49.5733 242.307 50.859 242.3C51.0686 242.3 51.2696 242.217 51.4179 242.069C51.5661 241.921 51.6494 241.72 51.6494 241.511C51.6494 241.301 51.5661 241.101 51.4179 240.953C51.2696 240.805 51.0686 240.722 50.859 240.722V240.695Z" fill="black"/>
<path d="M95.909 324.066C86.9513 324.592 78.1148 321.435 70.8644 316.264C63.7878 311.214 58.2446 304.264 53.9343 296.799C52.1986 293.832 50.7736 290.694 49.682 287.435C48.6145 284.139 47.8352 280.758 47.353 277.328C46.2875 270.157 46.5106 262.853 48.0117 255.759C49.4607 249.141 52.2271 242.581 57.0484 237.688C62.5021 232.148 70.0529 229.302 77.6406 228.218C85.6287 227.077 93.912 227.84 101.71 229.797C109.887 231.798 117.594 235.372 124.4 240.318C131.097 245.235 136.563 251.633 140.371 259.01C144.17 266.316 146.081 274.454 145.93 282.684C145.878 284.699 145.686 286.708 145.356 288.697C145.192 289.691 146.715 290.118 146.878 289.118C148.225 280.728 147.353 272.132 144.349 264.182C141.375 256.162 136.554 248.954 130.275 243.138C123.88 237.318 116.359 232.867 108.176 230.06C100.137 227.219 91.6385 225.899 83.1153 226.167C75.2115 226.456 67.0863 228.318 60.4576 232.806C54.3453 236.957 50.2827 243.17 47.9221 250.083C45.5299 257.095 44.7975 264.676 45.2243 272.052C45.6406 279.18 47.1317 286.34 50.0825 292.869C51.8157 296.591 53.8938 300.144 56.2897 303.48C58.8466 307.164 61.7932 310.563 65.0787 313.618C71.7812 319.773 80.154 324.213 89.2487 325.413C91.449 325.704 93.6718 325.789 95.8879 325.665C96.8996 325.613 96.9049 324.034 95.8879 324.087L95.909 324.066Z" fill="black"/>
<path d="M59.555 346.271C70.0657 344.651 79.9177 340.142 88.0088 333.251C90.2988 331.298 92.4274 329.164 94.3741 326.869C95.0275 326.096 93.9104 324.975 93.257 325.749C86.5052 333.692 77.6565 339.585 67.717 342.757C64.9137 343.649 62.0433 344.316 59.1334 344.751C58.1323 344.904 58.5591 346.424 59.555 346.271Z" fill="black"/>
<path d="M94.6805 325.948C103.944 327.526 113.507 325.669 121.801 321.35C129.895 317.141 136.555 310.555 141.408 302.89C144.11 298.594 146.289 293.991 147.9 289.18C148.226 288.212 146.698 287.802 146.377 288.759C143.651 297.051 139.107 304.632 133.077 310.949C126.869 317.406 118.915 321.92 110.183 323.944C105.229 325.074 100.103 325.239 95.0862 324.428C94.0904 324.259 93.6635 325.78 94.6647 325.948H94.6805Z" fill="black"/>
<path d="M75.5113 263.129C88.3629 264.596 99.7497 271.667 109.234 280.1C111.959 282.525 114.562 285.077 117.101 287.697C117.813 288.428 118.93 287.308 118.218 286.582C109.076 277.149 98.7222 268.384 86.1551 263.991C82.7109 262.785 79.1426 261.967 75.5165 261.55C74.5048 261.44 74.5154 263.018 75.5165 263.129H75.5113Z" fill="black"/>
<path d="M102.805 272.841C103.173 270.538 104.04 268.344 105.345 266.41C106.65 264.477 108.361 262.851 110.361 261.645C110.534 261.536 110.657 261.364 110.706 261.166C110.754 260.967 110.724 260.758 110.621 260.581C110.518 260.405 110.35 260.275 110.153 260.219C109.956 260.164 109.745 260.186 109.565 260.283C107.387 261.587 105.518 263.347 104.088 265.443C102.658 267.538 101.7 269.919 101.282 272.42C101.118 273.414 102.641 273.84 102.805 272.841Z" fill="black"/>
<path d="M25.5422 284.369C33.7542 284.104 41.8738 286.163 48.9639 290.308C49.1449 290.414 49.3606 290.444 49.5637 290.391C49.7668 290.339 49.9405 290.207 50.0467 290.027C50.153 289.846 50.1829 289.631 50.13 289.428C50.0772 289.225 49.9458 289.052 49.7648 288.946C42.4278 284.654 34.0254 282.52 25.5264 282.79C24.5147 282.827 24.5094 284.405 25.5264 284.369H25.5422Z" fill="black"/>
<path d="M137.135 115.625C132.151 116.532 127.514 118.794 123.736 122.164C119.884 125.693 117.097 130.227 115.69 135.253C115.105 137.179 114.414 140.146 114.799 152.204C114.994 158.364 115.363 163.546 115.69 167.371C114.794 170.596 113.982 174.073 113.308 177.777C111.764 186.31 111.165 194.986 111.522 203.65C116.501 204.787 121.607 205.283 126.713 205.128C127.249 209.165 128.147 213.146 129.395 217.023C130.601 220.753 131.418 222.141 132.372 223.267C134.88 226.229 138.2 227.25 139.817 227.728C156.152 232.542 167.217 234.862 167.217 234.862C177.756 237.077 185.802 239.218 190.449 240.512C195.892 242.038 200.324 243.427 203.254 244.379C206.115 244.59 208.983 244.08 211.595 242.895C213.497 241.996 214.045 241.254 219.936 236.056C223.624 232.826 225.427 231.211 226.191 230.706C230.353 227.96 232.877 227.739 233.341 225.65C233.475 224.823 233.343 223.975 232.964 223.228C232.586 222.48 231.98 221.872 231.233 221.489C229.294 220.595 226.196 221.831 224.678 225.056C226.915 222.432 229.411 220.04 232.129 217.917C234.939 215.768 237.937 213.877 241.087 212.267C242.536 211.493 243.774 210.894 244.659 210.483C243.094 209.062 241.267 207.958 239.279 207.232C236.895 206.387 234.351 206.083 231.834 206.343C226.918 206.869 223.572 209.5 220.816 211.693C217.012 214.75 216.137 216.723 210.984 222.699C207.922 226.255 205.266 229.012 203.538 230.727C201.641 230.059 199.202 229.149 196.388 228.049C192.357 226.471 190.328 225.661 188.052 224.482C186.018 223.43 184.116 222.194 180.306 219.748C176.575 217.333 176.549 217.196 174.052 215.586C169.062 212.377 166.464 210.704 163.028 209.342C159.693 208.033 156.18 207.231 152.606 206.964L150.819 198.931L161.837 191.797C161.569 183.005 158.423 174.544 152.88 167.707C152.406 160.9 151.699 155.223 151.093 151.052C148.137 130.703 144.359 124.411 141.862 121.017C140.458 119.077 138.876 117.271 137.135 115.625Z" fill="white"/>
<path d="M137.584 115.692C146.136 126.493 149.134 140.418 150.52 153.807C150.952 157.942 151.247 162.088 151.537 166.228C151.611 167.238 153.191 167.243 153.118 166.228C152.106 151.929 151.01 137.225 144.661 124.115C143.029 120.728 141.03 117.53 138.701 114.577C138.069 113.777 136.957 114.903 137.584 115.692Z" fill="black"/>
<path d="M119.67 125.186C112.699 134.466 113.437 146.729 114.48 157.64C114.817 161.207 115.175 164.774 115.291 168.356C115.328 169.372 116.909 169.372 116.872 168.356C116.487 156.877 113.526 145.03 117.083 133.761C117.95 130.963 119.287 128.332 121.035 125.98C121.646 125.165 120.276 124.402 119.67 125.186Z" fill="black"/>
<path d="M115.201 165.144C112.058 174.877 110.513 185.053 110.627 195.278C110.666 198.161 110.841 201.037 111.154 203.906C111.259 204.911 112.84 204.921 112.735 203.906C111.686 193.883 112.269 183.756 114.463 173.919C115.095 171.113 115.856 168.334 116.745 165.581C117.055 164.607 115.533 164.192 115.222 165.16L115.201 165.144Z" fill="black"/>
<path d="M111.732 204.136C115.389 206.093 119.594 206.062 123.609 205.578C127.53 205.099 131.439 204.441 135.312 203.694C142.768 202.253 150.287 200.169 156.8 196.15C158.604 195.036 160.31 193.773 161.901 192.373C162.586 191.768 163.392 191.205 163.308 190.195C163.234 189.353 162.28 188.617 161.606 189.427C160.931 190.237 162.069 191.321 162.723 190.542L162.354 190.668L161.795 190.437C161.374 190.105 161.853 190.316 161.743 190.363C161.896 190.3 161.453 190.647 161.474 190.631C161.174 190.91 160.863 191.189 160.552 191.463C159.877 192.048 159.175 192.604 158.444 193.13C157.1 194.116 155.692 195.013 154.229 195.813C151.227 197.435 148.069 198.75 144.802 199.738C138.221 201.79 131.339 202.942 124.516 203.878C120.527 204.404 116.19 204.736 112.523 202.774C111.627 202.29 110.826 203.652 111.727 204.136H111.732Z" fill="black"/>
<path d="M151.598 166.677C156.398 173.966 159.902 182.026 161.957 190.504C162.194 191.493 163.717 191.072 163.48 190.083C161.386 181.471 157.821 173.285 152.941 165.883C152.388 165.041 151.018 165.83 151.577 166.683L151.598 166.677Z" fill="black"/>
<path d="M121.917 128.918C120.711 138.977 120.605 149.138 121.601 159.22C121.879 162.05 122.244 164.872 122.697 167.685C122.855 168.684 124.378 168.264 124.22 167.264C122.647 157.37 122.152 147.335 122.745 137.335C122.906 134.529 123.157 131.723 123.498 128.918C123.619 127.908 122.039 127.918 121.917 128.918Z" fill="black"/>
<path d="M123.036 168.558C121.267 177.607 120.641 186.842 121.17 196.046C121.321 198.666 121.569 201.277 121.913 203.88C121.919 204.087 122.004 204.285 122.151 204.432C122.298 204.579 122.496 204.663 122.704 204.669C122.913 204.667 123.113 204.584 123.261 204.436C123.409 204.288 123.493 204.089 123.494 203.88C122.321 194.849 122.275 185.707 123.357 176.665C123.668 174.087 124.079 171.525 124.574 168.979C124.764 167.985 123.241 167.559 123.051 168.558H123.036Z" fill="black"/>
<path d="M130.254 122.129C129.482 133.495 129.604 144.904 130.618 156.251C130.902 159.428 131.254 162.599 131.672 165.762C131.68 165.969 131.765 166.165 131.912 166.312C132.059 166.458 132.255 166.543 132.462 166.551C132.672 166.551 132.873 166.468 133.021 166.32C133.169 166.172 133.253 165.971 133.253 165.762C131.744 154.472 131.12 143.08 131.387 131.693C131.464 128.501 131.612 125.313 131.83 122.129C131.898 121.113 130.318 121.119 130.249 122.129H130.254Z" fill="black"/>
<path d="M131.591 165.758C131.483 175.343 132.393 184.914 134.304 194.308C134.852 197.002 135.483 199.674 136.196 202.326C136.251 202.528 136.384 202.7 136.567 202.804C136.749 202.908 136.965 202.936 137.168 202.881C137.371 202.826 137.543 202.692 137.647 202.51C137.752 202.328 137.779 202.112 137.724 201.91C135.264 192.746 133.787 183.346 133.319 173.87C133.189 171.166 133.14 168.462 133.171 165.758C133.171 164.742 131.591 164.742 131.591 165.758Z" fill="black"/>
<path d="M136.066 120.726C138.525 132.76 140.555 144.86 142.157 157.026C142.61 160.484 143.026 163.944 143.406 167.406C143.517 168.406 145.103 168.416 144.987 167.406C143.634 155.106 141.841 142.864 139.607 130.68C138.971 127.208 138.298 123.743 137.589 120.285C137.388 119.29 135.86 119.711 136.066 120.705V120.726Z" fill="black"/>
<path d="M143.38 168.58C145.979 178.179 148.089 187.903 149.703 197.715C149.872 198.714 151.395 198.293 151.231 197.294C149.612 187.483 147.502 177.759 144.908 168.159C144.839 167.973 144.702 167.82 144.525 167.73C144.348 167.639 144.143 167.618 143.951 167.671C143.76 167.724 143.595 167.847 143.489 168.015C143.383 168.183 143.344 168.385 143.38 168.58Z" fill="black"/>
<path d="M126.195 205.159C128.055 209.541 127.855 214.46 129.088 219C129.594 221.122 130.609 223.09 132.044 224.735C133.92 226.76 136.517 227.754 139.131 228.449C145.591 230.164 152.12 231.653 158.627 233.252L178.413 238.118L200.623 243.584C201.614 243.826 202.035 242.306 201.044 242.059L161.984 232.452L142.582 227.681C139.853 227.007 136.902 226.481 134.557 224.835C132.807 223.52 131.531 221.674 130.921 219.574C129.288 214.613 129.641 209.215 127.576 204.359C127.466 204.187 127.294 204.063 127.095 204.015C126.896 203.966 126.686 203.997 126.509 204.1C126.333 204.203 126.203 204.37 126.147 204.567C126.091 204.763 126.114 204.974 126.211 205.154L126.195 205.159Z" fill="black"/>
<path d="M150.302 198.371C150.451 201.025 150.938 203.648 151.751 206.178C152.062 207.141 153.59 206.731 153.274 205.758C152.497 203.372 152.03 200.897 151.883 198.392C151.83 197.382 150.244 197.377 150.302 198.392V198.371Z" fill="black"/>
<path d="M149.766 208.716C157.206 206.391 164.715 209.953 170.843 214.009C177.345 218.328 183.642 223.01 190.666 226.482C194.786 228.524 199.041 230.282 203.402 231.743C204.366 232.069 204.782 230.544 203.818 230.223C196.067 227.61 188.682 224.018 181.845 219.533C178.473 217.339 175.18 215.014 171.834 212.783C168.755 210.648 165.411 208.924 161.885 207.654C157.838 206.286 153.454 205.907 149.35 207.196C148.385 207.496 148.796 209.022 149.771 208.716H149.766Z" fill="black"/>
<path d="M200.533 243.698C202.274 244.645 204.209 245.18 206.189 245.264C208.169 245.348 210.142 244.978 211.957 244.182C215.314 242.693 217.648 239.742 219.914 236.98C221.032 235.559 222.254 234.223 223.57 232.982C225.011 231.791 226.584 230.77 228.26 229.941C229.894 229.042 231.574 228.058 232.776 226.601C233.735 225.433 234.383 223.644 233.687 222.197C232.634 220.003 229.952 220.84 228.276 221.671C226.26 222.703 224.527 224.211 223.228 226.064C222.638 226.895 224.008 227.684 224.593 226.864C225.627 225.416 226.964 224.211 228.513 223.334C229.388 222.839 232.07 221.398 232.375 223.213C232.618 224.649 231.38 225.917 230.368 226.732C229.053 227.691 227.659 228.535 226.2 229.257C224.746 230.043 223.394 231.004 222.174 232.119C221.057 233.194 220.012 234.339 219.044 235.549C217.068 237.943 215.129 240.537 212.421 242.152C210.747 243.127 208.849 243.655 206.911 243.685C204.973 243.716 203.06 243.247 201.355 242.325C200.465 241.836 199.664 243.199 200.56 243.688L200.533 243.698Z" fill="black"/>
<path d="M225.174 227.174C226.228 223.439 229.1 220.598 232.246 218.499C235.934 216.037 240.086 214.359 243.743 211.844C244.576 211.271 243.785 209.903 242.948 210.482C236.129 215.159 226.133 217.815 223.652 226.753C223.603 226.953 223.633 227.163 223.737 227.34C223.841 227.517 224.01 227.647 224.208 227.702C224.407 227.757 224.618 227.732 224.799 227.634C224.979 227.535 225.114 227.37 225.174 227.174Z" fill="black"/>
<path d="M204.217 230.904C206.089 229.521 207.74 227.863 209.112 225.985C210.693 224.007 212.142 221.976 213.665 219.977C216.531 216.231 219.656 212.554 223.645 209.981C225.772 208.564 228.15 207.566 230.653 207.04C231.649 206.841 231.227 205.32 230.231 205.52C220.509 207.472 214.634 216.168 209.049 223.528C207.389 225.706 205.698 227.989 203.416 229.562C202.583 230.136 203.374 231.509 204.217 230.925V230.904Z" fill="black"/>
<path d="M218.73 217.581C221.638 215.198 224.526 212.804 227.45 210.432C229.811 208.517 232.936 206.223 236.134 207.323C237.098 207.649 237.509 206.128 236.55 205.802C233.073 204.613 229.7 206.696 227.034 208.764C223.83 211.252 220.748 213.899 217.613 216.466C216.822 217.113 217.95 218.223 218.73 217.581Z" fill="black"/>
<path d="M221.631 218.803L231.29 211.059C233.898 208.955 237.544 206.324 241.017 208.055C241.923 208.507 242.724 207.15 241.818 206.692C238.024 204.783 234.103 206.877 231.084 209.223C227.522 211.99 224.034 214.863 220.514 217.688C219.718 218.324 220.846 219.434 221.631 218.803Z" fill="black"/>
<path d="M227.161 217.415L236.361 210.823C237.615 209.924 238.996 208.777 240.577 208.603C241.773 208.467 243.274 209.24 243.158 210.592C243.079 211.602 244.66 211.597 244.739 210.592C244.876 208.951 243.564 207.63 242.073 207.178C240.324 206.652 238.532 207.446 237.088 208.393C235.302 209.561 233.595 210.871 231.861 212.112L226.36 216.053C225.543 216.637 226.329 218.005 227.161 217.415Z" fill="black"/>
<path d="M62.975 217.031C60.1981 228.352 58.4488 237.874 57.3159 244.981C56.262 251.736 55.6877 256.555 55.8247 262.526C55.9828 269.213 56.0934 273.858 58.5067 279.182C62.0476 286.984 68.2285 291.14 71.3162 293.16C77.4549 297.19 83.8412 298.979 94.2479 300.294C107.794 301.968 121.489 302.068 135.058 300.594C132.676 303.75 129.394 308.106 125.526 313.383C119.403 321.732 117.986 323.905 116.568 326.467C112.237 334.358 109.386 339.514 111.204 344.606C113.259 350.351 120.088 352.739 122.797 353.55C120.7 354.23 118.772 355.345 117.137 356.822C113.976 359.742 114.355 362.004 110.883 366.039C109.07 368.093 106.981 369.886 104.676 371.368C100.144 374.388 98.3 374.046 96.93 376.424C95.697 378.56 96.7297 379.638 95.7391 383.557C95.108 385.885 94.1025 388.096 92.762 390.102C90.9968 393.222 90.7017 399.261 97.2303 412.108C99.6015 412.413 101.983 412.711 104.375 413.002C115.641 414.37 126.761 415.559 137.735 416.569C139.415 414.514 141.714 413.053 144.29 412.403C149.243 411.256 154.739 413.602 158.29 418.353C164.086 419.084 172.027 419.984 181.522 420.731C190.306 421.425 196.403 421.904 204.754 421.92C213.208 421.978 221.657 421.482 230.047 420.436C236.675 419.552 242.398 418.758 249.706 416.269C254.343 414.691 258.829 412.701 263.111 410.325C263.927 408.414 264.527 406.418 264.897 404.375C265.993 398.304 264.75 393.469 264.001 390.696C262.516 385.178 261.593 381.753 258.342 379.123C253.653 375.287 247.635 375.898 245.833 376.15C243.707 373.426 241.2 371.022 238.388 369.011C234.341 366.193 229.79 364.175 224.983 363.066C222.311 362.372 218.502 362.014 210.982 361.283C198.832 360.12 200.038 360.589 197.878 360.094C189.41 358.148 180.405 353.176 180.005 352.955C177.839 351.745 175.863 350.472 172.86 350.277C170.341 350.114 168.987 350.803 166.605 350.277C164.668 349.788 162.911 348.757 161.541 347.305C161.938 346.116 162.335 344.927 162.732 343.738C167.538 344.667 172.445 344.966 177.328 344.627C182.66 344.248 185.806 343.985 188.646 341.655C192.551 338.446 193.246 333.474 193.389 331.543C195.459 329.394 196.9 326.719 197.556 323.81C197.897 322.256 197.998 320.66 197.857 319.075C199.821 316.417 201.611 313.636 203.216 310.747C206.825 304.255 208.653 298.205 212.173 286.363C214.539 278.367 214.75 276.646 214.56 274.468C213.954 267.687 210.013 262.974 208.901 261.679C204.111 256.108 198.331 254.556 182.987 250.674C168.312 246.991 160.977 245.113 159.154 244.729C148.837 242.551 135.211 239.768 118.945 236.701C119.342 233.544 119.739 230.372 120.136 227.184C114.299 221.906 107.39 217.95 99.8807 215.584C82.7241 210.176 67.9597 215.121 62.975 217.031Z" fill="white"/>
<path d="M119.436 228.09L117.887 235.302C117.837 235.504 117.867 235.718 117.97 235.899C118.073 236.08 118.241 236.214 118.44 236.276C118.642 236.328 118.856 236.299 119.037 236.196C119.218 236.093 119.352 235.923 119.41 235.723L120.964 228.511C121.015 228.312 120.989 228.101 120.891 227.921C120.793 227.741 120.631 227.604 120.437 227.537C120.238 227.484 120.026 227.509 119.845 227.607C119.663 227.704 119.527 227.868 119.462 228.063L119.436 228.09Z" fill="black"/>
<path d="M114.78 236.943C126.43 239.169 138.075 241.436 149.683 243.877C161.291 246.318 172.72 248.959 184.165 251.805C188.649 252.915 193.181 253.862 197.559 255.356C201.938 256.85 206.159 258.881 209.373 262.195C215.859 268.85 214.289 278.736 211.649 286.737C208.135 297.375 203.45 307.712 198.297 317.629C197.649 318.876 196.99 320.123 196.321 321.359C195.842 322.253 197.206 323.053 197.691 322.153C203.227 311.966 208.009 301.388 211.997 290.504C214.948 282.366 217.793 272.486 213.051 264.426C210.69 260.391 206.686 257.587 202.512 255.635C198.207 253.647 193.602 252.479 189.007 251.348C177.747 248.643 166.508 245.876 155.179 243.456C143.328 240.905 131.436 238.558 119.527 236.275L115.191 235.444C114.2 235.255 113.773 236.775 114.774 236.964L114.78 236.943Z" fill="black"/>
<path d="M142.786 267.753C145.807 269.574 149.066 270.969 152.471 271.898C152.671 271.947 152.881 271.916 153.059 271.813C153.236 271.709 153.366 271.54 153.421 271.342C153.476 271.145 153.451 270.933 153.352 270.753C153.254 270.573 153.089 270.438 152.892 270.378C149.621 269.484 146.49 268.142 143.587 266.39C142.712 265.864 141.917 267.227 142.786 267.753Z" fill="black"/>
<path d="M152.085 271.601L130.793 304.881L124.78 314.282C124.253 315.14 125.597 315.934 126.145 315.077L147.438 281.797L153.45 272.396C153.977 271.538 152.628 270.744 152.085 271.601Z" fill="black"/>
<path d="M128.882 312.107C122.369 314.564 117.98 320.293 115.103 326.401C113.531 329.827 112.157 333.34 110.987 336.922C109.865 340.268 109.291 344.009 111.514 347.039C113.522 349.785 116.784 351.221 119.829 352.479C120.767 352.868 121.178 351.337 120.245 350.958C117.727 349.906 115.039 348.738 113.211 346.65C110.977 344.098 111.404 340.805 112.368 337.801C113.431 334.458 114.683 331.179 116.12 327.979C117.414 324.946 119.133 322.112 121.226 319.562C123.374 316.932 126.152 314.887 129.303 313.617C130.246 313.259 129.83 311.733 128.887 312.096L128.882 312.107Z" fill="black"/>
<path d="M115.377 341.27C121.732 334.245 129.955 329.167 139.089 326.629C148.504 324.059 158.473 324.343 167.727 327.444C172.971 329.192 177.886 331.8 182.27 335.162C183.076 335.783 183.851 334.41 183.066 333.799C174.977 327.651 165.248 324.028 155.102 323.388C147.469 322.957 139.836 324.239 132.764 327.141C125.693 330.042 119.363 334.489 114.239 340.154C113.559 340.907 114.676 342.027 115.356 341.27H115.377Z" fill="black"/>
<path d="M133.953 311.319C142.549 308.54 151.573 307.318 160.599 307.71C165.109 307.899 169.592 308.496 173.994 309.494C177.974 310.325 181.846 311.608 185.533 313.318C189.369 315.175 192.91 317.738 195.297 321.325C195.856 322.167 197.226 321.378 196.662 320.526C192.141 313.718 184.153 310.446 176.523 308.478C162.355 304.85 147.446 305.313 133.531 309.815C132.572 310.13 133.004 311.651 133.953 311.335V311.319Z" fill="black"/>
<path d="M196.891 320.785C197.834 322.4 197.302 324.426 196.248 325.856C195.026 327.514 193.129 328.555 191.38 329.539C191.207 329.648 191.083 329.82 191.034 330.019C190.986 330.217 191.016 330.427 191.119 330.603C191.222 330.78 191.39 330.91 191.587 330.965C191.784 331.021 191.995 330.998 192.175 330.902C194.283 329.707 196.427 328.429 197.787 326.383C199.025 324.51 199.42 321.969 198.256 319.964C198.15 319.784 197.976 319.652 197.773 319.6C197.57 319.547 197.354 319.577 197.173 319.683C196.992 319.789 196.861 319.962 196.808 320.165C196.755 320.368 196.785 320.583 196.891 320.764V320.785Z" fill="black"/>
<path d="M192.957 329.086C193.207 332.723 192.014 336.313 189.637 339.081C186.971 342.175 183.188 343.611 179.199 344.048C176.817 344.266 174.424 344.34 172.033 344.268C171.823 344.268 171.622 344.352 171.474 344.5C171.325 344.648 171.242 344.848 171.242 345.058C171.242 345.267 171.325 345.468 171.474 345.616C171.622 345.764 171.823 345.847 172.033 345.847C176.543 345.899 181.233 345.899 185.448 344.079C189.161 342.432 192.067 339.379 193.526 335.593C194.346 333.527 194.692 331.303 194.537 329.086C194.464 328.081 192.883 328.07 192.957 329.086Z" fill="black"/>
<path d="M143.569 326.126C141.482 332.064 139.55 338.056 137.773 344.103C137.724 344.302 137.755 344.513 137.859 344.69C137.962 344.867 138.131 344.996 138.33 345.051C138.528 345.106 138.739 345.081 138.92 344.983C139.1 344.885 139.235 344.72 139.296 344.524C141.052 338.481 142.984 332.489 145.092 326.547C145.429 325.585 143.901 325.174 143.569 326.126Z" fill="black"/>
<path d="M167.786 327.178C165.38 333.038 163.273 339.001 161.463 345.065C161.168 346.038 162.696 346.459 162.986 345.486C164.806 339.415 166.914 333.452 169.309 327.599C169.699 326.657 168.171 326.247 167.786 327.178Z" fill="black"/>
<path d="M122.057 354.835C125.055 351.584 127.327 347.333 131.905 346.181C136.864 344.939 141.822 347.08 146.285 349.032C147.207 349.437 148.014 348.08 147.081 347.67C143.234 345.986 139.251 344.25 134.962 344.245C133.018 344.224 131.094 344.628 129.324 345.429C127.675 346.255 126.211 347.406 125.019 348.811C123.596 350.39 122.384 352.152 120.93 353.72C120.245 354.467 121.356 355.582 122.047 354.835H122.057Z" fill="black"/>
<path d="M121.869 353.644C118.829 353.765 116.426 355.749 114.703 358.127C112.822 360.704 111.784 363.835 109.66 366.244C106.309 370.037 101.113 371.505 97.62 375.114C96.6474 376.113 95.8716 377.285 95.3331 378.57C94.5954 380.38 94.4163 382.347 94.2424 384.278C94.1475 385.294 95.7283 385.283 95.8232 384.278C96.0761 381.422 96.5134 378.665 98.5105 376.471C100.091 374.73 102.151 373.504 104.154 372.294C106.156 371.084 108.317 369.795 110.055 368.085C112.189 366.018 113.401 363.319 114.861 360.789C116.32 358.258 118.607 355.328 121.869 355.196C122.881 355.154 122.886 353.576 121.869 353.618V353.644Z" fill="black"/>
<path d="M94.025 384.041C91.3904 387.618 90.7159 392.248 91.2534 396.562C91.8646 401.507 93.946 406.073 95.9957 410.561C96.4172 411.481 97.782 410.682 97.3604 409.761C93.8985 402.207 89.8043 392.474 95.3845 384.841C95.9851 384.02 94.6151 383.231 94.0197 384.041H94.025Z" fill="black"/>
<path d="M100.624 374.931C102.694 372.789 105.893 372.153 108.749 372.858C111.815 373.615 114.382 375.751 116.257 378.224C116.863 379.023 118.233 378.224 117.622 377.429C115.462 374.578 112.543 372.1 108.975 371.29C105.645 370.532 101.925 371.29 99.4907 373.815C98.7846 374.547 99.9017 375.662 100.613 374.931H100.624Z" fill="black"/>
<path d="M148.544 350.262C151.411 348.336 154.699 346.795 158.213 346.726C161.307 346.663 164.415 347.778 166.412 350.214C167.061 350.998 168.178 349.872 167.535 349.094C165.327 346.432 161.823 345.127 158.414 345.143C154.557 345.143 150.895 346.784 147.744 348.899C146.906 349.462 147.696 350.83 148.544 350.262Z" fill="black"/>
<path d="M117.363 378.29C139.664 389.593 165.089 393.191 189.657 388.523C193.209 387.839 196.697 386.871 200.238 386.124C203.926 385.345 207.789 384.882 211.53 385.755C212.52 385.987 212.942 384.467 211.951 384.235C205.349 382.694 198.778 384.919 192.371 386.339C186.33 387.682 180.184 388.506 174.002 388.801C161.693 389.395 149.371 387.961 137.529 384.556C130.843 382.633 124.357 380.075 118.159 376.917C117.258 376.459 116.457 377.817 117.363 378.28V378.29Z" fill="black"/>
<path d="M166.337 350.458C171.98 349.363 177.344 352.288 182.181 354.798C184.728 356.188 187.369 357.4 190.085 358.423C193.026 359.43 196.055 360.16 199.132 360.601C210.324 362.31 221.959 361.411 232.671 365.593C237.814 367.598 242.551 370.822 245.491 375.589C246.018 376.452 247.393 375.662 246.856 374.794C241.297 365.814 230.458 362.337 220.51 361.048C214.26 360.238 207.943 360.153 201.693 359.391C198.552 359.032 195.447 358.413 192.409 357.539C189.52 356.624 186.723 355.444 184.052 354.014C178.44 351.126 172.46 347.701 165.905 348.953C164.909 349.148 165.33 350.668 166.326 350.473L166.337 350.458Z" fill="black"/>
<path d="M246.658 375.951C251.005 375.994 255.182 377.648 258.377 380.593C261.572 383.538 263.557 387.563 263.946 391.886C264.035 392.886 265.616 392.896 265.527 391.886C265.119 387.15 262.962 382.734 259.474 379.497C255.987 376.26 251.419 374.434 246.658 374.373C246.448 374.373 246.247 374.456 246.099 374.604C245.95 374.752 245.867 374.953 245.867 375.162C245.867 375.371 245.95 375.572 246.099 375.72C246.247 375.868 246.448 375.951 246.658 375.951Z" fill="black"/>
<path d="M97.54 412.492C107.034 414.33 116.615 415.689 126.247 416.564C128.646 416.785 131.049 416.973 133.455 417.127C134.622 417.279 135.801 417.316 136.975 417.238C137.945 417.042 138.823 416.531 139.472 415.786C140.554 414.721 141.85 413.898 143.275 413.372C144.699 412.846 146.219 412.629 147.735 412.734C151.118 412.913 154.479 414.549 156.329 417.469C156.856 418.322 158.242 417.532 157.694 416.675C154.247 411.272 146.433 409.599 140.906 412.708C140.209 413.101 139.557 413.568 138.961 414.102C138.208 414.781 137.597 415.681 136.506 415.723C135.314 415.738 134.123 415.676 132.939 415.539C131.695 415.454 130.45 415.361 129.203 415.26C124.285 414.867 119.367 414.341 114.449 413.681C108.927 412.945 103.433 412.047 97.9668 410.988C96.9709 410.793 96.5493 412.314 97.5452 412.508L97.54 412.492Z" fill="black"/>
<path d="M156.71 418.829C163.84 420.517 171.217 420.712 178.504 421.091C185.965 421.475 193.426 421.906 200.893 422.201C215.083 422.758 229.484 422.595 243.31 419.013C250.561 417.202 257.492 414.292 263.86 410.385C264.719 409.859 263.929 408.481 263.065 409.022C251.788 416.077 238.573 419.281 225.426 420.365C210.778 421.57 196.035 420.417 181.397 419.66C173.314 419.244 165.062 419.181 157.158 417.303C156.168 417.072 155.746 418.592 156.737 418.829H156.71Z" fill="black"/>
<path d="M212.379 385.571C214.729 387.27 217.748 387.302 220.53 387.27C224.061 387.228 227.591 387.13 231.121 386.976C238.082 386.671 245.011 386.076 251.945 385.397C255.365 385.066 259.017 384.813 262.231 386.255C263.153 386.671 263.959 385.308 263.032 384.892C260.192 383.625 257.115 383.446 254.048 383.646C250.665 383.861 247.293 384.303 243.915 384.582C236.918 385.168 229.908 385.518 222.886 385.634C219.724 385.697 215.909 386.16 213.18 384.187C212.352 383.588 211.562 384.956 212.379 385.55V385.571Z" fill="black"/>
<path d="M263.867 391.929C264.768 397.816 264.384 403.828 262.74 409.553C262.704 409.748 262.742 409.95 262.848 410.118C262.954 410.286 263.119 410.409 263.311 410.462C263.502 410.514 263.707 410.494 263.884 410.403C264.061 410.313 264.198 410.16 264.268 409.974C265.972 403.973 266.357 397.676 265.395 391.513C265.237 390.514 263.714 390.935 263.867 391.929Z" fill="black"/>
<path d="M170.31 349.563C169.583 346.958 170.353 344.302 171.496 341.929C172.55 339.777 173.804 337.505 175.495 335.795C176.233 335.043 177.255 334.217 178.325 334.006C178.878 333.911 178.92 334.311 178.931 334.78C178.929 335.344 178.876 335.908 178.773 336.463C178.407 338.623 177.59 340.683 176.375 342.508C174.985 344.61 173.095 346.336 170.874 347.532C169.978 348.016 170.774 349.378 171.67 348.9C174.007 347.618 176.012 345.809 177.525 343.617C179.038 341.425 180.018 338.91 180.385 336.274C180.538 335.127 180.738 333.612 179.727 332.78C178.615 331.865 176.929 332.717 175.906 333.396C173.598 334.927 172.091 337.478 170.79 339.851C169.104 342.923 167.808 346.459 168.788 349.968C168.848 350.164 168.983 350.328 169.163 350.427C169.344 350.525 169.556 350.55 169.754 350.495C169.952 350.44 170.121 350.311 170.225 350.134C170.329 349.957 170.359 349.746 170.31 349.547V349.563Z" fill="black"/>
<path d="M170.308 348.795C167.209 348.269 164.174 349.006 161.413 350.437C159.997 351.19 158.653 352.07 157.398 353.067C156.171 353.967 155.053 355.007 154.068 356.166C153.198 357.25 152.334 358.754 152.577 360.201C152.819 361.648 154.289 362.358 155.654 362.184C157.134 361.99 158.552 361.032 159.774 360.232C161.056 359.386 162.273 358.445 163.415 357.418C166.019 354.989 168.44 352.372 170.661 349.59C171.309 348.816 170.197 347.696 169.543 348.474C166.15 352.525 162.651 356.718 158.046 359.454C157.15 359.98 155.643 361.074 154.563 360.506C153.483 359.938 154.663 357.965 155.18 357.297C156.01 356.298 156.952 355.398 157.988 354.614C159.038 353.753 160.155 352.977 161.329 352.294C163.932 350.789 166.883 349.8 169.886 350.326C170.882 350.5 171.309 348.979 170.308 348.806V348.795Z" fill="black"/>
<path d="M178.853 352.159C176.587 353.018 174.713 354.673 173.583 356.815C173.527 356.904 173.488 357.004 173.471 357.109C173.454 357.214 173.458 357.321 173.483 357.424C173.509 357.527 173.554 357.624 173.618 357.709C173.681 357.794 173.761 357.865 173.853 357.918C173.945 357.972 174.047 358.006 174.152 358.019C174.257 358.033 174.364 358.025 174.466 357.996C174.569 357.967 174.664 357.918 174.747 357.851C174.829 357.785 174.898 357.703 174.948 357.609C175.075 357.372 175.206 357.136 175.354 356.904L175.559 356.599L175.686 356.42L175.76 356.32C175.707 356.394 175.823 356.241 175.833 356.225L175.976 356.057C176.055 355.962 176.139 355.873 176.223 355.784C176.408 355.584 176.597 355.394 176.798 355.21L177.077 354.968L177.251 354.826L177.293 354.795C177.504 354.642 177.714 354.495 177.936 354.358C178.157 354.221 178.399 354.079 178.642 353.958C178.752 353.905 178.863 353.848 178.979 353.8C178.979 353.8 179.206 353.7 179.058 353.763L179.264 353.679C179.456 353.616 179.617 353.481 179.713 353.303C179.808 353.125 179.832 352.917 179.779 352.722C179.725 352.527 179.599 352.359 179.426 352.255C179.252 352.15 179.045 352.116 178.847 352.159H178.853Z" fill="black"/>
<path d="M185.796 354.93C184.655 355.308 183.611 355.934 182.74 356.762C181.869 357.591 181.192 358.602 180.759 359.722C180.731 359.822 180.724 359.927 180.737 360.03C180.75 360.133 180.783 360.233 180.835 360.323C180.887 360.413 180.957 360.492 181.039 360.555C181.122 360.618 181.217 360.664 181.318 360.69C181.516 360.742 181.726 360.717 181.907 360.619C182.087 360.521 182.223 360.359 182.287 360.164C182.287 360.164 182.382 359.938 182.287 360.101C182.319 360.038 182.345 359.98 182.371 359.917C182.398 359.854 182.477 359.696 182.535 359.586C182.657 359.36 182.791 359.14 182.935 358.928L183.151 358.628C183.204 358.554 183.077 358.718 183.151 358.628L183.283 358.475C183.446 358.278 183.622 358.092 183.81 357.918C183.899 357.834 183.989 357.75 184.084 357.671L184.237 357.539C184.237 357.539 184.4 357.418 184.316 357.476C184.231 357.534 184.405 357.413 184.426 357.402C184.47 357.366 184.516 357.333 184.563 357.302C184.674 357.229 184.785 357.155 184.901 357.087C185.112 356.959 185.33 356.844 185.554 356.739L185.738 356.655C185.57 356.729 185.775 356.655 185.796 356.655C185.923 356.603 186.049 356.561 186.176 356.518C186.279 356.493 186.375 356.448 186.46 356.385C186.545 356.322 186.616 356.242 186.669 356.151C186.723 356.06 186.758 355.959 186.771 355.854C186.785 355.75 186.778 355.643 186.749 355.542C186.721 355.44 186.673 355.345 186.607 355.262C186.541 355.179 186.46 355.11 186.367 355.06C186.274 355.009 186.172 354.977 186.067 354.967C185.962 354.956 185.855 354.967 185.754 354.998L185.796 354.93Z" fill="black"/>
<path d="M194.493 358.691C193.332 358.992 192.259 359.564 191.363 360.359C190.467 361.155 189.774 362.152 189.339 363.268C189.282 363.466 189.305 363.679 189.404 363.86C189.503 364.041 189.669 364.176 189.866 364.236C190.065 364.288 190.277 364.263 190.458 364.165C190.639 364.067 190.776 363.905 190.841 363.71C190.841 363.71 190.941 363.489 190.841 363.647L190.931 363.463C190.983 363.352 191.041 363.242 191.099 363.131C191.22 362.916 191.352 362.707 191.495 362.505L191.595 362.369C191.495 362.505 191.595 362.369 191.637 362.316C191.679 362.263 191.811 362.111 191.9 362.011C192.067 361.826 192.242 361.651 192.427 361.485L192.559 361.374L192.664 361.29C192.585 361.353 192.728 361.243 192.743 361.232L192.912 361.111C193.116 360.972 193.327 360.844 193.544 360.727L193.908 360.548L193.997 360.506L194.092 360.469C194.345 360.373 194.604 360.292 194.867 360.227C194.97 360.202 195.066 360.157 195.151 360.094C195.236 360.031 195.307 359.951 195.361 359.86C195.414 359.769 195.449 359.668 195.462 359.563C195.476 359.459 195.469 359.352 195.44 359.25C195.412 359.149 195.364 359.054 195.298 358.971C195.232 358.888 195.151 358.819 195.058 358.769C194.965 358.718 194.863 358.686 194.758 358.676C194.653 358.665 194.546 358.676 194.445 358.707L194.493 358.691Z" fill="black"/>
<path d="M204.366 360.723C202.991 360.819 201.674 361.32 200.583 362.162C199.493 363.005 198.677 364.152 198.238 365.457C198.207 365.558 198.197 365.664 198.207 365.769C198.218 365.875 198.249 365.976 198.3 366.069C198.351 366.162 198.42 366.243 198.503 366.309C198.585 366.374 198.681 366.423 198.783 366.451C198.885 366.479 198.991 366.487 199.096 366.473C199.201 366.459 199.302 366.425 199.393 366.371C199.484 366.318 199.564 366.247 199.627 366.162C199.69 366.077 199.736 365.981 199.761 365.878C199.828 365.645 199.921 365.421 200.04 365.21C200.171 364.96 200.319 364.719 200.483 364.489C200.483 364.489 200.631 364.3 200.546 364.405C200.584 364.354 200.624 364.305 200.667 364.258C200.762 364.146 200.857 364.04 200.952 363.942L201.263 363.648L201.405 363.521L201.489 363.453C201.715 363.28 201.953 363.124 202.201 362.985L202.538 362.806L202.749 362.706C202.628 362.764 202.823 362.706 202.849 362.669C203.1 362.574 203.357 362.495 203.618 362.432L204.035 362.354H204.135H204.366C204.576 362.354 204.777 362.27 204.925 362.122C205.074 361.974 205.157 361.774 205.157 361.564C205.157 361.355 205.074 361.154 204.925 361.006C204.777 360.858 204.576 360.775 204.366 360.775V360.723Z" fill="black"/>
<path d="M213.122 361.435L209.497 364.429C209.349 364.577 209.266 364.777 209.266 364.986C209.266 365.196 209.349 365.396 209.497 365.544C209.648 365.686 209.848 365.765 210.055 365.765C210.263 365.765 210.462 365.686 210.614 365.544L214.239 362.551C214.387 362.403 214.47 362.202 214.47 361.993C214.47 361.784 214.387 361.583 214.239 361.435C214.088 361.294 213.888 361.215 213.681 361.215C213.473 361.215 213.273 361.294 213.122 361.435Z" fill="black"/>
<path d="M121.773 354.755C121.562 359.516 126.13 362.951 129.734 365.224C133.749 367.651 138.099 369.476 142.644 370.643C147.276 371.921 152.013 372.747 156.734 373.599C161.545 374.467 166.609 375.146 171.098 377.177C175.698 379.281 179.992 383.369 179.919 388.751C179.919 388.96 180.002 389.161 180.15 389.309C180.298 389.457 180.499 389.54 180.709 389.54C180.919 389.54 181.12 389.457 181.268 389.309C181.416 389.161 181.499 388.96 181.499 388.751C181.563 384.195 178.749 380.139 175.108 377.608C170.95 374.72 165.834 373.689 160.949 372.768C151.702 371.027 142.022 369.854 133.549 365.55C131.198 364.39 128.997 362.949 126.994 361.257C125.082 359.6 123.259 357.422 123.375 354.75C123.422 353.734 121.841 353.734 121.794 354.75L121.773 354.755Z" fill="black"/>
<path d="M96.669 223.3C94.7891 229.784 93.7114 236.473 93.46 243.218C93.3599 245.848 93.3019 248.747 94.6508 251.109C95.9998 253.471 98.5448 254.608 101.158 254.734C104.578 254.902 107.734 253.235 110.643 251.656C111.533 251.167 110.738 249.804 109.842 250.294C107.429 251.604 104.852 253.035 102.038 253.156C99.7357 253.261 97.296 252.477 96.0683 250.399C94.772 248.2 94.9512 245.401 95.0513 242.944C95.1773 239.899 95.4799 236.864 95.9576 233.854C96.4921 230.432 97.2454 227.047 98.2128 223.721C98.2618 223.522 98.231 223.311 98.1271 223.134C98.0231 222.957 97.8542 222.827 97.6561 222.773C97.4579 222.718 97.2462 222.742 97.0659 222.841C96.8855 222.939 96.7507 223.104 96.69 223.3H96.669Z" fill="black"/>
<path d="M103.116 223.576C101.572 227.579 101.43 231.925 101.446 236.165C101.446 238.106 101.325 240.231 102.357 241.952C102.815 242.693 103.422 243.332 104.139 243.829C104.857 244.325 105.669 244.667 106.525 244.835C107.594 245.015 108.689 244.975 109.741 244.715C110.794 244.455 111.781 243.982 112.643 243.325C113.454 242.725 112.643 241.357 111.847 241.957C110.161 243.199 107.943 243.851 105.93 243.009C105.044 242.649 104.29 242.026 103.77 241.226C103.246 240.243 102.994 239.139 103.042 238.027C102.932 233.329 102.926 228.421 104.623 223.975C104.992 223.029 103.464 222.618 103.1 223.555L103.116 223.576Z" fill="black"/>
<path d="M116.106 253.101C118.018 251.428 120.669 251.134 123.114 251.123C126.038 251.123 128.978 251.318 131.892 251.507C138.055 251.839 144.184 252.627 150.229 253.864C153.591 254.588 156.902 255.53 160.141 256.684C161.1 257.031 161.511 255.505 160.557 255.163C154.53 253.079 148.296 251.649 141.962 250.897C138.8 250.481 135.586 250.197 132.388 249.982C129.342 249.776 126.27 249.555 123.214 249.561C120.284 249.561 117.27 250.018 114.989 252.007C114.219 252.68 115.342 253.79 116.106 253.122V253.101Z" fill="black"/>
<path d="M168.956 257.55C167.549 258.16 166.964 259.823 167.18 261.233C167.33 261.975 167.711 262.652 168.27 263.165C168.828 263.678 169.535 264.002 170.289 264.089C171.208 264.227 172.146 264.072 172.971 263.647C173.144 263.541 173.27 263.373 173.323 263.178C173.376 262.982 173.352 262.774 173.256 262.595C173.147 262.418 172.974 262.289 172.773 262.236C172.572 262.183 172.358 262.21 172.176 262.311C172.144 262.311 171.949 262.422 172.033 262.385C172.118 262.348 171.949 262.416 171.917 262.427C171.776 262.475 171.631 262.515 171.485 262.548C171.417 262.548 171.243 262.585 171.406 262.548H171.211C171.05 262.558 170.888 262.558 170.727 262.548C170.695 262.548 170.505 262.548 170.605 262.548C170.705 262.548 170.605 262.548 170.605 262.548L170.474 262.521C170.327 262.493 170.183 262.454 170.042 262.406C169.984 262.406 169.868 262.337 169.994 262.406C169.925 262.38 169.858 262.348 169.794 262.311C169.657 262.243 169.541 262.158 169.415 262.08C169.288 262.001 169.441 262.08 169.451 262.106L169.351 262.022L169.214 261.89C169.162 261.838 169.114 261.78 169.067 261.722C169.019 261.664 169.067 261.722 169.093 261.759C169.119 261.795 169.046 261.69 169.025 261.659C168.987 261.603 168.954 261.545 168.924 261.485C168.924 261.485 168.824 261.301 168.877 261.401C168.93 261.501 168.845 261.311 168.835 261.28C168.794 261.15 168.761 261.019 168.735 260.885C168.708 260.743 168.735 261.038 168.735 260.838C168.727 260.703 168.727 260.568 168.735 260.433C168.735 260.401 168.735 260.217 168.735 260.333C168.735 260.449 168.735 260.244 168.761 260.212C168.79 260.08 168.827 259.95 168.872 259.823C168.872 259.823 168.909 259.712 168.872 259.823C168.835 259.933 168.872 259.77 168.903 259.759C168.931 259.698 168.963 259.638 168.998 259.581C169.035 259.518 169.088 259.46 169.119 259.391C169.151 259.323 169.088 259.433 169.083 259.439L169.156 259.354C169.205 259.296 169.258 259.242 169.314 259.191L169.378 259.139C169.436 259.07 169.251 259.218 169.378 259.139C169.505 259.054 169.639 258.98 169.778 258.918C169.951 258.812 170.077 258.643 170.129 258.447C170.18 258.252 170.155 258.043 170.057 257.866C169.949 257.696 169.78 257.573 169.585 257.52C169.391 257.468 169.183 257.49 169.004 257.582L168.956 257.55Z" fill="black"/>
<path d="M170.729 267.904C164.658 275.722 158.53 283.613 154.067 292.488C152.813 294.961 151.708 297.507 150.758 300.111C150.41 301.069 151.938 301.484 152.281 300.532C155.564 291.431 161.002 283.313 166.771 275.612C168.431 273.397 170.128 271.208 171.825 269.02C171.966 268.869 172.045 268.669 172.045 268.462C172.045 268.255 171.966 268.056 171.825 267.904C171.676 267.758 171.475 267.676 171.266 267.676C171.057 267.676 170.856 267.758 170.707 267.904H170.729Z" fill="black"/>
<path d="M59.3314 231.38C56.3438 239.861 55.6799 248.899 55.0317 257.795C54.4258 266.139 54.157 274.877 58.5937 282.316C62.5404 288.934 69.069 293.564 76.1087 296.431C84.3392 299.787 93.3917 301.045 102.181 301.881C111.541 302.775 120.962 302.844 130.334 302.086C131.494 301.991 132.642 301.886 133.796 301.765C134.797 301.665 134.808 300.087 133.796 300.187C124.693 301.121 115.526 301.276 106.396 300.65C101.828 300.334 97.2752 299.835 92.7542 299.119C88.5479 298.499 84.3957 297.556 80.3346 296.299C73.0999 293.974 66.1077 290.034 61.5076 283.863C59.208 280.789 57.6304 277.238 56.8918 273.472C56.0645 269.311 56.1435 265.013 56.3648 260.794C56.8918 252.161 57.4187 243.312 59.8004 234.952C60.106 233.9 60.4432 232.848 60.8068 231.796C61.1704 230.744 59.6212 230.423 59.284 231.375L59.3314 231.38Z" fill="black"/>
<path d="M210.141 384.082C213.866 378.074 218.213 372.113 224.146 368.11C225.822 366.968 227.621 366.018 229.51 365.28C230.448 364.917 230.037 363.386 229.089 363.754C222.044 366.484 216.669 371.94 212.322 377.958C211.068 379.684 209.898 381.473 208.776 383.282C208.249 384.15 209.603 384.945 210.141 384.082Z" fill="black"/>
<path d="M217.25 386.465C222.395 378.837 229.345 372.594 237.484 368.289C238.385 367.81 237.584 366.448 236.689 366.927C230.176 370.375 224.389 375.042 219.643 380.673C218.305 382.272 217.051 383.938 215.886 385.666C215.317 386.513 216.687 387.302 217.25 386.465Z" fill="black"/>
<path d="M112.455 363.777C112.719 366.476 115.617 367.36 117.809 368.123C120.765 369.175 123.768 370.037 126.803 370.811C132.073 372.152 138.085 373.546 141.32 378.329C142.901 380.664 143.67 383.526 142.68 386.251C142.332 387.209 143.855 387.619 144.202 386.672C146.01 381.701 142.854 376.387 138.765 373.631C136.346 371.994 133.538 371 130.745 370.216C127.773 369.38 124.764 368.696 121.819 367.786C120.08 367.26 118.346 366.681 116.65 366.034C115.659 365.655 114.157 364.982 114.015 363.777C113.915 362.777 112.334 362.767 112.434 363.777H112.455Z" fill="black"/>
<path d="M105.443 96.9922C101.414 99.906 97.5445 103.034 93.8511 106.362C75.8462 122.581 65.0601 140.836 58.5209 155.409C48.7006 165.747 39.662 176.799 31.4792 188.473C26.3575 195.78 21.8734 202.898 17.9531 209.69C22.6396 213.897 27.8308 217.507 33.4078 220.438C36.5693 222.085 43.6617 225.536 56.3131 228.15C59.9278 228.903 70.4136 230.907 93.2979 230.634C102.419 230.523 114.765 230.034 129.45 228.429C131.091 221.445 132.286 214.364 133.028 207.228C134.012 197.708 134.188 188.122 133.555 178.572C135.741 174.41 137.586 170.079 139.072 165.62C140.02 162.779 141.706 157.203 143.487 143.851C144.325 137.538 145.231 129.12 145.7 119.051C135.449 107.013 121.12 99.1616 105.443 96.9922Z" fill="#FFDE59"/>
<path d="M146.937 118.353C138.285 109.162 127.494 101.581 115.137 98.4035C112.011 97.6024 108.816 97.1004 105.595 96.9042C104.578 96.8411 104.578 98.4193 105.595 98.4824C117.419 99.2084 128.5 104.443 137.621 111.824C140.524 114.184 143.263 116.738 145.82 119.468C146.516 120.21 147.633 119.094 146.937 118.353Z" fill="black"/>
<path d="M103.606 97.4309C95.732 102.939 88.6419 109.487 82.5294 116.896C76.3738 124.373 70.8252 132.328 65.9366 140.686C63.1333 145.383 60.4724 150.155 57.8799 154.979C57.3951 155.874 58.7599 156.673 59.2446 155.779C63.792 147.33 68.5554 138.981 73.9194 131.016C79.2835 123.051 85.1745 115.607 92.0245 108.973C95.8531 105.241 99.9881 101.836 104.386 98.7934C105.219 98.22 104.428 96.8522 103.59 97.4309H103.606Z" fill="black"/>
<path d="M58.7744 154.82C46.0131 166.855 34.8433 180.468 25.5361 195.328C22.9226 199.505 20.4636 203.772 18.1592 208.128C17.6797 209.022 19.0444 209.822 19.5239 208.922C27.6822 193.512 37.7868 179.21 49.5901 166.367C52.8992 162.769 56.333 159.291 59.8915 155.935C60.6345 155.235 59.5174 154.12 58.7744 154.82Z" fill="black"/>
<path d="M18.426 210.686C28.5271 220.345 41.5737 226.4 55.1156 229.493C62.6976 231.173 70.4297 232.086 78.1949 232.218C86.33 232.438 94.4696 231.999 102.533 230.903C104.826 230.582 107.118 230.235 109.426 230.014C111.734 229.793 113.931 229.751 116.186 229.725C120.612 229.677 125.038 229.609 129.359 228.515C130.344 228.262 129.928 226.742 128.938 226.989C125.117 227.957 121.213 228.094 117.287 228.136C113.326 228.154 109.37 228.421 105.442 228.936C101.437 229.462 97.4645 229.988 93.4282 230.272C89.392 230.556 85.3558 230.688 81.309 230.682C66.7079 230.64 51.9488 228.42 38.5913 222.296C31.5805 219.142 25.1462 214.84 19.5536 209.571C18.8212 208.866 17.6988 209.981 18.4365 210.686H18.426Z" fill="black"/>
<path d="M144.534 118.911C144.631 135.034 142.229 151.075 137.415 166.464C136.045 170.845 134.487 175.139 132.741 179.348C132.357 180.284 133.885 180.695 134.269 179.764C140.46 164.72 144.283 148.811 145.603 132.6C145.955 128.041 146.13 123.481 146.13 118.922C146.13 118.713 146.047 118.512 145.899 118.364C145.751 118.216 145.55 118.133 145.34 118.133C145.13 118.133 144.929 118.216 144.781 118.364C144.633 118.512 144.55 118.713 144.55 118.922L144.534 118.911Z" fill="black"/>
<path d="M133.005 178.404C133.503 191.098 132.771 203.812 130.818 216.366C130.27 219.898 129.624 223.405 128.879 226.888C128.669 227.877 130.191 228.303 130.402 227.308C133.058 214.783 134.502 202.032 134.712 189.23C134.772 185.614 134.73 181.999 134.586 178.383C134.549 177.373 132.968 177.367 133.005 178.383V178.404Z" fill="black"/>
<path d="M83.5293 162.159C88.8736 169.515 96.3554 175.051 104.959 178.015C105.924 178.347 106.335 176.826 105.381 176.49C97.1752 173.633 90.03 168.36 84.8888 161.365C84.2933 160.549 82.9233 161.338 83.524 162.159H83.5293Z" fill="black"/>
<path d="M21.759 204.932C32.5767 213.954 45.5495 220.109 59.1705 223.576C74.0192 227.359 89.5371 227.906 104.734 226.249C113.695 225.238 122.571 223.587 131.296 221.309C131.482 221.239 131.636 221.103 131.726 220.926C131.817 220.749 131.838 220.545 131.785 220.353C131.732 220.162 131.609 219.997 131.44 219.891C131.272 219.786 131.07 219.747 130.874 219.783C115.593 223.718 99.849 226.038 84.0571 225.48C69.8302 224.954 55.5769 222.04 42.583 216.111C35.4945 212.908 28.8668 208.773 22.876 203.816C22.0962 203.169 20.9738 204.284 21.759 204.932Z" fill="black"/>
<path d="M28.9578 208.282C36.6313 195.429 45.262 183.17 54.777 171.609C57.4783 168.322 60.2535 165.094 63.1024 161.923C63.7821 161.166 62.665 160.045 61.9853 160.803C51.9016 172.048 42.6774 184.032 34.3903 196.655C32.0508 200.215 29.7903 203.824 27.6088 207.482C27.5562 207.572 27.5218 207.671 27.5075 207.773C27.4932 207.876 27.4993 207.981 27.5255 208.081C27.5517 208.182 27.5974 208.276 27.6601 208.359C27.7227 208.441 27.8011 208.511 27.8907 208.563C27.9803 208.616 28.0794 208.65 28.1823 208.665C28.2853 208.679 28.39 208.673 28.4905 208.647C28.5911 208.62 28.6855 208.575 28.7684 208.512C28.8513 208.45 28.921 208.371 28.9736 208.282H28.9578Z" fill="black"/>
<path d="M64.3866 161.28C73.4669 143.506 84.6586 126.888 97.7198 111.786C101.408 107.525 105.242 103.39 109.223 99.3813C109.371 99.2328 109.454 99.0315 109.453 98.8218C109.453 98.6122 109.369 98.4113 109.22 98.2634C109.071 98.1155 108.869 98.0327 108.659 98.0332C108.449 98.0337 108.248 98.1175 108.1 98.266C93.9471 112.545 81.5635 128.47 71.2155 145.698C68.3175 150.534 65.5845 155.464 63.0166 160.486C62.5529 161.391 63.9177 162.185 64.3813 161.28H64.3866Z" fill="black"/>
<path d="M43.0014 215.081C45.8706 207.637 49.4712 200.495 53.7507 193.759C58.0318 187.016 62.6536 180.495 67.5982 174.22C70.3751 170.638 73.2047 167.097 76.029 163.557C76.6613 162.773 75.5495 161.647 74.9119 162.441C69.8324 168.786 64.7528 175.141 59.9789 181.728C55.1731 188.246 50.8463 195.103 47.0324 202.245C44.9286 206.262 43.0704 210.403 41.4681 214.645C41.1098 215.597 42.6379 216.007 42.9909 215.06L43.0014 215.081Z" fill="black"/>
<path d="M76.9868 161.988C85.9806 145.267 96.6983 129.528 108.966 115.029C112.426 110.937 116.005 106.951 119.704 103.072C120.405 102.335 119.288 101.22 118.587 101.956C105.42 115.779 93.7294 130.933 83.7051 147.173C80.8702 151.768 78.1759 156.441 75.6221 161.193C75.1373 162.088 76.502 162.882 76.9868 161.988Z" fill="black"/>
<path d="M62.4992 222.97C64.9929 215.3 67.9293 207.78 71.2936 200.448C74.6409 193.167 78.4005 186.081 82.5539 179.226C84.9075 175.344 87.3858 171.54 89.9888 167.815C90.5737 166.979 89.2037 166.19 88.6241 167.021C79.3518 180.298 71.6413 194.596 65.645 209.634C63.9483 213.888 62.3921 218.193 60.9764 222.549C60.6603 223.517 62.1883 223.933 62.4992 222.97Z" fill="black"/>
<path d="M91.2483 166.664C94.4047 157.834 98.2471 149.265 102.74 141.033C107.199 132.877 112.276 125.073 117.926 117.69C121.148 113.482 124.555 109.429 128.149 105.533C128.834 104.785 127.722 103.665 127.032 104.417C114.207 118.374 103.648 134.249 95.7377 151.465C93.5211 156.298 91.517 161.22 89.7255 166.232C89.383 167.19 90.911 167.605 91.2483 166.653V166.664Z" fill="black"/>
<path d="M90.8587 225.336C92.6444 212.561 95.9049 200.036 100.575 188.01C101.903 184.594 103.343 181.229 104.896 177.914C105.328 177.004 103.963 176.199 103.531 177.12C97.9977 188.938 93.8633 201.361 91.2118 214.135C90.467 217.706 89.8453 221.299 89.3464 224.915C89.2984 225.116 89.3289 225.328 89.4316 225.508C89.5343 225.688 89.7017 225.822 89.8997 225.883C90.0982 225.94 90.3112 225.917 90.4927 225.818C90.6742 225.72 90.8095 225.554 90.8693 225.357L90.8587 225.336Z" fill="black"/>
<path d="M106.015 177.034C111.984 158.714 120.235 141.216 130.575 124.952C133.469 120.392 136.522 115.945 139.733 111.61C140.333 110.789 138.963 110 138.368 110.81C126.885 126.358 117.398 143.28 110.13 161.183C108.061 166.279 106.182 171.422 104.492 176.613C104.176 177.581 105.704 177.997 106.015 177.034Z" fill="black"/>
<path d="M111.338 224.148C115.392 194.757 126.445 166.766 143.57 142.52C144.155 141.684 142.785 140.895 142.205 141.721C125.007 166.083 113.9 194.202 109.815 223.727C109.767 223.929 109.797 224.142 109.9 224.322C110.003 224.503 110.17 224.638 110.369 224.7C110.571 224.753 110.785 224.725 110.967 224.622C111.148 224.519 111.282 224.348 111.338 224.148Z" fill="black"/>
<path d="M118.612 110.076C116.342 112.462 114.245 115.006 112.336 117.689C109.988 120.916 107.96 124.364 106.282 127.984C104.137 132.826 102.703 137.952 102.024 143.204C99.5373 159.344 102.024 178.615 102.699 183.265C97.8736 195.306 95.2898 208.124 95.0742 221.091C102.816 224.52 111.289 225.98 119.734 225.341C120.068 229.667 121.137 233.905 122.896 237.873C125.003 242.607 126.911 244.107 128.497 244.812C129.352 245.18 130.262 245.407 131.19 245.485C135.178 245.959 139.093 247.063 143.072 247.5C149.88 248.247 156.656 249.252 163.469 249.962C181.347 251.814 179.277 251.898 193.503 253.319C199.9 253.955 208.616 254.765 219.059 255.554C221.255 255.729 223.463 255.502 225.577 254.886C227.253 254.392 229.751 253.387 232.954 250.63C236.969 247.2 238.945 243.754 240.579 241.229C243.864 236.192 247.781 231.596 252.234 227.551C256.202 226.588 259.432 225.973 261.65 225.536C265.739 224.784 267.805 224.568 269.718 222.853C271.018 221.642 271.951 220.091 272.41 218.376C273.09 215.793 272.695 214.783 272.184 214.346C271.32 213.61 270.166 214.541 268.153 213.899C266.609 213.41 266.493 212.61 264.991 211.884C264.422 211.605 263.115 211.079 259.833 211.437C257.041 211.751 254.318 212.508 251.765 213.678C246.754 216.065 242.019 218.992 237.644 222.406C235.733 222.941 233.918 223.772 232.264 224.868C230.46 226.094 228.869 227.607 227.553 229.345C224.24 233.568 221.172 237.976 218.364 242.55C213.683 242.25 209.041 241.508 204.5 240.335C199.493 238.983 194.617 237.185 189.931 234.963C186.295 233.327 186.643 233.259 180.515 230.266C172.932 226.583 169.054 224.679 165.05 223.553C160.961 222.409 156.739 221.806 152.493 221.759C151.376 218.778 150.255 215.796 149.131 212.815L155.186 207.444C154.132 202.762 152.82 197.738 151.149 192.451C149.732 187.963 148.214 183.781 146.665 179.919C146.574 174.301 146.125 168.694 145.322 163.132C144.126 154.883 143.493 156.067 141.064 142.988C140.047 137.522 139.425 133.376 137.249 127.547C136.106 124.475 135.415 122.629 134.114 120.608C132.602 118.283 128.502 112.964 118.612 110.076Z" fill="white"/>
<path d="M118.679 111.268C123.02 111.71 126.936 114.035 129.95 117.107C133.338 120.559 135.535 124.946 137.084 129.481C138.775 134.426 139.845 139.587 140.92 144.69C142.069 150.137 143.073 155.61 143.934 161.109C144.907 167.345 145.696 173.604 146.3 179.885C146.395 180.885 147.976 180.895 147.881 179.885C146.776 168.4 145.058 156.981 142.733 145.679C141.631 140.339 140.53 134.936 138.833 129.749C137.284 125.015 135.119 120.459 131.762 116.75C128.406 113.041 123.795 110.237 118.679 109.716C117.672 109.611 117.677 111.189 118.679 111.294V111.268Z" fill="black"/>
<path d="M108.562 121.715C104.61 128.643 102.27 136.366 101.095 144.226C99.8254 152.728 99.8834 161.355 100.452 169.915C100.79 174.913 101.29 179.91 101.796 184.871C101.896 185.876 103.482 185.887 103.377 184.871C102.497 176.175 101.617 167.458 101.643 158.709C101.643 150.644 102.486 142.553 104.763 134.793C106.001 130.513 107.734 126.39 109.927 122.509C110.023 122.329 110.046 122.119 109.99 121.922C109.935 121.725 109.805 121.558 109.628 121.455C109.451 121.352 109.241 121.322 109.042 121.37C108.843 121.419 108.671 121.542 108.562 121.715Z" fill="black"/>
<path d="M101.786 184.488C97.7487 193.74 95.4175 203.644 94.9045 213.723C94.7631 216.574 94.7719 219.431 94.9309 222.282C94.9836 223.292 96.5643 223.297 96.5116 222.282C95.9842 212.452 97.2336 202.608 100.2 193.221C101.049 190.524 102.041 187.874 103.172 185.282C103.572 184.362 102.213 183.557 101.807 184.488H101.786Z" fill="black"/>
<path d="M95.9009 223.015C103.907 225.876 112.468 226.851 120.914 225.866C129.34 224.926 137.458 222.157 144.699 217.754C146.718 216.512 148.654 215.141 150.495 213.65C151.418 212.903 152.313 212.13 153.183 211.32C154.052 210.51 155.09 209.694 155.354 208.495C155.57 207.506 154.047 207.085 153.831 208.074C153.615 209.063 152.587 209.72 151.918 210.341C151.249 210.962 150.401 211.704 149.61 212.346C148.031 213.635 146.375 214.827 144.652 215.918C141.206 218.109 137.527 219.908 133.681 221.284C126.028 224.031 117.874 225.107 109.77 224.44C105.176 224.049 100.654 223.053 96.3224 221.478C95.3634 221.131 94.9524 222.657 95.9009 222.999V223.015Z" fill="black"/>
<path d="M145.488 179.416C149.697 188.456 152.708 198.006 154.446 207.824C154.625 208.824 156.148 208.403 155.974 207.409C154.192 197.452 151.121 187.77 146.837 178.605C146.41 177.685 145.045 178.484 145.472 179.4L145.488 179.416Z" fill="black"/>
<path d="M119.103 226.36C120.041 231.9 121.284 237.934 125.131 242.295C127.183 244.544 129.91 246.067 132.903 246.635C134.774 247.04 136.692 247.246 138.588 247.503L144.632 248.308C160.721 250.413 176.833 252.31 192.967 254.001C202.076 254.948 211.191 255.824 220.314 256.631C221.331 256.72 221.326 255.142 220.314 255.053C204.419 253.65 188.541 252.026 172.68 250.181C164.798 249.269 156.918 248.307 149.043 247.293C145.049 246.777 141.054 246.251 137.06 245.715C133.841 245.278 130.516 244.805 127.881 242.737C122.928 238.839 121.616 231.789 120.626 225.939C120.457 224.94 118.934 225.366 119.103 226.36Z" fill="black"/>
<path d="M149.177 213.607C149.614 216.088 150.394 218.496 151.496 220.762C151.603 220.942 151.777 221.072 151.98 221.126C152.183 221.179 152.399 221.15 152.581 221.046C152.751 220.937 152.875 220.769 152.927 220.575C152.98 220.38 152.958 220.173 152.866 219.994C151.831 217.845 151.102 215.563 150.7 213.213C150.641 213.012 150.506 212.843 150.325 212.74C150.143 212.637 149.928 212.608 149.725 212.66C149.53 212.726 149.367 212.862 149.269 213.043C149.172 213.224 149.146 213.435 149.198 213.634L149.177 213.607Z" fill="black"/>
<path d="M145.251 223.536C155.326 221.284 165.585 224.415 174.759 228.497C183.932 232.579 192.721 237.898 202.396 241.065C207.665 242.786 213.187 243.811 218.73 243.543C219.742 243.49 219.747 241.912 218.73 241.965C208.566 242.454 198.955 238.524 189.992 234.158C180.781 229.675 171.739 224.551 161.654 222.279C156.121 221.032 150.394 220.743 144.835 221.984C143.839 222.21 144.26 223.731 145.251 223.51V223.536Z" fill="black"/>
<path d="M219.489 256.31C225.048 256.999 230.207 253.926 234.006 250.149C235.972 248.104 237.821 245.948 239.544 243.694C241.444 241.316 243.387 238.972 245.372 236.66C247.644 234.023 249.968 231.436 252.343 228.901C253.033 228.159 251.921 227.044 251.226 227.785C247.158 232.131 243.252 236.615 239.507 241.237C236.082 245.446 232.794 250.149 227.952 252.869C225.404 254.379 222.437 255.032 219.489 254.731C218.483 254.61 218.493 256.189 219.489 256.31Z" fill="black"/>
<path d="M252.3 228.752C255.388 226.974 259.119 227.226 262.512 226.521C266.148 225.769 269.236 223.691 272.228 221.602C273.056 221.024 272.265 219.656 271.428 220.24C268.408 222.344 265.352 224.401 261.664 225.085C258.228 225.722 254.619 225.611 251.505 227.389C251.332 227.498 251.208 227.67 251.159 227.869C251.111 228.067 251.141 228.277 251.244 228.454C251.347 228.63 251.515 228.76 251.712 228.815C251.909 228.871 252.12 228.848 252.3 228.752Z" fill="black"/>
<path d="M219.956 242.48C222.812 238.271 225.641 234.031 228.534 229.854C230.61 226.85 233.276 223.283 237.228 222.857C238.229 222.752 238.24 221.168 237.228 221.279C232.929 221.747 229.988 225.083 227.622 228.407C224.524 232.769 221.594 237.261 218.591 241.691C218.017 242.533 219.387 243.327 219.956 242.491V242.48Z" fill="black"/>
<path d="M229.196 233.576C235.519 225.653 242.538 217.194 252.444 213.806C255.624 212.723 258.969 212.201 262.329 212.264C263.346 212.264 263.346 210.686 262.329 210.686C256.522 210.613 250.81 212.166 245.842 215.168C241.279 217.899 237.374 221.597 233.849 225.537C231.841 227.779 229.95 230.109 228.053 232.461C227.426 233.245 228.538 234.37 229.17 233.576H229.196Z" fill="black"/>
<path d="M240.022 226.58C243.912 223.348 248.071 220.451 252.452 217.92C256.699 215.469 261.489 212.759 266.573 213.417C267.58 213.543 267.569 211.965 266.573 211.839C262.463 211.313 258.49 212.891 254.913 214.764C251.289 216.655 247.802 218.794 244.474 221.166C242.56 222.527 240.698 223.96 238.889 225.464C238.109 226.117 239.231 227.227 240.011 226.58H240.022Z" fill="black"/>
<path d="M245.297 227.383C252.532 221.37 260.578 214.794 270.5 214.684C270.709 214.684 270.91 214.601 271.059 214.453C271.207 214.305 271.29 214.104 271.29 213.895C271.29 213.685 271.207 213.485 271.059 213.337C270.91 213.189 270.709 213.105 270.5 213.105C260.135 213.221 251.752 219.971 244.153 226.258C243.368 226.91 244.491 228.02 245.271 227.373L245.297 227.383Z" fill="black"/>
<path d="M253.118 224.98C256.742 223.003 260.535 221.353 264.453 220.05C265.412 219.735 266.376 219.438 267.345 219.161C268.229 218.869 269.134 218.649 270.054 218.504C270.644 218.441 271.634 218.435 271.861 219.114C271.927 219.317 271.927 219.536 271.861 219.74C271.845 219.805 271.818 219.867 271.782 219.924C271.671 220.071 271.756 219.993 271.603 219.993C271.393 219.993 271.192 220.076 271.044 220.224C270.896 220.372 270.812 220.572 270.812 220.782C270.812 220.991 270.896 221.192 271.044 221.34C271.192 221.488 271.393 221.571 271.603 221.571C273.015 221.571 273.674 220.135 273.421 218.893C273.099 217.315 271.392 216.789 269.948 216.941C268.02 217.152 266.091 217.851 264.258 218.456C262.424 219.061 260.479 219.787 258.63 220.561C256.477 221.473 254.369 222.488 252.307 223.607C251.411 224.091 252.207 225.453 253.103 224.969L253.118 224.98Z" fill="black"/>
<path d="M270.442 214.56C270.489 214.554 270.537 214.554 270.584 214.56C270.584 214.56 270.347 214.518 270.516 214.56C270.6 214.56 270.674 214.602 270.758 214.623C270.842 214.644 270.573 214.539 270.695 214.623L270.821 214.691C270.883 214.725 270.942 214.762 271 214.802C271.106 214.876 270.832 214.66 271 214.802L271.079 214.87C271.137 214.928 271.195 214.991 271.248 215.054C271.301 215.118 271.137 214.902 271.211 215.007L271.295 215.128C271.332 215.196 271.374 215.265 271.406 215.333C271.426 215.371 271.443 215.409 271.459 215.449C271.353 215.223 271.411 215.333 271.459 215.396C271.488 215.474 271.513 215.553 271.532 215.633C271.534 215.668 271.534 215.703 271.532 215.738C271.569 215.938 271.532 215.57 271.532 215.707C271.532 215.844 271.532 215.859 271.532 215.938C271.532 216.017 271.474 216.27 271.532 215.991C271.532 216.07 271.501 216.149 271.48 216.228C271.459 216.307 271.453 216.296 271.443 216.328C271.401 216.454 271.543 216.128 271.443 216.301C271.402 216.376 271.356 216.448 271.306 216.517C271.21 216.695 271.186 216.904 271.239 217.099C271.292 217.295 271.418 217.463 271.59 217.569C271.77 217.661 271.977 217.683 272.172 217.63C272.367 217.578 272.535 217.455 272.644 217.285C272.892 216.869 273.03 216.397 273.044 215.913C273.058 215.429 272.948 214.95 272.725 214.52C272.502 214.09 272.173 213.724 271.769 213.457C271.365 213.19 270.899 213.03 270.415 212.992C270.206 212.992 270.005 213.075 269.856 213.223C269.708 213.371 269.625 213.572 269.625 213.781C269.63 213.989 269.715 214.187 269.862 214.333C270.009 214.48 270.207 214.565 270.415 214.57L270.442 214.56Z" fill="black"/>
<path d="M112.678 121.839C108.788 137.057 107.19 152.768 107.936 168.456C108.147 172.875 108.546 177.28 109.132 181.671C109.139 181.878 109.224 182.075 109.371 182.222C109.518 182.368 109.715 182.454 109.923 182.46C110.307 182.46 110.771 182.092 110.713 181.671C108.654 166.243 108.904 150.594 111.456 135.239C112.187 130.876 113.102 126.55 114.201 122.26C114.454 121.277 112.926 120.856 112.678 121.839Z" fill="black"/>
<path d="M96.4828 216.414C104.158 219.059 112.343 219.889 120.395 218.84C128.493 217.83 136.271 215.058 143.179 210.717C147.031 208.279 150.538 205.337 153.607 201.968C154.292 201.221 153.174 200.1 152.489 200.853C147.143 206.673 140.516 211.176 133.13 214.005C125.754 216.862 117.841 218.076 109.946 217.561C105.498 217.259 101.111 216.359 96.9043 214.883C95.9401 214.547 95.5291 216.072 96.4828 216.404V216.414Z" fill="black"/>
<path d="M109.517 182.08C108.107 191.27 107.227 200.534 106.882 209.826C106.787 212.495 106.738 215.165 106.734 217.838C106.734 218.047 106.818 218.248 106.966 218.396C107.114 218.544 107.315 218.627 107.525 218.627C107.734 218.627 107.935 218.544 108.084 218.396C108.232 218.248 108.315 218.047 108.315 217.838C108.334 208.657 108.881 199.484 109.954 190.366C110.263 187.735 110.614 185.114 111.008 182.501C111.161 181.506 109.638 181.08 109.485 182.08H109.517Z" fill="black"/>
<path d="M125.064 113.199C123.561 121.934 122.506 130.74 121.903 139.582C121.312 148.397 121.177 157.236 121.497 166.065C121.683 171.063 122.019 176.07 122.504 181.085C122.598 182.084 124.179 182.095 124.084 181.085C122.415 163.569 122.553 145.928 124.495 128.44C125.043 123.48 125.746 118.54 126.603 113.62C126.772 112.626 125.249 112.199 125.075 113.199H125.064Z" fill="black"/>
<path d="M122.625 180.761C122.413 190.263 122.737 199.768 123.595 209.233C123.837 211.902 124.122 214.564 124.449 217.219C124.57 218.213 126.151 218.224 126.029 217.219C124.873 207.792 124.247 198.308 124.153 188.81C124.125 186.134 124.143 183.457 124.206 180.777C124.206 179.762 122.625 179.762 122.625 180.777V180.761Z" fill="black"/>
<path d="M135.645 126.084C136.014 140.292 136.077 154.508 135.834 168.734C135.768 172.742 135.675 176.753 135.555 180.765C135.524 181.78 137.104 181.78 137.136 180.765C137.554 166.557 137.665 152.341 137.468 138.115C137.412 134.107 137.331 130.096 137.226 126.084C137.199 125.068 135.618 125.063 135.645 126.084Z" fill="black"/>
<path d="M135.749 181.559C138.357 190.868 139.819 200.459 140.102 210.12C140.133 211.13 141.714 211.136 141.682 210.12C141.398 200.316 139.917 190.584 137.272 181.138C137.211 180.942 137.077 180.777 136.896 180.679C136.716 180.58 136.504 180.556 136.306 180.611C136.108 180.665 135.939 180.795 135.835 180.972C135.731 181.149 135.7 181.36 135.749 181.559Z" fill="black"/>
<path d="M179.249 32.9121C181.167 38.9269 182.316 45.1595 182.669 51.4619C182.98 57.1541 183.543 70.1379 176.804 83.6793C174.939 87.4198 172.868 91.4811 168.489 95.3952C166.171 97.4627 160.327 102.76 151.38 103.202C146.627 103.403 141.912 102.277 137.764 99.9511C137.02 101.552 136.084 103.057 134.977 104.433C132.77 107.143 129.964 109.304 126.778 110.746C124.626 110.904 122.486 110.311 120.724 109.068C119.7 108.292 118.846 107.316 118.212 106.2C117.578 105.084 117.177 103.851 117.035 102.576L126.936 94.0853C124.707 91.5457 122.977 88.6099 121.835 85.4312C121.835 85.4312 118.969 77.3873 121.835 66.8972C125.171 54.6657 147.07 39.8775 179.249 32.9121Z" fill="white"/>
<path d="M183.16 63.3984C184.042 72.3068 184.908 81.2239 185.758 90.1499L175.746 87.551C179.928 80.1286 182.445 71.8877 183.123 63.3984H183.16Z" fill="black"/>
<path d="M166.765 51.6194C166.522 49.7676 170.453 46.106 173.762 47.6264C176.307 48.789 177.25 52.4032 176.16 53.8184C174.468 56.0017 167.091 53.9868 166.765 51.6194Z" fill="black"/>
<path d="M171.606 65.0073C172.733 61.9913 172.938 59.282 172.063 58.9558C171.187 58.6296 169.564 60.8102 168.436 63.8262C167.309 66.8422 167.104 69.5515 167.979 69.8777C168.854 70.2039 170.478 68.0233 171.606 65.0073Z" fill="black"/>
<path d="M134.29 71.467C132.045 77.5182 127.86 82.6596 122.387 86.0922L126.661 92.7945L122.082 97.9712C119.244 98.2865 116.377 97.7575 113.84 96.4508C112.502 95.7458 108.503 93.6415 107.433 89.1382C106.958 86.9947 107.172 84.7562 108.044 82.741C105.161 80.803 102.589 78.4404 100.414 75.7336C97.49 72.051 93.8912 67.5792 94.6183 62.0185C95.0542 59.2567 96.3438 56.7 98.3068 54.7059C96.525 51.4996 95.3698 47.9844 94.9029 44.3473C94.4919 41.0277 93.6909 34.5359 97.6481 28.5069C102.338 21.3627 110.394 19.9212 111.991 19.6687C112.419 16.3628 113.679 13.219 115.653 10.5306C118.288 6.99005 121.402 5.40127 124.5 3.82828C128.9 1.58716 132.309 -0.143664 136.709 0.477116C142.01 1.22416 145.445 4.93306 146.778 6.56918C150.535 4.63314 154.795 3.88972 158.987 4.43854C161.232 4.75419 166.665 5.52227 169.668 9.92034C170.36 10.9445 170.874 12.0773 171.191 13.2715C173.953 13.8893 176.488 15.2607 178.515 17.2329C180.728 19.4898 182.216 22.3547 182.788 25.4609C183.711 29.4749 182.699 32.9786 181.566 37.3399C181.139 38.9971 180.686 40.3544 180.349 41.3013C174.034 43.1167 167.308 42.9032 161.121 40.691C159.918 44.7341 157.635 48.3738 154.517 51.2192C151.399 54.0646 147.563 56.0084 143.422 56.8419C142.895 56.2579 140.519 53.8169 137.015 53.7958C132.704 53.7643 128.584 57.389 128.162 62.0185C128.018 64.0441 128.538 66.0616 129.643 67.7661C130.749 69.4707 132.38 70.7697 134.29 71.467Z" fill="#FFDE59"/>
<path d="M179.809 41.5885C182.502 49.0694 182.913 57.1658 181.806 64.9992C181.243 68.9221 180.362 72.7928 179.171 76.5731C178.085 80.2395 176.605 83.7779 174.756 87.1264C171.293 93.2931 165.751 98.0336 159.117 100.505C152.791 102.867 145.837 102.949 139.457 100.736C133.198 98.5266 127.851 94.3038 124.256 88.7309C123.818 88.0418 123.412 87.3315 123.028 86.6266C122.559 85.727 121.194 86.5266 121.663 87.4262C124.917 93.515 130.092 98.3618 136.385 101.215C142.794 104.127 150.017 104.726 156.819 102.909C163.83 101.041 169.976 96.8042 174.208 90.9194C176.449 87.6655 178.244 84.1269 179.546 80.3977C180.959 76.5301 182.053 72.5537 182.818 68.5082C184.346 60.4539 184.478 52.0365 182.27 44.0821C181.991 43.0983 181.68 42.1303 181.332 41.1676C180.984 40.2048 179.461 40.6415 179.809 41.5885Z" fill="black"/>
<path d="M125.901 93.5979C123.323 96.7498 120.409 99.6128 117.212 102.136C117.064 102.284 116.98 102.485 116.98 102.694C116.98 102.903 117.064 103.104 117.212 103.252C117.362 103.394 117.562 103.474 117.77 103.474C117.978 103.474 118.178 103.394 118.329 103.252C121.536 100.725 124.459 97.8563 127.044 94.6974C127.186 94.5463 127.265 94.3469 127.265 94.1398C127.265 93.9327 127.186 93.7333 127.044 93.5822C126.895 93.4356 126.695 93.3535 126.485 93.3535C126.276 93.3535 126.076 93.4356 125.927 93.5822L125.901 93.5979Z" fill="black"/>
<path d="M116.852 102.699C116.968 104.036 117.367 105.332 118.023 106.502C118.679 107.673 119.576 108.691 120.656 109.489C121.735 110.288 122.972 110.848 124.285 111.133C125.598 111.418 126.956 111.421 128.27 111.143C129.271 110.943 128.85 109.423 127.854 109.623C126.775 109.826 125.667 109.805 124.597 109.561C123.526 109.318 122.518 108.857 121.634 108.208C120.75 107.558 120.01 106.734 119.459 105.786C118.908 104.838 118.559 103.788 118.432 102.699C118.427 102.492 118.342 102.294 118.195 102.147C118.048 102 117.85 101.915 117.642 101.91C117.432 101.91 117.231 101.993 117.083 102.141C116.935 102.289 116.852 102.49 116.852 102.699Z" fill="black"/>
<path d="M127.712 111.105C131.909 109.109 135.365 105.838 137.586 101.762C138.077 100.873 136.712 100.073 136.222 100.967C134.124 104.808 130.856 107.882 126.89 109.742C126.71 109.849 126.579 110.022 126.526 110.223C126.473 110.425 126.501 110.64 126.605 110.821C126.716 110.998 126.89 111.126 127.092 111.179C127.293 111.231 127.508 111.205 127.691 111.105H127.712Z" fill="black"/>
<path d="M134.42 70.5079C130.579 69.098 128.008 64.763 129.151 60.7438C130.247 56.8139 134.252 54.1466 138.283 55.2672C139.337 55.5456 140.316 56.0557 141.147 56.7602C141.978 57.4647 142.642 58.3458 143.088 59.3391C143.473 60.265 145.001 59.8652 144.611 58.9182C144.147 57.8329 143.474 56.8495 142.63 56.0241C141.785 55.1987 140.786 54.5476 139.69 54.1079C138.593 53.6681 137.42 53.4485 136.239 53.4615C135.057 53.4745 133.889 53.7198 132.803 54.1835C130.578 55.2317 128.847 57.0996 127.973 59.395C127.098 61.6904 127.149 64.2347 128.113 66.4939C128.675 67.766 129.488 68.9119 130.504 69.8629C131.52 70.8139 132.717 71.5504 134.025 72.0283C134.979 72.3808 135.39 70.8551 134.441 70.5079H134.42Z" fill="black"/>
<path d="M133.271 70.9764C133.203 74.4275 131.201 77.3893 128.898 79.8146C127.739 81.0403 126.506 82.2241 125.236 83.3288C123.966 84.4336 122.665 85.328 121.021 85.3016C120.004 85.3016 120.004 86.8799 121.021 86.8799C122.828 86.8799 124.388 86.0329 125.763 84.9334C127.269 83.6997 128.688 82.3638 130.01 80.9351C132.608 78.1942 134.752 74.8589 134.847 70.9764C134.847 69.961 133.266 69.961 133.266 70.9764H133.271Z" fill="black"/>
<path d="M122.15 97.5552C117.798 98.1759 113.345 95.8559 110.252 92.9519C108.793 91.5841 107.544 89.8954 107.17 87.891C106.972 86.9887 107.004 86.0511 107.262 85.1643C107.521 84.2774 107.998 83.4694 108.65 82.8143C109.399 82.1146 108.276 81.0045 107.533 81.6937C104.867 84.1874 105.041 88.3276 106.822 91.2684C108.787 94.5196 112.36 96.9765 115.864 98.2969C117.998 99.1203 120.306 99.3883 122.572 99.0756C123.573 98.9335 123.146 97.4131 122.15 97.5552Z" fill="black"/>
<path d="M108.998 81.6396C107.775 81.85 106.6 81.0294 105.641 80.3875C104.731 79.7768 103.867 79.1017 103.054 78.3674C101.403 76.8757 99.9683 75.1618 98.7912 73.2749C96.5939 69.7501 95.1396 65.5151 95.6296 61.3275C95.8465 59.0979 96.867 57.0227 98.5013 55.4879C99.2601 54.804 98.1378 53.6887 97.3843 54.3674C93.896 57.5239 93.4376 62.6217 94.4124 66.9566C95.577 71.7292 98.1463 76.0443 101.789 79.3459C102.796 80.2699 103.876 81.1109 105.019 81.8606C106.358 82.7444 107.786 83.4388 109.424 83.16C110.426 82.9917 109.999 81.4713 109.003 81.6396H108.998Z" fill="black"/>
<path d="M99.537 54.7668C96.3486 49.9207 94.9529 44.116 95.5903 38.3529C96.1594 32.7449 98.6201 26.8896 103.146 23.3385C105.767 21.2315 109.07 20.1571 112.431 20.3188C113.448 20.3766 113.442 18.7984 112.431 18.7405C105.971 18.3617 100.285 22.5704 97.2185 27.9996C94.2049 33.4863 93.1812 39.8436 94.3204 45.997C94.9292 49.4163 96.2407 52.6728 98.1722 55.5612C98.7361 56.4029 100.106 55.6138 99.537 54.7668Z" fill="black"/>
<path d="M114.03 19.3264C113.73 16.2278 115.31 13.3764 117.192 11.0353C118.939 8.8574 121.019 6.96833 123.357 5.4378C127.846 2.50224 133.4 0.845082 138.764 1.87095C141.525 2.39703 144.808 3.69646 145.714 6.60571C146.014 7.5737 147.537 7.16336 147.237 6.18485C146.341 3.28086 143.601 1.55003 140.814 0.718821C137.957 -0.0911632 134.954 -0.244052 132.03 0.271649C126.049 1.25543 120.495 4.71181 116.586 9.28348C114.214 12.0507 112.075 15.5123 112.444 19.3054C112.544 20.305 114.125 20.3155 114.025 19.3054L114.03 19.3264Z" fill="black"/>
<path d="M145.584 9.97396C147.876 6.67541 152.075 5.23919 155.964 5.23919C160.077 5.29159 164.055 6.70939 167.272 9.26901C168.168 9.98122 168.997 10.7736 169.748 11.6364C170.307 12.2835 171.73 13.7039 171.329 14.6561C170.929 15.6083 172.288 16.3817 172.694 15.4558C173.221 14.2352 172.804 13.0726 172.077 12.031C171.418 11.0869 170.672 10.2062 169.848 9.40053C168.156 7.74743 166.185 6.40471 164.026 5.43384C159.784 3.53468 154.799 2.98229 150.363 4.57633C147.894 5.41752 145.753 7.01105 144.24 9.13222C143.655 9.96869 145.025 10.7578 145.605 9.92661L145.584 9.97396Z" fill="black"/>
<path d="M168.906 16.346C173 14.1733 177.49 17.1509 179.834 20.4916C182.041 23.6927 183.057 27.5638 182.706 31.4341C182.516 33.6286 181.864 35.7583 180.793 37.684C180.298 38.5731 181.663 39.3728 182.158 38.4837C184.277 34.5867 184.883 30.0464 183.86 25.7314C182.854 21.407 180.093 17.0405 175.988 15.0571C174.768 14.4255 173.416 14.0914 172.042 14.0822C170.668 14.0731 169.312 14.3891 168.084 15.0045C167.188 15.478 167.984 16.8405 168.885 16.3671L168.906 16.346Z" fill="black"/>
<path d="M143.521 57.4099C145.46 58.5147 147.678 57.8676 149.47 56.7786C151.333 55.5686 153.017 54.1022 154.47 52.4227C157.44 49.1573 159.698 45.3108 161.099 41.1276C161.42 40.1596 159.898 39.744 159.576 40.7067C158.332 44.4309 156.362 47.8727 153.78 50.8339C152.521 52.309 151.108 53.6459 149.565 54.8216C148.142 55.8738 146.071 57.0364 144.332 56.0474C144.151 55.9413 143.936 55.9114 143.732 55.9642C143.529 56.017 143.356 56.1481 143.249 56.3288C143.143 56.5095 143.113 56.7249 143.166 56.9277C143.219 57.1304 143.35 57.3039 143.531 57.4099H143.521Z" fill="black"/>
<path d="M160.529 41.515C164.329 43.2405 168.507 43.6193 172.649 43.4825C176.221 43.3773 181.043 42.9985 182.233 38.8793C182.289 38.677 182.261 38.461 182.157 38.279C182.053 38.097 181.88 37.9638 181.677 37.9087C181.475 37.8535 181.259 37.8811 181.076 37.9851C180.894 38.0892 180.761 38.2614 180.705 38.4637C179.688 41.9832 174.856 41.8727 171.948 41.9201C168.344 41.9832 164.65 41.657 161.336 40.1524C160.419 39.7368 159.613 41.0941 160.54 41.515H160.529Z" fill="black"/>
<path d="M388.962 263.172H203.227V359.051H388.962V263.172Z" fill="white" stroke="black" stroke-width="1.73846" stroke-miterlimit="10"/>
<path d="M379.993 281.088H212.727V305.319H379.993V281.088Z" fill="white" stroke="black" stroke-width="1.73846" stroke-miterlimit="10"/>
<path d="M379.993 318.58H212.727V342.812H379.993V318.58Z" fill="white" stroke="black" stroke-width="1.73846" stroke-miterlimit="10"/>
<path d="M297.077 299.145C299.952 299.145 302.283 296.818 302.283 293.948C302.283 291.077 299.952 288.75 297.077 288.75C294.202 288.75 291.871 291.077 291.871 293.948C291.871 296.818 294.202 299.145 297.077 299.145Z" fill="white" stroke="black" stroke-width="1.73846" stroke-miterlimit="10"/>
<path d="M297.077 335.899C299.952 335.899 302.283 333.572 302.283 330.702C302.283 327.831 299.952 325.504 297.077 325.504C294.202 325.504 291.871 327.831 291.871 330.702C291.871 333.572 294.202 335.899 297.077 335.899Z" fill="white" stroke="black" stroke-width="1.73846" stroke-miterlimit="10"/>
<path d="M270.9 262.762H210.994C210.006 262.762 209.058 262.37 208.36 261.672C207.661 260.975 207.268 260.029 207.268 259.042V258.295H274.625V259.042C274.625 260.029 274.233 260.975 273.534 261.672C272.835 262.37 271.888 262.762 270.9 262.762Z" fill="white" stroke="black" stroke-width="1.73846" stroke-miterlimit="10"/>
<path d="M278.148 262.296L272.41 263.458L295.136 186.561C297.824 187.35 298.867 191.821 297.471 196.593L278.148 262.296Z" fill="white" stroke="black" stroke-width="1.73846" stroke-miterlimit="10"/>
<path d="M307.133 233.43C305.081 233.43 303.075 234.037 301.369 235.175C299.663 236.314 298.333 237.931 297.548 239.824C296.762 241.717 296.557 243.8 296.957 245.809C297.357 247.819 298.346 249.664 299.797 251.113C301.248 252.562 303.096 253.548 305.109 253.948C307.121 254.348 309.208 254.142 311.103 253.358C312.999 252.574 314.62 251.247 315.76 249.543C316.9 247.84 317.508 245.837 317.508 243.788C317.507 241.041 316.413 238.408 314.468 236.465C312.522 234.523 309.884 233.431 307.133 233.43ZM307.133 248.465C306.18 248.465 305.249 248.183 304.457 247.655C303.665 247.126 303.048 246.376 302.683 245.497C302.319 244.618 302.224 243.651 302.409 242.719C302.595 241.786 303.054 240.929 303.727 240.257C304.401 239.584 305.259 239.126 306.193 238.941C307.128 238.755 308.096 238.85 308.976 239.214C309.856 239.578 310.608 240.195 311.137 240.985C311.667 241.776 311.949 242.706 311.949 243.657C311.949 244.932 311.442 246.155 310.538 247.057C309.635 247.959 308.41 248.465 307.133 248.465Z" fill="white" stroke="black" stroke-width="1.73846" stroke-miterlimit="10"/>
<path d="M335.37 265.583H312.549C311.098 265.583 309.706 265.008 308.68 263.984C307.653 262.96 307.076 261.571 307.074 260.122V227.652C307.289 226.259 307.831 224.936 308.655 223.791C309.751 222.326 311.264 221.226 312.997 220.634C316.569 218.933 320.487 218.077 324.444 218.131C328.402 218.186 332.294 219.151 335.818 220.95C337.093 221.717 338.242 222.677 339.222 223.796C339.829 224.436 340.291 225.198 340.576 226.032C340.739 226.559 340.822 227.107 340.824 227.658V260.128C340.821 261.572 340.246 262.956 339.224 263.979C338.202 265.001 336.817 265.578 335.37 265.583Z" fill="white" stroke="black" stroke-width="1.73846" stroke-miterlimit="10"/>
<path d="M324.289 229.173C331.119 229.173 336.656 227.52 336.656 225.48C336.656 223.441 331.119 221.787 324.289 221.787C317.459 221.787 311.922 223.441 311.922 225.48C311.922 227.52 317.459 229.173 324.289 229.173Z" fill="white" stroke="black" stroke-width="1.73846" stroke-miterlimit="10"/>
<path d="M325.168 158.619C322.781 161.323 320.057 164.743 321.238 168.615C321.764 170.372 323.177 171.271 324.294 172.618C325.348 173.881 325.016 175.322 324.478 176.732C323.941 178.142 323.171 179.636 323.119 181.235C323.066 182.835 323.972 184.15 324.931 185.412C325.811 186.565 326.454 187.701 325.859 189.142C325.332 190.4 324.373 191.431 323.677 192.588C322.866 193.93 322.449 195.45 323.15 196.939C323.621 197.773 324.214 198.532 324.91 199.191C325.506 199.853 326.228 200.89 325.674 201.774C325.121 202.658 326.502 203.431 327.039 202.568C328.051 200.948 327.039 199.159 325.896 197.928C324.889 196.834 323.962 195.824 324.578 194.245C325.564 191.794 328.267 189.958 327.592 187.006C327.244 185.486 326.011 184.423 325.242 183.14C324.378 181.719 324.747 180.304 325.316 178.852C325.885 177.4 326.591 176.027 326.591 174.48C326.591 172.723 325.537 171.534 324.325 170.387C323.597 169.778 323.05 168.981 322.745 168.083C322.502 167.161 322.502 166.191 322.745 165.269C323.271 163.096 324.852 161.36 326.291 159.724C326.965 158.966 325.848 157.846 325.174 158.608L325.168 158.619Z" fill="black"/>
<path d="M314.783 181.264C312.923 183.142 311.095 185.309 310.483 187.945C310.199 189.055 310.183 190.217 310.437 191.335C310.691 192.453 311.207 193.494 311.943 194.374C312.718 195.226 313.724 195.615 314.725 196.131C315.117 196.288 315.463 196.541 315.732 196.867C316.106 197.43 315.674 198.125 315.421 198.645C314.665 200.039 313.996 201.478 313.418 202.954C313.013 204.148 313.044 205.584 313.945 206.568C314.425 207.053 315.071 207.339 315.753 207.368C316.459 207.436 317.128 207.368 317.57 208.015C318.435 209.283 317.444 210.787 316.575 211.74C315.895 212.492 317.012 213.612 317.697 212.86C318.65 211.929 319.27 210.711 319.462 209.393C319.514 208.834 319.428 208.27 319.21 207.751C318.992 207.233 318.65 206.776 318.213 206.421C317.731 206.07 317.155 205.869 316.559 205.842C315.895 205.784 315.215 205.842 314.883 205.164C314.277 203.875 315.442 202.212 315.979 201.092C316.575 199.866 317.676 198.324 317.407 196.883C317.217 195.857 316.39 195.205 315.51 194.752C314.541 194.253 313.524 193.9 312.844 192.99C312.186 192.069 311.836 190.965 311.843 189.833C311.795 186.835 313.903 184.357 315.89 182.347C316.606 181.621 315.489 180.506 314.773 181.232L314.783 181.264Z" fill="black"/>
<path d="M331.945 193.784C330.891 195.694 330.222 198.056 330.844 200.207C331.155 201.233 331.757 202.147 332.577 202.838C333.326 203.495 334.38 204.143 334.485 205.226C334.606 206.457 333.763 207.625 333.199 208.646C332.59 209.632 332.242 210.756 332.188 211.913C332.194 212.464 332.333 213.005 332.593 213.491C332.894 214.017 333.442 214.385 333.758 214.912C334.332 215.864 333.847 217.079 333.347 217.952C332.029 220.267 329.521 222.003 330.064 224.991C330.248 225.986 331.771 225.565 331.587 224.57C331.171 222.277 333.774 220.456 334.748 218.657C335.32 217.725 335.602 216.645 335.56 215.553C335.519 215.047 335.365 214.556 335.107 214.117C334.801 213.591 334.295 213.275 333.99 212.776C333.415 211.85 333.953 210.582 334.406 209.719C334.933 208.667 335.644 207.657 335.923 206.478C336.064 205.957 336.09 205.411 335.999 204.879C335.908 204.347 335.702 203.841 335.396 203.396C334.775 202.533 333.847 201.991 333.136 201.218C331.46 199.382 332.23 196.483 333.294 194.573C333.784 193.679 332.419 192.884 331.924 193.773L331.945 193.784Z" fill="black"/>
<path d="M272.309 188.965C274.202 190.205 276.21 191.262 278.305 192.121" stroke="black" stroke-width="1.73846" stroke-miterlimit="10" stroke-linecap="round"/>
<path d="M330.755 106.627C327.33 117.322 312.798 127.05 301.617 128.196C290.435 129.343 279.196 126.95 267.951 126.755C259.02 126.602 249.077 128.412 243.713 135.541C239.171 141.564 239.34 150.671 244.092 156.521C248.845 162.371 257.734 164.412 264.574 161.256C269.943 158.751 273.663 151.086 269.406 146.967C266.244 143.911 260.575 145.142 257.813 148.545C255.052 151.949 254.605 156.694 255.052 161.056C255.599 166.127 257.185 171.032 259.71 175.465C261.687 178.967 264.187 182.148 267.124 184.898" stroke="black" stroke-width="1.73846" stroke-miterlimit="10" stroke-linecap="round"/>
<rect x="239.5" y="31" width="215" height="100" fill="#FFFCEE"/>
<rect x="239.5" y="51" width="45" height="142" fill="#FFFCEE"/>
</g>
<defs>
<clipPath id="clip0_1417_5258">
<rect width="452" height="422.446" fill="white" transform="translate(0.5)"/>
</clipPath>
<clipPath id="clip1_1417_5258">
<rect width="181.58" height="62.9842" fill="white" transform="translate(269.777 51.8398)"/>
</clipPath>
</defs>
</svg>
