<svg width="60" height="60" viewBox="0 0 60 60" fill="none" xmlns="http://www.w3.org/2000/svg">
<path d="M19.8205 12.5L39.8205 12.5L49.8205 29.8205L39.8205 47.141L19.8205 47.141L9.82051 29.8205L19.8205 12.5Z" fill="black"/>
<path d="M18.7433 26.775H22.0308C22.6058 26.775 23.1308 26.8667 23.6058 27.05C24.0808 27.2333 24.4849 27.5083 24.8183 27.875C25.1516 28.2333 25.4099 28.6875 25.5933 29.2375C25.7766 29.7792 25.8683 30.4125 25.8683 31.1375C25.8683 31.8625 25.7766 32.5 25.5933 33.05C25.4099 33.5917 25.1516 34.0458 24.8183 34.4125C24.4849 34.7708 24.0808 35.0417 23.6058 35.225C23.1308 35.4083 22.6058 35.5 22.0308 35.5H18.7433V26.775ZM22.0308 33.8125C22.5974 33.8125 23.0433 33.6542 23.3683 33.3375C23.6933 33.0208 23.8558 32.5125 23.8558 31.8125V30.4625C23.8558 29.7625 23.6933 29.2542 23.3683 28.9375C23.0433 28.6208 22.5974 28.4625 22.0308 28.4625H20.6433V33.8125H22.0308ZM27.4591 35.5V26.775H33.3966V28.4625H29.3591V30.25H32.8216V31.925H29.3591V33.8125H33.3966V35.5H27.4591ZM37.0769 35.5L34.2644 26.775H36.1894L37.4894 30.9625L38.1769 33.7H38.2144L38.8769 30.9625L40.1769 26.775H42.0394L39.2019 35.5H37.0769Z" fill="white"/>
<path d="M18.7433 26.775V26.275H18.2433V26.775H18.7433ZM23.6058 27.05L23.7858 26.5835H23.7858L23.6058 27.05ZM24.8183 27.875L24.4483 28.2114L24.4522 28.2156L24.8183 27.875ZM25.5933 29.2375L25.1189 29.3956L25.1197 29.3978L25.5933 29.2375ZM25.5933 33.05L26.0669 33.2103L26.0676 33.2081L25.5933 33.05ZM24.8183 34.4125L25.1844 34.7531L25.1882 34.7488L24.8183 34.4125ZM23.6058 35.225L23.7858 35.6915L23.6058 35.225ZM18.7433 35.5H18.2433V36H18.7433V35.5ZM23.3683 28.9375L23.7172 28.5794L23.3683 28.9375ZM20.6433 28.4625V27.9625H20.1433V28.4625H20.6433ZM20.6433 33.8125H20.1433V34.3125H20.6433V33.8125ZM18.7433 27.275H22.0308V26.275H18.7433V27.275ZM22.0308 27.275C22.5521 27.275 23.0151 27.358 23.4257 27.5165L23.7858 26.5835C23.2464 26.3754 22.6594 26.275 22.0308 26.275V27.275ZM23.4257 27.5165C23.8302 27.6726 24.1688 27.9038 24.4483 28.2113L25.1882 27.5387C24.8011 27.1128 24.3313 26.7941 23.7858 26.5835L23.4257 27.5165ZM24.4522 28.2156C24.7286 28.5127 24.9541 28.9011 25.1189 29.3956L26.0676 29.0794C25.8658 28.4739 25.5746 27.9539 25.1844 27.5344L24.4522 28.2156ZM25.1197 29.3978C25.2815 29.8761 25.3683 30.4531 25.3683 31.1375H26.3683C26.3683 30.3719 26.2716 29.6822 26.0669 29.0772L25.1197 29.3978ZM25.3683 31.1375C25.3683 31.8216 25.2816 32.4038 25.1189 32.8919L26.0676 33.2081C26.2716 32.5962 26.3683 31.9034 26.3683 31.1375H25.3683ZM25.1197 32.8897C24.955 33.3762 24.7287 33.7677 24.4483 34.0762L25.1882 34.7488C25.5744 34.324 25.8648 33.8072 26.0669 33.2103L25.1197 32.8897ZM24.4522 34.0719C24.1726 34.3725 23.8329 34.6014 23.4257 34.7585L23.7858 35.6915C24.3286 35.4819 24.7973 35.1692 25.1844 34.7531L24.4522 34.0719ZM23.4257 34.7585C23.0151 34.917 22.5521 35 22.0308 35V36C22.6594 36 23.2464 35.8996 23.7858 35.6915L23.4257 34.7585ZM22.0308 35H18.7433V36H22.0308V35ZM19.2433 35.5V26.775H18.2433V35.5H19.2433ZM22.0308 34.3125C22.6937 34.3125 23.2769 34.1246 23.7172 33.6956L23.0193 32.9794C22.8096 33.1838 22.5012 33.3125 22.0308 33.3125V34.3125ZM23.7172 33.6956C24.1803 33.2444 24.3558 32.5756 24.3558 31.8125H23.3558C23.3558 32.4494 23.2062 32.7973 23.0193 32.9794L23.7172 33.6956ZM24.3558 31.8125V30.4625H23.3558V31.8125H24.3558ZM24.3558 30.4625C24.3558 29.6994 24.1803 29.0306 23.7172 28.5794L23.0193 29.2956C23.2062 29.4777 23.3558 29.8256 23.3558 30.4625H24.3558ZM23.7172 28.5794C23.2769 28.1504 22.6937 27.9625 22.0308 27.9625V28.9625C22.5012 28.9625 22.8096 29.0912 23.0193 29.2956L23.7172 28.5794ZM22.0308 27.9625H20.6433V28.9625H22.0308V27.9625ZM20.1433 28.4625V33.8125H21.1433V28.4625H20.1433ZM20.6433 34.3125H22.0308V33.3125H20.6433V34.3125ZM27.4591 35.5H26.9591V36H27.4591V35.5ZM27.4591 26.775V26.275H26.9591V26.775H27.4591ZM33.3966 26.775H33.8966V26.275H33.3966V26.775ZM33.3966 28.4625V28.9625H33.8966V28.4625H33.3966ZM29.3591 28.4625V27.9625H28.8591V28.4625H29.3591ZM29.3591 30.25H28.8591V30.75H29.3591V30.25ZM32.8216 30.25H33.3216V29.75H32.8216V30.25ZM32.8216 31.925V32.425H33.3216V31.925H32.8216ZM29.3591 31.925V31.425H28.8591V31.925H29.3591ZM29.3591 33.8125H28.8591V34.3125H29.3591V33.8125ZM33.3966 33.8125H33.8966V33.3125H33.3966V33.8125ZM33.3966 35.5V36H33.8966V35.5H33.3966ZM27.9591 35.5V26.775H26.9591V35.5H27.9591ZM27.4591 27.275H33.3966V26.275H27.4591V27.275ZM32.8966 26.775V28.4625H33.8966V26.775H32.8966ZM33.3966 27.9625H29.3591V28.9625H33.3966V27.9625ZM28.8591 28.4625V30.25H29.8591V28.4625H28.8591ZM29.3591 30.75H32.8216V29.75H29.3591V30.75ZM32.3216 30.25V31.925H33.3216V30.25H32.3216ZM32.8216 31.425H29.3591V32.425H32.8216V31.425ZM28.8591 31.925V33.8125H29.8591V31.925H28.8591ZM29.3591 34.3125H33.3966V33.3125H29.3591V34.3125ZM32.8966 33.8125V35.5H33.8966V33.8125H32.8966ZM33.3966 35H27.4591V36H33.3966V35ZM37.0769 35.5L36.601 35.6534L36.7127 36H37.0769V35.5ZM34.2644 26.775V26.275H33.5778L33.7885 26.9284L34.2644 26.775ZM36.1894 26.775L36.6669 26.6268L36.5577 26.275H36.1894V26.775ZM37.4894 30.9625L37.9743 30.8407L37.9709 30.8274L37.9669 30.8143L37.4894 30.9625ZM38.1769 33.7L37.6919 33.8218L37.7869 34.2H38.1769V33.7ZM38.2144 33.7V34.2H38.6078L38.7003 33.8176L38.2144 33.7ZM38.8769 30.9625L38.3993 30.8143L38.3946 30.8294L38.3909 30.8449L38.8769 30.9625ZM40.1769 26.775V26.275H39.8085L39.6993 26.6268L40.1769 26.775ZM42.0394 26.775L42.5148 26.9296L42.7277 26.275H42.0394V26.775ZM39.2019 35.5V36H39.565L39.6773 35.6546L39.2019 35.5ZM37.5527 35.3466L34.7402 26.6216L33.7885 26.9284L36.601 35.6534L37.5527 35.3466ZM34.2644 27.275H36.1894V26.275H34.2644V27.275ZM35.7118 26.9232L37.0118 31.1107L37.9669 30.8143L36.6669 26.6268L35.7118 26.9232ZM37.0044 31.0843L37.6919 33.8218L38.6618 33.5782L37.9743 30.8407L37.0044 31.0843ZM38.1769 34.2H38.2144V33.2H38.1769V34.2ZM38.7003 33.8176L39.3628 31.0801L38.3909 30.8449L37.7284 33.5824L38.7003 33.8176ZM39.3544 31.1107L40.6544 26.9232L39.6993 26.6268L38.3993 30.8143L39.3544 31.1107ZM40.1769 27.275H42.0394V26.275H40.1769V27.275ZM41.5639 26.6204L38.7264 35.3454L39.6773 35.6546L42.5148 26.9296L41.5639 26.6204ZM39.2019 35H37.0769V36H39.2019V35Z" fill="white"/>
</svg>
