<svg width="40" height="40" viewBox="0 0 40 40" fill="none" xmlns="http://www.w3.org/2000/svg">
<path d="M13.213 8.33333L26.5464 8.33333L33.213 19.8803L26.5464 31.4273L13.213 31.4273L6.54635 19.8803L13.213 8.33333Z" fill="#FFDE59"/>
<path d="M12.6615 18.1833H14.8532C15.2365 18.1833 15.5865 18.2444 15.9032 18.3667C16.2199 18.4889 16.4893 18.6722 16.7115 18.9167C16.9337 19.1556 17.106 19.4583 17.2282 19.825C17.3504 20.1861 17.4115 20.6083 17.4115 21.0917C17.4115 21.575 17.3504 22 17.2282 22.3667C17.106 22.7278 16.9337 23.0306 16.7115 23.275C16.4893 23.5139 16.2199 23.6944 15.9032 23.8167C15.5865 23.9389 15.2365 24 14.8532 24H12.6615V18.1833ZM14.8532 22.875C15.231 22.875 15.5282 22.7694 15.7449 22.5583C15.9615 22.3472 16.0699 22.0083 16.0699 21.5417V20.6417C16.0699 20.175 15.9615 19.8361 15.7449 19.625C15.5282 19.4139 15.231 19.3083 14.8532 19.3083H13.9282V22.875H14.8532ZM18.4721 24V18.1833H22.4304V19.3083H19.7387V20.5H22.0471V21.6167H19.7387V22.875H22.4304V24H18.4721ZM24.8839 24L23.0089 18.1833H24.2923L25.1589 20.975L25.6173 22.8H25.6423L26.0839 20.975L26.9506 18.1833H28.1923L26.3006 24H24.8839Z" fill="black"/>
<path d="M12.6615 18.1833V17.85H12.3282V18.1833H12.6615ZM15.9032 18.3667L16.0232 18.0557L16.0232 18.0557L15.9032 18.3667ZM16.7115 18.9167L16.4649 19.1409L16.4675 19.1437L16.7115 18.9167ZM17.2282 19.825L16.912 19.9304L16.9125 19.9319L17.2282 19.825ZM17.2282 22.3667L17.5439 22.4735L17.5444 22.4721L17.2282 22.3667ZM16.7115 23.275L16.9556 23.502L16.9582 23.4992L16.7115 23.275ZM15.9032 23.8167L16.0232 24.1276L15.9032 23.8167ZM12.6615 24H12.3282V24.3333H12.6615V24ZM15.7449 19.625L15.9775 19.3863L15.7449 19.625ZM13.9282 19.3083V18.975H13.5949V19.3083H13.9282ZM13.9282 22.875H13.5949V23.2083H13.9282V22.875ZM12.6615 18.5167H14.8532V17.85H12.6615V18.5167ZM14.8532 18.5167C15.2007 18.5167 15.5094 18.572 15.7832 18.6776L16.0232 18.0557C15.6636 17.9169 15.2723 17.85 14.8532 17.85V18.5167ZM15.7832 18.6776C16.0528 18.7817 16.2785 18.9359 16.4649 19.1409L16.9582 18.6924C16.7001 18.4085 16.3869 18.1961 16.0232 18.0557L15.7832 18.6776ZM16.4675 19.1437C16.6518 19.3418 16.8021 19.6007 16.912 19.9304L17.5444 19.7196C17.4099 19.3159 17.2157 18.9693 16.9556 18.6896L16.4675 19.1437ZM16.9125 19.9319C17.0204 20.2507 17.0782 20.6354 17.0782 21.0917H17.7449C17.7449 20.5813 17.6804 20.1215 17.5439 19.7181L16.9125 19.9319ZM17.0782 21.0917C17.0782 21.5478 17.0204 21.9359 16.912 22.2613L17.5444 22.4721C17.6804 22.0641 17.7449 21.6022 17.7449 21.0917H17.0782ZM16.9125 22.2598C16.8027 22.5841 16.6518 22.8451 16.4649 23.0508L16.9582 23.4992C17.2156 23.216 17.4092 22.8715 17.5439 22.4735L16.9125 22.2598ZM16.4675 23.048C16.2811 23.2483 16.0546 23.4009 15.7832 23.5057L16.0232 24.1276C16.3851 23.988 16.6975 23.7795 16.9556 23.502L16.4675 23.048ZM15.7832 23.5057C15.5094 23.6114 15.2007 23.6667 14.8532 23.6667V24.3333C15.2723 24.3333 15.6636 24.2664 16.0232 24.1276L15.7832 23.5057ZM14.8532 23.6667H12.6615V24.3333H14.8532V23.6667ZM12.9949 24V18.1833H12.3282V24H12.9949ZM14.8532 23.2083C15.2951 23.2083 15.684 23.0831 15.9775 22.7971L15.5122 22.3196C15.3724 22.4558 15.1668 22.5417 14.8532 22.5417V23.2083ZM15.9775 22.7971C16.2862 22.4963 16.4032 22.0504 16.4032 21.5417H15.7365C15.7365 21.9663 15.6368 22.1982 15.5122 22.3196L15.9775 22.7971ZM16.4032 21.5417V20.6417H15.7365V21.5417H16.4032ZM16.4032 20.6417C16.4032 20.133 16.2862 19.6871 15.9775 19.3863L15.5122 19.8637C15.6368 19.9851 15.7365 20.217 15.7365 20.6417H16.4032ZM15.9775 19.3863C15.684 19.1003 15.2951 18.975 14.8532 18.975V19.6417C15.1668 19.6417 15.3724 19.7275 15.5122 19.8637L15.9775 19.3863ZM14.8532 18.975H13.9282V19.6417H14.8532V18.975ZM13.5949 19.3083V22.875H14.2615V19.3083H13.5949ZM13.9282 23.2083H14.8532V22.5417H13.9282V23.2083ZM18.4721 24H18.1387V24.3333H18.4721V24ZM18.4721 18.1833V17.85H18.1387V18.1833H18.4721ZM22.4304 18.1833H22.7637V17.85H22.4304V18.1833ZM22.4304 19.3083V19.6417H22.7637V19.3083H22.4304ZM19.7387 19.3083V18.975H19.4054V19.3083H19.7387ZM19.7387 20.5H19.4054V20.8333H19.7387V20.5ZM22.0471 20.5H22.3804V20.1667H22.0471V20.5ZM22.0471 21.6167V21.95H22.3804V21.6167H22.0471ZM19.7387 21.6167V21.2833H19.4054V21.6167H19.7387ZM19.7387 22.875H19.4054V23.2083H19.7387V22.875ZM22.4304 22.875H22.7637V22.5417H22.4304V22.875ZM22.4304 24V24.3333H22.7637V24H22.4304ZM18.8054 24V18.1833H18.1387V24H18.8054ZM18.4721 18.5167H22.4304V17.85H18.4721V18.5167ZM22.0971 18.1833V19.3083H22.7637V18.1833H22.0971ZM22.4304 18.975H19.7387V19.6417H22.4304V18.975ZM19.4054 19.3083V20.5H20.0721V19.3083H19.4054ZM19.7387 20.8333H22.0471V20.1667H19.7387V20.8333ZM21.7137 20.5V21.6167H22.3804V20.5H21.7137ZM22.0471 21.2833H19.7387V21.95H22.0471V21.2833ZM19.4054 21.6167V22.875H20.0721V21.6167H19.4054ZM19.7387 23.2083H22.4304V22.5417H19.7387V23.2083ZM22.0971 22.875V24H22.7637V22.875H22.0971ZM22.4304 23.6667H18.4721V24.3333H22.4304V23.6667ZM24.8839 24L24.5667 24.1023L24.6411 24.3333H24.8839V24ZM23.0089 18.1833V17.85H22.5512L22.6917 18.2856L23.0089 18.1833ZM24.2923 18.1833L24.6106 18.0845L24.5378 17.85H24.2923V18.1833ZM25.1589 20.975L25.4822 20.8938L25.48 20.8849L25.4773 20.8762L25.1589 20.975ZM25.6173 22.8L25.294 22.8812L25.3573 23.1333H25.6173V22.8ZM25.6423 22.8V23.1333H25.9045L25.9662 22.8784L25.6423 22.8ZM26.0839 20.975L25.7656 20.8762L25.7624 20.8863L25.7599 20.8966L26.0839 20.975ZM26.9506 18.1833V17.85H26.705L26.6322 18.0845L26.9506 18.1833ZM28.1923 18.1833L28.5092 18.2864L28.6512 17.85H28.1923V18.1833ZM26.3006 24V24.3333H26.5427L26.6176 24.1031L26.3006 24ZM25.2012 23.8977L23.3262 18.0811L22.6917 18.2856L24.5667 24.1023L25.2012 23.8977ZM23.0089 18.5167H24.2923V17.85H23.0089V18.5167ZM23.9739 18.2822L24.8406 21.0738L25.4773 20.8762L24.6106 18.0845L23.9739 18.2822ZM24.8356 21.0562L25.294 22.8812L25.9405 22.7188L25.4822 20.8938L24.8356 21.0562ZM25.6173 23.1333H25.6423V22.4667H25.6173V23.1333ZM25.9662 22.8784L26.4079 21.0534L25.7599 20.8966L25.3183 22.7216L25.9662 22.8784ZM26.4023 21.0738L27.2689 18.2822L26.6322 18.0845L25.7656 20.8762L26.4023 21.0738ZM26.9506 18.5167H28.1923V17.85H26.9506V18.5167ZM27.8753 18.0802L25.9836 23.8969L26.6176 24.1031L28.5092 18.2864L27.8753 18.0802ZM26.3006 23.6667H24.8839V24.3333H26.3006V23.6667Z" fill="black"/>
</svg>
