<svg width="24" height="25" viewBox="0 0 24 25" fill="none" xmlns="http://www.w3.org/2000/svg">
<path opacity="0.1" fill-rule="evenodd" clip-rule="evenodd" d="M0 12.6953C0 6.0679 5.37258 0.695312 12 0.695312C18.6274 0.695312 24 6.0679 24 12.6953C24 19.3227 18.6274 24.6953 12 24.6953C5.37258 24.6953 0 19.3227 0 12.6953Z" fill="white"/>
<path fill-rule="evenodd" clip-rule="evenodd" d="M18.4016 12.686C18.4016 13.1189 18.3575 13.5511 18.271 13.9724C18.1866 14.3837 18.0616 14.7875 17.8978 15.1735C17.7378 15.5527 17.5394 15.9181 17.3075 16.2589C17.079 16.5975 16.8159 16.9152 16.5268 17.2048C16.2371 17.4931 15.9183 17.7555 15.5799 17.9849C15.238 18.2152 14.8721 18.4134 14.4926 18.5741C14.1061 18.737 13.7013 18.8618 13.2904 18.9461C12.8685 19.0329 12.4347 19.0772 12.0013 19.0772C11.5675 19.0772 11.1337 19.0329 10.7125 18.9461C10.3009 18.8618 9.89618 18.737 9.5099 18.5741C9.13052 18.4134 8.76423 18.2152 8.42235 17.9849C8.08389 17.7556 7.76513 17.4931 7.47605 17.2048C7.18667 16.9152 6.92351 16.5975 6.69476 16.2589C6.46412 15.9181 6.26534 15.5527 6.10472 15.1735C5.94094 14.7875 5.81564 14.3837 5.73095 13.9724C5.64533 13.5511 5.60156 13.1189 5.60156 12.686C5.60156 12.2529 5.6453 11.8198 5.73097 11.3994C5.81567 10.9881 5.94097 10.5836 6.10475 10.1982C6.26537 9.81878 6.46414 9.45305 6.69478 9.11226C6.92354 8.77337 7.18669 8.45629 7.47607 8.16638C7.76515 7.87801 8.08392 7.61622 8.42237 7.38716C8.76426 7.15591 9.13054 6.95777 9.50993 6.79673C9.8962 6.63349 10.3009 6.50837 10.7125 6.42475C11.1338 6.33862 11.5675 6.29492 12.0013 6.29492C12.4347 6.29492 12.8685 6.33862 13.2904 6.42475C13.7014 6.50839 14.1061 6.63351 14.4927 6.79673C14.8721 6.95775 15.238 7.15591 15.5799 7.38716C15.9184 7.61622 16.2371 7.87801 16.5268 8.16638C16.8159 8.45629 17.0791 8.77337 17.3075 9.11226C17.5394 9.45305 17.7378 9.81881 17.8978 10.1982C18.0616 10.5836 18.1866 10.9881 18.271 11.3994C18.3575 11.8198 18.4016 12.2529 18.4016 12.686ZM9.66925 7.74946C8.14509 8.46816 7.00754 9.87058 6.65283 11.5607C6.79691 11.562 9.07453 11.5907 11.6987 10.8945C10.7527 9.21616 9.74207 7.84654 9.66925 7.74946ZM12.1516 11.7349C9.33736 12.5762 6.63689 12.5156 6.54002 12.5119C6.53844 12.5706 6.53564 12.6274 6.53564 12.686C6.53564 14.0881 7.06535 15.3664 7.93602 16.3328C7.93414 16.33 9.42987 13.6803 12.3794 12.7279C12.4506 12.7042 12.5231 12.6829 12.595 12.6623C12.4578 12.3522 12.3081 12.0413 12.1516 11.7349ZM15.6108 8.58986C14.6486 7.74258 13.3851 7.22864 12.0013 7.22864C11.5572 7.22864 11.1262 7.28232 10.7134 7.38155C10.7952 7.49142 11.8219 8.85138 12.7566 10.5652C14.8189 9.79319 15.5974 8.60982 15.6108 8.58986ZM12.9676 13.5667C12.9554 13.5707 12.9432 13.5742 12.9313 13.5785C9.70653 14.7011 8.65343 16.9635 8.64204 16.9882C9.56992 17.7087 10.7337 18.1434 12.0013 18.1434C12.7582 18.1434 13.4792 17.9896 14.1351 17.7109C14.0542 17.2341 13.7367 15.5627 12.9676 13.5667ZM15.0555 17.2122C16.2827 16.3853 17.1543 15.0721 17.3975 13.5511C17.285 13.5149 15.7558 13.0315 13.9916 13.3139C14.7086 15.2812 14.9998 16.8833 15.0555 17.2122ZM13.1773 11.3785C13.3041 11.6388 13.427 11.9037 13.5404 12.1699C13.5807 12.2654 13.6201 12.359 13.6586 12.4526C15.5361 12.2167 17.3859 12.6136 17.465 12.6298C17.4525 11.336 16.989 10.1486 16.2221 9.21899C16.2118 9.23362 15.3352 10.4984 13.1773 11.3785Z" fill="white"/>
</svg>
