<svg width="195" height="64" viewBox="0 0 195 64" fill="none" xmlns="http://www.w3.org/2000/svg">
<g clip-path="url(#clip0_1920_18585)">
<path d="M60.5743 31.2938C60.5743 47.8331 47.1662 61.2428 30.6255 61.2428C26.089 61.246 21.6111 60.2175 17.5308 58.2348C13.4506 56.2521 9.87467 53.3672 7.07384 49.7986C9.90157 46.4394 13.378 44.315 18.1889 44.7132C19.4462 44.8192 20.726 44.6891 21.9896 44.7341C24.6873 44.8336 27.1281 44.0051 29.397 42.6594C33.1754 40.4274 35.8007 37.1051 38.0231 33.4103C38.6654 32.3472 38.5306 31.9314 37.177 31.9458C32.2392 31.9989 27.3014 31.9876 22.3638 31.9699C14.2387 31.9463 8.55166 35.6531 5.30269 43.0898C4.92997 43.9419 4.61925 44.8199 4.37296 45.7167C1.94258 41.2986 0.671913 36.3364 0.679723 31.2938C0.679723 14.7547 14.0878 1.3418 30.6271 1.3418C35.6091 1.3383 40.5132 2.57936 44.8939 4.95228C49.2747 7.32519 52.9934 10.7548 55.7121 14.9297C46.0679 14.8911 36.4254 14.5282 26.7926 15.0646C18.7991 15.5078 13.2271 23.2426 15.1395 31.3999C17.3555 28.1883 20.3599 27.5605 23.7223 27.5813C30.2673 27.6247 36.8108 27.5108 43.3558 27.5219C46.2687 27.5219 48.8957 26.7047 51.224 25.0138C53.7065 23.2138 56.014 21.2066 57.6968 18.5909C57.7081 18.5763 57.7193 18.5587 57.729 18.5443C59.6089 22.5313 60.5807 26.8858 60.5743 31.2938Z" fill="#17161A"/>
<path d="M85.5081 16.9336C80.1198 16.9336 76.7072 20.3013 76.7072 25.8242V29.0124H72.3516V33.3678H76.7072V52.0473H81.7362V33.3678H87.394V29.0124H81.7362V25.6896C81.7362 22.9953 83.4874 21.3339 86.0469 21.3339C86.451 21.3339 86.9449 21.3789 87.4838 21.4238V17.0683C86.9001 16.9785 86.2265 16.9336 85.5081 16.9336ZM91.9741 18.8195C90.7616 20.0318 90.7616 22.0075 91.9741 23.2648C93.2314 24.4773 95.2071 24.4773 96.4644 23.2648C97.7215 22.0075 97.7215 20.0318 96.4644 18.8195C95.2071 17.5622 93.2314 17.5622 91.9741 18.8195ZM96.7336 29.0124H91.7046V52.0473H96.7336V29.0124ZM113.249 28.6083C110.061 28.6083 107.816 29.7758 106.514 32.0657V29.0124H101.754V52.0473H106.783V38.891C106.783 35.658 108.939 33.278 112.127 33.278C115.18 33.278 117.156 35.4333 117.156 38.846V52.0473H122.23V38.1724C122.23 35.2539 121.377 32.9189 119.715 31.2125C118.054 29.4613 115.899 28.6083 113.249 28.6083ZM137.15 28.6083C133.738 28.6083 130.954 29.6859 128.798 31.7963C126.688 33.9068 125.61 36.8255 125.61 40.5524C125.61 44.2343 126.688 47.153 128.843 49.3083C130.998 51.4188 133.783 52.4964 137.15 52.4964C142.763 52.4964 146.894 49.2185 147.792 44.0098L142.853 43.5607C142.359 46.4346 140.248 48.1408 137.15 48.1408C133.378 48.1408 130.729 45.2671 130.729 40.5524C130.729 35.7478 133.333 32.9189 137.15 32.9189C140.203 32.9189 142.449 34.76 142.808 37.7683L147.747 37.3194C146.984 31.9311 142.763 28.6083 137.15 28.6083ZM162.475 28.7429C159.197 28.7429 157.041 29.9104 155.919 32.2454V29.0124H151.024V52.0473H156.053V39.5195C156.053 36.1069 158.568 33.6373 162.475 33.6373V28.7429ZM173.18 28.6083C170.441 28.6083 168.196 29.4165 166.535 31.0779C164.873 32.6943 164.02 34.5803 164.02 36.7356L169.094 36.9153C169.094 34.715 170.531 33.0087 173.225 33.0087C175.964 33.0087 177.311 34.6251 177.311 37.8133V38.4869L171.833 38.8011C166.22 39.1154 163.391 41.4504 163.391 45.761C163.391 50.0267 166.4 52.4964 171.07 52.4964C173.45 52.4964 175.56 51.6432 177.311 49.9818V52.0473H182.384V37.7235C182.384 31.8413 179.107 28.6083 173.18 28.6083ZM177.356 43.2016C177.356 46.5692 175.291 48.2754 171.923 48.2754C169.633 48.2754 168.465 47.4224 168.465 45.6712C168.465 43.8302 169.813 42.8423 172.552 42.7077L177.356 42.3932V43.2016Z" fill="black"/>
</g>
<defs>
<clipPath id="clip0_1920_18585">
<rect width="194.4" height="63" fill="white" transform="translate(0.0664062 0.5)"/>
</clipPath>
</defs>
</svg>
