<svg width="286" height="68" viewBox="0 0 286 68" fill="none" xmlns="http://www.w3.org/2000/svg">
<path d="M97.2086 23.1406H92.668V46.5035H97.2086V23.1406Z" fill="#17161A"/>
<path d="M114.782 38.2133C114.782 41.4377 112.708 42.8864 109.946 42.8864C107.184 42.8864 105.338 41.4377 105.338 38.3767V30.0508H100.797V39.4309C100.797 44.1012 103.725 46.8323 108.596 46.8323C111.657 46.8323 113.368 45.7049 114.515 44.431H114.78L115.174 46.5054H119.351V30.0508H114.782V38.2133Z" fill="#17161A"/>
<path d="M159.322 43.2478C155.999 43.2478 154.125 41.7343 153.829 39.5302H168.24C168.307 39.0719 168.34 38.6094 168.339 38.1463C168.308 32.2274 163.829 29.7217 159.038 29.7217C153.477 29.7217 149.297 33.0476 149.297 38.4112C149.297 43.51 153.313 46.833 159.334 46.833C164.37 46.833 167.724 44.5979 168.418 41.1734H163.931C163.37 42.5235 161.758 43.2478 159.322 43.2478ZM159.041 33.3097C161.938 33.3097 163.615 34.5921 163.88 36.4101H153.928C154.353 34.6682 156.033 33.3097 159.026 33.3097H159.041Z" fill="#17161A"/>
<path d="M176.055 32.4134H175.774L175.345 30.043H171.219V46.506H175.759V39.4315C175.759 36.2381 177.6 34.4624 181.024 34.4624C181.647 34.4538 182.268 34.5086 182.879 34.6259V30.0514H182.245C179.218 30.0514 177.338 30.6771 176.055 32.4134Z" fill="#17161A"/>
<path d="M205.173 41.37H204.911L201.027 31.0711H196.354L192.538 41.339H192.242L188.623 30.0508H184.113L189.674 46.5054H194.612L198.561 36.0063H198.823L202.707 46.5054H207.676L213.237 30.0508H208.728L205.173 41.37Z" fill="#17161A"/>
<path d="M231.307 41.7147V36.2072C231.307 31.7314 227.522 29.7246 222.815 29.7246C217.815 29.7246 214.689 32.095 214.261 35.6435H218.801C219.131 34.0962 220.447 33.2421 222.815 33.2421C225.182 33.2421 226.761 34.13 226.761 35.9395V36.3594L219.356 36.9232C215.935 37.1881 213.438 38.7016 213.438 41.9261C213.438 45.2491 216.301 46.8275 220.512 46.8275C223.911 46.8275 225.983 45.8805 227.251 44.4515H227.477C228.19 46.058 229.636 46.5005 231.208 46.5005H233.117V43.1493H232.688C231.733 43.1493 231.307 42.6899 231.307 41.7147ZM226.764 39.97C226.764 42.5715 223.663 43.4255 221.005 43.4255C219.196 43.4255 218.012 42.9661 218.012 41.7147C218.012 40.5872 219.032 40.0376 220.549 39.9052L226.766 39.4457L226.764 39.97Z" fill="#17161A"/>
<path d="M248.097 30.0508L242.798 41.9647H242.502L237.139 30.0508H232.234L239.901 46.5054H245.332L252.965 30.0508H248.097Z" fill="#17161A"/>
<path d="M267.479 41.1734C266.915 42.5235 265.306 43.2478 262.87 43.2478C259.547 43.2478 257.673 41.7343 257.377 39.5302H271.788C271.855 39.0719 271.888 38.6094 271.887 38.1463C271.856 32.2274 267.377 29.7217 262.586 29.7217C257.025 29.7217 252.848 33.0476 252.848 38.4112C252.848 43.51 256.861 46.833 262.882 46.833C267.918 46.833 271.272 44.5979 271.966 41.1734H267.479ZM262.574 33.3097C265.472 33.3097 267.149 34.5921 267.414 36.4101H257.464C257.896 34.6682 259.57 33.3097 262.563 33.3097H262.574Z" fill="#17161A"/>
<path d="M85.2863 28.8399C85.2863 27.3912 86.3066 26.7683 87.6229 26.7683C88.2351 26.774 88.8437 26.8621 89.4324 27.0304L90.1906 23.7384C89.0915 23.3497 87.9346 23.1496 86.7688 23.1465C83.412 23.1465 80.7146 24.925 80.7146 28.6088V30.0519H76.7969V33.6568H80.7146V46.5065H85.2863V33.654H90.4048V30.0519H85.2863V28.8399Z" fill="#17161A"/>
<path d="M129.37 25.4121H125.143L124.906 30.0514H121.332V33.6563H124.821V41.7681C124.821 44.5302 126.231 46.8414 130.458 46.8414C131.554 46.8414 132.647 46.7205 133.717 46.4807V43.0167C133.1 43.1549 132.471 43.2323 131.84 43.2478C129.571 43.2478 129.373 41.9654 129.373 40.9761V33.6479H133.883V30.0514H129.37V25.4121Z" fill="#17161A"/>
<path d="M143.63 25.4121H139.417L139.18 30.0514H135.598V33.6563H139.087V41.7681C139.087 44.5302 140.496 46.8414 144.724 46.8414C145.818 46.838 146.907 46.7142 147.974 46.4722V43.0167C147.357 43.1549 146.728 43.2323 146.097 43.2478C143.828 43.2478 143.63 41.9654 143.63 40.9761V33.6479H148.154V30.0514H143.63V25.4121Z" fill="#17161A"/>
<path d="M13.5938 22.5174C13.5938 19.8765 14.366 17.6216 15.9867 16.001L18.8052 18.8195C15.6682 21.9453 18.4078 31.6636 27.3398 40.604C36.2717 49.5444 45.9956 52.2812 49.1299 49.1498L51.9484 51.9683C46.6608 57.2559 34.6172 53.5044 24.5353 43.4197C17.5425 36.4241 13.5938 28.4871 13.5938 22.5174Z" fill="#17161A"/>
<path d="M31.3669 54.3983C28.726 54.3983 26.4711 53.626 24.8477 52.0053L27.6662 49.1868C30.7976 52.3182 40.5159 49.5786 49.4563 40.641C58.3967 31.7034 61.1307 21.9851 57.9993 18.8537L60.8178 16.0352C66.1082 21.3227 62.3539 33.3663 52.2692 43.4482C45.2736 50.4523 37.3366 54.3983 31.3669 54.3983Z" fill="#17161A"/>
<path d="M53.2043 39.4142C51.4934 34.4874 47.9984 29.2224 43.3619 24.5887C33.28 14.504 21.2364 10.7497 15.9488 16.0401C15.574 16.4178 15.8981 17.3507 16.676 18.1287C17.4539 18.9066 18.3869 19.2279 18.7617 18.853C21.896 15.7216 31.6143 18.4612 40.5518 27.4016C44.7797 31.6294 47.9308 36.3505 49.45 40.7192C50.7803 44.5496 50.6507 47.6387 49.1005 49.1889C48.7228 49.5638 49.0497 50.4995 49.8248 51.2746C50.5999 52.0497 51.5357 52.3767 51.9134 51.999C54.622 49.2904 55.0814 44.8146 53.2043 39.4142Z" fill="#17161A"/>
<path d="M60.8134 16.0407C58.0991 13.3265 53.6289 12.8671 48.223 14.747C43.299 16.4551 38.0312 19.9529 33.3975 24.5865C23.3156 34.6684 19.5613 46.712 24.8489 52.0024C25.2266 52.3773 26.1595 52.0532 26.9374 51.2781C27.7153 50.503 28.0395 49.5672 27.6618 49.1895C24.5219 46.0581 27.27 36.3398 36.2104 27.3994C40.4382 23.1716 45.1592 20.0205 49.528 18.5013C53.3584 17.1738 56.4475 17.3006 58.0005 18.8508C58.3754 19.2257 59.3111 18.9015 60.0862 18.1236C60.8613 17.3457 61.1883 16.4156 60.8134 16.0407Z" fill="#17161A"/>
</svg>
