<svg width="1512" height="983" viewBox="0 0 1512 983" fill="none" xmlns="http://www.w3.org/2000/svg">
<g clip-path="url(#clip0_756_4985)">
<g opacity="0.3">
<path opacity="0.3" d="M548.085 104.287V28.028H346.087L718.481 -297.578L656.802 -351.508L284.409 -25.9015V-202.53H197.191V104.287H548.085Z" stroke="white" stroke-opacity="0.6" stroke-width="5.86339" stroke-miterlimit="10"/>
<path opacity="0.3" d="M1590.65 104.287V28.028H1388.65L1761.05 -297.578L1699.37 -351.508L1326.98 -25.9015V-202.53H1239.76V104.287H1590.65Z" stroke="white" stroke-opacity="0.6" stroke-width="5.86339" stroke-miterlimit="10"/>
<path opacity="0.3" d="M-153.704 104.287V180.546H48.294L-324.1 506.153L-262.421 560.082L109.961 234.476V411.095H197.19V104.287H-153.704Z" stroke="white" stroke-opacity="0.6" stroke-width="5.86339" stroke-miterlimit="10"/>
<path opacity="0.3" d="M548.085 717.524V641.264H346.087L718.481 315.658L656.802 261.729L284.409 587.335V410.716H197.191V717.524H548.085Z" stroke="white" stroke-opacity="0.6" stroke-width="5.86339" stroke-miterlimit="10"/>
<path opacity="0.3" d="M888.861 104.287V180.546H1090.86L718.477 506.153L780.144 560.082L1152.54 234.476V411.095H1239.75V104.287H888.861Z" stroke="white" stroke-opacity="0.6" stroke-width="5.86339" stroke-miterlimit="10"/>
<path opacity="0.3" d="M1590.65 717.524V641.264H1388.65L1761.05 315.658L1699.37 261.729L1326.98 587.335V410.716H1239.76V717.524H1590.65Z" stroke="white" stroke-opacity="0.6" stroke-width="5.86339" stroke-miterlimit="10"/>
<path opacity="0.3" d="M-153.704 717.523V793.783H48.294L-324.1 1119.39L-262.421 1173.32L109.961 847.712V1024.33H197.19V717.523H-153.704Z" stroke="white" stroke-opacity="0.6" stroke-width="5.86339" stroke-miterlimit="10"/>
<path opacity="0.3" d="M548.085 1330.76V1254.5H346.087L718.481 928.896L656.802 874.967L284.409 1200.57V1023.95H197.191V1330.76H548.085Z" stroke="white" stroke-opacity="0.6" stroke-width="5.86339" stroke-miterlimit="10"/>
<path opacity="0.3" d="M888.861 717.523V793.783H1090.86L718.477 1119.39L780.144 1173.32L1152.54 847.712V1024.33H1239.75V717.523H888.861Z" stroke="white" stroke-opacity="0.6" stroke-width="5.86339" stroke-miterlimit="10"/>
<path opacity="0.3" d="M1590.65 1330.76V1254.5H1388.65L1761.05 928.896L1699.37 874.967L1326.98 1200.57V1023.95H1239.76V1330.76H1590.65Z" stroke="white" stroke-opacity="0.6" stroke-width="5.86339" stroke-miterlimit="10"/>
</g>
</g>
<defs>
<clipPath id="clip0_756_4985">
<rect width="1720" height="1114" fill="white" transform="translate(-94)"/>
</clipPath>
</defs>
</svg>
