<svg width="24" height="25" viewBox="0 0 24 25" fill="none" xmlns="http://www.w3.org/2000/svg">
<path opacity="0.1" fill-rule="evenodd" clip-rule="evenodd" d="M0 12.6953C0 6.0679 5.37258 0.695312 12 0.695312C18.6274 0.695312 24 6.0679 24 12.6953C24 19.3227 18.6274 24.6953 12 24.6953C5.37258 24.6953 0 19.3227 0 12.6953Z" fill="white"/>
<path fill-rule="evenodd" clip-rule="evenodd" d="M12.0022 6.29492C10.264 6.29492 10.0459 6.30252 9.3632 6.33359C8.68186 6.36479 8.21679 6.47266 7.80985 6.63093C7.38891 6.79439 7.03184 7.01306 6.67611 7.36893C6.3201 7.72467 6.10143 8.08174 5.93743 8.50254C5.77876 8.90962 5.67076 9.37482 5.6401 10.0559C5.60956 10.7386 5.60156 10.9568 5.60156 12.695C5.60156 14.4331 5.6093 14.6506 5.64023 15.3333C5.67156 16.0146 5.77943 16.4797 5.93757 16.8866C6.10117 17.3076 6.31984 17.6646 6.67571 18.0204C7.03131 18.3764 7.38838 18.5956 7.80905 18.7591C8.21626 18.9173 8.68146 19.0252 9.36267 19.0564C10.0453 19.0875 10.2633 19.0951 12.0014 19.0951C13.7396 19.0951 13.9571 19.0875 14.6398 19.0564C15.3211 19.0252 15.7867 18.9173 16.1939 18.7591C16.6147 18.5956 16.9713 18.3764 17.3269 18.0204C17.6829 17.6646 17.9016 17.3076 18.0656 16.8868C18.2229 16.4797 18.3309 16.0145 18.3629 15.3334C18.3936 14.6507 18.4016 14.4331 18.4016 12.695C18.4016 10.9568 18.3936 10.7387 18.3629 10.056C18.3309 9.37469 18.2229 8.90962 18.0656 8.50268C17.9016 8.08174 17.6829 7.72467 17.3269 7.36893C16.9709 7.01293 16.6149 6.79426 16.1935 6.63093C15.7855 6.47266 15.3202 6.36479 14.6389 6.33359C13.9562 6.30252 13.7388 6.29492 12.0002 6.29492H12.0022ZM11.428 7.44825C11.5984 7.44798 11.7885 7.44825 12.0021 7.44825C13.711 7.44825 13.9135 7.45438 14.5883 7.48505C15.2123 7.51358 15.551 7.61785 15.7766 7.70545C16.0752 7.82145 16.2882 7.96012 16.512 8.18412C16.7361 8.40813 16.8747 8.62146 16.991 8.92013C17.0786 9.14547 17.183 9.48414 17.2114 10.1081C17.2421 10.7828 17.2487 10.9855 17.2487 12.6935C17.2487 14.4015 17.2421 14.6042 17.2114 15.2789C17.1829 15.9029 17.0786 16.2415 16.991 16.4669C16.875 16.7655 16.7361 16.9782 16.512 17.2021C16.288 17.4261 16.0754 17.5648 15.7766 17.6808C15.5512 17.7688 15.2123 17.8728 14.5883 17.9013C13.9136 17.932 13.711 17.9386 12.0021 17.9386C10.2932 17.9386 10.0906 17.932 9.41597 17.9013C8.79197 17.8725 8.4533 17.7682 8.22756 17.6806C7.92889 17.5646 7.71556 17.426 7.49155 17.202C7.26755 16.9779 7.12888 16.7651 7.01262 16.4663C6.92502 16.241 6.82061 15.9023 6.79221 15.2783C6.76155 14.6037 6.75541 14.401 6.75541 12.6919C6.75541 10.9828 6.76155 10.7812 6.79221 10.1065C6.82075 9.48254 6.92502 9.14387 7.01262 8.91826C7.12862 8.61959 7.26755 8.40626 7.49155 8.18226C7.71556 7.95825 7.92889 7.81959 8.22756 7.70332C8.45316 7.61532 8.79197 7.51132 9.41597 7.48265C10.0064 7.45598 10.2352 7.44798 11.428 7.44665V7.44825ZM15.4184 8.51093C14.9944 8.51093 14.6504 8.85453 14.6504 9.27867C14.6504 9.70268 14.9944 10.0467 15.4184 10.0467C15.8424 10.0467 16.1864 9.70268 16.1864 9.27867C16.1864 8.85467 15.8424 8.51093 15.4184 8.51093ZM12.0022 9.40827C10.1871 9.40827 8.71547 10.8799 8.71547 12.695C8.71547 14.5101 10.1871 15.981 12.0022 15.981C13.8173 15.981 15.2883 14.5101 15.2883 12.695C15.2883 10.8799 13.8173 9.40827 12.0022 9.40827ZM12.0021 10.5616C13.1803 10.5616 14.1355 11.5167 14.1355 12.695C14.1355 13.8731 13.1803 14.8283 12.0021 14.8283C10.8239 14.8283 9.86879 13.8731 9.86879 12.695C9.86879 11.5167 10.8239 10.5616 12.0021 10.5616Z" fill="white"/>
</svg>
