<svg width="249" height="68" viewBox="0 0 249 68" fill="none" xmlns="http://www.w3.org/2000/svg">
<g clip-path="url(#clip0_1920_18460)">
<path fill-rule="evenodd" clip-rule="evenodd" d="M82.2131 35.5215L83.054 30.734C83.054 30.734 76.5787 28.6311 71.3086 32.5312V51.6826H76.905V36.1229C79.1352 34.3258 82.2131 35.5215 82.2131 35.5215Z" fill="#17161A"/>
<mask id="mask0_1920_18460" style="mask-type:alpha" maskUnits="userSpaceOnUse" x="71" y="30" width="13" height="22">
<path d="M71.3086 32.5312C73.8443 30.6551 76.6591 30.168 78.8973 30.1684C81.3109 30.1684 83.0544 30.7344 83.0544 30.7344L82.2131 35.5218C82.2131 35.5218 79.1352 34.3262 76.905 36.1229V51.6826H71.3086V32.5312Z" fill="white"/>
</mask>
<g mask="url(#mask0_1920_18460)">
<path fill-rule="evenodd" clip-rule="evenodd" d="M-269.363 111.04L518.759 111.04L518.759 -1005.47H-269.363L-269.363 111.04Z" fill="#17161A"/>
</g>
<mask id="mask1_1920_18460" style="mask-type:alpha" maskUnits="userSpaceOnUse" x="71" y="30" width="13" height="22">
<path d="M71.3086 32.5312C73.8443 30.6551 76.6587 30.1684 78.8973 30.1684C81.3109 30.1684 83.0544 30.7344 83.0544 30.7344L82.2131 35.5218C82.2131 35.5218 79.1352 34.3262 76.905 36.1229V51.6826H71.3086V32.5312Z" fill="white"/>
</mask>
<g mask="url(#mask1_1920_18460)">
<path fill-rule="evenodd" clip-rule="evenodd" d="M61.9258 61.0654H92.4362V20.786H61.9258V61.0654Z" fill="#17161A"/>
</g>
<path fill-rule="evenodd" clip-rule="evenodd" d="M33.9648 25.2746L39.5587 24.2208V30.4494H45.0941V35.4304H39.5587V42.8587C39.5587 44.1242 39.7633 45.1287 40.1818 45.8716C40.5954 46.6259 41.4249 46.9997 42.6706 46.9997C43.2798 46.9997 43.8915 46.9412 44.5368 46.8173C45.1639 46.6913 45.7486 46.5294 46.2748 46.3175L47.0663 50.9832C46.3892 51.2737 45.6408 51.5258 44.8157 51.7396C43.988 51.9512 42.9717 52.0615 41.771 52.0615C40.2446 52.0615 38.9832 51.839 37.9801 51.3975C36.9821 50.9561 36.1797 50.3367 35.5815 49.5463C34.9833 48.7629 34.5627 47.8014 34.3266 46.6756C34.0861 45.5519 33.9648 44.3109 33.9648 42.9421V25.2746Z" fill="#17161A"/>
<mask id="mask2_1920_18460" style="mask-type:alpha" maskUnits="userSpaceOnUse" x="33" y="24" width="15" height="29">
<path d="M33.9648 25.2746L39.5587 24.2208V30.4494H45.0941V35.4304H39.5587V42.8587C39.5587 44.1246 39.7633 45.1287 40.1814 45.8716C40.595 46.6262 41.4246 46.9997 42.6703 46.9997C43.2794 46.9997 43.8908 46.9412 44.5365 46.8173C45.1636 46.6913 45.7486 46.5294 46.2748 46.3178L47.0659 50.9832C46.3892 51.274 45.6404 51.5262 44.8153 51.7399C43.9876 51.9515 42.9714 52.0615 41.7706 52.0615C40.2439 52.0615 38.9828 51.839 37.9801 51.3975C36.9817 50.9561 36.1789 50.3367 35.5811 49.5467C34.9829 48.7629 34.5627 47.8014 34.3266 46.6756C34.0858 45.5519 33.9648 44.3113 33.9648 42.9421V25.2746Z" fill="white"/>
</mask>
<g mask="url(#mask2_1920_18460)">
<path fill-rule="evenodd" clip-rule="evenodd" d="M-269.367 111.04L518.755 111.04L518.755 -1005.47H-269.367L-269.367 111.04Z" fill="#17161A"/>
<path fill-rule="evenodd" clip-rule="evenodd" d="M24.582 61.4443H56.4481V14.8384H24.582L24.582 61.4443Z" fill="#17161A"/>
</g>
<path fill-rule="evenodd" clip-rule="evenodd" d="M91.3366 47.3944C92.3598 47.3944 93.0836 47.2815 93.5134 47.0699C93.9402 46.8561 94.147 46.4374 94.147 45.8249C94.147 45.3407 93.8773 44.9198 93.3241 44.5617C92.7712 44.197 91.9392 43.7917 90.8107 43.3298C89.9359 42.9808 89.14 42.6209 88.4227 42.2493C87.7145 41.8711 87.1075 41.4296 86.6062 40.9049C86.1067 40.3827 85.72 39.7564 85.4412 39.027C85.1624 38.3107 85.0301 37.444 85.0301 36.4215C85.0301 34.442 85.72 32.8725 87.094 31.7218C88.4698 30.5759 90.3543 29.9905 92.7599 29.9905C93.9629 29.9905 95.114 30.1052 96.2157 30.3372C97.3153 30.5624 98.1945 30.8192 98.8394 31.078L97.8659 35.7389C97.214 35.4981 96.5058 35.2865 95.7436 35.102C94.9813 34.913 94.1225 34.8137 93.1735 34.8137C91.4221 34.8137 90.5451 35.3406 90.5451 36.3832C90.5451 36.624 90.5834 36.8381 90.6598 37.0248C90.7362 37.2141 90.8849 37.3943 91.1053 37.5675C91.3366 37.7389 91.6381 37.9322 92.0291 38.1306C92.4179 38.34 92.9127 38.5559 93.5134 38.8015C94.7339 39.2879 95.748 39.7608 96.5486 40.2384C97.351 40.7156 97.9807 41.218 98.4462 41.776C98.9092 42.3212 99.2377 42.9249 99.4219 43.5955C99.6065 44.2646 99.7029 45.0367 99.7029 45.9174C99.7029 48.0047 98.9699 49.5829 97.5107 50.6503C96.0447 51.7133 93.9716 52.249 91.2938 52.249C89.5445 52.249 88.0876 52.0937 86.9252 51.7674C85.7584 51.4499 84.9534 51.1754 84.5039 50.9635L85.4412 46.1041C86.388 46.505 87.3728 46.8156 88.3668 47.0502C89.3739 47.2797 90.3543 47.3944 91.3366 47.3944Z" fill="#17161A"/>
<mask id="mask3_1920_18460" style="mask-type:alpha" maskUnits="userSpaceOnUse" x="84" y="29" width="16" height="24">
<path d="M87.094 31.7222C88.4702 30.5759 90.3543 29.9905 92.7599 29.9905C93.9632 29.9905 95.1143 30.1052 96.2161 30.3372C97.3153 30.5624 98.1945 30.8189 98.8398 31.078L97.8663 35.7389C97.214 35.4981 96.5062 35.2865 95.7436 35.102C94.9816 34.9127 94.1225 34.814 93.1739 34.814C91.4221 34.814 90.5455 35.3402 90.5455 36.3832C90.5455 36.624 90.5834 36.8381 90.6598 37.0248C90.7365 37.2141 90.8853 37.3943 91.1056 37.5675C91.3366 37.7389 91.6384 37.9322 92.0294 38.1306C92.4182 38.3396 92.9127 38.5563 93.5134 38.8015C94.7343 39.2879 95.7483 39.7608 96.5486 40.2384C97.3514 40.7156 97.981 41.2177 98.4466 41.776C98.9096 42.3212 99.2377 42.9246 99.4223 43.5955C99.6068 44.2646 99.7029 45.0367 99.7029 45.9174C99.7029 48.0047 98.9699 49.5833 97.5111 50.6503C96.045 51.7133 93.972 52.249 91.2942 52.249C89.5449 52.249 88.088 52.0937 86.9256 51.7674C85.7584 51.4499 84.9538 51.1754 84.5039 50.9635L85.4416 46.1041C86.3884 46.5053 87.3728 46.8156 88.3668 47.0502C89.3739 47.2793 90.3543 47.3944 91.3366 47.3944C92.3598 47.3944 93.084 47.2818 93.5134 47.0699C93.9406 46.8561 94.1474 46.4374 94.1474 45.8249C94.1474 45.3407 93.8777 44.9198 93.3245 44.5617C92.7712 44.197 91.9392 43.7917 90.8107 43.3298C89.9359 42.9808 89.1404 42.6209 88.4227 42.2493C87.7149 41.8711 87.1075 41.4296 86.6066 40.9049C86.107 40.3823 85.7204 39.7564 85.4416 39.027C85.1628 38.3104 85.0301 37.444 85.0301 36.4215C85.0301 34.4424 85.7204 32.8729 87.094 31.7222Z" fill="white"/>
</mask>
<g mask="url(#mask3_1920_18460)">
<path fill-rule="evenodd" clip-rule="evenodd" d="M-269.367 111.04L518.755 111.04L518.755 -1005.47H-269.367L-269.367 111.04Z" fill="#17161A"/>
<path fill-rule="evenodd" clip-rule="evenodd" d="M75.1211 61.6318H109.085V20.6081H75.1211V61.6318Z" fill="#17161A"/>
</g>
<path fill-rule="evenodd" clip-rule="evenodd" d="M116.944 39.5545C116.442 41.5903 115.914 43.6169 115.35 45.6209C114.787 47.6318 114.189 49.654 113.571 51.6895H109.216C108.764 50.5636 108.272 49.2261 107.746 47.6745C107.215 46.1164 106.673 44.4252 106.104 42.5857C105.542 40.7523 104.967 38.8116 104.377 36.7579C103.786 34.7134 103.213 32.6462 102.664 30.5542H108.559C108.755 31.5156 108.977 32.572 109.218 33.7089C109.457 34.8482 109.708 36.0216 109.971 37.2286C110.235 38.4312 110.516 39.64 110.803 40.8605C111.093 42.081 111.39 43.2497 111.691 44.3737C112.017 43.1959 112.337 41.9933 112.649 40.7615C112.957 39.5278 113.261 38.3161 113.551 37.1252C113.836 35.9361 114.117 34.781 114.374 33.6686C114.635 32.5581 114.866 31.5156 115.071 30.5542H119.12C119.327 31.5156 119.545 32.5581 119.799 33.6686C120.046 34.781 120.31 35.9361 120.588 37.1252C120.858 38.3161 121.153 39.5278 121.447 40.7615C121.75 41.9933 122.061 43.1959 122.383 44.3737C122.686 43.2497 122.987 42.081 123.291 40.8605C123.594 39.64 123.88 38.4312 124.141 37.2286C124.402 36.0216 124.653 34.8482 124.896 33.7089C125.137 32.572 125.355 31.5156 125.555 30.5542H131.374C130.821 32.6462 130.252 34.7134 129.661 36.7579C129.065 38.8116 128.496 40.7523 127.927 42.5857C127.367 44.4252 126.814 46.1164 126.277 47.6745C125.735 49.2261 125.235 50.5636 124.791 51.6895H120.436C119.806 49.654 119.194 47.6318 118.592 45.6209C117.991 43.6169 117.447 41.5903 116.944 39.5545Z" fill="#17161A"/>
<mask id="mask4_1920_18460" style="mask-type:alpha" maskUnits="userSpaceOnUse" x="102" y="30" width="30" height="22">
<path d="M125.559 30.5542H131.378C130.825 32.6462 130.256 34.7134 129.664 36.7576C129.069 38.8116 128.5 40.7527 127.931 42.5857C127.371 44.4252 126.818 46.1164 126.28 47.6745C125.739 49.2261 125.239 50.5632 124.794 51.6895H120.439C119.81 49.654 119.198 47.6314 118.596 45.6205C117.995 43.6169 117.451 41.5903 116.948 39.5545C116.446 41.5903 115.917 43.6169 115.354 45.6205C114.791 47.6314 114.193 49.654 113.575 51.6895H109.22C108.768 50.5632 108.275 49.2261 107.749 47.6745C107.219 46.1164 106.677 44.4252 106.108 42.5857C105.546 40.7527 104.97 38.8116 104.381 36.7576C103.79 34.7134 103.216 32.6462 102.668 30.5542H108.563C108.759 31.5156 108.981 32.5717 109.222 33.7089C109.46 34.8482 109.712 36.0216 109.975 37.2282C110.238 38.4308 110.519 39.64 110.807 40.8605C111.097 42.081 111.394 43.2497 111.695 44.3737C112.021 43.1959 112.34 41.993 112.653 40.7615C112.961 39.5278 113.265 38.3161 113.555 37.1252C113.84 35.9357 114.121 34.7806 114.378 33.6686C114.638 32.5581 114.87 31.5156 115.074 30.5542H119.124C119.33 31.5156 119.549 32.5581 119.803 33.6686C120.05 34.7806 120.313 35.9357 120.592 37.1252C120.862 38.3161 121.156 39.5278 121.451 40.7615C121.754 41.993 122.065 43.1959 122.386 44.3737C122.69 43.2497 122.991 42.081 123.295 40.8605C123.598 39.64 123.884 38.4308 124.145 37.2282C124.405 36.0216 124.657 34.8482 124.9 33.7089C125.141 32.5717 125.359 31.5156 125.559 30.5542Z" fill="white"/>
</mask>
<g mask="url(#mask4_1920_18460)">
<path fill-rule="evenodd" clip-rule="evenodd" d="M-269.363 111.04L518.759 111.04L518.759 -1005.47H-269.363L-269.363 111.04Z" fill="#17161A"/>
<path fill-rule="evenodd" clip-rule="evenodd" d="M93.2852 61.0723H140.76V21.172H93.2852V61.0723Z" fill="#17161A"/>
</g>
<path fill-rule="evenodd" clip-rule="evenodd" d="M135.328 51.6816H140.913V30.5508H135.328V51.6816Z" fill="#17161A"/>
<mask id="mask5_1920_18460" style="mask-type:alpha" maskUnits="userSpaceOnUse" x="135" y="30" width="6" height="22">
<path d="M135.328 51.6816V30.5508H140.914V51.6816H135.328Z" fill="white"/>
</mask>
<g mask="url(#mask5_1920_18460)">
<path fill-rule="evenodd" clip-rule="evenodd" d="M-269.367 111.04L518.755 111.04L518.755 -1005.47H-269.367L-269.367 111.04Z" fill="#17161A"/>
<path fill-rule="evenodd" clip-rule="evenodd" d="M125.945 61.0635H150.295V21.1676H125.945V61.0635Z" fill="#17161A"/>
</g>
<path fill-rule="evenodd" clip-rule="evenodd" d="M145.359 25.2812L150.949 24.2208V30.5616H156.48V35.5335H150.949V42.9691C150.949 44.2276 151.156 45.2413 151.567 45.982C151.979 46.7318 152.813 47.1079 154.061 47.1079C154.666 47.1079 155.286 47.0538 155.92 46.9299C156.561 46.8082 157.141 46.635 157.669 46.4256L158.454 51.0869C157.777 51.3837 157.024 51.6362 156.204 51.8521C155.373 52.0637 154.369 52.1719 153.163 52.1719C151.635 52.1719 150.373 51.9515 149.373 51.5054C148.37 51.0709 147.569 50.4562 146.972 49.6589C146.373 48.8754 145.955 47.9093 145.715 46.7903C145.472 45.6623 145.359 44.4147 145.359 43.0521V25.2812Z" fill="#17161A"/>
<mask id="mask6_1920_18460" style="mask-type:alpha" maskUnits="userSpaceOnUse" x="145" y="24" width="14" height="29">
<path d="M145.359 25.2812L150.948 24.2208V30.5616H156.48V35.5335H150.948V42.9691C150.948 44.2276 151.156 45.2409 151.567 45.982C151.979 46.7318 152.813 47.1075 154.06 47.1075C154.665 47.1075 155.286 47.0538 155.92 46.9299C156.561 46.8078 157.141 46.635 157.669 46.4256L158.454 51.0866C157.777 51.3837 157.024 51.6362 156.204 51.8521C155.373 52.0637 154.369 52.1719 153.163 52.1719C151.635 52.1719 150.373 51.9515 149.373 51.5054C148.37 51.0705 147.569 50.4562 146.972 49.6592C146.373 48.8754 145.955 47.9096 145.715 46.7903C145.472 45.6623 145.359 44.4144 145.359 43.0524V25.2812Z" fill="white"/>
</mask>
<g mask="url(#mask6_1920_18460)">
<path fill-rule="evenodd" clip-rule="evenodd" d="M-269.363 111.04L518.759 111.04L518.759 -1005.47H-269.363L-269.363 111.04Z" fill="#17161A"/>
<path fill-rule="evenodd" clip-rule="evenodd" d="M135.977 61.5547H167.836V14.8383H135.977V61.5547Z" fill="#17161A"/>
</g>
<path fill-rule="evenodd" clip-rule="evenodd" d="M160.43 41.127C160.43 39.5977 160.662 38.1568 161.125 36.8058C161.588 35.4501 162.256 34.2749 163.131 33.2682C164.007 32.2618 165.068 31.4688 166.323 30.8769C167.571 30.2936 168.996 29.9918 170.597 29.9918C171.647 29.9918 172.612 30.0978 173.488 30.2958C174.366 30.5008 175.22 30.787 176.041 31.1582L174.881 35.939C174.352 35.7271 173.779 35.5426 173.149 35.376C172.524 35.2181 171.82 35.1351 171.047 35.1351C169.397 35.1351 168.162 35.6866 167.355 36.7854C166.534 37.8868 166.134 39.3302 166.134 41.127C166.134 43.0249 166.514 44.4998 167.283 45.5449C168.038 46.5874 169.374 47.1122 171.274 47.1122C171.951 47.1122 172.672 47.042 173.453 46.9094C174.226 46.7742 174.939 46.5626 175.595 46.2655L176.378 51.1698C175.726 51.4647 174.916 51.7125 173.941 51.9306C172.96 52.143 171.888 52.2529 170.714 52.2529C168.913 52.2529 167.357 51.9602 166.06 51.3858C164.761 50.8117 163.688 50.0279 162.851 49.0372C162.008 48.0444 161.401 46.8736 161.013 45.5222C160.623 44.1691 160.43 42.7012 160.43 41.127Z" fill="#17161A"/>
<mask id="mask7_1920_18460" style="mask-type:alpha" maskUnits="userSpaceOnUse" x="160" y="29" width="17" height="24">
<path d="M166.323 30.8769C167.571 30.2936 168.996 29.9918 170.597 29.9918C171.647 29.9918 172.612 30.0974 173.488 30.2955C174.365 30.5008 175.22 30.7866 176.041 31.1582L174.881 35.9387C174.352 35.7271 173.779 35.5426 173.149 35.376C172.524 35.2177 171.82 35.1348 171.047 35.1348C169.397 35.1348 168.162 35.6866 167.355 36.7854C166.534 37.8864 166.134 39.3298 166.134 41.127C166.134 43.0249 166.514 44.4998 167.283 45.5449C168.038 46.5874 169.374 47.1122 171.274 47.1122C171.951 47.1122 172.672 47.042 173.453 46.9094C174.226 46.7742 174.939 46.5626 175.595 46.2651L176.378 51.1698C175.726 51.4647 174.916 51.7121 173.94 51.9306C172.96 52.1426 171.888 52.2529 170.714 52.2529C168.913 52.2529 167.357 51.9599 166.06 51.3854C164.761 50.8114 163.688 50.0279 162.851 49.0376C162.009 48.0444 161.401 46.8736 161.013 45.5222C160.623 44.1691 160.43 42.7008 160.43 41.127C160.43 39.5977 160.662 38.1568 161.125 36.8058C161.588 35.4501 162.256 34.2746 163.13 33.2678C164.007 32.2614 165.068 31.4688 166.323 30.8769Z" fill="white"/>
</mask>
<g mask="url(#mask7_1920_18460)">
<path fill-rule="evenodd" clip-rule="evenodd" d="M-269.363 111.04L518.759 111.04L518.759 -1005.47H-269.363L-269.363 111.04Z" fill="#17161A"/>
<path fill-rule="evenodd" clip-rule="evenodd" d="M151.047 61.6357H185.759V20.6094H151.047V61.6357Z" fill="#17161A"/>
</g>
<path fill-rule="evenodd" clip-rule="evenodd" d="M179.988 51.6826V25.2736L185.58 24.2222V30.6398C185.953 30.5068 186.432 30.3785 187.026 30.2572C187.61 30.1377 188.184 30.0745 188.732 30.0745C190.331 30.0745 191.659 30.3109 192.725 30.7772C193.787 31.2457 194.643 31.91 195.277 32.7676C195.92 33.6213 196.365 34.6434 196.633 35.8167C196.892 36.9985 197.022 38.314 197.022 39.7596V51.6826H191.432V40.4777C191.432 38.5501 191.201 37.1856 190.74 36.3773C190.277 35.5821 189.418 35.1794 188.17 35.1794C187.662 35.1794 187.198 35.2269 186.758 35.3168C186.322 35.4115 185.929 35.5149 185.58 35.6208V51.6826H179.988Z" fill="#17161A"/>
<mask id="mask8_1920_18460" style="mask-type:alpha" maskUnits="userSpaceOnUse" x="179" y="24" width="19" height="28">
<path d="M179.988 25.2726L185.58 24.2213V30.6392C185.953 30.5058 186.432 30.3775 187.026 30.2562C187.61 30.1367 188.184 30.0739 188.732 30.0739C190.331 30.0739 191.66 30.3103 192.725 30.7762C193.787 31.245 194.644 31.909 195.277 32.767C195.92 33.6203 196.366 34.6424 196.633 35.8161C196.892 36.9979 197.022 38.313 197.022 39.759V51.6816H191.433V40.4767C191.433 38.5495 191.201 37.1846 190.74 36.3763C190.277 35.5815 189.418 35.1784 188.17 35.1784C187.662 35.1784 187.198 35.2259 186.758 35.3162C186.322 35.4105 185.929 35.5139 185.58 35.6199V51.6816H179.988V25.2726Z" fill="white"/>
</mask>
<g mask="url(#mask8_1920_18460)">
<path fill-rule="evenodd" clip-rule="evenodd" d="M-269.367 111.04L518.755 111.04L518.755 -1005.47H-269.367L-269.367 111.04Z" fill="#17161A"/>
<path fill-rule="evenodd" clip-rule="evenodd" d="M170.605 61.0645H206.404V14.8387H170.605V61.0645Z" fill="#17161A"/>
</g>
<path fill-rule="evenodd" clip-rule="evenodd" d="M11.4062 51.6885L11.4063 32.5393C11.4063 32.5393 14.2167 30.1366 20.3638 30.1366C25.9577 30.1366 29.0294 33.1294 29.0294 39.7158V51.6885H23.4421V39.7158C23.4421 35.5207 21.4813 35.2302 19.8062 35.2302C18.1311 35.2302 17.0093 36.1219 17.0093 36.1219V51.6885H11.4062Z" fill="#17161A"/>
<mask id="mask9_1920_18460" style="mask-type:alpha" maskUnits="userSpaceOnUse" x="11" y="30" width="19" height="22">
<path d="M11.4063 32.5403C11.4063 32.5403 14.2167 30.1376 20.3638 30.1376C25.9577 30.1376 29.0291 33.13 29.0291 39.7171V51.6895H23.4421V39.7171C23.4421 35.5214 21.4813 35.2312 19.8062 35.2312C18.1311 35.2312 17.0093 36.1232 17.0093 36.1232V51.6895H11.4062L11.4063 32.5403Z" fill="white"/>
</mask>
<g mask="url(#mask9_1920_18460)">
<path fill-rule="evenodd" clip-rule="evenodd" d="M-269.367 111.04L518.755 111.04L518.755 -1005.47H-269.367L-269.367 111.04Z" fill="#17161A"/>
<path fill-rule="evenodd" clip-rule="evenodd" d="M2.02344 61.0723H38.4107V20.7556H2.02344L2.02344 61.0723Z" fill="#17161A"/>
</g>
<path fill-rule="evenodd" clip-rule="evenodd" d="M0.878906 51.6895L0.878906 25.2758L6.47282 24.2218L6.47282 51.6895H0.878906Z" fill="#17161A"/>
<mask id="mask10_1920_18460" style="mask-type:alpha" maskUnits="userSpaceOnUse" x="0" y="24" width="7" height="28">
<path d="M0.878906 25.2762L6.47282 24.2218L6.47282 51.6895H0.878906L0.878906 25.2762Z" fill="white"/>
</mask>
<g mask="url(#mask10_1920_18460)">
<path fill-rule="evenodd" clip-rule="evenodd" d="M-269.367 111.04L518.755 111.04L518.755 -1005.47H-269.367L-269.367 111.04Z" fill="#17161A"/>
<path fill-rule="evenodd" clip-rule="evenodd" d="M-8.50391 61.0723H15.8551L15.8551 14.8399H-8.50391L-8.50391 61.0723Z" fill="#17161A"/>
</g>
<path fill-rule="evenodd" clip-rule="evenodd" d="M66.9341 42.6404H54.3519C54.3519 42.6404 54.6329 47.1282 60.2202 47.1282C63.0176 47.1282 65.8145 46.234 65.8145 46.234L66.3743 51.028C66.3743 51.028 63.5796 52.2148 59.6674 52.2148C54.071 52.2148 49.0391 49.2264 49.0391 40.848C49.0391 34.2591 52.9513 30.0754 58.5433 30.0754C66.9341 30.0754 67.4962 39.0417 66.9341 42.6404ZM58.2689 34.2591C54.6329 34.2591 54.3519 38.4472 54.3519 38.4472H62.1764C62.1764 38.4472 61.9023 34.2591 58.2689 34.2591Z" fill="#17161A"/>
<mask id="mask11_1920_18460" style="mask-type:alpha" maskUnits="userSpaceOnUse" x="49" y="30" width="19" height="23">
<path d="M49.0391 40.8477C49.0391 34.2587 52.9513 30.075 58.543 30.075C66.9338 30.075 67.4958 39.0417 66.9338 42.64H54.3519C54.3519 42.64 54.6329 47.1278 60.2199 47.1278C63.0172 47.1278 65.8141 46.2336 65.8141 46.2336L66.3739 51.0276C66.3739 51.0276 63.5792 52.2148 59.667 52.2148C54.071 52.2148 49.0391 49.2264 49.0391 40.8477ZM58.2685 34.2587C54.6329 34.2587 54.3519 38.4472 54.3519 38.4472H62.1764C62.1764 38.4472 61.9019 34.2587 58.2685 34.2587Z" fill="white"/>
</mask>
<g mask="url(#mask11_1920_18460)">
<path fill-rule="evenodd" clip-rule="evenodd" d="M-269.367 111.04L518.755 111.04L518.755 -1005.47H-269.367L-269.367 111.04Z" fill="#17161A"/>
<path fill-rule="evenodd" clip-rule="evenodd" d="M39.6562 61.5967H76.4724V20.6921H39.6562V61.5967Z" fill="#17161A"/>
</g>
<mask id="mask12_1920_18460" style="mask-type:alpha" maskUnits="userSpaceOnUse" x="204" y="20" width="38" height="48">
<path d="M204.434 24.2268C204.434 22.95 220.516 20.1947 231.302 20.1947C235.979 20.1947 239.66 20.7129 240.602 22.0942C245.458 28.5074 211.269 68.7421 208.42 67.5216C206.136 66.9114 226.648 41.3019 223.229 30.9327C221.522 25.4495 204.434 26.0594 204.434 24.2268Z" fill="white"/>
</mask>
<g mask="url(#mask12_1920_18460)">
<path fill-rule="evenodd" clip-rule="evenodd" d="M195.051 76.9316H250.455V10.8126H195.051V76.9316Z" fill="#17161A"/>
</g>
<mask id="mask13_1920_18460" style="mask-type:alpha" maskUnits="userSpaceOnUse" x="233" y="0" width="16" height="17">
<path d="M233.48 8.37476C233.48 3.99519 236.797 0.450968 240.885 0.450968C244.976 0.450968 248.288 3.99519 248.288 8.37476C248.288 12.7566 244.976 16.3008 240.885 16.3008C236.797 16.3008 233.48 12.7566 233.48 8.37476Z" fill="white"/>
</mask>
<g mask="url(#mask13_1920_18460)">
<path fill-rule="evenodd" clip-rule="evenodd" d="M224.098 25.6836L257.67 25.6836V-8.9317H224.098V25.6836Z" fill="#17161A"/>
</g>
</g>
<defs>
<clipPath id="clip0_1920_18460">
<rect width="248.237" height="68" fill="white" transform="translate(0.417969)"/>
</clipPath>
</defs>
</svg>
