<svg width="227" height="68" viewBox="0 0 227 68" fill="none" xmlns="http://www.w3.org/2000/svg">
<path d="M39.8008 34.4791V45.4932H50.8149H61.829V43.5777V41.7101L56.4656 41.5664L51.0543 41.4227L56.2261 39.3157C59.0994 38.1185 61.4937 37.065 61.5895 36.9213C61.6853 36.7298 61.398 35.9636 60.967 35.1016L60.1529 33.5692L55.7473 35.4368C53.305 36.4425 51.2937 37.1608 51.2937 36.9692C51.2937 36.7777 52.874 35.1016 54.7416 33.1861L58.2374 29.6903L56.8966 28.3974L55.6036 27.0565L52.012 30.6481C50.0487 32.6115 48.4205 34.0481 48.4205 33.8565C48.4205 33.665 49.1867 31.6537 50.0966 29.3551C51.3895 26.1946 51.629 25.0932 51.1501 24.8058C50.4318 24.327 48.4205 23.7523 48.229 23.9918C48.1811 24.0875 47.2712 26.2425 46.2656 28.7326C45.2599 31.2227 44.2543 33.4734 44.0149 33.7608C43.8233 34.0002 43.6318 31.7974 43.6318 28.8284V23.465H41.7163H39.8008V34.4791Z" fill="#17161A"/>
<path d="M69.9688 34.4791V45.4932H77.6307H85.2927V43.5777V41.6622H79.7857H74.2786V32.5636V23.465H72.1237H69.9688V34.4791Z" fill="#17161A"/>
<path d="M91.6635 29.2108C89.2692 29.7375 87.6889 31.0305 86.6832 33.1854C84.8635 37.3037 86.1565 42.8108 89.4607 44.6784C91.3762 45.7798 94.9677 45.8277 96.548 44.822C97.9846 43.8643 98.2241 43.8643 98.2241 44.7742C98.2241 45.3009 98.7508 45.4925 100.14 45.4925H102.055V37.3516V29.2108H100.14C98.7508 29.2108 98.2241 29.4023 98.2241 29.9291C98.2241 30.839 97.9846 30.839 96.6438 29.977C95.1593 29.0671 93.4354 28.7798 91.6635 29.2108ZM95.303 32.6108C99.1339 33.9516 99.1818 40.7516 95.303 42.0925C94.2015 42.4756 93.4832 42.4277 92.2382 41.9488C90.2748 41.1347 89.6044 39.9375 89.6044 37.3516C89.6044 34.3347 90.3227 33.4249 93.7227 32.084C93.7706 32.084 94.441 32.3235 95.303 32.6108Z" fill="#17161A"/>
<path d="M125.376 29.2593C120.779 30.0255 118.049 34.4311 119.007 39.4593C119.39 41.4706 121.21 43.8171 123.269 44.8706C125.137 45.8283 129.255 45.8283 131.171 44.8227C132.607 44.0565 135.097 41.4706 135.097 40.6565C135.097 39.9382 131.458 40.1776 130.787 40.9438C129.782 42.1889 127.004 42.6678 125.233 41.9016C123.892 41.3748 122.647 39.9861 122.647 39.0762C122.647 38.9325 125.472 38.7889 128.872 38.7889H135.097V36.6818C135.097 31.9889 130.404 28.3494 125.376 29.2593Z" fill="#17161A"/>
<path d="M144.34 29.0678C143.765 29.1636 143.047 29.5946 142.76 29.9777C141.994 30.8396 141.323 30.8396 141.323 29.9298C141.323 29.403 140.796 29.2115 139.408 29.2115H137.492V37.3523V45.4932H139.36H141.227L141.419 39.9382C141.563 34.7664 141.658 34.3354 142.712 33.4734C143.382 32.9467 144.58 32.5636 145.681 32.5636C147.549 32.5636 147.549 32.5636 147.549 30.6481C147.549 28.6368 147.309 28.4932 144.34 29.0678Z" fill="#17161A"/>
<path d="M156.745 29.259C155.835 29.4505 154.878 29.8336 154.59 30.121C153.872 30.8393 153.297 30.7914 153.297 29.9294C153.297 29.4505 152.771 29.2111 151.621 29.2111H149.945V40.2252V51.2393H151.621H153.297V47.6477C153.297 45.6843 153.393 44.0562 153.537 44.0562C153.681 44.0562 154.351 44.3914 154.973 44.8224C155.692 45.3012 157.128 45.5886 158.613 45.5886C162.971 45.5407 165.892 42.2364 165.892 37.3519C165.892 31.7012 161.869 28.1576 156.745 29.259ZM160.959 33.8083C162.683 35.4843 162.683 39.2195 160.912 40.9914C159.14 42.7632 156.602 42.7632 154.83 41.0393C153.776 39.9857 153.537 39.3153 153.537 37.3998C153.537 32.7069 157.703 30.6956 160.959 33.8083Z" fill="#17161A"/>
<path d="M173.456 29.2593C169.577 30.0734 167.518 33.1382 167.757 37.8312C167.949 41.3748 169.146 43.5776 171.588 44.8227C173.456 45.7805 176.951 45.7805 178.436 44.8227C179.873 43.865 180.112 43.865 180.112 44.7748C180.112 45.3016 180.639 45.4931 182.027 45.4931H183.943V37.3523V29.2114H182.027C180.639 29.2114 180.112 29.403 180.112 29.9297C180.112 30.7917 179.537 30.8396 178.819 30.1213C178.005 29.3072 175.275 28.8762 173.456 29.2593ZM177.191 32.6114C180.974 33.9523 181.07 40.7523 177.335 42.0452C174.03 43.1945 171.492 41.1833 171.492 37.3523C171.492 34.8143 172.737 32.7551 174.509 32.4199C175.084 32.3241 175.563 32.1805 175.611 32.1326C175.658 32.1326 176.329 32.3241 177.191 32.6114Z" fill="#17161A"/>
<path d="M104.452 30.8875V32.5636H108.283C110.39 32.5636 112.113 32.7073 112.113 32.8509C112.113 32.9946 110.294 35.1974 108.043 37.6875C104.643 41.5185 103.973 42.5242 103.973 43.865V45.4932H110.677H117.381V43.8171V42.1411H113.311C111.06 42.1411 109.24 41.9974 109.24 41.8537C109.24 41.7101 111.06 39.5072 113.311 36.9692C116.663 33.1861 117.381 32.0847 117.381 30.7918V29.2115H110.916H104.452V30.8875Z" fill="#17161A"/>
<path d="M186.862 34.335C187.629 37.1603 188.634 40.8477 189.017 42.4758C189.784 45.4449 189.831 45.4927 191.412 45.4927C192.322 45.4927 193.04 45.5885 193.04 45.6364C193.04 45.7322 192.609 47.073 192.082 48.5575L191.172 51.2871L193.136 51.1434L195.147 50.9998L198.355 40.2251C200.175 34.2871 201.66 29.4026 201.66 29.3068C201.66 29.2589 200.798 29.2111 199.792 29.2111H197.876L196.679 33.1378C196.057 35.3406 195.243 38.0702 194.907 39.2674C193.662 43.8167 192.992 43.1942 190.933 35.3885L189.353 29.4505L187.389 29.3068L185.426 29.1632L186.862 34.335Z" fill="#17161A"/>
<path d="M132.22 36.1551C132.22 34.8216 131.691 33.5426 130.748 32.5997C129.805 31.6567 128.526 31.127 127.192 31.127C125.859 31.127 124.58 31.6567 123.637 32.5997C122.694 33.5426 122.164 34.8216 122.164 36.1551L127.192 36.1551H132.22Z" fill="#F2F0C4"/>
</svg>
