<svg width="24" height="24" viewBox="0 0 24 24" fill="none" xmlns="http://www.w3.org/2000/svg">
<path opacity="0.1" fill-rule="evenodd" clip-rule="evenodd" d="M0 12C0 5.37258 5.37258 0 12 0C18.6274 0 24 5.37258 24 12C24 18.6274 18.6274 24 12 24C5.37258 24 0 18.6274 0 12Z" fill="white"/>
<path d="M8.66094 7.41135C8.64329 6.6102 8.07039 6 7.14008 6C6.20977 6 5.60156 6.6102 5.60156 7.41135C5.60156 8.1959 6.19179 8.82367 7.10478 8.82367H7.12216C8.07039 8.82367 8.66094 8.1959 8.66094 7.41135Z" fill="white"/>
<path d="M8.48184 9.93896H5.76237V18.1098H8.48184V9.93896Z" fill="white"/>
<path d="M15.1581 9.74707C16.9477 9.74707 18.2893 10.9151 18.2893 13.4249L18.2892 18.1098H15.5698V13.7384C15.5698 12.6404 15.1763 11.8911 14.1918 11.8911C13.4405 11.8911 12.993 12.3962 12.7965 12.8841C12.7246 13.0589 12.7069 13.3025 12.7069 13.5467V18.11H9.98712C9.98712 18.11 10.023 10.7059 9.98712 9.93915H12.7069V11.0965C13.0678 10.5401 13.7143 9.74707 15.1581 9.74707Z" fill="white"/>
</svg>
