<svg width="109" height="39" viewBox="0 0 109 39" fill="none" xmlns="http://www.w3.org/2000/svg">
<g clip-path="url(#clip0_1057_10057)">
<path d="M49.552 25.6932C48.5174 25.7155 47.4889 25.5323 46.5272 25.1544C45.6518 24.7939 44.8709 24.2411 44.2437 23.5378C43.5881 22.7841 43.0915 21.9084 42.7831 20.9621C42.4264 19.8731 42.2533 18.7335 42.2708 17.5889C42.2529 16.4478 42.426 15.3117 42.7831 14.2265C43.0916 13.29 43.5884 12.4249 44.2437 11.6831C44.8714 10.9804 45.6522 10.4276 46.5272 10.0665C47.4881 9.6859 48.5172 9.50256 49.552 9.52766C50.592 9.5038 51.6262 9.68705 52.5931 10.0665C53.473 10.4273 54.2592 10.9799 54.893 11.6831C55.5463 12.4262 56.0429 13.2909 56.3536 14.2265C56.7081 15.3123 56.8811 16.448 56.8659 17.5889C56.8806 18.7333 56.7076 19.8725 56.3536 20.9621C56.0431 21.9074 55.5467 22.7828 54.893 23.5378C54.2597 24.2415 53.4734 24.7942 52.5931 25.1544C51.6255 25.5313 50.5918 25.7145 49.552 25.6932ZM49.552 22.6272C49.9966 22.6513 50.4414 22.5816 50.8567 22.4227C51.2721 22.2639 51.6484 22.0195 51.9609 21.7057C52.5866 20.9494 52.8983 19.9864 52.8329 19.0115V16.1124C52.9039 15.1368 52.5915 14.1718 51.9609 13.4182C51.6484 13.1044 51.2721 12.86 50.8567 12.7012C50.4414 12.5423 49.9966 12.4726 49.552 12.4967C49.1125 12.4748 48.6733 12.5457 48.2636 12.7045C47.8539 12.8634 47.4831 13.1067 47.1758 13.4182C46.5426 14.1704 46.2299 15.1365 46.3038 16.1124V18.9953C46.2356 19.9706 46.5476 20.9346 47.1758 21.6896C47.4811 22.005 47.8511 22.2522 48.2609 22.4149C48.6706 22.5775 49.1108 22.6517 49.552 22.6326V22.6272Z" fill="white"/>
<path d="M58.3633 25.3257V9.80136H62.2164V13.0345H62.3636C62.4662 12.6137 62.6238 12.208 62.8323 11.8275C63.0432 11.4314 63.3237 11.0756 63.6607 10.7767C64.0131 10.4734 64.4172 10.2344 64.8542 10.0708C65.3782 9.88383 65.9322 9.79254 66.4892 9.80136H67.334V13.4009H66.1295C65.1269 13.3469 64.1265 13.5414 63.2192 13.9667C62.8952 14.1518 62.6303 14.4232 62.4549 14.7501C62.2795 15.0769 62.2007 15.4459 62.2273 15.815V25.3257H58.3633Z" fill="white"/>
<path d="M75.2105 25.3267C74.6626 25.3651 74.1126 25.2943 73.593 25.1184C73.0734 24.9425 72.5948 24.6652 72.1857 24.3028C71.8224 23.9106 71.5433 23.4495 71.3653 22.9475C71.1873 22.4455 71.1141 21.913 71.1502 21.3823V12.8684H68.834V9.80233H70.0384C70.2541 9.82889 70.473 9.8068 70.6788 9.73774C70.8845 9.66868 71.0718 9.55444 71.2265 9.40358C71.4637 9.04675 71.5749 8.62236 71.5426 8.19655V5.55078H75.0034V9.80233H78.2243V12.8684H75.0034V22.2714H77.9845V25.3267H75.2105Z" fill="white"/>
<path d="M79.6621 3.31836H83.5153V12.3926H83.6679C83.9788 11.572 84.5033 10.8471 85.1884 10.2911C86.0146 9.68243 87.0321 9.38271 88.0606 9.44511C88.7633 9.4033 89.4663 9.52425 90.1134 9.79835C90.7606 10.0724 91.3341 10.4921 91.7884 11.024C92.6567 12.0729 93.0891 13.5691 93.0855 15.5126V25.3251H89.2323V15.9006C89.2942 15.0263 89.0851 14.1541 88.6328 13.4003C88.3976 13.1117 88.0939 12.885 87.7488 12.7402C87.4037 12.5955 87.0278 12.5372 86.6545 12.5705C86.2635 12.5694 85.8744 12.6238 85.4991 12.7321C85.1437 12.8336 84.8083 12.9939 84.5072 13.2063C84.2178 13.4121 83.9762 13.6766 83.7987 13.9823C83.6141 14.3118 83.5202 14.6834 83.5262 15.06V25.3251H79.673L79.6621 3.31836Z" fill="white"/>
<path d="M101.686 25.6933C100.654 25.7162 99.6267 25.5329 98.6671 25.1544C97.7908 24.7927 97.0084 24.2401 96.3781 23.5379C95.7244 22.7828 95.228 21.9075 94.9175 20.9622C94.5635 19.8725 94.3905 18.7333 94.4052 17.5889C94.39 16.4481 94.5631 15.3123 94.9175 14.2265C95.2282 13.291 95.7248 12.4263 96.3781 11.6831C97.0089 10.9814 97.7912 10.4289 98.6671 10.0666C99.626 9.68566 100.653 9.50229 101.686 9.52771C102.726 9.50385 103.761 9.68711 104.728 10.0666C105.608 10.4261 106.395 10.9788 107.027 11.6831C107.683 12.4249 108.179 13.2901 108.488 14.2265C108.845 15.3117 109.018 16.4479 109 17.5889C109.018 18.7335 108.845 19.8731 108.488 20.9622C108.18 21.9084 107.683 22.7841 107.027 23.5379C106.395 24.2427 105.609 24.7956 104.728 25.1544C103.76 25.5314 102.726 25.7145 101.686 25.6933ZM101.686 22.6272C102.131 22.6514 102.576 22.5817 102.991 22.4228C103.406 22.2639 103.783 22.0195 104.095 21.7058C104.723 20.9508 105.035 19.9868 104.967 19.0115V16.1125C105.041 15.1366 104.728 14.1705 104.095 13.4182C103.783 13.1045 103.406 12.8601 102.991 12.7012C102.576 12.5423 102.131 12.4727 101.686 12.4968C101.247 12.4749 100.808 12.5457 100.398 12.7046C99.9883 12.8635 99.6175 13.1067 99.3102 13.4182C98.6771 14.1705 98.3644 15.1366 98.4382 16.1125V18.9954C98.3701 19.9706 98.6821 20.9347 99.3102 21.6896C99.6156 22.005 99.9855 22.2523 100.395 22.4149C100.805 22.5775 101.245 22.6518 101.686 22.6326V22.6272Z" fill="white"/>
<path d="M37.2071 13.1372C37.2044 11.7965 36.8461 10.48 36.1681 9.31891C35.4901 8.15784 34.516 7.19282 33.3431 6.52012L21.9144 0L7.5755 8.18517L0 12.5122V26.9426C0.000781619 27.8655 0.246904 28.7719 0.713695 29.5711C1.18049 30.3702 1.85154 31.034 2.6596 31.4959L15.2873 38.695L30.58 29.9656L37.2071 26.1936V13.1372ZM26.7813 27.7994L23.8111 29.4968V16.3757L12.317 9.81789L15.2873 8.12051L26.4925 14.5167C26.5804 14.5669 26.6535 14.6392 26.7042 14.7262C26.7549 14.8133 26.7815 14.912 26.7813 15.0124V27.7994ZM4.5562 28.2359C4.33062 28.1015 4.14389 27.9119 4.01405 27.6854C3.88421 27.4588 3.81566 27.203 3.815 26.9426V14.6783L8.5347 11.9841L18.1158 17.4588L6.2457 24.2484L8.1423 27.4815L20.0124 20.7135V31.663L15.2873 34.3572L4.5562 28.2359ZM33.4085 24.0167L30.58 25.6332V15.0124C30.5835 14.2498 30.3839 13.4997 30.0012 12.8376C29.6185 12.1754 29.0663 11.6246 28.4 11.2405L19.075 5.95432L21.909 4.33776L31.4356 9.78017C32.0331 10.1206 32.5295 10.6106 32.8749 11.2008C33.2202 11.791 33.4024 12.4607 33.4031 13.1426L33.4085 24.0167Z" fill="white"/>
</g>
<defs>
<clipPath id="clip0_1057_10057">
<rect width="109" height="38.695" fill="white"/>
</clipPath>
</defs>
</svg>
