<svg width="109" height="40" viewBox="0 0 109 40" fill="none" xmlns="http://www.w3.org/2000/svg">
<g clip-path="url(#clip0_1338_7846)">
<path d="M49.552 26.3456C48.5174 26.3679 47.4889 26.1846 46.5272 25.8067C45.6518 25.4463 44.8709 24.8934 44.2437 24.1902C43.5881 23.4364 43.0915 22.5607 42.7831 21.6145C42.4264 20.5254 42.2533 19.3858 42.2708 18.2412C42.2529 17.1002 42.426 15.964 42.7831 14.8788C43.0916 13.9423 43.5884 13.0772 44.2437 12.3354C44.8714 11.6327 45.6522 11.08 46.5272 10.7189C47.4881 10.3382 48.5172 10.1549 49.552 10.18C50.592 10.1561 51.6262 10.3394 52.5931 10.7189C53.473 11.0797 54.2592 11.6323 54.893 12.3354C55.5463 13.0786 56.0429 13.9433 56.3536 14.8788C56.7081 15.9646 56.8811 17.1003 56.8659 18.2412C56.8806 19.3856 56.7076 20.5248 56.3536 21.6145C56.0431 22.5598 55.5467 23.4351 54.893 24.1902C54.2597 24.8939 53.4734 25.4466 52.5931 25.8067C51.6255 26.1837 50.5918 26.3668 49.552 26.3456ZM49.552 23.2795C49.9966 23.3036 50.4414 23.234 50.8567 23.0751C51.2721 22.9162 51.6484 22.6718 51.9609 22.3581C52.5866 21.6018 52.8983 20.6387 52.8329 19.6638V16.7648C52.9039 15.7892 52.5915 14.8241 51.9609 14.0705C51.6484 13.7568 51.2721 13.5124 50.8567 13.3535C50.4414 13.1946 49.9966 13.1249 49.552 13.1491C49.1125 13.1272 48.6733 13.198 48.2636 13.3569C47.8539 13.5157 47.4831 13.759 47.1758 14.0705C46.5426 14.8228 46.2299 15.7889 46.3038 16.7648V19.6476C46.2356 20.6229 46.5476 21.587 47.1758 22.3419C47.4811 22.6573 47.8511 22.9046 48.2609 23.0672C48.6706 23.2298 49.1108 23.304 49.552 23.2849V23.2795Z" fill="black"/>
<path d="M58.3633 25.978V10.4537H62.2164V13.6868H62.3636C62.4662 13.2661 62.6238 12.8603 62.8323 12.4798C63.0432 12.0837 63.3237 11.7279 63.6607 11.429C64.0131 11.1257 64.4172 10.8867 64.8542 10.7231C65.3782 10.5362 65.9322 10.4449 66.4892 10.4537H67.334V14.0532H66.1295C65.1269 13.9992 64.1265 14.1937 63.2192 14.619C62.8952 14.8041 62.6303 15.0756 62.4549 15.4024C62.2795 15.7292 62.2007 16.0983 62.2273 16.4673V25.978H58.3633Z" fill="black"/>
<path d="M75.2105 25.979C74.6626 26.0174 74.1126 25.9466 73.593 25.7707C73.0734 25.5949 72.5948 25.3175 72.1857 24.9552C71.8224 24.5629 71.5433 24.1018 71.3653 23.5998C71.1873 23.0978 71.1141 22.5654 71.1502 22.0346V13.5207H68.834V10.4547H70.0384C70.2541 10.4812 70.473 10.4591 70.6788 10.3901C70.8845 10.321 71.0718 10.2068 71.2265 10.0559C71.4637 9.6991 71.5749 9.2747 71.5426 8.84889V6.20312H75.0034V10.4547H78.2243V13.5207H75.0034V22.9237H77.9845V25.979H75.2105Z" fill="black"/>
<path d="M79.6621 3.9707H83.5153V13.045H83.6679C83.9788 12.2244 84.5033 11.4995 85.1884 10.9435C86.0146 10.3348 87.0321 10.0351 88.0606 10.0975C88.7633 10.0556 89.4663 10.1766 90.1134 10.4507C90.7606 10.7248 91.3341 11.1445 91.7884 11.6763C92.6567 12.7253 93.0891 14.2215 93.0855 16.1649V25.9774H89.2323V16.5529C89.2942 15.6786 89.0851 14.8064 88.6328 14.0526C88.3976 13.7641 88.0939 13.5373 87.7488 13.3926C87.4037 13.2478 87.0278 13.1895 86.6545 13.2228C86.2635 13.2217 85.8744 13.2761 85.4991 13.3845C85.1437 13.4859 84.8083 13.6463 84.5072 13.8586C84.2178 14.0644 83.9762 14.329 83.7987 14.6346C83.6141 14.9641 83.5202 15.3357 83.5262 15.7123V25.9774H79.673L79.6621 3.9707Z" fill="black"/>
<path d="M101.686 26.3456C100.654 26.3685 99.6267 26.1852 98.6671 25.8068C97.7908 25.4451 97.0084 24.8925 96.3781 24.1902C95.7244 23.4352 95.228 22.5598 94.9175 21.6145C94.5635 20.5249 94.3905 19.3857 94.4052 18.2413C94.39 17.1004 94.5631 15.9647 94.9175 14.8789C95.2282 13.9433 95.7248 13.0786 96.3781 12.3355C97.0089 11.6338 97.7912 11.0813 98.6671 10.7189C99.626 10.338 100.653 10.1546 101.686 10.1801C102.726 10.1562 103.761 10.3395 104.728 10.7189C105.608 11.0784 106.395 11.6312 107.027 12.3355C107.683 13.0773 108.179 13.9424 108.488 14.8789C108.845 15.9641 109.018 17.1002 109 18.2413C109.018 19.3859 108.845 20.5255 108.488 21.6145C108.18 22.5608 107.683 23.4365 107.027 24.1902C106.395 24.8951 105.609 25.448 104.728 25.8068C103.76 26.1837 102.726 26.3669 101.686 26.3456ZM101.686 23.2796C102.131 23.3037 102.576 23.234 102.991 23.0751C103.406 22.9163 103.783 22.6719 104.095 22.3581C104.723 21.6032 105.035 20.6391 104.967 19.6639V16.7648C105.041 15.7889 104.728 14.8228 104.095 14.0706C103.783 13.7568 103.406 13.5124 102.991 13.3536C102.576 13.1947 102.131 13.125 101.686 13.1491C101.247 13.1272 100.808 13.1981 100.398 13.3569C99.9883 13.5158 99.6175 13.7591 99.3102 14.0706C98.6771 14.8228 98.3644 15.7889 98.4382 16.7648V19.6477C98.3701 20.623 98.6821 21.587 99.3102 22.342C99.6156 22.6573 99.9855 22.9046 100.395 23.0673C100.805 23.2299 101.245 23.3041 101.686 23.285V23.2796Z" fill="black"/>
<path d="M37.2071 13.7896C37.2044 12.4489 36.8461 11.1323 36.1681 9.97125C35.4901 8.81018 34.516 7.84516 33.3431 7.17246L21.9144 0.652344L7.5755 8.83751L0 13.1645V27.595C0.000781619 28.5178 0.246904 29.4243 0.713695 30.2234C1.18049 31.0226 1.85154 31.6864 2.6596 32.1483L15.2873 39.3473L30.58 30.6179L37.2071 26.846V13.7896ZM26.7813 28.4517L23.8111 30.1491V17.0281L12.317 10.4702L15.2873 8.77285L26.4925 15.169C26.5804 15.2193 26.6535 15.2915 26.7042 15.3786C26.7549 15.4656 26.7815 15.5643 26.7813 15.6648V28.4517ZM4.5562 28.8882C4.33062 28.7539 4.14389 28.5642 4.01405 28.3377C3.88421 28.1112 3.81566 27.8554 3.815 27.595V15.3307L8.5347 12.6364L18.1158 18.1112L6.2457 24.9007L8.1423 28.1338L20.0124 21.3658V32.3153L15.2873 35.0096L4.5562 28.8882ZM33.4085 24.669L30.58 26.2856V15.6648C30.5835 14.9022 30.3839 14.1521 30.0012 13.4899C29.6185 12.8278 29.0663 12.2769 28.4 11.8928L19.075 6.60666L21.909 4.99011L31.4356 10.4325C32.0331 10.773 32.5295 11.2629 32.8749 11.8532C33.2202 12.4434 33.4024 13.1131 33.4031 13.795L33.4085 24.669Z" fill="black"/>
</g>
<defs>
<clipPath id="clip0_1338_7846">
<rect width="109" height="38.695" fill="white" transform="translate(0 0.652344)"/>
</clipPath>
</defs>
</svg>
