<svg width="72" height="42" viewBox="0 0 72 42" fill="none" xmlns="http://www.w3.org/2000/svg">
<path fill-rule="evenodd" clip-rule="evenodd" d="M71.6387 21.0006C71.6387 9.40269 62.1906 0.000405005 50.5357 0.000405005C45.4781 0.000405005 40.8761 1.76169 37.2417 4.71385C40.0141 7.37736 42.1305 10.7122 43.266 14.4818H41.5126C40.4137 11.1304 38.4835 8.17345 35.9744 5.80058C33.4485 8.1942 31.5581 11.1734 30.4722 14.4718H28.7184C29.8383 10.7713 31.8906 7.4172 34.6803 4.72838C31.0548 1.8065 26.4746 0 21.4455 0C9.79088 0 0.341858 9.40226 0.341858 21.0002C0.341858 32.5977 9.79044 42 21.4455 42C26.4743 42 31.0548 40.1935 34.6803 37.2716C31.9294 34.6162 29.8491 31.2768 28.7184 27.5287H30.4722C31.5582 30.827 33.4486 33.8062 35.9744 36.1998C38.4839 33.8266 40.4137 30.8699 41.5126 27.5182H43.266C42.1305 31.2878 40.0141 34.623 37.2417 37.2861C40.8761 40.2379 45.4781 41.9996 50.5357 41.9996C62.1906 42 71.6387 32.5977 71.6387 21.0006Z" fill="#17161A"/>
<path fill-rule="evenodd" clip-rule="evenodd" d="M56.1313 25.9202L57.5885 18.15H59.4307L59.6234 18.9158C59.9536 18.5323 60.5861 18.15 61.6582 18.15L61.0814 20.1741C60.5584 20.1741 59.5686 20.0381 58.9366 22.3632L58.2765 25.9202H56.1313ZM27.8943 16.1752H30.0176L29.5819 18.234H30.7247L30.3441 19.9133H29.2553L28.6561 23.0552C28.547 23.6514 28.6018 24.1936 29.8269 24.0038L29.6906 25.5746C29.2277 25.8725 28.6018 25.9545 28.1113 25.9545C27.6217 25.9545 26.0152 25.6557 26.4241 23.5433L27.8943 16.1752ZM37.0954 22.4597C37.3404 21.2132 37.9125 18.1258 34.1831 18.1258C30.7527 18.1258 30.3174 21.5115 30.2358 21.9987C30.1543 22.4868 30.1 25.9266 33.7746 25.9266C34.6731 25.9541 35.9798 25.8455 36.4975 25.5742L36.824 23.9768C36.4975 24.0571 35.2719 24.1662 34.4277 24.1662C33.5843 24.1662 32.2232 24.2206 32.4679 22.4597H37.0954ZM25.8805 19.9678L26.3702 18.3962C25.3629 18.0172 24.5738 18.0987 24.2741 18.0987C23.9743 18.0987 21.4254 18.0676 21.0347 19.9408C20.7353 21.3767 21.2635 21.9705 21.7698 22.1889C22.5868 22.5413 23.0497 22.8663 23.4854 23.083C24.0242 23.3511 23.9252 24.2477 23.2128 24.2477C22.8858 24.2477 21.4708 24.4099 20.4091 24.0575L20.1098 25.6557C21.0899 25.927 21.8785 25.927 22.6144 25.927C23.1312 25.927 25.6631 26.0626 26.0164 23.7326C26.1892 22.5966 25.6898 22.0799 25.2813 21.8373C24.8732 21.566 24.1925 21.1869 23.7572 20.9968C23.3215 20.8075 22.9949 20.0764 23.7844 19.8596C24.2741 19.8051 25.2809 19.8051 25.8805 19.9678ZM12.1062 25.9266L13.8753 16.5542H10.3914L7.8048 22.243L7.39632 16.5542H3.9939L2.16998 25.9266H4.29288L5.59957 19.1548L6.17157 25.9266H8.18578L11.1533 19.3174L9.90093 25.9266H12.1062ZM14.4465 18.3696L14.1199 20.0489C14.6376 19.9952 16.0258 19.7785 16.7605 19.8051C17.496 19.8321 18.3122 19.724 18.0672 20.8886C17.5228 20.9431 13.7118 20.3469 13.1135 23.5969C12.8684 25.196 14.2563 26.0082 15.3451 25.9545C16.4339 25.9 16.7334 25.7643 17.1146 25.493L17.3869 25.9266H19.3735L20.2177 21.7013C20.4355 20.6448 20.7889 18.0983 17.2234 18.0983C16.5702 18.1258 15.8356 18.0983 14.4465 18.3696ZM48.8552 18.7212C48.3099 18.3959 47.9298 18.3421 47.2215 18.3421C46.514 18.3421 44.9347 19.0151 44.6361 20.9157C44.282 23.1638 45.8333 24.2739 48.0113 23.5433L48.6373 25.4394C47.9298 25.7643 47.2215 25.9266 46.0511 25.9266C43.8458 25.9266 41.4508 23.9768 42.5396 20.0215C43.3424 17.1073 45.8613 16.0399 47.331 16.094C49.0726 16.1586 49.6994 16.744 50.2438 17.3402L48.8552 18.7212ZM66.9575 19.0462C66.5485 18.7487 66.3052 18.1258 65.2965 18.1258C64.1265 18.1258 62.3023 17.909 61.2684 21.4304C60.5767 23.7838 61.9759 25.927 63.4997 25.927C64.2079 25.9004 64.9154 25.6021 65.3505 25.3041L65.6236 25.927H67.9096L69.7612 16.0674H67.5285L66.9575 19.0462ZM50.3796 18.3696L50.0523 20.0489C50.5703 19.9952 51.9577 19.7785 52.6933 19.8051C53.4283 19.8321 54.2454 19.724 53.9999 20.8886C53.4555 20.9431 49.6446 20.3469 49.0462 23.5969C48.8008 25.196 50.1886 26.0082 51.2774 25.9545C52.3671 25.9 52.6656 25.7643 53.0474 25.493L53.32 25.9266H55.3062L56.1508 21.7013C56.3687 20.6448 56.722 18.0983 53.1557 18.0983C52.503 18.1258 51.7679 18.0983 50.3796 18.3696Z" fill="white"/>
<path fill-rule="evenodd" clip-rule="evenodd" d="M32.602 21.0505H35.2426C35.3789 20.2919 35.1339 19.6416 34.2901 19.6416C33.4459 19.6416 32.8471 20.0751 32.602 21.0505ZM17.7121 22.4589C17.358 22.4036 16.5686 22.1877 15.8878 22.6482C15.2071 23.1089 15.0168 23.9207 15.7247 24.1927C16.4059 24.4531 17.4115 24.0034 17.5486 23.2978L17.7121 22.4589ZM66.1935 22.2147C66.4113 21.5107 66.2928 20.6314 66.0575 20.3194C65.4046 19.4527 63.9025 20.1377 63.4444 21.8364C63.1452 22.9466 63.7982 23.7863 64.5331 23.7863C65.3232 23.7858 65.813 23.1629 66.1935 22.2147ZM53.6448 22.4589C53.2907 22.4036 52.5017 22.1877 51.821 22.6482C51.1402 23.1089 50.9496 23.9207 51.6578 24.1927C52.3394 24.4531 53.3447 24.0034 53.481 23.2978L53.6448 22.4589Z" fill="#17161A"/>
<path fill-rule="evenodd" clip-rule="evenodd" d="M37.1565 25.9266L38.5995 18.2339H40.4234L40.6137 18.9924C40.9411 18.6129 41.567 18.2339 42.6278 18.2339L42.0834 20.2656C41.567 20.2656 40.5589 20.1034 39.9329 22.4048L39.2802 25.9269H37.1565V25.9266Z" fill="white"/>
</svg>
