<svg width="24" height="24" viewBox="0 0 24 24" fill="none" xmlns="http://www.w3.org/2000/svg">
<path opacity="0.1" fill-rule="evenodd" clip-rule="evenodd" d="M0 12C0 5.37258 5.37258 0 12 0C18.6274 0 24 5.37258 24 12C24 18.6274 18.6274 24 12 24C5.37258 24 0 18.6274 0 12Z" fill="white"/>
<path d="M7.2972 9.02088C7.31222 8.87244 7.25561 8.72572 7.14477 8.62582L6.01571 7.26567V7.0625H9.52146L12.2312 13.0054L14.6136 7.0625H17.9556V7.26567L16.9902 8.19125C16.907 8.25469 16.8657 8.35895 16.883 8.46215V15.2629C16.8657 15.366 16.907 15.4703 16.9902 15.5338L17.933 16.4593V16.6625H13.1909V16.4593L14.1676 15.5112C14.2635 15.4152 14.2635 15.387 14.2635 15.2403V9.74328L11.5481 16.6399H11.1812L8.0198 9.74328V14.3655C7.99344 14.5598 8.05798 14.7555 8.1948 14.896L9.46501 16.4368V16.6399H5.86328V16.4368L7.13348 14.896C7.26931 14.7552 7.33009 14.5583 7.2972 14.3655V9.02088Z" fill="white"/>
</svg>
