<svg width="199" height="34" viewBox="0 0 199 34" fill="none" xmlns="http://www.w3.org/2000/svg">
<g clip-path="url(#clip0_1920_18611)">
<path d="M44.9756 7.47882C45.1684 11.0591 42.7952 14.128 39.5024 15.0486C39.4579 15.0778 39.4283 15.0924 39.3986 15.107C36.1799 15.9546 33.8067 18.8481 33.8067 22.2968C33.8067 22.3261 33.777 22.37 33.7473 22.4138C33.2875 26.0818 30.0985 28.9168 26.2569 28.9168H26.1086C22.2669 28.9168 19.0779 26.0818 18.6181 22.4138C18.5737 22.3553 18.5588 22.3261 18.5588 22.2968C18.5588 18.8627 16.1856 15.9546 12.9669 15.107C12.9373 15.0924 12.9076 15.0778 12.8631 15.0486C9.57026 14.128 7.19706 11.0591 7.38986 7.47882C7.58273 3.76697 10.6085 0.727366 14.376 0.464324C18.7961 0.157441 22.4746 3.60622 22.4746 7.88795C22.4746 7.93182 22.4746 7.99029 22.4746 8.03409C22.6823 9.62695 23.3942 11.103 24.4919 12.2428C25.4115 13.1927 26.9392 13.1927 27.8589 12.2428C28.9565 11.103 29.6833 9.62695 29.8761 8.03409C29.8761 7.99029 29.8761 7.93182 29.8761 7.88795C29.8761 3.60622 33.5545 0.157441 37.9747 0.464324C41.7273 0.727366 44.7679 3.76697 44.9756 7.47882Z" fill="#17161A"/>
<path d="M44.1592 33.5776C48.3288 33.5776 51.7089 30.2474 51.7089 26.1394C51.7089 22.0314 48.3288 18.7012 44.1592 18.7012C39.9895 18.7012 36.6094 22.0314 36.6094 26.1394C36.6094 30.2474 39.9895 33.5776 44.1592 33.5776Z" fill="#17161A"/>
<path d="M8.01465 33.6509C12.1842 33.6509 15.5644 30.3207 15.5644 26.2127C15.5644 22.1047 12.1842 18.7744 8.01465 18.7744C3.845 18.7744 0.464844 22.1047 0.464844 26.2127C0.464844 30.3207 3.845 33.6509 8.01465 33.6509Z" fill="#17161A"/>
<path d="M161.741 6.55737C163.486 6.55737 164.901 5.16378 164.901 3.4447C164.901 1.72562 163.486 0.332031 161.741 0.332031C159.997 0.332031 158.582 1.72562 158.582 3.4447C158.582 5.16378 159.997 6.55737 161.741 6.55737Z" fill="#17161A"/>
<path d="M77.4319 26.9574H72.0625C71.7505 26.9574 71.4985 26.709 71.4985 26.4021C71.4985 26.3875 71.4985 26.3729 71.4985 26.3437C71.4985 22.9534 71.4985 19.5776 71.4839 16.1873C71.4692 14.7406 70.7125 13.6884 69.4812 13.3523C67.6572 12.8554 66.0847 13.8638 65.8325 15.705C65.7733 16.1434 65.7436 16.5818 65.7436 17.0203C65.7287 20.1037 65.7436 23.1872 65.7436 26.2706V26.3729C65.7436 26.6798 65.4914 26.9282 65.1799 26.9282H59.8995C59.5881 26.9282 59.3359 26.6798 59.3359 26.3729V8.52984C59.3359 8.22298 59.5881 7.97451 59.8995 7.97451H64.5125C64.8239 7.97451 65.0761 8.22298 65.0761 8.52984C65.0761 8.99751 65.6101 9.24591 65.9957 8.96824C67.4045 7.88684 69.0219 7.50691 70.7865 7.52151C72.7745 7.52151 74.5099 8.06224 75.8445 9.53818C76.0672 9.78664 76.4525 9.77198 76.6752 9.53818C77.7285 8.47138 79.0339 7.90144 80.5319 7.68224C83.2605 7.27311 85.8265 7.53611 87.9479 9.50898C89.2825 10.7511 90.0392 12.3294 90.1579 14.0976C90.3065 16.2458 90.2765 18.4086 90.2912 20.5567C90.3065 22.4857 90.2912 24.4293 90.2912 26.3875C90.2912 26.6944 90.0392 26.9428 89.7279 26.9428H84.3585C84.0472 26.9428 83.7945 26.6944 83.7945 26.3875C83.7945 26.3729 83.7945 26.3583 83.7945 26.3437C83.7945 22.9387 83.8392 19.5338 83.7652 16.1434C83.6759 13.6884 81.7479 12.8846 79.8492 13.4254C78.6925 13.7614 78.0099 14.9013 77.9952 16.4504C77.9805 19.753 77.9952 23.041 77.9952 26.3437C77.9952 26.3729 77.9952 26.3875 77.9952 26.4168C77.9952 26.709 77.7432 26.9574 77.4319 26.9574Z" fill="#17161A"/>
<path d="M111.219 10.6927C109.024 8.26693 106.161 7.31707 102.928 7.31707C102.556 7.31707 102.186 7.3024 101.8 7.31707C101.533 7.33167 101.266 7.37547 101.014 7.41933C98.1218 7.887 95.6745 9.11447 93.9985 11.5403C92.3518 13.9223 91.9072 16.5966 92.4112 19.417C92.9005 22.1205 94.2652 24.3125 96.6238 25.8469C98.8932 27.3229 101.414 27.7905 104.099 27.5713C106.28 27.3813 108.282 26.6799 110.018 25.3209C112.272 23.5526 113.414 21.1706 113.666 18.3941C113.904 15.5152 113.192 12.8848 111.219 10.6927ZM102.957 22.0328C100.332 22.0328 98.5371 20.1623 98.5371 17.4295C98.5371 14.7261 100.317 12.8848 102.957 12.8848C105.597 12.8848 107.392 14.7407 107.392 17.4295C107.392 20.1477 105.582 22.0182 102.957 22.0328Z" fill="#17161A"/>
<path d="M134.623 26.9582H129.017C128.779 26.9582 128.601 26.7682 128.601 26.549V26.3444C128.601 23.2025 128.616 20.0606 128.587 16.9333C128.587 16.3927 128.527 15.8373 128.393 15.3259C127.993 13.8207 126.762 13.09 124.937 13.2069C123.514 13.2946 122.416 14.2883 122.223 15.7204C122.164 16.1589 122.134 16.5973 122.134 17.0357C122.119 20.1191 122.134 23.2025 122.134 26.286V26.5344C122.134 26.7682 121.941 26.9436 121.719 26.9436H116.142C115.905 26.9436 115.727 26.7536 115.727 26.5344V8.39907C115.727 8.16527 115.919 7.98994 116.142 7.98994H121.393C121.63 7.98994 121.808 8.17987 121.808 8.39907V8.66214C121.808 9.01287 122.238 9.2028 122.505 8.969C122.668 8.82287 122.846 8.69134 123.024 8.57447C127.444 5.65175 133.778 8.22374 134.816 13.3677C134.965 14.1275 135.053 14.9313 135.053 15.7058C135.083 19.3153 135.068 22.9249 135.068 26.5344C135.053 26.7828 134.861 26.9582 134.623 26.9582Z" fill="#17161A"/>
<path d="M143.078 26.9582H137.471C137.248 26.9582 137.07 26.7829 137.07 26.5637V8.36991C137.07 8.15071 137.248 7.97531 137.471 7.97531H142.752C142.974 7.97531 143.152 8.15071 143.152 8.36991V8.69137C143.152 9.02751 143.567 9.21751 143.819 8.99831C143.997 8.85217 144.175 8.70604 144.353 8.58911C148.774 5.66641 155.107 8.23837 156.145 13.3823C156.294 14.1422 156.382 14.946 156.382 15.7205C156.412 19.33 156.398 22.9395 156.398 26.549C156.398 26.7682 156.204 26.9436 155.997 26.9436H150.36C150.138 26.9436 149.96 26.7682 149.96 26.549C149.96 26.4906 149.96 26.4176 149.96 26.3591C149.96 23.2172 149.975 20.0753 149.945 16.948C149.945 16.4073 149.886 15.852 149.752 15.3405C149.352 13.8354 148.121 13.1046 146.296 13.2216C144.872 13.3092 143.775 14.303 143.582 15.7351C143.523 16.1735 143.493 16.6119 143.493 17.0503C143.478 20.1338 143.493 23.2172 143.493 26.3006V26.5783C143.478 26.7682 143.3 26.9582 143.078 26.9582Z" fill="#17161A"/>
<path d="M198.466 7.94546C198.392 8.15006 198.347 8.31079 198.288 8.45693C194.862 16.8597 191.421 25.2479 187.995 33.6652H181.439C182.225 31.6339 183.011 29.6173 183.811 27.6006C183.96 27.2499 183.945 26.9576 183.797 26.6215C181.824 22.1936 179.851 17.7657 177.879 13.3379H176.721C176.469 13.3379 176.262 13.5425 176.262 13.7909V26.4754C176.262 26.7238 176.054 26.9284 175.802 26.9284H170.225C169.973 26.9284 169.765 26.7238 169.765 26.4754V13.8055C169.765 13.5571 169.557 13.3525 169.305 13.3525H167.288C167.036 13.3525 166.828 13.1479 166.828 12.8995V8.39853C166.828 8.15006 167.036 7.94546 167.288 7.94546H169.735C169.735 7.98933 169.735 8.00393 169.75 7.94546V7.90166C169.75 7.84319 169.765 7.77013 169.765 7.65319C169.825 6.77641 169.899 5.85576 170.165 5.02279C170.952 2.58235 172.821 1.31098 175.253 0.741049C176.662 0.404939 179.273 0.375712 180.697 0.624141C180.801 0.638755 181.067 0.667981 181.32 0.697209C181.557 0.726435 181.735 0.916411 181.735 1.15023V5.32967C181.735 5.57811 181.527 5.78269 181.275 5.78269C180.415 5.78269 178.872 5.78269 178.427 5.78269C177.063 5.78269 176.321 6.48414 176.277 7.78473C176.277 7.77013 176.277 7.75553 176.277 7.74093C176.277 7.20019 176.277 7.66786 176.277 7.96013C176.277 8.13546 176.277 8.23773 176.277 7.96013C178.22 7.96013 180.118 7.96013 182.017 7.97473C182.076 7.97473 182.135 7.97473 182.18 7.97473H182.269C182.403 7.97473 182.595 8.19393 182.655 8.35466C184.079 11.7304 185.487 15.1061 186.911 18.4818C186.986 18.6718 187.075 18.8617 187.193 19.1394C187.801 17.6196 188.38 16.1875 188.943 14.7407C189.774 12.6364 190.62 10.5467 191.421 8.44233C191.569 8.06239 191.747 7.96013 192.162 7.96013C194.224 7.96013 196.301 7.94546 198.466 7.94546Z" fill="#17161A"/>
<path d="M169.75 7.88805C169.75 7.90265 169.75 7.91725 169.75 7.93185H169.735C169.719 7.77111 169.75 7.25965 169.75 7.88805Z" fill="#17161A"/>
<path d="M182.002 7.96079C180.103 7.94619 178.204 7.94619 176.262 7.94619C176.262 8.22386 176.262 8.12153 176.262 7.94619C176.262 7.66853 176.262 7.20093 176.262 7.72699C176.262 7.74159 176.262 7.75619 176.262 7.77086C176.262 7.81466 176.276 7.85853 176.291 7.93159H181.853C181.898 7.93159 181.957 7.94619 182.002 7.96079Z" fill="#17161A"/>
<path d="M164.808 8.47148V26.4461C164.808 26.7237 164.585 26.9429 164.303 26.9429H158.934C158.652 26.9429 158.43 26.7237 158.43 26.4461V8.47148C158.43 8.19381 158.652 7.97461 158.934 7.97461H164.303C164.585 7.97461 164.808 8.19381 164.808 8.47148Z" fill="#17161A"/>
</g>
<defs>
<clipPath id="clip0_1920_18611">
<rect width="198" height="33.3333" fill="white" transform="translate(0.464844 0.333008)"/>
</clipPath>
</defs>
</svg>
