<svg width="183" height="28" viewBox="0 0 183 28" fill="none" xmlns="http://www.w3.org/2000/svg">
<g clip-path="url(#clip0_1920_18539)">
<path d="M89.055 0.355752C86.9875 0.321665 84.9726 1.00903 83.3569 2.29966C81.6531 3.70954 80.4717 5.6504 80.002 7.81138C79.6467 2.84096 77.2502 0.355752 72.8126 0.355752C70.8168 0.309558 68.8706 0.980438 67.3274 2.24663C65.7429 3.60281 64.6564 5.44878 64.2395 7.49222V7.11923C64.2574 5.65612 64.0402 4.19962 63.5963 2.80535C63.4467 2.18132 63.2324 1.57455 62.9571 0.994855H57.5781V26.8226H64.3456V12.8681C64.381 10.5249 64.9135 8.71414 65.943 7.43591C66.4443 6.80833 67.0864 6.30769 67.8174 5.97459C68.5483 5.64148 69.3475 5.48527 70.1499 5.5186C71.4988 5.51804 72.4486 5.84657 72.999 6.50418C73.5495 7.16183 73.8247 8.25359 73.8247 9.77943V26.8226H80.5881V12.8721C80.6236 10.5289 81.1471 8.7182 82.159 7.43997C82.6621 6.80756 83.3084 6.30386 84.0444 5.97046C84.7804 5.63707 85.5853 5.48355 86.3925 5.52258C87.7414 5.52203 88.6912 5.85059 89.2417 6.50824C89.792 7.16582 90.0672 8.25755 90.0672 9.7834V26.8267H96.8307V9.46184C96.8328 6.44386 96.1404 4.17168 94.7533 2.64531C93.3663 1.11894 91.4668 0.355752 89.055 0.355752Z" fill="black"/>
<path d="M113.034 0.359378C109.2 0.357228 106.084 1.5363 103.688 3.89659C101.292 6.25699 100.094 9.46118 100.094 13.5092V13.6153C100.096 18.1596 101.34 21.5946 103.825 23.9201C106.376 26.1675 109.66 27.4076 113.06 27.4082C116.46 27.409 119.744 26.1703 122.297 23.924C124.782 21.5991 126.024 18.1464 126.024 13.5662V13.4601C126.026 9.41262 124.821 6.21728 122.407 3.87414C119.993 1.53094 116.869 0.35935 113.034 0.359378ZM119.161 14.3598C119.161 20.111 117.119 22.9866 113.037 22.9866V22.9884C108.987 22.9884 106.964 20.1126 106.967 14.3614V12.444C106.967 10.03 107.508 8.16629 108.59 6.85269C109.128 6.20245 109.81 5.68602 110.582 5.34409C111.353 5.00216 112.194 4.84406 113.037 4.88225C113.884 4.8449 114.728 5.00324 115.504 5.34496C116.28 5.68669 116.967 6.20262 117.511 6.85269C118.611 8.16841 119.161 10.0322 119.161 12.444V14.3598Z" fill="black"/>
<path d="M145.155 0.354403C143.017 0.284881 140.923 0.973417 139.244 2.29831C137.606 3.66235 136.495 5.55492 136.102 7.65001V7.11788C136.123 5.6549 135.907 4.19822 135.463 2.80401C135.312 2.17983 135.097 1.57306 134.82 0.993508H129.434V26.8213H136.207V12.8708C136.206 10.5629 136.783 8.76106 137.938 7.46515C138.498 6.82912 139.192 6.32499 139.971 5.98892C140.749 5.65284 141.592 5.49313 142.439 5.52125C145.315 5.52125 146.753 6.94153 146.753 9.78208V26.8253H153.463V9.4605C153.463 6.44251 152.737 4.17033 151.279 2.64397C149.823 1.11759 147.781 0.354403 145.155 0.354403Z" fill="black"/>
<path d="M179.036 3.87413C176.621 1.53093 173.499 0.35935 169.664 0.359378C165.829 0.357228 162.713 1.5363 160.317 3.89659C157.921 6.25699 156.723 9.46118 156.723 13.5092V13.6153C156.723 18.1596 157.966 21.5946 160.451 23.9201C163.005 26.1681 166.288 27.4082 169.69 27.4082C173.092 27.4082 176.377 26.1681 178.93 23.9201C181.416 21.595 182.658 18.1425 182.658 13.5622V13.4562C182.658 9.41126 181.45 6.21725 179.036 3.87413ZM175.789 14.3598C175.787 20.111 173.746 22.9866 169.664 22.9866V22.9884C165.616 22.9884 163.593 20.1126 163.593 14.3614V12.444C163.595 10.03 164.136 8.16629 165.218 6.85269C165.756 6.20236 166.437 5.68587 167.209 5.34394C167.981 5.00199 168.821 4.84394 169.664 4.88225C170.511 4.84508 171.355 5.00349 172.13 5.34521C172.907 5.68692 173.593 6.20275 174.137 6.85269C175.238 8.16841 175.789 10.0322 175.789 12.444V14.3598Z" fill="black"/>
<path d="M34.4452 0.536539C34.305 0.434421 34.1394 0.373105 33.9665 0.359388C33.7936 0.345671 33.6204 0.380089 33.4658 0.458825C33.3114 0.537562 33.1818 0.657541 33.0914 0.805462C33.0008 0.953383 32.9531 1.12347 32.9534 1.29686V11.2867L18.2966 0.536539C18.1565 0.434421 17.9907 0.373105 17.8179 0.359388C17.645 0.345671 17.4718 0.380089 17.3173 0.458825C17.1629 0.537562 17.0332 0.657541 16.9427 0.805462C16.8523 0.953383 16.8045 1.12347 16.8048 1.29686V11.2867L2.148 0.536539C2.00787 0.43442 1.8422 0.373105 1.66935 0.359388C1.4965 0.345671 1.32323 0.38009 1.16875 0.458828C1.01427 0.537565 0.88461 0.657547 0.794148 0.805469C0.703687 0.953393 0.655957 1.12348 0.656251 1.29687V15.4123C0.656791 15.5599 0.692058 15.7055 0.759205 15.837C0.826352 15.9685 0.923496 16.0824 1.04279 16.1696L16.1205 27.2285C16.2606 27.3306 16.4262 27.3919 16.5991 27.4057C16.7719 27.4193 16.9452 27.3849 17.0996 27.3062C17.2542 27.2275 17.3839 27.1075 17.4743 26.9596C17.5648 26.8116 17.6124 26.6416 17.6121 26.4682V16.4783L32.269 27.2285C32.4092 27.3308 32.5748 27.392 32.7476 27.4058C32.9205 27.4195 33.0937 27.3851 33.2482 27.3063C33.4026 27.2276 33.5323 27.1077 33.6227 26.9596C33.7131 26.8118 33.7605 26.6416 33.7602 26.4682V16.4778L48.42 27.2285C48.56 27.3308 48.7256 27.392 48.8985 27.4058C49.0714 27.4195 49.2446 27.3851 49.399 27.3063C49.5536 27.2276 49.6831 27.1077 49.7735 26.9596C49.8639 26.8118 49.9115 26.6416 49.9111 26.4682V12.3546C49.9106 12.2065 49.8751 12.0606 49.8076 11.9287C49.7401 11.7968 49.6426 11.6826 49.5228 11.5955L34.4452 0.536539Z" fill="black"/>
</g>
<defs>
<clipPath id="clip0_1920_18539">
<rect width="182" height="27.3" fill="white" transform="translate(0.65625 0.349609)"/>
</clipPath>
</defs>
</svg>
