<svg width="542" height="390" viewBox="0 0 542 390" fill="none" xmlns="http://www.w3.org/2000/svg">
<g clip-path="url(#clip0_1424_11562)">
<path d="M293.864 385.44C283.194 408.446 273.025 431.665 263.355 455.096C262.658 456.795 265.413 457.546 266.109 455.866C275.682 432.662 285.752 409.675 296.318 386.902C297.081 385.242 294.636 383.78 293.864 385.44Z" fill="#102067"/>
<path d="M352.484 377.71C338.374 403.21 325.617 429.436 314.266 456.278C313.551 457.967 316.306 458.728 317.011 457.058C328.279 430.446 340.939 404.445 354.939 379.163C355.835 377.561 353.38 376.099 352.484 377.71Z" fill="#102067"/>
<path d="M311.991 151.817C303.644 160.763 297.124 168.275 292.818 173.385C286.939 180.311 280.684 187.995 269.619 200.824C257.92 214.43 255.718 216.518 251.756 218.461C247.197 220.401 242.965 223.034 239.211 226.266C237.003 228.233 235.005 230.423 233.249 232.802L235.836 238.737L224.579 245.932C219.842 236.83 213.927 228.391 206.989 220.831C200.535 213.862 195.034 209.725 188.097 199.669C184.439 194.393 184.804 193.882 180.295 186.469C173.159 174.747 170.675 173.475 156.177 154.093C147.498 142.504 145.371 138.922 139.179 134.267C137.285 132.808 125.846 124.37 119.497 127.563C118.609 127.939 117.897 128.638 117.505 129.519C116.662 131.892 119.217 135.477 124.019 138.763C115.6 138.422 108.796 138.51 104.294 138.633C96.2426 138.865 92.1954 139.334 81.9345 139.799C76.0235 140.074 70.1034 140.282 64.1748 140.338C59.7973 140.386 55.1728 140.365 53.0213 143.395C52.223 144.593 51.824 146.012 51.8813 147.451C51.0592 147.687 50.3311 148.174 49.7982 148.844C49.2654 149.513 48.9541 150.332 48.9077 151.186C48.8613 152.04 49.082 152.888 49.5392 153.611C49.9964 154.334 50.6674 154.897 51.4591 155.221C52.5504 156.586 53.783 157.832 55.1362 158.937C59.6415 162.611 64.2876 163.679 68.421 164.572C73.1551 165.598 78.0202 165.881 82.8412 165.409C89.0305 167.266 95.3165 168.785 101.671 169.957C114.711 172.366 127.978 173.322 141.228 172.805C142.622 176.44 144.764 182.001 147.413 188.745C152.972 202.93 160.836 222.554 171.074 245.856C171.074 245.856 175.874 256.763 187.504 278.143C193.145 288.551 196.911 294.703 204.031 297.11C209.652 299.05 214.79 297.704 221.052 296.118C229.935 293.855 236.109 289.776 244.062 284.433C248.584 281.384 252.927 278.077 257.068 274.528C265.198 279.507 274.23 282.836 283.647 284.323C287.088 281.995 292.021 278.536 297.769 274.064C306.837 266.987 311.428 263.354 314.14 259.005C317.574 253.499 315.127 253.655 320.571 237.592C324.006 227.443 326.782 222.057 329.207 218.048C330.91 215.239 332.78 212.535 334.808 209.95C331.755 202.489 328.721 194.95 325.707 187.331C320.977 175.381 316.405 163.543 311.991 151.817Z" fill="white"/>
<path d="M311.606 153.137C296.828 164.847 286.229 180.505 274.032 194.659C267.789 201.896 261.064 208.741 253.244 214.274C246.16 219.28 238.652 223.607 233.912 231.112C232.95 232.676 235.386 234.128 236.367 232.574C241.434 224.558 250.026 220.343 257.361 214.749C264.588 209.074 271.175 202.628 277.004 195.525C288.8 181.673 299.233 166.537 313.61 155.148C315.055 154.006 313.032 151.985 311.606 153.108L311.606 153.137Z" fill="#102067"/>
<path d="M233.348 232.899C239.452 256.859 254.14 280.609 279.948 286.088C281.744 286.471 282.524 283.726 280.728 283.344C255.86 278.071 241.975 255.201 236.113 232.156C235.989 231.819 235.744 231.54 235.425 231.374C235.106 231.209 234.737 231.169 234.39 231.262C234.043 231.355 233.744 231.575 233.551 231.878C233.358 232.181 233.286 232.545 233.348 232.899Z" fill="#102067"/>
<path d="M282.827 285.726C296.264 279.848 308.317 270.27 315.444 257.32C319.537 249.887 320.866 241.713 323.449 233.738C326.304 225.053 331.072 217.118 337.4 210.519C338.665 209.186 336.661 207.146 335.396 208.479C330.175 213.92 325.947 220.233 322.903 227.131C319.415 235.167 318.462 244.019 314.908 252.017C308.465 266.484 295.655 276.999 281.397 283.252C279.718 283.992 281.157 286.457 282.818 285.725L282.827 285.726Z" fill="#102067"/>
<path d="M234.468 236.883L223.552 245.764C222.127 246.925 224.15 248.946 225.556 247.795L236.472 238.913C237.897 237.752 235.884 235.731 234.468 236.883Z" fill="#102067"/>
<path d="M227.028 252.181C222.461 239.068 214.179 228.043 205.371 217.462C194.912 205.012 185.217 191.94 176.339 178.317C168.257 165.781 160.072 153.111 149.407 142.574C144.416 137.565 138.807 133.212 132.717 129.619C128.84 127.32 121.681 123.467 117.181 126.292C112.68 129.117 116.344 134.849 119.259 137.247C123.934 141.084 131.899 142.573 134.065 148.829C134.663 150.555 137.427 149.803 136.82 148.086C135.065 142.994 130.693 140.719 126.208 138.273C124.141 137.146 120.516 135.6 119.332 133.394C115.046 125.345 125.896 129.356 127.698 130.176C129.616 131.079 131.472 132.109 133.254 133.258C147.668 142.258 158.244 156.067 167.535 170.01C177.005 184.24 185.921 198.599 196.882 211.754C207.466 224.459 218.707 237.045 224.207 252.923C224.805 254.64 227.569 253.897 226.962 252.18L227.028 252.181Z" fill="#102067"/>
<path d="M139.121 171.409C114.665 170.183 88.5034 172.028 67.9381 156.441C65.5767 154.651 63.3446 152.697 61.2585 150.593C60.173 149.639 59.2201 148.545 58.4252 147.339C56.6298 143.997 60.2765 142.204 63.1259 143.003C68.5494 144.513 73.5574 148.428 78.4204 151.248C87.2739 156.425 96.6257 161.082 107.165 160.305C108.983 160.165 109.021 157.31 107.183 157.451C91.5321 158.603 80.3578 147.493 67.028 141.458C63.8118 140.01 58.1525 138.175 55.3523 141.467C52.1491 145.252 56.6661 150.039 59.228 152.596C68.1727 161.551 79.4487 167.819 91.7761 170.689C106.978 174.195 123.559 173.486 139.102 174.264C140.938 174.361 140.948 171.507 139.121 171.409Z" fill="#102067"/>
<path d="M76.8767 163.342C71.468 162.688 66.1286 161.551 60.9223 159.945C59.2415 159.42 54.9263 158.678 53.812 157.377C51.8007 155.023 54.2476 154.801 55.9705 154.727L60.4916 154.538C62.3286 154.465 62.3569 151.61 60.5104 151.684C57.6549 151.808 51.8388 150.675 49.8697 153.469C48.6884 155.117 49.2933 157.186 50.5785 158.545C53.1016 161.216 58.3953 162.203 61.7479 163.176C66.6956 164.586 71.7485 165.596 76.8579 166.197C78.6739 166.427 78.6737 163.573 76.8767 163.342Z" fill="#102067"/>
<path d="M51.9596 151.311C51.343 151.022 51.5295 150.157 51.9701 149.713C52.8803 148.767 54.7819 149.008 55.9519 149.073C57.7877 149.18 57.797 146.326 55.9707 146.219C53.6212 146.08 50.6897 146.184 49.2948 148.487C48.332 150.193 48.4858 152.849 50.4686 153.766C52.1192 154.538 53.5912 152.083 51.9216 151.311L51.9596 151.311Z" fill="#102067"/>
<path d="M52.8403 145.627C52.1041 143.263 56.2675 143.947 57.2937 144.172C59.0896 144.565 59.8689 141.82 58.073 141.428C56.0586 140.986 53.7775 140.581 51.9331 141.787C51.1676 142.243 50.5721 142.937 50.2369 143.762C49.9017 144.588 49.8452 145.5 50.0759 146.361C50.6258 148.115 53.3902 147.382 52.8403 145.627Z" fill="#102067"/>
<path d="M83.6625 152.796C91.2488 153.004 98.8409 152.822 106.408 152.251C108.227 152.12 108.265 149.266 106.427 149.396C98.8596 149.968 91.2676 150.15 83.6813 149.941C81.8449 149.929 81.8261 152.783 83.6625 152.796Z" fill="#102067"/>
<path d="M74.0276 146.937C83.2924 146.484 92.5546 146.441 101.814 146.806C103.65 146.885 103.669 144.03 101.833 143.952C92.5671 143.586 83.3049 143.63 74.0464 144.083C72.2188 144.166 72.1905 147.02 74.0276 146.937Z" fill="#102067"/>
<path d="M66.8818 143.378C85.0381 141.852 103.342 139.584 121.585 140.817C123.411 140.944 123.43 138.089 121.604 137.963C103.361 136.73 85.0569 138.997 66.9006 140.524C65.0916 140.674 65.0538 143.528 66.8818 143.378Z" fill="#102067"/>
<path d="M138.533 172.643C149.93 199.007 159.276 226.243 171.666 252.176C177.707 265.096 184.819 277.489 192.928 289.223C195.897 293.429 199.069 298.778 204.273 300.42C210.028 302.18 216.649 299.446 221.963 297.464C235.902 292.266 248.597 284.204 259.229 273.798C260.551 272.523 258.547 270.492 257.225 271.768C245.256 283.58 230.541 292.235 214.401 296.957C208.586 298.593 203.819 298.486 199.702 293.663C197.128 290.491 194.742 287.171 192.555 283.721C188.008 276.875 183.815 269.8 179.991 262.525C164.483 233.213 154.081 201.594 140.95 171.222C140.228 169.543 137.754 170.973 138.476 172.643L138.533 172.643Z" fill="#102067"/>
<path d="M239.915 226.249C244.301 250.864 258.107 275.56 283.957 282.048C285.743 282.497 286.522 279.752 284.736 279.303C259.799 273.05 246.872 249.159 242.669 225.506C242.348 223.706 239.593 224.449 239.915 226.249Z" fill="#102067"/>
<path d="M246.498 220.108C248.97 232.694 254.25 244.561 261.944 254.825C269.637 265.089 279.547 273.486 290.936 279.391C292.557 280.23 294.029 277.775 292.389 276.936C281.326 271.219 271.7 263.073 264.23 253.11C256.76 243.147 251.64 231.624 249.252 219.403C248.903 217.602 246.148 218.345 246.497 220.146L246.498 220.108Z" fill="#102067"/>
<path d="M253.912 215.735C261.188 239.364 276.049 259.937 296.195 274.272C297.691 275.338 299.135 272.873 297.648 271.817C278.145 257.878 263.766 237.915 256.724 215.002C256.184 213.247 253.419 213.971 253.959 215.735L253.912 215.735Z" fill="#102067"/>
<path d="M259.85 211.613C269.88 234.115 284.997 253.982 304.01 269.649C304.258 269.883 304.581 270.022 304.921 270.04C305.261 270.058 305.597 269.955 305.868 269.749C306.139 269.543 306.328 269.247 306.402 268.914C306.475 268.581 306.427 268.233 306.267 267.932L305.177 265.822C304.341 264.19 301.867 265.61 302.704 267.242L303.793 269.352L306.041 267.645C287.214 252.14 272.248 232.472 262.324 210.193C261.573 208.513 259.109 209.943 259.85 211.613Z" fill="#102067"/>
<path d="M267.985 202.694C276.044 225.824 289.831 246.537 308.058 262.9C309.421 264.118 311.461 262.124 310.089 260.897C292.204 244.886 278.667 224.607 270.74 201.951C270.142 200.225 267.377 200.977 267.985 202.694Z" fill="#102067"/>
<path d="M272.62 200.254C283.423 220.059 294.661 240.218 312.341 254.749C313.751 255.91 315.801 253.916 314.381 252.746C296.862 238.358 285.784 218.428 275.094 198.824C274.21 197.21 271.736 198.631 272.62 200.245L272.62 200.254Z" fill="#102067"/>
<path d="M277.205 194.506C288.181 213.657 301.591 231.306 317.101 247.014C317.37 247.268 317.727 247.407 318.097 247.403C318.466 247.399 318.82 247.252 319.083 246.992C319.347 246.732 319.499 246.38 319.508 246.011C319.517 245.641 319.382 245.282 319.131 245.01C303.803 229.476 290.552 212.023 279.707 193.086C279.512 192.772 279.202 192.547 278.844 192.457C278.485 192.367 278.106 192.419 277.785 192.603C277.465 192.787 277.228 193.088 277.125 193.443C277.022 193.798 277.061 194.179 277.233 194.506L277.205 194.506Z" fill="#102067"/>
<path d="M283.839 188.372C293.495 206.844 305.322 224.097 319.071 239.764C320.289 241.143 322.31 239.139 321.101 237.761C307.523 222.27 295.844 205.213 286.313 186.952C285.458 185.319 282.984 186.739 283.839 188.372Z" fill="#102067"/>
<path d="M288.139 181.344C297.856 199.101 308.57 216.293 320.229 232.84C321.275 234.331 323.759 232.92 322.703 231.419C311.046 214.872 300.332 197.679 290.613 179.924C289.738 178.31 287.255 179.73 288.139 181.344Z" fill="#102067"/>
<path d="M293.195 175.975C297.437 185.201 302.191 194.184 307.434 202.881C309.982 207.103 312.648 211.244 315.431 215.303C316.741 217.214 318.08 219.126 319.438 221.038C320.431 222.239 321.484 223.389 322.593 224.484L324.03 223.066L323.63 223.064L325.048 224.5L325.05 224.186C325.015 222.359 322.16 222.331 322.196 224.168L322.194 224.481C322.198 224.858 322.349 225.218 322.613 225.485C322.877 225.753 323.235 225.908 323.611 225.918L324.011 225.921C324.39 225.923 324.754 225.775 325.023 225.509C325.293 225.243 325.445 224.881 325.448 224.503C325.454 223.504 325.16 223.407 324.642 222.652C323.435 220.893 321.666 219.293 320.394 217.486C317.207 212.993 314.164 208.4 311.264 203.706C305.483 194.318 300.275 184.59 295.669 174.574C294.9 172.903 292.426 174.333 293.195 175.994L293.195 175.975Z" fill="#102067"/>
<path d="M297.785 167.819C305.974 185.376 315.498 202.279 326.275 218.378C327.293 219.897 329.776 218.486 328.749 216.948C317.97 200.85 308.445 183.948 300.259 166.389C299.489 164.729 297.015 166.159 297.785 167.819Z" fill="#102067"/>
<path d="M303.65 160.64C312.289 178.222 321.536 195.489 331.39 212.439C331.484 212.602 331.609 212.744 331.758 212.858C331.907 212.972 332.077 213.056 332.258 213.105C332.439 213.153 332.628 213.165 332.814 213.141C333 213.116 333.18 213.055 333.342 212.961C333.505 212.867 333.647 212.742 333.761 212.593C333.875 212.445 333.959 212.275 334.007 212.093C334.056 211.912 334.068 211.723 334.044 211.537C334.019 211.351 333.958 211.172 333.864 211.009C324.016 194.072 314.769 176.805 306.124 159.21C305.307 157.558 302.843 158.988 303.65 160.64Z" fill="#102067"/>
<path d="M310.478 154.203C317.2 171.926 324.504 189.417 332.39 206.678C333.159 208.348 335.624 206.918 334.864 205.248C327.091 188.21 319.893 170.941 313.271 153.441C312.626 151.743 309.862 152.467 310.507 154.175L310.478 154.203Z" fill="#102067"/>
<path d="M221.303 442.471C204.001 429.836 199.221 410.061 197.89 404.182C197.89 404.182 193.543 385.01 199.458 365.401C215.995 310.686 327.452 271.61 393.849 300.934C402.882 304.923 427.588 315.837 432.409 336.696C433.547 341.632 432.754 343.578 428.923 367.568C422.967 404.969 423.91 406.288 420.709 415.515C417.624 424.458 411.979 440.757 398.768 452.84C381.536 468.53 360.16 469.265 333.557 470.165C306.546 471.081 284.247 464.436 239.659 451.136C233.069 449.374 226.851 446.439 221.303 442.471Z" fill="white"/>
<path d="M431.813 336.579C428.878 357.492 426.522 378.533 422.693 399.316C419.487 416.65 414.438 434.78 402.285 448.097C389.317 462.284 370.336 467.658 351.716 468.811C331.725 470.04 311.205 467.793 291.54 464.276C267.684 460.154 244.509 452.769 222.668 442.329C221.017 441.528 219.555 443.974 221.205 444.784C241.154 454.369 262.23 461.406 283.937 465.729C304.844 469.949 326.598 472.604 347.918 471.859C365.907 471.216 384.516 467.343 398.667 455.561C412.818 443.78 419.719 426.204 423.716 408.724C429.124 385.115 431.341 360.61 434.715 336.656C434.974 334.84 432.12 334.84 431.86 336.637L431.813 336.579Z" fill="#102067"/>
<path d="M278.51 303.743L266.337 330.162C235.575 335.592 210.486 339.309 193.257 341.679C165.76 345.484 153.335 346.592 130.685 351.267C110.304 355.471 95.0675 358.644 75.5855 366.404C56.1035 374.163 37.7177 381.635 21.8609 399.551C14.9966 407.318 6.83639 416.798 4.65612 431.436C1.90869 449.838 10.3963 464.347 13.3979 469.495C22.6101 485.236 35.7777 492.773 43.7227 497.192C52.2556 501.93 63.7095 506.715 97.138 511.045C117.589 513.692 150.807 516.746 197.618 514.704C211.896 514.084 223.692 513.144 231.632 512.425C232.53 515.846 234.033 519.079 236.071 521.969C237.315 523.718 239.437 526.692 242.035 528.003C247.308 530.663 255.819 527.142 263.091 519.645C265.638 522.016 268.712 523.748 272.06 524.699C273.009 524.971 281.986 527.352 288.078 522.806C291.616 520.165 293.405 515.762 294.191 504.845C295.036 492.439 294.108 479.977 291.437 467.833L303.426 469.406C304.062 474.081 305.379 478.639 307.333 482.933C309.856 488.449 311 488.133 312.77 492.484C316.123 500.679 313.073 504.35 316.14 512.487C317.758 516.76 318.574 515.681 322.082 522.04C326.138 529.557 328.954 537.678 330.421 546.091C331.462 552.759 330.937 555.923 333.83 560.119C335.627 562.668 338.017 564.741 340.794 566.16C345.73 568.691 351.439 569.265 356.779 567.768C363.711 565.72 367.293 560.663 369.348 557.851C374.928 550.076 375.325 541.791 375.487 537.397C375.652 532.64 374.151 526.379 371.141 513.867C367.974 500.697 367.076 499.654 366.274 492.836C365.376 484.809 366.333 483.997 364.879 477.822C362.26 466.682 360.481 462.293 360.481 462.293C359.684 460.385 358.606 457.914 359.026 454.786C359.426 451.935 360.695 451.324 361.569 448.799C362.762 445.353 361.655 442.863 359.65 435.295C358.898 432.435 357.794 428.147 356.735 422.773C354.131 422.252 350.539 421.534 346.281 420.706C337.652 419.042 336.929 418.989 335.824 419.134C329.891 419.894 329.666 423.727 322.276 426.048C318.531 427.08 314.655 427.558 310.772 427.466C304.405 427.586 301.662 426.559 299.766 428.393C298.578 429.536 297.745 431.767 298.704 436.387L286.208 436.81C286.802 432.549 285.892 428.213 283.634 424.551C281.376 420.889 277.911 418.129 273.836 416.747C268.427 414.596 262.473 414.224 256.839 415.684C270.755 409.488 283.9 401.687 296.006 392.44C320.553 373.517 340.393 349.177 353.977 321.319L278.51 303.743Z" fill="white"/>
<path d="M280.304 298.34C274.126 308.858 268.94 319.928 264.813 331.406C264.193 333.134 266.948 333.894 267.568 332.176C271.626 320.933 276.727 310.094 282.806 299.803C283 299.477 283.057 299.088 282.964 298.72C282.871 298.353 282.636 298.038 282.31 297.844C281.984 297.65 281.595 297.593 281.228 297.686C280.861 297.779 280.545 298.015 280.351 298.34L280.304 298.34Z" fill="#102067"/>
<path d="M264.743 328.154C220.83 335.077 176.686 341.038 133.012 349.371C96.2254 356.407 58.8813 367.256 29.2825 391.171C16.3103 401.657 5.0297 415.36 2.87158 432.415C0.743959 449.175 7.12005 466.429 17.7119 479.296C37.6024 503.452 70.5207 508.664 99.7962 512.187C147.717 517.963 195.739 518.441 243.653 512.315C245.472 512.089 244.719 509.335 242.919 509.561C201.282 514.891 159.175 515.479 117.406 511.313C88.0694 508.38 53.9801 506.138 29.897 487.198C16.2083 476.423 6.7344 459.966 5.45069 442.479C4.07077 423.707 14.1748 408.037 27.8227 396.1C55.75 371.688 92.4692 360.369 128.162 353.192C173.593 344.062 219.754 338.134 265.477 330.88C267.287 330.597 266.544 327.833 264.743 328.126L264.743 328.154Z" fill="#102067"/>
<path d="M254.633 331.482C254.493 336.886 254.75 345.584 259.406 349.392C263.457 352.701 269.753 351.819 274.144 349.755C279.871 347.053 283.844 341.922 286.972 336.567C291.264 329.192 294.97 321.396 298.911 313.867C299.759 312.246 297.314 310.783 296.456 312.414C291.531 321.896 287.291 332.972 280.385 341.185C276.99 345.226 272.133 348.676 266.652 348.707C257.907 348.763 257.311 338.103 257.488 331.52C257.5 329.684 254.645 329.665 254.633 331.501L254.633 331.482Z" fill="#102067"/>
<path d="M287.838 306.44C286.212 310.559 285.458 315.206 283.121 319.006C280.649 323.034 274.066 327.129 270.734 321.494C270.539 321.18 270.229 320.955 269.871 320.865C269.512 320.775 269.133 320.827 268.812 321.011C268.492 321.195 268.255 321.496 268.152 321.851C268.049 322.206 268.088 322.587 268.261 322.914C270.943 327.461 276.79 328.165 281.1 325.368C287.178 321.383 288.134 313.454 290.592 307.219C291.27 305.511 288.515 304.751 287.847 306.44L287.838 306.44Z" fill="#102067"/>
<path d="M312.992 155.971L309.853 177.453L315.795 187.007C306.216 196.639 298.546 205.352 292.619 212.354C281.58 225.488 274.999 235.073 261.846 254.149C255.332 263.621 252.121 268.662 249.198 276.064C246.18 283.743 244.275 291.814 243.541 300.032C247.428 298.802 251.476 298.155 255.553 298.113C265.63 298.027 273.18 301.788 277.021 303.754C298.975 314.993 309.957 320.622 315.902 323.991C328.842 331.393 340.957 338.314 356.739 344.802C371.686 350.904 382.809 355.325 398.663 356.581C406.386 357.184 420.91 358.174 437.709 351.833C443.162 349.771 448.377 347.126 453.262 343.943C452.936 333.722 452.503 323.383 451.962 312.926C449.644 269.001 445.41 227.099 439.79 187.357L450.955 162.426C439.705 154.545 427.245 148.553 414.065 144.685C367.034 130.932 325.947 149.462 312.992 155.971Z" fill="#FFDE59"/>
<path d="M312.148 156.118C355.836 137.1 410.225 134.661 450.074 163.895C451.561 164.98 452.995 162.516 451.527 161.44C410.806 131.572 355.265 134.251 310.747 153.644C309.058 154.375 310.497 156.849 312.167 156.118L312.148 156.118Z" fill="#102067"/>
<path d="M309.681 178.109C310.801 180.919 312.202 183.609 313.862 186.139C314.87 187.658 317.354 186.247 316.336 184.709C314.793 182.398 313.486 179.938 312.435 177.366C311.761 175.687 308.988 176.392 309.681 178.109Z" fill="#102067"/>
<path d="M318.876 182.802C302.177 201.398 284.634 219.532 269.317 239.298C255.42 257.284 244.164 277.41 241.036 300.158C240.786 301.974 243.641 301.973 243.891 300.177C247.089 276.915 259.309 256.339 273.701 238.261C288.497 219.709 305.006 202.463 320.851 184.823C322.068 183.461 320.074 181.421 318.847 182.792L318.876 182.802Z" fill="#102067"/>
<path d="M243.692 302.192C259.717 294.981 276.158 305.317 290.021 312.687C304.188 320.221 318.297 327.85 332.532 335.251C357.804 348.386 385.13 360.468 414.211 358.747C428.652 357.891 442.725 353.654 454.542 345.188C456.024 344.122 454.566 341.639 453.122 342.705C428.952 360.1 397.4 358.389 370.408 349.135C355.302 343.954 341.068 336.572 326.996 329.153C312.772 321.61 298.549 313.981 284.325 306.446C271.352 299.606 256.721 293.268 242.31 299.757C240.639 300.517 242.069 302.981 243.73 302.231L243.692 302.192Z" fill="#102067"/>
<path d="M441.063 201.392C444.559 248.646 448.276 295.885 452.215 343.11C452.375 344.919 455.229 344.957 455.07 343.129C451.124 295.898 447.407 248.658 443.918 201.41C443.778 199.592 440.923 199.554 441.063 201.392Z" fill="#102067"/>
<path d="M247.081 289.124C257.509 276.348 274.71 284.064 285.584 291.652C297.623 300.009 308.827 309.512 321.059 317.575C333.384 325.71 346.915 331.851 361.152 335.774C375.931 339.915 391.458 343.214 406.773 344.01C422.316 344.807 438.091 342.237 451.392 333.837C452.94 332.896 451.529 330.375 449.972 331.364C436.518 339.838 420.631 342.112 404.965 341.067C388.511 339.96 371.692 336.272 355.958 331.278C341.002 326.517 327.663 319.065 314.972 309.942C303.105 301.396 291.925 291.094 278.982 284.168C268.267 278.436 253.587 276.617 245.039 287.084C243.888 288.494 245.883 290.534 247.043 289.115L247.081 289.124Z" fill="#102067"/>
<path d="M252.125 274.777C267.963 266.946 284.842 275.943 297.289 285.902C308.194 294.622 318.267 303.889 330.43 310.858C353.657 324.11 379.967 331.007 406.708 330.856C421.758 330.765 436.704 328.36 451.022 323.726C452.767 323.166 451.996 320.402 450.289 320.971C429.926 327.448 408.403 329.443 387.197 326.816C365.991 324.19 345.604 317.006 327.437 305.757C314.881 297.911 304.674 287.187 292.549 278.811C280.424 270.434 264.7 265.392 250.723 272.313C249.072 273.13 250.502 275.603 252.144 274.786L252.125 274.777Z" fill="#102067"/>
<path d="M258.43 262.459C271.996 255.793 287.783 260.073 299.94 267.813C312.837 276.014 322.855 287.83 334.716 297.347C355.589 313.995 381.42 323.205 408.118 323.52C423.343 323.668 438.715 321.438 450.139 310.561C451.48 309.295 449.466 307.265 448.135 308.531C436.53 319.577 420.352 321.155 405.007 320.616C391.03 320.093 377.259 317.07 364.348 311.69C350.465 305.89 338.465 297.419 327.398 287.289C317.448 278.166 307.731 268.131 295.487 262.084C283.441 256.125 269.391 253.949 256.99 260.033C255.339 260.849 256.769 263.323 258.411 262.516L258.43 262.459Z" fill="#102067"/>
<path d="M268.559 248.34C278.171 246.662 288.042 246.204 297.345 249.605C305.604 252.609 312.752 258.051 319.136 263.973C330.883 274.859 340.752 287.654 354.676 295.986C382.836 312.831 417.471 311.67 447.266 299.916C448.954 299.251 448.24 296.487 446.522 297.161C414.152 309.926 375.49 309.957 347.281 287.393C334.758 277.377 325.292 264.061 312.29 254.584C298.757 244.733 284.078 242.743 267.816 245.586C266.006 245.897 266.758 248.661 268.559 248.34Z" fill="#102067"/>
<path d="M275.955 236.699C311.497 229.397 335.512 264.465 360.09 283.342C373.07 293.303 387.155 297.44 403.423 297.956C419.016 298.589 434.535 295.505 448.701 288.958C450.362 288.17 448.932 285.696 447.271 286.485C431.798 293.776 414.587 296.184 397.602 294.768C388.605 294.024 379.777 292.168 371.813 287.767C364.342 283.627 357.746 278.036 351.437 272.343C330.38 253.356 306.732 227.472 275.212 233.944C273.421 234.313 274.164 237.068 275.955 236.699Z" fill="#102067"/>
<path d="M283.917 228.043C299.765 220.174 317.353 228.349 329.779 238.811C341.475 248.622 351.208 260.455 363.768 269.273C387.931 286.235 419.573 292.941 446.952 279.63C448.603 278.822 447.173 276.349 445.531 277.156C414.258 292.355 378.713 280.046 354.212 258.02C335.293 241.017 311.462 211.222 282.497 225.608C280.855 226.425 282.275 228.898 283.917 228.081L283.917 228.043Z" fill="#102067"/>
<path d="M293.437 215.938C326.415 210.77 350.676 238.76 374.481 256.538C394.594 271.57 423.537 283.55 446.343 266.659C447.797 265.574 446.367 263.091 444.913 264.185C418.435 283.801 386.873 263.442 365.749 246.005C344.927 228.836 321.757 208.608 292.694 213.174C290.884 213.457 291.637 216.212 293.437 215.929L293.437 215.938Z" fill="#102067"/>
<path d="M301.441 206.843C332.237 200.528 355.336 227.34 378.012 243.227C396.416 256.135 425.712 269.525 446.911 255.288C448.431 254.27 447.02 251.787 445.491 252.814C433.811 260.654 419.158 259.082 406.464 254.736C392.517 249.954 380.418 241.939 368.964 232.834C349.492 217.359 327.502 198.594 300.708 204.079C298.907 204.447 299.65 207.211 301.451 206.843L301.441 206.843Z" fill="#102067"/>
<path d="M310.344 197.864C338.18 194.508 359.711 215.192 380.009 230.929C398.233 245.093 421.974 258.265 445.443 249.095C447.131 248.431 446.417 245.667 444.709 246.341C418.321 256.633 393.436 238.173 373.908 222.459C355.782 207.868 335.094 192.033 310.334 195.01C308.544 195.226 308.496 198.08 310.315 197.864L310.344 197.864Z" fill="#102067"/>
<path d="M317.109 187.759C343.263 186.98 362.832 206.442 382.761 220.455C400.246 232.759 422.933 242.509 443.763 232.351C445.415 231.543 443.985 229.07 442.333 229.877C418.907 241.302 394.552 225.966 376.164 212.096C358.742 198.946 340.188 184.219 317.127 184.905C315.3 184.959 315.272 187.814 317.109 187.759Z" fill="#102067"/>
<path d="M314.277 181.585C341.719 174.582 365.061 194.745 386.946 207.848C396.861 213.774 407.533 218.773 419.074 220.381C424.475 221.194 429.975 221.083 435.339 220.05C438.492 219.414 443.541 218.658 443.51 214.595C443.522 212.759 440.668 212.73 440.656 214.576C440.688 218.382 425.55 218.121 423.087 217.952C417.001 217.445 411.022 216.053 405.339 213.82C393.948 209.53 383.869 202.575 373.731 196.01C355.936 184.475 335.409 173.208 313.534 178.792C311.761 179.237 312.495 182.001 314.277 181.547L314.277 181.585Z" fill="#102067"/>
<path d="M312.744 171.498C324.523 167.427 336.658 169.866 348.03 174.156C359.667 178.534 370.866 184.411 381.809 190.297C399.749 199.929 419.815 214.828 441.199 207.129C442.916 206.512 442.173 203.748 440.456 204.374C428.247 208.766 415.71 205.163 404.557 199.561C394.029 194.269 383.974 188.008 373.456 182.716C355.057 173.403 333.05 161.517 312.001 168.743C310.275 169.341 311.027 172.105 312.744 171.498Z" fill="#102067"/>
<path d="M353.941 228.619C355.532 209.6 357.56 190.641 360.025 171.742C360.256 169.926 357.401 169.917 357.17 171.723C354.705 190.635 352.677 209.594 351.086 228.6C350.932 230.426 353.786 230.435 353.941 228.619Z" fill="#102067"/>
<path d="M315.167 154.664C338.095 148.212 360.913 162.767 379.929 173.748C398.044 184.22 417.723 194.244 439.285 191.389C441.095 191.154 440.342 188.39 438.542 188.635C414.313 191.843 392.939 177.792 372.85 166.366C355.539 156.519 334.797 146.135 314.424 151.909C314.069 152.016 313.769 152.258 313.589 152.582C313.409 152.907 313.362 153.289 313.458 153.647C313.555 154.006 313.788 154.312 314.107 154.502C314.426 154.692 314.806 154.75 315.167 154.664Z" fill="#102067"/>
<path d="M353.172 142.981C367.143 151.379 380.929 160.423 395.651 167.475C408.523 173.64 423.446 179.076 437.862 176.173C439.663 175.814 438.92 173.05 437.119 173.419C421.93 176.506 405.742 169.587 392.513 162.726C379.531 155.98 367.155 148.058 354.597 140.516C354.27 140.324 353.88 140.269 353.513 140.363C353.145 140.458 352.831 140.695 352.638 141.022C352.445 141.349 352.39 141.739 352.485 142.106C352.58 142.473 352.817 142.788 353.144 142.98L353.172 142.981Z" fill="#102067"/>
<path d="M389.047 142.778C399.953 157.065 420.323 161.757 437 156.576C438.745 156.036 438.021 153.272 436.257 153.822C420.457 158.732 401.417 154.306 391.087 140.775C389.973 139.321 387.952 141.334 389.047 142.778Z" fill="#102067"/>
<path d="M298.629 189.33C295.506 191.079 289.523 194.979 281.945 207.165C275.288 217.977 270.543 229.855 267.916 242.277C262.877 264.96 259.724 288.021 258.489 311.225C257.353 339.219 259.323 360.859 260.817 376.806C262.363 393.372 264.422 407.277 266.068 417.554C264.004 417.436 259.864 417.513 257.077 420.254C253.121 424.167 254.514 430.903 255.592 436.124C256.616 441.079 259.307 450.107 267.865 459.668C263.576 465.988 261.134 473.379 260.816 481.011C260.674 485.187 260.254 496.973 268.269 505.218C273.855 510.963 280.926 512.313 291.684 514.344C297.138 515.378 302.681 515.877 308.232 515.833L307.501 522.736C305.54 522.884 297.484 523.735 292.227 530.247C286.173 537.762 286.389 549.79 293.416 559.246C288.751 571.567 286.553 584.684 286.948 597.852C287.3 605.767 288.405 613.631 290.247 621.337C293.244 633.041 295.979 635.304 296.991 644.845C297.977 654.09 295.654 654.351 296.17 665.543C296.469 672.12 297.017 681.41 302.216 691.12C305.036 696.325 308.476 702.789 315.917 705.702C322.779 708.392 329.234 706.55 331.798 705.806C342.38 702.774 348.257 694.659 350.524 691.438C357.027 682.185 357.94 672.182 359.756 652.156C359.941 650.102 360.403 640.666 361.336 621.805C361.785 612.759 361.503 618 362.144 604.56C362.973 587.001 363.096 585.642 362.974 582.472C362.653 574.505 361.314 566.611 358.99 558.983C360.723 553.41 361.464 547.576 361.177 541.747C360.908 536.474 360.68 532.058 357.814 527.919C352.875 520.798 343.756 519.739 341.303 519.533C340.625 516.997 339.956 514.462 339.279 511.908C345.384 509.598 350.327 507.413 353.821 505.79C365.274 500.471 368.022 497.92 369.056 496.918C372.607 493.773 375.261 489.742 376.746 485.237C379.937 474.602 374.024 465.048 372.752 463.127C375.378 454.524 377.186 447.229 378.412 441.766C380.451 432.702 380.68 429.65 379.206 426.548C376.315 420.572 368.914 418.725 366.149 418.174C374.18 420.249 382.662 419.724 390.376 416.675C398.09 413.626 404.639 408.211 409.081 401.207C408.107 393.103 406.614 381.41 404.47 367.361C398.422 327.655 392.09 300.915 390.46 294.111C385.31 272.716 382.585 261.614 376.281 246.444C367.701 225.769 359.6 214.602 353.756 207.647C344.069 196.165 335.749 186.52 322.154 184.67C310.488 183.061 301.055 187.976 298.629 189.33Z" fill="white"/>
<path d="M272.669 436.246C262.156 401.267 260.315 364.319 259.945 327.99C259.594 293.221 261.883 257.641 274.545 224.899C280.421 209.714 289.536 193.97 305.534 187.853C313.519 184.803 322.446 184.539 330.195 188.424C337.318 191.991 342.873 198.022 347.896 204.078C367.863 228.053 379.564 257.569 387.474 287.45C391.903 304.206 395.226 321.24 398.273 338.301C401.861 358.381 405.564 378.501 407.704 398.79C407.902 400.6 410.756 400.637 410.559 398.809C408.58 380.043 405.238 361.458 401.973 342.882C399.065 326.327 395.977 309.789 391.955 293.464C384.308 262.443 373.035 231.703 353.277 206.235C344.162 194.491 332.805 182.152 316.683 182.655C301.692 183.118 289.191 192.94 281.241 205.076C271.735 219.524 266.605 237.168 263.069 253.929C259.258 271.982 257.681 290.363 257.208 308.742C256.138 351.333 257.585 395.947 269.904 436.998C270.435 438.753 273.2 437.972 272.669 436.255L272.669 436.246Z" fill="#102067"/>
<path d="M352.81 254.641L345.214 269.491C344.385 271.123 346.839 272.585 347.678 270.954L355.265 256.094C356.103 254.463 353.648 253.001 352.81 254.641Z" fill="#102067"/>
<path d="M344.927 270.728C356.411 322.706 362.775 375.684 363.926 428.902C363.971 430.729 366.825 430.758 366.78 428.921C365.634 375.447 359.246 322.214 347.71 269.986C347.313 268.194 344.558 268.937 344.955 270.729L344.927 270.728Z" fill="#102067"/>
<path d="M403.779 196.272C404.909 195.194 406.585 193.569 408.568 191.546C417.333 182.631 421.089 177.356 426.321 171.682C431.298 166.281 436.769 161.358 442.661 156.975C448.416 158.725 451.653 161.458 453.579 163.707C456.214 166.817 456.398 169.12 459.683 176.116C462.441 182.043 463.388 182.801 465.802 187.574C469.258 194.486 469.891 198.153 472.819 207.154C478.901 225.814 482.195 228.338 486.842 245.305C488.189 250.214 489.095 254.254 489.621 256.741L497.653 266.794C499.782 269.986 502.409 274.18 505.183 279.213C509.568 287.181 513.331 295.477 516.439 304.025C519.089 311.354 521.265 318.847 522.952 326.456C526.705 343.264 527.142 356.379 527.441 367.399C527.623 374.381 527.418 381.368 526.827 388.327C526.358 394.456 525.201 400.512 523.378 406.382C520.267 416.295 517.593 417.762 516.153 418.237C513.598 419.067 510.119 418.407 508.554 416.285C506.988 414.162 508.353 412.03 510.066 403.431C511.141 398.101 511.813 392.699 512.075 387.269C512.188 384.615 512.155 382.445 512.116 381.085C509.525 384.342 506.639 387.352 503.493 390.076C498.019 394.798 493.445 397.213 486.293 400.914C472.477 408.055 469.448 407.102 468.177 406.504C465.331 405.201 463.808 402.403 462.975 400.276C458.159 400.377 454.421 398.64 453.488 395.922C453.347 395.541 452.845 393.853 454.474 390.696C456.353 387.054 459.452 384.582 466.909 380.777C475.588 376.353 477.213 376.716 481.229 373.726C484.502 371.277 487.271 368.22 489.386 364.722C484.909 365.062 480.457 365.668 476.052 366.537C469.983 367.734 468.017 368.635 462.712 369.304C455.807 370.21 451.722 370.63 447.951 368.255C444.653 366.178 441.636 361.953 442.767 359.172C443.619 357.094 446.506 356.476 449.45 355.877C455.167 354.735 458.576 355.813 462.771 355.964C467.889 356.088 472.962 354.979 477.561 352.732C477.144 344.217 478.834 335.731 482.481 328.026C479.033 322.846 475.578 317.584 472.118 312.239C468.589 306.774 465.135 301.359 461.758 295.996C459.305 297.162 456.751 298.101 454.127 298.8C450.199 299.85 446.997 300.704 443.156 300.155C438.593 299.516 437.825 297.561 432.714 296.281C429.605 295.51 426.379 295.327 423.202 295.742C421.296 289.514 419.902 283.141 419.036 276.686C418.619 273.591 418.452 271.373 417.725 259.056C416.621 240.219 416.786 241.219 416.441 237.163C414.889 218.581 413.677 223.473 413.261 212.852C413.027 206.551 413.339 201.082 409.553 198.06C407.864 196.872 405.844 196.246 403.779 196.272Z" fill="white"/>
<path d="M401.987 196.669C404.369 197.924 407.03 198.554 409.721 198.499C411.548 198.454 411.576 195.6 409.74 195.645C407.555 195.713 405.39 195.221 403.45 194.215C401.819 193.367 400.356 195.821 401.987 196.669Z" fill="#102067"/>
<path d="M408.779 199.398C414.379 216 415.397 233.428 416.148 250.826C416.818 266.177 416.578 282.389 422.745 296.749C422.904 297.019 423.146 297.23 423.435 297.35C423.725 297.47 424.045 297.494 424.349 297.416C431.26 295.559 437.909 301.673 444.911 301.814C450.516 301.886 455.949 299.889 460.173 296.206C461.58 295.026 459.566 293.005 458.169 294.175C455.484 296.475 452.229 298.011 448.747 298.622C445.265 299.234 441.682 298.898 438.373 297.651C433.38 295.858 429.039 293.204 423.615 294.7L425.228 295.367C418.668 279.976 419.567 262.028 418.78 245.601C418.019 229.744 416.648 213.865 411.543 198.731C410.964 196.996 408.2 197.758 408.788 199.465L408.779 199.398Z" fill="#102067"/>
<path d="M426.782 295.166C428.742 286.52 436.006 281.668 442.887 277.032C448.364 273.348 453.347 269.489 456.962 263.88C461.163 257.352 463.817 248.835 470.782 244.59C474.756 242.161 480.441 241.533 484.006 245.048C487.371 248.362 487.603 253.682 487.726 258.098C487.771 259.925 490.626 259.953 490.581 258.117C490.39 250.96 488.954 242.188 480.841 240.108C472.728 238.028 465.877 243.768 461.687 249.982C458.699 254.406 456.677 259.416 453.603 263.792C450.27 268.527 445.596 271.798 440.836 274.992C433.534 279.882 426.057 285.313 424.046 294.387C423.644 296.173 426.399 296.962 426.791 295.166L426.782 295.166Z" fill="#102067"/>
<path d="M449.165 161.776C465.055 188.141 477.065 216.656 484.824 246.444C484.947 246.782 485.193 247.061 485.512 247.226C485.83 247.392 486.2 247.432 486.546 247.339C486.893 247.245 487.193 247.025 487.386 246.722C487.579 246.419 487.651 246.055 487.589 245.701C479.757 215.675 467.65 186.929 451.639 160.346C450.698 158.78 448.214 160.191 449.165 161.776Z" fill="#102067"/>
<path d="M440.481 278.285C445.835 286.197 452.802 292.887 460.925 297.915C462.489 298.877 463.942 296.432 462.378 295.461C454.665 290.701 448.045 284.364 442.955 276.865C441.928 275.364 439.445 276.766 440.481 278.295L440.481 278.285Z" fill="#102067"/>
<path d="M475.134 244.153C482.099 251.386 488.596 259.056 494.585 267.116C495.67 268.579 498.153 267.139 497.059 265.696C490.931 257.45 484.286 249.601 477.164 242.196C475.888 240.875 473.858 242.879 475.134 244.2L475.134 244.153Z" fill="#102067"/>
<path d="M487.454 269.093C495.35 265.035 501.29 273.342 504.419 279.385C507.726 285.782 510.747 292.367 513.453 299.036C518.744 312.106 522.565 325.737 523.576 339.835C523.707 341.653 526.561 341.681 526.43 339.854C525.184 322.462 519.812 305.9 512.694 290.077C508.408 280.534 500.441 259.207 486.033 266.619C484.401 267.455 485.821 269.929 487.454 269.093Z" fill="#102067"/>
<path d="M460.272 290.203C461.716 297.411 464.397 304.315 468.198 310.607C472.199 317.161 477.71 322.611 481.606 329.24C481.796 329.568 482.108 329.807 482.474 329.905C482.84 330.003 483.23 329.951 483.558 329.762C483.886 329.572 484.126 329.26 484.223 328.894C484.321 328.528 484.27 328.138 484.08 327.81C480.448 321.639 475.409 316.525 471.519 310.534C467.399 304.103 464.519 296.959 463.027 289.47C462.658 287.669 459.894 288.412 460.272 290.203Z" fill="#102067"/>
<path d="M515.974 330.062C509.876 325.502 500.512 332.815 495.004 335.566C491.051 337.529 481.037 340.983 483.878 347.386C486.719 353.789 494.547 349.94 499.094 348.799C503.86 347.603 506.341 353.795 510.526 355.43C513.2 356.47 516.167 356.472 518.843 355.437C520.55 354.821 519.817 352.057 518.1 352.683C516.622 353.3 515.002 353.498 513.418 353.254C511.835 353.01 510.35 352.335 509.126 351.301C507.745 350.065 507.015 348.233 505.576 347.053C502.538 344.569 498.875 345.848 495.547 346.987C494.631 347.351 493.695 347.662 492.743 347.92C490.837 348.393 482.272 348.489 488.671 342.023C490.175 340.51 492.949 339.739 494.84 338.8C499.355 336.565 509.843 329.042 514.474 332.497C515.942 333.592 517.338 331.127 515.927 330.043L515.974 330.062Z" fill="#102067"/>
<path d="M523.805 339.477C525.186 350.183 525.932 360.962 526.038 371.756C526.118 381.271 525.996 391.071 523.651 400.37C522.611 404.739 520.919 408.927 518.631 412.792C517.775 414.185 516.847 416.329 515.302 416.976C514.341 418.301 513.277 418.114 512.06 416.431C510.586 416.279 509.763 415.617 509.59 414.455C508.65 412.707 509.069 409.77 509.348 407.888C510.542 399.932 514.918 392.834 514.202 384.58C514.042 382.762 511.188 382.724 511.347 384.561C512.231 394.834 504.195 404.315 506.649 414.559C507.399 417.685 509.279 421.237 512.953 421.118C517.445 420.976 520.401 415.658 522.213 412.245C527.464 402.346 528.586 390.86 528.839 379.834C529.113 366.096 528.351 352.357 526.56 338.734C526.324 336.925 523.569 337.677 523.805 339.477Z" fill="#102067"/>
<path d="M484.242 328.235C480.64 329.039 478.352 334.067 477.19 337.18C476.344 339.435 475.85 341.807 475.725 344.212C475.571 347.427 476.983 351.261 475.003 354.15C473.956 355.675 476.421 357.118 477.458 355.612C479.601 352.486 478.594 349.292 478.551 345.753C478.51 341.842 480.278 332.044 484.986 330.99C486.777 330.583 486.034 327.829 484.242 328.235Z" fill="#102067"/>
<path d="M475.91 352.882C470.502 354.085 464.924 354.322 459.433 353.583C455.63 353.12 451.665 352.637 447.954 354.059C443.385 355.798 439.801 360.998 442.472 365.811C445.613 371.455 457.134 370.456 462.426 370.291C466.376 370.134 470.293 369.488 474.085 368.37C478.976 366.984 484.258 366.867 489.324 366.358C491.133 366.179 491.171 363.316 489.342 363.503C484.01 364.039 478.538 364.184 473.361 365.606C466.674 367.352 459.72 367.838 452.855 367.041C451.324 366.897 449.173 367.016 447.74 366.341C443.12 364.293 444.149 359.657 447.322 357.537C450.295 355.52 454.251 355.851 457.627 356.206C464.188 356.915 470.239 357.126 476.719 355.637C478.511 355.23 477.768 352.476 475.976 352.883L475.91 352.882Z" fill="#102067"/>
<path d="M511.785 379.068C501.661 392.036 486.245 402.287 469.747 404.766C466.4 405.838 464.995 403.869 465.675 398.859C466.564 398.019 467.524 397.258 468.545 396.585C470.142 395.473 471.813 394.466 473.513 393.516C476.932 391.636 480.493 389.937 484.016 388.219C490.698 384.971 497.144 381.474 502.413 376.152C503.706 374.847 501.702 372.817 500.409 374.121C492.295 382.308 481.243 385.784 471.453 391.409C468.091 393.29 463.422 395.752 461.741 399.48C460.389 402.478 461.223 405.985 464.402 407.319C467.951 408.808 472.729 407.165 476.208 406.207C481.053 404.859 485.744 403.008 490.204 400.686C499.56 395.766 507.747 388.892 514.212 380.53C515.344 379.082 512.87 377.667 511.757 379.068L511.785 379.068Z" fill="#102067"/>
<path d="M463.059 398.41C461.633 398.655 460.168 398.554 458.789 398.116C457.978 397.854 457.246 397.393 456.659 396.776C456.072 396.158 455.65 395.403 455.431 394.579C455.212 393.756 455.203 392.891 455.406 392.063C455.608 391.236 456.014 390.472 456.588 389.842C458.157 388.053 459.974 386.498 461.985 385.225C465.423 383.086 469.028 381.229 472.765 379.673C479.713 376.522 486.472 373.255 490.986 366.872C492.052 365.366 489.588 363.923 488.531 365.41C481.366 375.534 467.777 377.043 458.376 384.307C455.2 386.76 451.045 390.586 451.986 395.083C453.047 400.209 458.498 401.786 463.041 401.264C464.85 401.067 464.888 398.213 463.059 398.41Z" fill="#102067"/>
<path d="M423.375 287.845C425.204 280.388 431.407 276.147 437.372 272.019C442.272 268.732 446.646 264.722 450.344 260.125C458.644 249.59 466.215 234.293 481.529 233.823C483.356 233.768 483.384 230.914 481.548 230.968C466.833 231.423 458.528 244.194 450.721 254.904C448.407 258.226 445.787 261.324 442.895 264.158C439.305 267.541 435.035 270.015 431.114 272.948C426.237 276.608 422.117 281.015 420.63 287.066C420.19 288.852 422.935 289.631 423.375 287.845Z" fill="#102067"/>
<path d="M420.797 277.051C422.641 270.051 429.533 266.861 435.067 263.111C440.185 259.679 444.906 255.689 449.143 251.215C458.265 241.532 464.359 226.443 478.464 223.225C480.255 222.818 479.512 220.054 477.721 220.461C462.94 223.846 456.664 239.076 447.139 249.184C441.686 254.962 435.472 259.403 428.887 263.755C424.108 266.94 419.584 270.497 418.052 276.31C417.583 278.086 420.328 278.865 420.796 277.089L420.797 277.051Z" fill="#102067"/>
<path d="M419.375 266.726C427.134 256.045 440.249 251.412 449.218 241.966C458.043 232.68 463.577 220.3 474.887 213.59C476.463 212.649 475.043 210.166 473.467 211.117C461.869 218.024 456.211 230.47 447.213 239.964C438.216 249.457 424.89 254.317 416.92 265.273C415.835 266.76 418.3 268.203 419.375 266.726Z" fill="#102067"/>
<path d="M418.597 256.236C422.521 251.285 428.166 248.106 433.073 244.19C438.088 240.172 442.807 235.799 447.195 231.105C451.292 226.7 455.098 222.034 458.591 217.137C462.337 211.928 465.924 206.243 472.257 203.991C473.974 203.384 473.231 200.62 471.523 201.237C466.754 202.928 463.308 206.121 460.208 210.078C455.88 215.606 452.045 221.442 447.357 226.701C442.725 231.901 437.695 236.731 432.313 241.15C427.089 245.435 420.844 248.848 416.583 254.205C415.461 255.625 417.455 257.674 418.597 256.236Z" fill="#102067"/>
<path d="M418.36 245.711C428.318 239.268 438.315 232.626 445.543 223.054C452.772 213.483 457.387 201.953 467.264 194.758C468.727 193.683 467.287 191.19 465.834 192.284C457.085 198.668 452.17 208.093 446.335 216.951C438.8 228.395 428.274 235.928 416.93 243.266C415.392 244.264 416.803 246.738 418.36 245.739L418.36 245.711Z" fill="#102067"/>
<path d="M418.995 236.097C440.152 225.418 444.449 198.7 463.838 186.145C465.367 185.146 463.956 182.663 462.408 183.662C443.009 196.246 438.55 223.038 417.575 233.623C415.933 234.459 417.363 236.933 418.995 236.097Z" fill="#102067"/>
<path d="M416.028 225.383C420.544 226.05 424.155 222.42 427.2 219.472C430.875 215.771 434.196 211.734 437.119 207.415C443.958 197.755 450.089 187.206 460.473 180.928C462.04 179.987 460.62 177.494 459.043 178.445C450.817 183.443 445.03 190.988 439.631 198.792C436.652 203.102 433.778 207.498 430.497 211.577C427.859 214.861 421.58 223.355 416.798 222.657C415.011 222.398 414.212 225.143 416.028 225.402L416.028 225.383Z" fill="#102067"/>
<path d="M417.784 216.44C431.263 202.742 440.451 184.535 457.2 174.293C458.766 173.352 457.355 170.859 455.779 171.819C438.763 182.221 429.46 200.513 415.781 214.372C414.487 215.686 416.491 217.716 417.785 216.402L417.784 216.44Z" fill="#102067"/>
<path d="M414.88 206.394C430.536 195.802 438.792 177.579 454.599 167.207C456.128 166.209 454.717 163.725 453.179 164.733C437.334 175.095 429.097 193.338 413.459 203.92C411.949 204.938 413.36 207.421 414.88 206.394Z" fill="#102067"/>
<path d="M412.438 197.528C426.832 187.965 435.237 171.693 450.3 163.029C450.613 162.834 450.839 162.524 450.929 162.166C451.019 161.807 450.966 161.428 450.782 161.108C450.598 160.787 450.297 160.551 449.942 160.448C449.587 160.345 449.206 160.383 448.879 160.556C433.768 169.248 425.402 185.491 411.008 195.054C409.489 196.062 410.9 198.545 412.438 197.528Z" fill="#102067"/>
<path d="M406.09 196.574C412.968 192.489 417.578 185.993 422.301 179.744C427.916 172.369 433.31 162.576 442.014 158.551C443.685 157.782 442.245 155.308 440.594 156.078C433.388 159.408 428.965 166.296 424.31 172.421C418.55 180.043 413.076 189.103 404.66 194.1C404.332 194.289 404.092 194.602 403.995 194.968C403.897 195.334 403.948 195.724 404.138 196.052C404.328 196.38 404.64 196.619 405.006 196.717C405.372 196.815 405.762 196.763 406.09 196.574Z" fill="#102067"/>
<path d="M330.095 46.7375C326.272 49.3384 315.451 56.7363 311.559 69.86C309.613 76.2981 309.809 82.7789 309.944 88.2317C310.079 93.6845 310.204 99.3942 312.452 106.241C313.692 110.055 316.593 118.903 324.325 125.443C336.816 135.992 353.315 133.293 356.154 132.779C357.963 139.227 361.265 145.158 365.793 150.093C369.726 150.058 373.607 149.183 377.174 147.526C380.741 145.869 383.913 143.469 386.477 140.486C382.176 135.695 379.592 129.609 379.13 123.187C383.403 123.215 394.854 122.596 404.691 114.355C417.637 103.508 419.998 85.9113 416.97 73.1798C414.907 64.9651 410.523 57.5177 404.341 51.7266C385.316 33.4569 351.315 32.2436 330.095 46.7375Z" fill="white"/>
<path d="M308.48 88.9661C302.647 86.3996 297.882 81.8936 294.995 76.2132C289.576 65.2642 293.956 54.8269 294.69 53.1476C301.181 38.3855 317.982 36.1744 318.772 36.1226C319.378 30.4348 321.439 24.9989 324.756 20.339C327.759 16.2505 331.633 12.8799 336.097 10.4708C341.829 7.11175 351.754 1.32554 362.779 4.7663C374.611 8.43122 379.501 20.0999 380.297 22.0651C385.614 19.9189 391.467 19.4819 397.043 20.8148C398.877 21.274 409.658 24.1613 414.583 34.9454C417.23 40.9659 417.508 47.7633 415.362 53.9799C420.521 54.1626 425.46 56.1133 429.351 59.5048C435.027 64.6896 435.847 71.5742 436.47 76.7352C437.011 81.2297 437.697 86.905 434.555 92.9928C431.959 97.8322 427.783 101.636 422.723 103.771C424.068 106.753 424.519 110.061 424.021 113.294C421.934 125.288 404.778 129.447 401.366 130.272C396.105 131.55 389.586 133.134 384.635 129.21C381.104 126.437 380.066 122.225 379.718 120.129C383.375 114.882 387.029 109.632 390.679 104.379C395.414 103.928 399.947 102.242 403.824 99.4889C406.807 97.3391 410.632 94.5765 411.578 89.597C411.716 88.8463 412.755 82.8398 408.481 78.7204C405.086 75.444 399.686 74.6663 394.933 76.8234C392.117 75.8384 389.624 74.1011 387.725 71.7998C382.713 65.6203 384.41 57.915 384.664 56.8606C381.429 57.0965 378.182 56.6104 375.158 55.4374C363.892 51.0151 360.73 38.4158 360.351 36.8053C356.867 42.2626 352.203 46.8685 346.702 50.2835C338.406 55.2872 328.702 57.445 319.066 56.4289C313.431 66.4575 309.824 77.4971 308.452 88.9183L308.48 88.9661Z" fill="#FFDE59"/>
<path d="M349.564 59.7876L338.913 87.7764L347.91 95.7423C348.465 83.7574 349.016 71.7726 349.564 59.7876Z" fill="#102067"/>
<path d="M333.143 54.9637C327.994 55.0725 324.815 60.9602 325.859 62.8415C327.363 65.5726 339.606 63.3221 340.152 59.9194C340.545 57.9239 336.911 54.8838 333.143 54.9637Z" fill="#102067"/>
<path d="M358.219 57.2562C359.004 60.9816 373.723 62.6389 375.133 59.4703C376.099 57.3453 371.847 51.2565 365.984 51.4938C361.739 51.6657 357.758 55.1219 358.219 57.2562Z" fill="#102067"/>
<path d="M334.832 84.1556C336.324 84.1654 337.556 80.8721 337.583 76.7998C337.609 72.7275 336.421 69.4182 334.929 69.4084C333.436 69.3986 332.205 72.6919 332.178 76.7642C332.151 80.8365 333.339 84.1457 334.832 84.1556Z" fill="#102067"/>
<path d="M363.972 83.9837C365.465 83.9935 366.696 80.7002 366.723 76.6279C366.75 72.5556 365.562 69.2464 364.07 69.2365C362.577 69.2267 361.345 72.52 361.319 76.5923C361.292 80.6646 362.48 83.9739 363.972 83.9837Z" fill="#102067"/>
<path d="M319.108 55.8987C303.215 77.8301 305.03 112.942 328.531 129.281C339.547 136.965 354.793 136.694 366.751 131.435C372.713 128.76 378.009 124.798 382.259 119.833C386.508 114.868 389.605 109.024 391.328 102.72C391.395 102.367 391.328 102.002 391.139 101.697C390.95 101.391 390.653 101.167 390.308 101.069C389.962 100.972 389.592 101.007 389.271 101.168C388.95 101.329 388.702 101.605 388.574 101.941C386.989 107.765 384.151 113.174 380.258 117.787C376.365 122.401 371.511 126.109 366.036 128.652C354.144 134.074 338.767 133.963 328.308 125.55C307.854 109.021 306.803 77.7396 321.563 57.3611C322.639 55.8743 320.174 54.4309 319.108 55.9082L319.108 55.8987Z" fill="#102067"/>
<path d="M389.073 103.882C398.357 108.787 408.464 98.4535 411.42 90.3569C413.067 85.8388 412.792 81.3841 408.711 78.3411C406.782 76.8627 404.486 75.9398 402.071 75.6723C399.656 75.4049 397.214 75.803 395.009 76.8237C393.357 77.6311 394.787 80.1048 396.429 79.2973C399.866 77.6358 405.237 78.4038 407.92 81.3615C411.066 84.7885 409.007 89.6465 407.025 92.9731C404.052 97.9487 396.823 104.752 390.536 101.428C388.915 100.57 387.452 103.025 389.073 103.882Z" fill="#102067"/>
<path d="M355.632 134.757C356.734 140.913 359.927 146.5 364.673 150.573C366.064 151.762 368.104 149.768 366.703 148.56C362.309 144.833 359.357 139.688 358.359 134.014C358.028 132.213 355.273 132.956 355.604 134.757L355.632 134.757Z" fill="#102067"/>
<path d="M376.926 123.84C378.22 130.021 381.101 135.759 385.286 140.488C386.494 141.867 388.525 139.863 387.316 138.475C383.472 134.107 380.84 128.808 379.681 123.106C379.303 121.306 376.538 122.049 376.926 123.84Z" fill="#102067"/>
<path d="M365.506 150.274C372.933 153.881 384.012 147.655 386.772 140.328C387.421 138.61 384.676 137.85 384.027 139.559C381.984 144.978 372.47 150.491 366.959 147.819C365.318 147.019 363.846 149.464 365.506 150.274Z" fill="#102067"/>
<path d="M308.949 87.2254C296.59 85.6027 291.946 68.2649 294.278 57.9948C296.825 46.9936 306.613 38.8753 317.679 37.521C319.479 37.3045 319.516 34.4408 317.698 34.6667C304.527 36.2831 293.129 46.1129 291.052 59.5055C289.261 71.3395 295.458 88.3545 308.931 90.0702C310.756 90.301 310.756 87.4466 308.949 87.2159L308.949 87.2254Z" fill="#102067"/>
<path d="M320.156 35.6101C319.73 22.2106 335.953 9.3869 347.774 6.07747C361.263 2.30328 374.178 10.628 379.254 23.0971C379.938 24.7667 382.702 24.0713 382.009 22.3541C376.568 8.99769 363.127 -0.339052 348.47 2.96123C340.789 4.68041 333.993 9.34546 328.344 14.6841C322.455 20.2495 317.033 27.1024 317.301 35.5437C317.356 37.3804 320.21 37.4087 320.156 35.5625L320.156 35.6101Z" fill="#102067"/>
<path d="M382.089 24.1774C400.87 15.8139 420.741 32.8904 415.643 52.6855C415.185 54.4617 417.929 55.241 418.388 53.4647C424.16 31.048 401.693 12.337 380.659 21.7037C378.988 22.4444 380.419 24.9181 382.089 24.1774Z" fill="#102067"/>
<path d="M417.236 54.7919C428.437 57.4251 434.366 66.0464 435.368 77.1661C436.325 87.8384 433.13 97.7127 422.992 102.603C421.331 103.401 422.761 105.875 424.413 105.077C436.097 99.4448 439.486 87.6594 438.044 75.4711C436.646 63.7588 429.711 54.7884 418.005 52.0472C416.219 51.6263 415.44 54.371 417.236 54.7919Z" fill="#102067"/>
<path d="M378.826 124.435C384.872 135.483 399.263 133.475 409.054 129.286C419.15 124.957 427.435 115.392 424.523 103.841C424.143 102.316 421.591 102.566 421.666 104.203L421.762 105.422C421.903 107.24 424.757 107.268 424.617 105.44L424.52 104.222L421.72 104.584C424.4 115.22 416.02 123.49 406.851 127.103C398.542 130.378 386.377 132.363 381.253 123.014C380.369 121.4 377.895 122.821 378.779 124.434L378.826 124.435Z" fill="#102067"/>
<path d="M319.448 57.6789C327.17 58.2993 334.93 57.0805 342.09 54.1225C349.25 51.1644 355.607 46.5514 360.639 40.6618C361.828 39.271 359.834 37.2312 358.635 38.6315C353.862 44.2551 347.815 48.6583 340.998 51.4747C334.18 54.2912 326.789 55.4396 319.438 54.8244C317.603 54.6791 317.593 57.5335 319.419 57.6787L319.448 57.6789Z" fill="#102067"/>
<path d="M359.92 38.152C361.179 44.0764 364.391 49.4062 369.042 53.2863C373.693 57.1663 379.513 59.3716 385.567 59.5481C387.403 59.6363 387.422 56.782 385.586 56.6938C380.157 56.5289 374.943 54.5384 370.786 51.0442C366.629 47.55 363.771 42.7562 362.675 37.4375C362.278 35.6462 359.523 36.3797 359.92 38.1806L359.92 38.152Z" fill="#102067"/>
<path d="M384.219 57.8104C383.323 59.9449 382.907 62.2505 383.002 64.5634C383.097 66.8764 383.7 69.1401 384.768 71.194C385.836 73.2478 387.344 75.0414 389.183 76.4476C391.022 77.8537 393.148 78.8378 395.41 79.3302C397.196 79.7511 397.976 77.0065 396.189 76.5856C387.848 74.6277 383.781 66.5135 386.963 58.5896C387.65 56.8815 384.896 56.1307 384.219 57.8104Z" fill="#102067"/>
<path d="M401.846 81.8678C399.424 82.4343 397.215 83.6858 395.484 85.4728C393.753 87.2597 392.573 89.5069 392.084 91.9462C391.729 93.7421 394.474 94.5309 394.829 92.7254C395.192 90.7696 396.12 88.9631 397.5 87.5296C398.879 86.0961 400.649 85.0986 402.589 84.6605C404.381 84.2441 403.638 81.4894 401.846 81.8963L401.846 81.8678Z" fill="#102067"/>
<path d="M394.553 93.0241C395.568 92.0317 397.37 90.0836 398.991 90.922C400.888 91.886 398.627 94.2593 397.784 95.1291C396.509 96.4528 398.504 98.483 399.788 97.1689C401.867 95.0228 404.118 91.2888 401.07 88.8615C398.022 86.4342 394.732 88.8674 392.549 90.9843C392.278 91.25 392.124 91.6123 392.121 91.9914C392.118 92.3706 392.265 92.7355 392.531 93.006C392.796 93.2765 393.159 93.4304 393.538 93.4338C393.917 93.4372 394.282 93.2898 394.553 93.0241Z" fill="#102067"/>
<path d="M99.2268 101.479C107.279 98.2398 111.998 98.3945 120.494 98.6122L202.143 100.71C208.927 100.878 216.254 100.86 221.738 96.0816C229.011 89.7736 230.309 77.7366 230.988 67.0941C231.572 57.8687 231.416 46.764 224.864 41.7828C221.077 38.9034 216.147 39.0993 211.615 39.4215L60.4839 50.1394C57.1519 50.3744 53.6673 50.6655 50.8273 52.7686C44.2866 57.6256 44.5839 68.8454 45.6566 77.9009C46.8739 88.1372 49.0326 101.348 58.2932 105.396C62.6197 107.327 67.6317 104.848 71.7494 106.674C75.5446 108.354 75.6783 116.966 75.693 123.408C75.6655 123.736 75.7492 124.065 75.9304 124.341C76.1117 124.616 76.3803 124.823 76.693 124.928C77.0058 125.033 77.3448 125.03 77.6558 124.92C77.9668 124.81 78.2318 124.599 78.4085 124.32C83.8499 115.869 92.2717 104.24 99.2268 101.479Z" fill="white" stroke="#102067" stroke-width="2.70719" stroke-miterlimit="10"/>
<path d="M70.2904 85.3826L73.0049 66.2093L75.9558 66.0384L73.6204 82.5691L81.0549 82.1423L80.695 84.7755L70.2904 85.3826Z" fill="black"/>
<path d="M88.8757 84.6295C88.1667 84.7006 87.4505 84.6242 86.7724 84.4053C86.0942 84.1863 85.4687 83.8294 84.9351 83.3571C84.3829 82.796 83.9472 82.1312 83.6531 81.4009C83.3591 80.6707 83.2125 79.8894 83.2218 79.1023C83.1482 77.9311 83.2652 76.7558 83.5682 75.6222C83.8396 74.5708 84.2939 73.5754 84.9102 72.6814C85.4892 71.8526 86.2323 71.1515 87.0934 70.6216C87.9627 70.1043 88.9438 69.804 89.9538 69.746C90.6628 69.6767 91.3785 69.7538 92.0564 69.9727C92.7343 70.1916 93.3599 70.5475 93.8944 71.0184C94.447 71.5813 94.8827 72.2478 95.1768 72.9796C95.4708 73.7114 95.6173 74.4941 95.6077 75.2827C95.6857 76.4566 95.5719 77.6352 95.2708 78.7724C94.9953 79.8164 94.5413 80.8049 93.9288 81.6941C93.3552 82.5275 92.6111 83.2296 91.7457 83.754C90.8772 84.2809 89.8905 84.5819 88.8757 84.6295ZM88.958 82.2608C89.3922 82.2364 89.8172 82.1249 90.2075 81.9329C90.5978 81.741 90.9455 81.4725 91.23 81.1435C91.9098 80.2982 92.3268 79.2722 92.4294 78.1924L92.7585 75.9015C92.7902 75.7383 92.8103 75.5731 92.8188 75.4071C92.82 75.2264 92.8213 75.0361 92.8226 74.8363C92.8216 74.0758 92.5343 73.3435 92.0177 72.7853C91.7362 72.5305 91.4029 72.3395 91.0407 72.2255C90.6785 72.1114 90.2959 72.077 89.9191 72.1245C89.486 72.148 89.0622 72.2592 88.6733 72.4513C88.2844 72.6433 87.9385 72.9123 87.6566 73.2418C86.9697 74.0802 86.5488 75.1044 86.4478 76.1835L86.1187 78.4743C86.0923 78.6444 86.0753 78.8158 86.0677 78.9878C86.0525 79.1745 86.0512 79.3622 86.064 79.5491C86.0703 80.3104 86.3608 81.0419 86.8784 81.6002C87.1567 81.854 87.4867 82.0444 87.8457 82.1585C88.2047 82.2725 88.5842 82.3075 88.958 82.2608Z" fill="black"/>
<path d="M109.061 83.1335C108.516 83.1977 107.966 83.0548 107.522 82.7332C107.326 82.5721 107.168 82.3696 107.059 82.1402C106.95 81.9109 106.894 81.6603 106.893 81.4065C106.865 81.144 106.866 80.879 106.898 80.6169L106.978 80.0941L106.873 80.0934C106.47 81.1085 105.869 82.0329 105.104 82.8125C104.38 83.4548 103.449 83.8166 102.481 83.8323C101.903 83.8949 101.319 83.8147 100.779 83.5988C100.24 83.383 99.7618 83.0379 99.3868 82.594C98.5665 81.5305 98.1172 80.2275 98.1076 78.8844C98.0378 77.674 98.1225 76.4595 98.3598 75.2705C98.5781 74.1668 98.9739 73.1058 99.5319 72.1288C100.036 71.2472 100.718 70.4804 101.535 69.8775C102.352 69.3007 103.321 68.9763 104.32 68.9444C105.17 68.8754 106.019 69.0811 106.743 69.5312C107.084 69.7425 107.378 70.0209 107.609 70.3496C107.839 70.6782 108 71.0502 108.081 71.443L108.272 71.4442L108.601 69.0582L111.457 68.8962L109.78 80.7881L111.598 80.6859L111.269 83.0719L109.061 83.1335ZM103.458 81.3649C103.992 81.3429 104.511 81.1823 104.965 80.8991C105.401 80.6094 105.791 80.256 106.123 79.8506C106.874 78.919 107.347 77.7941 107.486 76.6055L107.895 73.7538C107.93 73.4323 107.893 73.1072 107.787 72.8016C107.671 72.4994 107.488 72.2279 107.25 72.0084C106.973 71.7648 106.651 71.5784 106.302 71.4598C105.891 71.3251 105.458 71.2738 105.028 71.3087C104.562 71.3132 104.102 71.4138 103.676 71.6042C103.251 71.7946 102.87 72.0706 102.556 72.4151C101.895 73.2536 101.492 74.2656 101.395 75.3285L101.096 77.3342C101.095 77.553 101.093 77.8004 101.044 78.0664C101.028 78.3135 101.026 78.5613 101.039 78.8086C101.045 79.5014 101.282 80.1724 101.712 80.7159C101.926 80.9584 102.196 81.1444 102.499 81.2576C102.802 81.3707 103.128 81.4076 103.449 81.3648L103.458 81.3649Z" fill="black"/>
<path d="M124.966 82.2214C124.425 82.2778 123.881 82.1356 123.437 81.8212C123.238 81.6619 123.077 81.46 122.967 81.2304C122.857 81.0008 122.799 80.7493 122.799 80.4945C122.77 80.2288 122.772 79.9606 122.804 79.6953L122.883 79.182L122.779 79.1813C122.386 80.2013 121.783 81.1276 121.01 81.9004C120.288 82.5465 119.356 82.9088 118.386 82.9202C117.809 82.9854 117.224 82.9064 116.684 82.6903C116.144 82.4743 115.666 82.1278 115.293 81.682C114.475 80.6171 114.026 79.315 114.013 77.9724C113.942 76.7646 114.03 75.5528 114.275 74.368C114.484 73.2602 114.877 72.1951 115.438 71.2168C115.945 70.3346 116.63 69.5678 117.451 68.9655C118.263 68.3869 119.229 68.0621 120.226 68.0323C121.078 67.9564 121.931 68.159 122.658 68.6097C122.997 68.8223 123.289 69.1013 123.518 69.4298C123.746 69.7583 123.906 70.1296 123.987 70.5214L124.12 70.5223L125.299 62.0905L128.154 61.9285L125.619 79.8565L127.438 79.7543L127.117 82.1404L124.966 82.2214ZM119.421 80.4437C119.946 80.4202 120.454 80.2524 120.89 79.9586C121.313 79.6672 121.696 79.321 122.029 78.929C122.785 78.015 123.258 76.9006 123.391 75.722L123.761 73.1079C123.833 72.7517 123.82 72.3836 123.725 72.0328C123.63 71.6821 123.455 71.3583 123.213 71.0872C122.9 70.8065 122.53 70.5982 122.128 70.4771C121.725 70.356 121.301 70.3252 120.886 70.3868C120.428 70.3956 119.976 70.4984 119.559 70.6887C119.142 70.8791 118.768 71.153 118.462 71.4936C117.801 72.332 117.398 73.344 117.301 74.407L117.011 76.4127C117.01 76.6315 116.961 76.8785 116.95 77.1354C116.938 77.3922 116.946 77.6491 116.945 77.887C116.957 78.5803 117.197 79.2504 117.627 79.7944C117.851 80.0396 118.131 80.2268 118.444 80.3399C118.756 80.453 119.092 80.4886 119.421 80.4437Z" fill="black"/>
<path d="M132.388 81.7943C131.816 81.862 131.24 81.7046 130.783 81.3555C130.59 81.1881 130.435 80.9814 130.328 80.7494C130.221 80.5174 130.165 80.2653 130.163 80.0099C130.143 79.7819 130.145 79.5525 130.168 79.3249L131.815 67.6612L134.671 67.4992L132.965 79.3813L134.783 79.2791L134.473 81.6843L132.388 81.7943ZM133.678 65.0188C133.274 65.0809 132.86 64.99 132.519 64.7638C132.401 64.6666 132.304 64.546 132.234 64.4097C132.165 64.2734 132.124 64.1242 132.115 63.9714C132.119 63.6529 132.147 63.335 132.197 63.0205C132.257 62.6173 132.435 62.2409 132.709 61.9392C133.084 61.6056 133.571 61.4253 134.073 61.4344C134.479 61.3796 134.89 61.4736 135.232 61.6989C135.351 61.7946 135.448 61.915 135.516 62.0518C135.584 62.1886 135.622 62.3385 135.627 62.4912C135.632 62.8102 135.604 63.1288 135.544 63.4422C135.489 63.8446 135.314 64.2212 135.042 64.5235C134.668 64.8579 134.18 65.0353 133.678 65.0188Z" fill="black"/>
<path d="M137.194 81.5136L139.191 67.2547L142.046 67.0927L141.589 70.1249L141.722 70.1257C142.093 69.147 142.674 68.2611 143.423 67.5299C144.142 66.9042 145.056 66.547 146.009 66.5193C146.495 66.457 146.989 66.5012 147.456 66.6489C147.923 66.7965 148.353 67.0441 148.715 67.3744C149.389 68.1311 149.762 69.1085 149.763 70.1216C149.781 70.4385 149.779 70.7563 149.756 71.073C149.755 71.3679 149.705 71.7006 149.655 72.0714L148.746 78.5259L150.46 78.423L150.13 80.8185L147.988 80.9376C147.473 80.9949 146.956 80.8593 146.535 80.557C146.343 80.3993 146.189 80.201 146.084 79.9766C145.978 79.7521 145.924 79.507 145.925 79.2589C145.926 79.1543 145.926 79.0592 145.927 78.9735C145.918 78.85 145.918 78.7259 145.929 78.6025L146.798 72.4236C146.869 71.926 146.894 71.423 146.874 70.9208C146.876 70.3996 146.69 69.8951 146.351 69.4997C146.156 69.3277 145.925 69.2003 145.676 69.1263C145.427 69.0524 145.164 69.0337 144.907 69.0715C144.433 69.1066 143.973 69.2452 143.559 69.4776C143.145 69.7099 142.787 70.0304 142.51 70.4164C142.116 70.8887 141.792 71.4153 141.548 71.9799C141.298 72.5283 141.13 73.1108 141.051 73.7084L139.964 81.3986L137.194 81.5136Z" fill="black"/>
<path d="M165.01 80.7619C165.046 81.3808 164.961 82.0008 164.76 82.5871C164.531 83.2253 164.137 83.791 163.617 84.2256C162.934 84.7869 162.149 85.2114 161.306 85.4758C160.098 85.8519 158.845 86.0645 157.581 86.1078C156.05 86.3116 154.493 86.1111 153.065 85.5263C152.644 85.3292 152.285 85.0213 152.026 84.6358C151.767 84.2503 151.618 83.8015 151.595 83.3377C151.557 82.9827 151.596 82.6238 151.708 82.285C151.82 81.9461 152.003 81.635 152.245 81.3725C152.824 80.7926 153.541 80.3686 154.328 80.1397L154.329 79.9494C153.899 79.8747 153.511 79.6454 153.239 79.3048C153.004 78.954 152.871 78.5445 152.857 78.1225C152.831 77.7881 152.881 77.4523 153.003 77.14C153.126 76.8278 153.317 76.5473 153.563 76.3193C154.149 75.7866 154.863 75.4144 155.635 75.2388L155.636 75.0485C154.983 74.7415 154.433 74.2511 154.053 73.637C153.674 73.0229 153.481 72.3117 153.499 71.5901C153.45 70.868 153.549 70.1435 153.789 69.4607C154.023 68.779 154.4 68.1553 154.895 67.6316C155.436 67.0689 156.087 66.6231 156.807 66.3217C157.638 65.9706 158.526 65.7733 159.428 65.7395C159.888 65.705 160.351 65.724 160.807 65.7962C161.214 65.8527 161.615 65.9477 162.004 66.08L162.064 65.6332C162.244 64.2833 162.906 63.574 164.067 63.5055L166.133 63.3859L165.803 65.7719L163.166 65.9259L163.056 66.7244C163.489 67.0678 163.84 67.5025 164.086 67.9976C164.331 68.4927 164.463 69.0358 164.474 69.5881C164.52 70.3077 164.418 71.0291 164.175 71.7079C163.928 72.3842 163.541 73.0008 163.04 73.5178C162.498 74.0791 161.847 74.5247 161.128 74.8277C160.291 75.1809 159.397 75.3813 158.489 75.4193C157.971 75.4548 157.451 75.4323 156.938 75.352C156.494 75.4759 156.078 75.6866 155.716 75.9719C155.569 76.0915 155.454 76.2442 155.378 76.4174C155.302 76.5907 155.269 76.7795 155.281 76.9681C155.277 77.6056 155.903 77.9237 157.026 77.8169L160.311 77.6292C161.508 77.4628 162.727 77.6948 163.779 78.2895C164.167 78.5733 164.481 78.9459 164.695 79.3761C164.909 79.8063 165.017 80.2815 165.01 80.7619ZM162.197 81.5426C162.197 81.3412 162.15 81.1426 162.06 80.9622C161.971 80.7817 161.841 80.6243 161.681 80.5021C161.166 80.2278 160.575 80.1303 159.998 80.2246L155.239 80.4978C154.865 80.7128 154.554 81.0225 154.338 81.3957C154.156 81.7227 154.074 82.0961 154.103 82.4694C154.115 82.7195 154.186 82.9632 154.31 83.1806C154.435 83.3981 154.609 83.583 154.818 83.7205C155.476 84.0698 156.229 84.1982 156.966 84.0867L158.461 84.0014C159.511 84.0246 160.544 83.7403 161.435 83.1836C161.688 82.9949 161.891 82.7461 162.024 82.4596C162.157 82.1731 162.216 81.858 162.197 81.5426ZM158.692 73.375C159.436 73.3772 160.155 73.1078 160.715 72.6176C161.188 72.142 161.488 71.5203 161.564 70.8534C161.566 70.4919 161.644 70.207 161.655 70.0168C161.665 69.8265 161.657 69.6647 161.658 69.541C161.659 69.2855 161.604 69.0329 161.495 68.8017C161.386 68.5705 161.227 68.3665 161.029 68.2048C160.503 67.8657 159.872 67.7266 159.252 67.8126C158.507 67.8097 157.786 68.0752 157.221 68.5604C156.743 69.0371 156.443 69.6631 156.371 70.334C156.318 70.6262 156.284 70.9216 156.27 71.2182C156.269 71.38 156.268 71.5322 156.268 71.6559C156.268 71.9111 156.325 72.163 156.433 72.3939C156.542 72.6248 156.7 72.829 156.896 72.9921C157.43 73.33 158.067 73.4659 158.692 73.375Z" fill="black"/>
<path d="M178.861 75.6407C178.308 75.2973 177.66 75.1409 177.012 75.1949C176.364 75.249 175.75 75.5104 175.262 75.9405C174.801 76.3983 174.516 77.0041 174.458 77.6512C174.4 78.2983 174.572 78.9452 174.944 79.4779C175.348 79.9845 175.932 80.3166 176.574 80.4058C177.216 80.495 177.868 80.3345 178.395 79.9573C178.64 79.7512 178.84 79.4971 178.984 79.2107C179.127 78.9243 179.21 78.6116 179.229 78.2919C179.247 77.9721 179.199 77.652 179.089 77.3513C178.979 77.0505 178.809 76.7754 178.589 76.5428" stroke="#102067" stroke-width="2.70719" stroke-miterlimit="10" stroke-linecap="round"/>
<path d="M192.736 75.7297C192.185 75.3856 191.538 75.2288 190.891 75.2828C190.244 75.3369 189.632 75.5989 189.146 76.0296C188.684 76.4862 188.398 77.0914 188.338 77.7385C188.278 78.3856 188.448 79.0331 188.819 79.5669C189.226 80.0722 189.811 80.4032 190.454 80.4923C191.097 80.5814 191.75 80.4219 192.279 80.0464C192.523 79.8388 192.721 79.5839 192.863 79.2972C193.005 79.0105 193.087 78.698 193.104 78.3786C193.121 78.0593 193.073 77.7398 192.963 77.4395C192.853 77.1392 192.683 76.8644 192.463 76.6318" stroke="#102067" stroke-width="2.70719" stroke-miterlimit="10" stroke-linecap="round"/>
<path d="M206.607 75.8196C206.056 75.4754 205.409 75.3186 204.762 75.3727C204.115 75.4267 203.503 75.6887 203.018 76.1195C202.555 76.576 202.269 77.1812 202.209 77.8283C202.149 78.4755 202.319 79.123 202.69 79.6568C203.097 80.1621 203.682 80.493 204.325 80.5821C204.968 80.6712 205.621 80.5117 206.15 80.1363C206.394 79.9293 206.594 79.675 206.736 79.3886C206.879 79.1023 206.962 78.7899 206.98 78.4706C206.998 78.1512 206.951 77.8315 206.842 77.5309C206.732 77.2302 206.563 76.9549 206.344 76.7217" stroke="#102067" stroke-width="2.70719" stroke-miterlimit="10" stroke-linecap="round"/>
</g>
<defs>
<clipPath id="clip0_1424_11562">
<rect width="536.023" height="736.355" fill="white" transform="translate(5.34766) rotate(0.377092)"/>
</clipPath>
</defs>
</svg>
