<svg width="47" height="47" viewBox="0 0 47 47" fill="none" xmlns="http://www.w3.org/2000/svg">
<path d="M5.40817 30.0708H4.75103L4.52484 30.0255H4.50252C3.59921 27.6887 3.13899 25.2042 3.14539 22.6988C3.14774 21.9509 3.19033 21.2036 3.27258 20.4605L3.2952 20.5397L3.39684 20.788L3.49848 21.0706L3.70234 21.4668L3.79252 21.693L3.89416 21.8734L4.15442 22.2465L4.3013 22.4277L4.4282 22.6086L5.38994 23.558L5.55883 23.7055L5.94366 23.9652L6.13399 24.0921L6.89187 24.5444L7.17444 24.6461L7.77372 24.8723L7.97701 24.9742L8.16764 25.0418L8.39381 25.0982L8.61972 25.166L8.82357 25.2227L9.04974 25.2677L9.30943 25.302L9.53565 25.3243L9.6828 25.3699L9.76151 25.4715L9.72804 25.6748L9.6264 25.8787L9.55827 26.1048L9.3773 26.4776L9.2504 26.7041L9.14875 26.9303L9.02154 27.1336L8.92021 27.303L8.6488 27.7102L8.54658 27.8371L8.38854 28.0632L8.26164 28.2665L8.13443 28.4475L7.98754 28.617L7.47968 29.1252L7.12925 29.3734L6.93856 29.5003L6.55466 29.7265L6.35137 29.8281L6.07934 29.9303L5.85317 30.009L5.62726 30.032L5.40817 30.0708ZM5.08032 19.6109L5.02363 19.3847L5.00072 19.1359V18.4576L5.05741 18.0053L5.10265 17.7456L5.18195 17.4181L5.30885 17.045L5.43606 16.7398L5.5374 16.5492L5.76356 16.2889L6.06906 16.0178L6.41955 15.7916L6.79286 15.5883L7.17713 15.4614L7.49466 15.405L7.75461 15.3821L8.08216 15.405L8.47784 15.4614L8.80565 15.5407L9.03187 15.6309L9.23485 15.7325L9.40431 15.8686L9.6076 16.0154L9.76564 16.1846L9.89285 16.3206L10.0198 16.4901L10.1469 16.6934L10.2486 16.9196L10.3499 17.1907L10.4771 17.4962L10.5564 17.7224L10.6466 18.1745L10.7033 18.502L10.7483 18.8075L10.782 19.0566L10.8047 19.3621V20.7186L10.7483 21.0124V21.2386L10.6804 21.9283L10.6466 22.1771L10.6237 22.4712L10.5787 22.799L10.4204 23.4772L10.3302 23.7599L10.1493 23.9293L9.946 23.9631L9.71983 23.9064L9.47099 23.8615L8.83592 23.6582L8.58713 23.5566L8.44024 23.5116L8.15767 23.3844L8.01104 23.328L7.76225 23.2008L7.58102 23.0739L7.37804 22.947L7.20827 22.8199L7.00524 22.6618L6.82401 22.5149L6.47357 22.1645L6.37193 22.0376L6.20247 21.8566L5.89697 21.5059L5.79533 21.3026L5.66843 21.0764L5.54122 20.9072L5.43957 20.704L5.33793 20.4778L5.25865 20.2745L5.11175 19.8224L5.08032 19.6109ZM41.9037 31.395C40.6761 33.9903 38.9135 36.2967 36.7317 38.1629C34.5499 40.029 31.9981 41.4126 29.2438 42.223C26.4895 43.0333 23.595 43.252 20.7502 42.8647C17.9054 42.4775 15.1747 41.4931 12.7372 39.976C9.4777 37.9474 6.8581 35.0387 5.18051 31.5854H5.24837L5.47454 31.551L5.73423 31.529L5.88168 31.506L6.12991 31.4831L6.35664 31.4044L6.58286 31.3594L6.80877 31.2799L7.01201 31.2235L7.23823 31.1556L7.44177 31.0539L7.66794 30.9267L7.97287 30.7458L8.2446 30.5992L8.44788 30.472L8.79832 30.1668L9.12613 29.839L9.27333 29.7121L9.45425 29.5423L9.62407 29.3843L9.78206 29.2148L9.90896 29.0109L10.2145 28.6602L10.3385 28.4798L10.4859 28.2533L10.5873 28.1262L10.8364 27.719L10.938 27.4928L11.0649 27.2669L11.1436 27.14L11.5173 26.3821L11.6441 26.0884L11.7229 25.8622L11.9268 25.4551L12.0737 25.3282L12.2772 25.2829L12.5034 25.2486L12.7516 25.2036L13.0122 25.1249L13.2384 25.0791L13.4287 25.0227L13.632 24.9551L13.8808 24.8194L14.0388 24.7744L14.2879 24.6722L14.4912 24.5932L14.7174 24.503L15.1695 24.2765L15.2964 24.1978L15.5455 24.0962L15.7264 23.9831L15.7035 24.0504L15.6583 24.2765L15.5002 24.7292L15.4553 24.9199L15.4095 25.146L15.3308 25.372L15.2744 25.5981L15.2285 25.802L15.1269 26.2541L15.0481 26.4803L14.9571 26.91L14.8787 27.1362L14.7762 27.5885L14.7541 27.8145L14.6974 28.0177L14.6748 28.2439L14.5955 28.4704L14.5502 28.6966L14.4715 28.9228L14.4486 29.1487L14.4034 29.352L14.3241 29.5778L14.2791 29.8041L14.1998 30.0302L14.1775 30.2561L14.0759 30.7091L14.0979 31.0137L14.2251 31.2399L14.4512 31.3421L14.7567 31.3873L15.1522 31.3645L15.5816 31.2628L15.9097 31.0595L16.091 30.8327L16.1926 30.6069L16.2146 30.3807L16.2605 30.1545L16.2828 29.9286L16.4408 29.25L16.4866 28.9792L16.543 28.8432L16.6109 28.572L16.6447 28.3459L16.6896 28.1196L16.7349 27.9161L16.8142 27.6899L16.8706 27.4637L16.9387 27.2375L16.9951 27.0116L17.0633 26.6841L17.142 26.3786L17.2213 26.1524L17.3229 25.9262L17.5133 25.5306L17.5923 25.3041L17.7192 25.1008L17.8214 24.8975L17.9683 24.6937L18.1264 24.4675L18.228 24.3406L18.3752 24.1373L18.5221 23.9678L18.649 23.7869L18.8299 23.6174L19.0561 23.4132L19.3836 23.1421L19.7343 22.8824L19.9382 22.7555L20.1192 22.6283L20.3095 22.5267L20.5357 22.4244L20.7396 22.3572L21.1919 22.255L21.4408 22.2215L21.6669 22.2779L21.8699 22.3572L22.0738 22.4844L22.2206 22.6547L22.3 22.9594L22.322 23.2649L22.2544 23.4911L22.1754 23.6814L22.0738 23.8847L21.9469 24.0885L21.8197 24.2689L21.6617 24.4393L21.3679 24.7439L20.4625 25.4222L20.18 25.5917L19.9317 25.7726L19.2967 26.0781L19.1063 26.205L18.8687 26.3066L18.6196 26.4535L18.4507 26.6345L18.3713 26.8607V27.0868L18.3943 27.3133V28.0119L18.4507 28.4648L18.473 28.713L18.4959 28.9393L18.5975 29.3913L18.6768 29.6172L18.7444 29.821L18.948 30.2506L19.1965 30.6576L19.3322 30.8272L19.5017 30.9744L19.683 31.1098L19.8733 31.2367L20.0766 31.3389L20.3027 31.4064L20.5066 31.4858L20.7328 31.5087L21.0151 31.5307H21.4337L21.6599 31.5087L21.8861 31.4291L22.315 31.3022L22.5191 31.2343L22.926 30.9744L23.2767 30.7255L23.6042 30.3977L23.774 30.2506L23.977 30.0473L24.5316 29.4257L24.6784 29.2444L24.8053 29.0635L25.1863 28.4648L25.3559 28.2157L25.5368 27.9331L25.7859 27.5375L25.8875 27.3113L26.0144 27.0281L26.1954 26.6786L26.2632 26.5308L26.3308 26.4295L26.3986 26.3022L26.4216 26.2573L26.5232 26.0197L26.6501 25.7708L26.777 25.4994L26.9121 25.1939L27.0032 24.9678L27.1392 24.6854L27.2629 24.3914L27.331 24.1652L27.4103 23.962L27.489 23.7357L27.7158 23.1365L27.7831 22.9103L27.8395 22.7071L27.8853 22.4806L27.964 22.2544L28.0093 22.0282L28.1115 21.802L28.3148 21.7456L28.5183 21.9039L28.6652 22.0743L29.0724 22.5261L29.2189 22.7294L29.4677 23.1365L29.5244 23.4305L29.4451 23.8148L29.318 24.0865L29.0462 24.4936L28.8429 24.8435L28.6958 25.0473L28.4925 25.3185L28.3345 25.5896L28.2073 25.8272L28.0378 26.0763L27.8568 26.3475L27.7296 26.5737L27.5828 26.856L27.4561 27.128L27.3545 27.3542L27.2752 27.5571L27.1959 27.7833L27.094 28.6881V28.9143L27.1283 29.1405L27.1733 29.3666L27.2185 29.6149L27.2749 29.8417L27.3765 30.0446L27.4782 30.2708L27.6054 30.4518L27.7525 30.655L27.9106 30.8025L28.0804 30.949L28.4534 31.1981L28.7134 31.3339L28.9173 31.4012L29.4146 31.5034L29.7421 31.5257H30.3191L30.5678 31.4805L30.7711 31.4241L30.997 31.3562L31.2009 31.2545L31.4271 31.153L31.8342 30.949L32.0601 30.8025L32.2508 30.655L32.5563 30.3501L32.7372 30.2029L33.0312 29.8417L33.2122 29.5926L33.4155 29.3214L33.7095 28.9143L33.8364 28.7239L33.8479 28.8934L33.8931 29.2209L33.9266 29.47L33.9947 29.7976L34.1528 30.1712L34.3002 30.4538L34.4271 30.6568L34.554 30.8266L34.9048 31.1321L35.0851 31.259L35.289 31.3383L35.5149 31.4056L35.8089 31.4852L36.1144 31.5301L36.3629 31.5645L36.815 31.5078L37.1435 31.4284L37.5503 31.3015L37.923 31.1321L38.2057 30.9509L38.4095 30.824L38.5793 30.6971L38.7596 30.5495L38.9068 30.3916L39.0878 30.244L39.215 30.0637L39.3615 29.8942L39.4888 29.7133L39.6468 29.5437L39.8956 29.1931L40.1447 28.7862L40.2683 28.6049L40.348 28.6616L40.325 28.9671L40.2913 29.2844V29.5449L40.325 29.8727L40.3929 30.1668L40.4722 30.3927L40.642 30.6753L40.8229 30.9244L41.0039 31.071L41.1734 31.1981L41.3996 31.2775L41.7045 31.3562L41.9037 31.395Z" fill="#17161A"/>
<path d="M43.7945 21.2738L43.1729 20.9912L42.9012 20.9233L42.675 20.8667L42.1213 20.765L41.5446 20.7201L41.0364 20.6972H40.7309L40.505 20.7201L39.8832 20.765L39.6344 20.8437L39.3289 20.9231L39.024 21.0136L38.7749 21.1492L38.4923 21.2961L38.1982 21.423L37.9724 21.5252L37.7914 21.6521L37.5881 21.7794L37.2374 22.0619L36.9662 22.2523L36.7403 22.4785L36.3896 22.784L36.2087 22.9873L36.107 23.0889L35.7789 23.4623L35.632 23.6432L35.3832 23.9939L35.256 24.1969L35.1209 24.3667L34.9937 24.5706L34.3945 25.7802L34.383 25.8252L34.3154 26.0285L34.2132 26.2323L34.2026 26.2546L34.0552 26.5034L33.9873 26.6618L33.8601 26.8879L33.7585 27.0783L33.6316 27.2822L33.5047 27.5083L33.3693 27.6887L32.9959 28.288L32.5439 28.8196L32.397 29.0229L32.2384 29.1701L32.0694 29.317L31.8656 29.475L31.4928 29.7241L31.3118 29.851L31.0857 29.9527L30.8595 30.032L30.6327 30.0772H30.1583L29.898 30.032L29.7074 29.9051L29.5265 29.7467L29.3996 29.5208L29.2727 29.317L29.171 28.8196V28.5709L29.193 28.3447L29.2497 28.1185L29.2953 27.8588L29.3519 27.632L29.4192 27.4417L29.4985 27.2155L29.9286 26.3563L30.0555 26.1524L30.2029 25.9491L30.3298 25.7588L30.4879 25.5555L30.6151 25.3743L30.742 25.1704L30.8888 25.0009L31.1377 24.5941L31.2957 24.4243L31.3973 24.221L31.4655 23.9948L31.4996 23.7689L31.4202 23.4408L31.3409 23.1359L31.273 22.9097L31.0131 22.5134L30.8665 22.3331L30.6855 22.1856L30.5161 21.9826L30.4139 21.8554L30.2335 21.6516L29.9051 21.324L29.7356 21.1772L29.453 20.8491L29.2832 20.6458L29.1023 20.4983L28.9328 20.318L28.8055 20.1485L28.7491 19.9446V19.7413L28.8055 19.4925V18.814L28.7268 18.5881L28.6305 18.3798L28.4836 18.2329L28.2806 18.0972L28.0539 18.0523H27.8277L27.6015 18.0972L27.3985 18.1988L27.2173 18.3574L27.0707 18.5273L26.9438 18.7076L26.8416 18.9341L26.7963 19.1603V19.3865L26.8193 19.6127L27.0454 20.2906L27.2487 20.6978L27.2942 20.8884V21.1146L27.2484 21.3743L27.1697 21.6004L27.1248 21.8264L27.068 22.0167L27.0225 22.2429L26.9208 22.4691L26.8644 22.6953L26.7963 22.9326L26.7399 23.1588L26.5366 23.6109L26.4688 23.8012L26.3895 24.0274L26.2875 24.2536L26.2082 24.4798L26.1181 24.6828L26.0164 24.9319L25.9371 25.0899L25.7338 25.5426L25.6659 25.7688L25.6431 25.8363L25.6316 25.8475L25.53 26.0737L25.2025 26.7182L25.1572 26.8454L25.0215 27.105L24.8943 27.2954L24.7474 27.4763L24.3743 28.0759L23.8203 28.8332L23.6934 29.0138L23.3656 29.3422L23.0037 29.6357L22.608 29.8959L22.4048 29.9976L22.1783 30.0658L21.9298 30.1222H21.681L21.3531 30.0886L21.0027 29.9412L20.6749 29.6701L20.4146 29.3422L20.2451 28.9574L20.1658 28.6637L20.1206 28.4375L20.0983 28.1097L20.0642 27.7025L20.0419 27.375L20.0642 27.1711L20.1658 27.0242L20.392 26.8973L20.5506 26.8745L20.7988 26.7728L21.025 26.6712L21.2289 26.5695L21.3983 26.4673L21.7794 26.2411L21.9697 26.1142L22.151 25.9873L22.5237 25.6818L22.7047 25.535L22.8518 25.433L23.0331 25.2861L23.1796 25.1281L23.3265 24.9583L23.4851 24.7548L23.6088 24.5515L23.7792 24.3024L23.9372 24.0198L24.0389 23.7936L24.1067 23.6033L24.1858 23.377L24.2422 23.0495L24.288 22.744V22.5178L24.2651 22.2917L24.2084 22.0655L24.1634 21.8619L24.0618 21.6357L23.9349 21.4327L23.7765 21.2629L23.6294 21.136L23.4596 20.978L23.2787 20.8508L23.0525 20.7715L22.6004 20.6813H22.3742L21.676 20.7042L21.416 20.7492L21.1898 20.8059L21.0197 20.8508L20.7935 20.9301L20.5906 21.0573L19.991 21.3854L19.5839 21.634L19.3577 21.8149L19.1767 21.9418L19.0299 22.069L18.7023 22.3965L18.5754 22.566L18.2699 22.9282L18.0437 23.2219H17.9988L18.0437 23.0751L18.1004 22.8489L18.1683 22.6227L18.2476 22.4194L18.3945 21.7412L18.4738 21.515L18.5754 21.3114L18.6206 21.0852L18.7 20.859L18.7564 20.6329L18.8016 20.4293L18.9485 19.9769L19.0278 19.7736L19.1071 19.5474L19.1744 19.3571L19.2537 19.1309L19.333 18.9279L19.4799 18.4749L19.6271 18.0458L19.7851 17.5934L19.8532 17.3899L19.9319 17.1636L20.0113 16.9154L20.0565 16.768L20.1582 16.5083L20.2146 16.2821L20.2824 16.0917L20.4407 15.6279L20.5083 15.4376L20.6355 15.2114L20.6922 15.0533L20.7938 14.8272L20.8394 14.601L20.7715 14.4315L20.5906 14.2735L20.3415 14.1712L20.1834 14.126L19.9123 14.0467L19.6861 14.0246H19.4599L19.2335 14.0467L19.053 14.2053L18.8836 14.4538L18.7564 14.7593L18.6547 14.9855L18.5525 15.1759L18.4509 15.402L18.3722 15.6053L18.2699 15.8092L18.2021 16.0121L18.1004 16.2384L18.0217 16.4422L17.9424 16.6904L17.8972 16.8379L17.7955 17.0867L17.7497 17.267L17.6484 17.4709L17.5467 17.72L17.4674 17.9462L17.3993 18.1492L17.3429 18.3754L17.2641 18.6016L17.196 18.8054L17.1396 19.0316L17.0717 19.2575L17.015 19.4837L16.9701 19.6867L16.8118 20.1396L16.6214 20.7612L16.5421 20.9874L16.4631 21.1907L16.3159 21.6427L16.2595 21.8466L16.1126 22.5249L16.0333 22.7511L15.9995 22.9091L15.9546 22.8753L15.7508 22.8983L15.5245 22.9999L15.2984 23.1268L15.1512 23.2058L14.925 23.3327L14.6424 23.4343L14.3149 23.5612L14.0437 23.6629L13.5685 23.7898L13.4104 23.8465L13.1387 23.9143L12.9125 23.971H12.6299L12.4831 23.8127V23.5415L12.5621 23.3154L12.6076 23.0889L12.6299 22.8856L12.6643 22.6594L12.7092 22.4106L12.7545 22.0828L12.8109 21.7773L12.8561 21.5511V21.2803L12.8902 21.1219V20.8502L12.9354 20.647L12.9583 20.4207L12.9918 20.172V19.9458L12.9354 19.4937V19.2675L12.9125 19.0413L12.8902 18.7925L12.8561 18.6344L12.8338 18.3633L12.7545 18.0578L12.7092 17.73L12.6076 17.2773L12.5283 17.0512L12.4604 16.8482L12.2572 16.4525L12.1555 16.2263L12.0533 16.0224L11.9264 15.8415L11.7992 15.6382L11.6723 15.4687L11.3668 15.118L11.1973 14.9599L11.0164 14.833L10.7678 14.6856L10.3381 14.4373L10.0666 14.2793L9.6031 14.1318L9.37693 14.0302L9.05971 13.9509L8.75477 13.9057L8.24661 13.8827L7.85088 13.8263H7.27458L6.96965 13.8493L6.72055 13.9057L6.41505 13.985L6.0875 14.0526L5.86133 14.1318L5.1628 14.4823L4.81235 14.6856L4.7442 14.7423C6.53126 10.5359 9.68222 7.05348 13.6895 4.85606C17.6968 2.65862 22.3272 1.87407 26.8347 2.62879C31.3422 3.38351 35.4644 5.63357 38.5374 9.01648C41.6104 12.3994 43.4551 16.7182 43.7745 21.2773L43.7948 21.2735L43.7945 21.2738Z" fill="#17161A"/>
<path d="M43.8395 23.0962C43.8056 25.4235 43.3656 27.727 42.5394 29.903H42.4938L42.2454 29.7758L42.1185 29.5725L42.0955 29.2444L42.1185 28.8634L42.1863 28.4448L42.265 28.0638L42.3217 27.7924L42.3672 27.5321L42.446 27.2384L42.5482 26.8089L42.5934 26.5827L42.6722 26.2772L42.6951 26.1303L42.74 25.8815L42.8983 25.4295L42.9439 25.2256L43.0226 24.9994L43.1243 24.5473L43.1924 24.3211L43.2488 24.095L43.3166 23.892L43.2946 23.6652L43.1924 23.5183L43.0017 23.3914L42.5946 23.1884L42.3687 23.1317L42.1425 23.1088L41.9164 23.1655L41.6676 23.2924L41.5095 23.5186L41.4414 23.7674L41.3397 24.0386L41.1811 24.5467L41.0909 24.8179L41.0116 25.0441L40.9329 25.2479L40.8303 25.4741L40.7854 25.6551L40.6838 25.8812L40.3783 26.5363L40.2766 26.6838L40.1072 27.0113L39.9491 27.2833L39.5754 27.8934L39.4485 28.0632L39.166 28.4442L39.0391 28.6137L38.8922 28.7947L38.7653 28.9642L38.6184 29.1454L38.4375 29.2925L38.2903 29.4506L37.9402 29.7446L37.5333 29.9479L37.3071 30.0272L36.9787 30.0496L36.6741 30.0046L36.4473 29.903L36.3004 29.7446L36.1735 29.5543L36.0719 29.351L35.9926 29.1248L35.9703 28.8646V28.166L36.049 27.4875L36.1171 27.2386L36.2752 26.5604L36.3774 26.3574L36.4676 26.1312L36.6256 25.6786L36.7528 25.4753L37.0583 24.8757L37.1852 24.6724L37.3121 24.4915L37.617 24.1408L37.7439 23.9713L37.8914 23.7903L38.0718 23.5871L38.174 23.4854L38.3646 23.3159L38.5456 23.1684L38.715 23.0328L38.9189 22.9056L39.0993 22.7787L39.3481 22.6315L39.5972 22.5043L40.2323 22.2781L40.5598 22.1994L40.8089 22.1767L40.9898 22.1544H41.4872L41.736 22.1994L41.9959 22.2784L42.4142 22.3806L42.6175 22.4256L42.8437 22.5272L43.0476 22.6288L43.2285 22.6967L43.4189 22.8327L43.6451 22.9596L43.8395 23.0962ZM4.50466 30.0249L4.22177 29.9685L3.89366 29.9006L3.66747 29.821L3.47712 29.7197L3.29587 29.5925L2.94543 29.2878L2.79797 29.1181L2.66284 28.9595L2.51538 28.7688L2.3124 28.3617L2.24425 28.1355L2.14261 27.8073L2.0633 27.4002L2.01836 27.0727L1.96166 26.8465L1.93875 26.6203V26.1682L1.91672 25.9194V25.6932L1.96166 25.2409V25.0373L1.98457 24.8111L2.04097 24.5849L2.0633 24.3587L2.10854 24.1328L2.18785 23.8053L2.26716 23.5113L2.3124 23.2851L2.39171 23.0589L2.49335 22.855L2.59499 22.6068L2.66255 22.4482L2.79797 22.1203L2.92516 21.8263V21.6001L2.79797 21.3175L2.59499 21.1145L2.39171 20.9874L2.18785 20.9195L1.96166 20.8857L1.69053 20.9645L1.43027 21.1119L1.30307 21.2923L1.17617 21.4961L1.07395 21.7223L0.972311 21.9253L0.870672 22.1521L0.779611 22.3427L0.678267 22.5689L0.576633 22.8512L0.418593 23.3491L0.327531 23.6317L0.248806 23.8808L0.192406 24.107L0.146581 24.31L0.12455 24.5361L0.0678561 24.785L0.0229125 25.2373V25.9359L0 26.1621V26.6476L0.0678561 27.3265L0.12455 27.5527L0.146581 27.7789L0.192406 28.0051L0.350443 28.4571L0.418593 28.6601L0.520233 28.8863L0.599544 29.077L0.723211 29.3031L0.870672 29.5854L1.05162 29.8345L1.1985 30.0378L1.35654 30.185L1.52603 30.3433L1.68466 30.4905L1.87559 30.6708L2.38349 31.0216L2.60967 31.1485L2.81266 31.2163L3.03884 31.2956L3.33259 31.3744L3.96797 31.5015L4.25056 31.5245L4.54431 31.5809H5.17971C4.93177 31.0725 4.70653 30.5533 4.50466 30.0249ZM26.3247 26.452L26.3926 26.3503V26.3275L26.325 26.452H26.3247ZM26.2586 26.556L26.191 26.7035L26.2474 26.6012L26.3261 26.4544L26.2586 26.556Z" fill="#17161A"/>
<path d="M34.3193 26L34.217 26.2033V26.2262L34.3193 26.0223L34.3868 25.8191L34.3193 26ZM46.9711 25.8528L46.7672 25.5928L46.4735 25.5479L46.2473 25.6748L45.7391 26.6815L45.6122 26.8848L45.5106 27.0751L45.1034 27.6855L45.0584 27.8327L44.911 28.036L44.7759 28.2398L44.5268 28.5906L44.2327 28.941L43.9278 29.2689L43.7469 29.4498L43.3965 29.698L43.1702 29.8252L42.8647 29.9274L42.5372 29.9045C42.3536 30.4134 42.1416 30.9116 41.9021 31.3968L41.9923 31.4082H42.2411L42.4673 31.3633L42.6935 31.284L42.999 31.1568L43.2701 31.0299L43.496 30.9027L43.6993 30.7675L44.3978 30.168L44.5453 30.0214L44.7033 29.8402L44.9745 29.4898L45.1328 29.3088L45.28 29.1182L45.4269 28.9372L45.5537 28.7333L45.6553 28.5301L45.7823 28.3397L45.9183 28.1588L46.1671 27.7631L46.2687 27.5598L46.3704 27.3336L46.472 27.1297L46.5992 26.9488L46.7261 26.7006L46.7711 26.5734L46.8982 26.3246L46.9999 26.0984L46.9711 25.8528ZM44.8563 22.0537L44.7098 21.8728L44.5288 21.7259L44.3591 21.599L44.1781 21.441L43.7971 21.2715C43.8423 21.7465 43.8538 22.2209 43.8538 22.6959C43.8538 22.8316 43.8538 22.9561 43.8423 23.0916L43.8538 23.1027L44.0568 23.1821L44.2606 23.1594L44.5318 22.9785L44.8147 22.6736L44.916 22.3231L44.8563 22.0537Z" fill="#17161A"/>
</svg>
