<svg width="205" height="42" viewBox="0 0 205 42" fill="none" xmlns="http://www.w3.org/2000/svg">
<g clip-path="url(#clip0_1920_18558)">
<path d="M0.335938 12.1011H12.3354V0.078125L0.335938 12.1011Z" fill="#17161A"/>
<path d="M4.67578 23.9685H22.6962V5.91992L4.67578 23.9685Z" fill="#17161A"/>
<path d="M8.9375 41.9217H39.0279V11.8125L8.9375 41.9217Z" fill="#17161A"/>
<path d="M72.7559 31.8205C69.8781 34.6491 66.0043 36.2341 61.9691 36.2341C57.9339 36.2341 54.0602 34.6491 51.1822 31.8205C49.7475 30.4154 48.6157 28.7313 47.8567 26.8721C47.0976 25.0129 46.7274 23.0178 46.7687 21.0102C46.7279 19.0024 47.0985 17.0076 47.8575 15.1485C48.6165 13.2893 49.748 11.6052 51.1822 10.1998C54.0602 7.37116 57.9339 5.78613 61.9691 5.78613C66.0043 5.78613 69.8781 7.37116 72.7559 10.1998C74.1954 11.6023 75.3316 13.2854 76.094 15.1449C76.8564 17.0044 77.2288 19.0007 77.1882 21.0102C77.2293 23.0195 76.8573 25.0159 76.0947 26.8756C75.3323 28.7353 74.1959 30.4182 72.7559 31.8205ZM55.2198 27.8864C57.0354 29.6182 59.4483 30.5843 61.9574 30.5843C64.4664 30.5843 66.8793 29.6182 68.695 27.8864C69.5961 26.9874 70.3027 25.9125 70.7709 24.7289C71.2392 23.545 71.4588 22.2777 71.4165 21.0055C71.4581 19.7298 71.2382 18.4591 70.7702 17.2716C70.3022 16.0841 69.5959 15.005 68.695 14.1009C66.8865 12.3551 64.471 11.3794 61.9574 11.3794C59.4437 11.3794 57.0282 12.3551 55.2198 14.1009C54.3196 15.0054 53.6143 16.0846 53.147 17.2721C52.6799 18.4596 52.4606 19.7301 52.5029 21.0055C52.4596 22.2774 52.6785 23.5447 53.1458 24.7284C53.6131 25.9122 54.3191 26.9871 55.2198 27.8864Z" fill="#17161A"/>
<path d="M95.0179 14.7227H100.414V35.6477H95.0179V33.2976C93.705 35.2497 91.6259 36.2258 88.7807 36.2258C87.7273 36.2571 86.679 36.068 85.7029 35.6705C84.7268 35.2731 83.8444 34.6763 83.1123 33.9181C81.6176 32.3796 80.872 30.2581 80.875 27.5541V14.7227H86.2708V26.9008C86.2708 28.2952 86.6469 29.362 87.3989 30.1015C87.8016 30.4784 88.2756 30.7706 88.7929 30.9611C89.3105 31.1517 89.8609 31.2366 90.4118 31.2108C91.0297 31.2393 91.647 31.1387 92.2241 30.9154C92.801 30.692 93.3251 30.3509 93.7629 29.9135C94.5994 29.0487 95.0179 27.7514 95.0179 26.0218V14.7227Z" fill="#17161A"/>
<path d="M110.747 18.3249C111.192 17.0559 112.075 15.9873 113.238 15.3121C114.414 14.636 115.75 14.2886 117.107 14.3063V20.3319C115.562 20.1155 113.992 20.4733 112.693 21.3378C111.396 22.2026 110.747 23.6392 110.747 25.6478V35.6497H105.352V14.7246H110.747V18.3249Z" fill="#17161A"/>
<path d="M131.419 6.35803C132.733 6.32788 134.039 6.56433 135.259 7.05306C136.479 7.54181 137.587 8.27269 138.516 9.20162C139.455 10.1039 140.196 11.1908 140.693 12.3936C141.191 13.5965 141.434 14.8893 141.407 16.1907C141.433 17.4922 141.19 18.7848 140.693 19.9877C140.195 21.1904 139.454 22.2774 138.516 23.1798C137.586 24.1079 136.478 24.8382 135.258 25.3269C134.039 25.8156 132.733 26.0525 131.419 26.0235H126.296V35.6493H120.496V6.35803H131.419ZM131.419 20.623C131.99 20.6386 132.557 20.5332 133.083 20.3136C133.61 20.094 134.084 19.7654 134.474 19.3492C134.876 18.9292 135.191 18.4341 135.401 17.892C135.61 17.3499 135.711 16.7718 135.696 16.1907C135.716 15.6064 135.619 15.0239 135.411 14.4775C135.203 13.9311 134.887 13.4318 134.484 13.0087C134.09 12.5977 133.615 12.2736 133.089 12.0575C132.563 11.8413 131.997 11.7379 131.429 11.7538H126.296V20.623H131.419Z" fill="#17161A"/>
<path d="M159.463 14.7236H164.845V35.6487H159.463V33.1765C157.84 35.2162 155.567 36.2347 152.644 36.2315C151.288 36.2424 149.946 35.9624 148.707 35.4102C147.469 34.8581 146.364 34.0466 145.466 33.0307C143.475 30.9119 142.399 28.0932 142.472 25.1861C142.399 22.2791 143.475 19.4604 145.466 17.3416C146.362 16.3281 147.464 15.5181 148.699 14.966C149.934 14.4139 151.272 14.1325 152.625 14.1408C155.551 14.1408 157.825 15.1576 159.445 17.1911L159.463 14.7236ZM149.504 29.4303C150.041 29.9795 150.687 30.4113 151.399 30.6985C152.112 30.9857 152.877 31.122 153.645 31.0989C154.414 31.1186 155.178 30.9807 155.892 30.6936C156.606 30.4068 157.253 29.9768 157.795 29.4303C158.343 28.8746 158.773 28.213 159.058 27.4856C159.342 26.7584 159.475 25.9808 159.449 25.2003C159.474 24.4198 159.34 23.6425 159.056 22.9155C158.772 22.1882 158.343 21.5264 157.795 20.9701C157.25 20.4253 156.6 19.9978 155.883 19.7141C155.167 19.4304 154.4 19.2964 153.631 19.3203C152.864 19.2957 152.101 19.4294 151.388 19.7133C150.676 19.9972 150.029 20.4251 149.49 20.9701C148.947 21.5291 148.523 22.1919 148.243 22.9188C147.962 23.6457 147.832 24.4217 147.859 25.2003C147.833 25.9799 147.965 26.7569 148.248 27.4839C148.53 28.211 148.958 28.8733 149.504 29.4303Z" fill="#17161A"/>
<path d="M174.558 20.6631C174.558 21.2225 174.925 21.6784 175.668 22.0262C176.535 22.4249 177.437 22.7397 178.364 22.9662C179.444 23.2355 180.505 23.5699 181.543 23.9674C182.614 24.38 183.55 25.0831 184.244 25.9978C185.007 27.024 185.399 28.2784 185.354 29.5558C185.401 30.5177 185.203 31.4757 184.783 32.3421C184.363 33.2086 183.732 33.9554 182.947 34.5146C181.181 35.7185 179.077 36.3262 176.942 36.2489C172.645 36.2489 169.716 34.5897 168.156 31.2714L172.856 28.6346C173.467 30.4489 174.834 31.3561 176.955 31.3561C178.882 31.3561 179.841 30.7544 179.841 29.5558C179.841 28.9966 179.474 28.5454 178.731 28.1929C177.862 27.7999 176.958 27.4854 176.035 27.2528C174.943 26.964 173.87 26.6094 172.824 26.1906C171.765 25.774 170.834 25.0888 170.121 24.2024C169.363 23.2306 168.971 22.0222 169.017 20.7901C168.978 19.8544 169.164 18.9231 169.561 18.0747C169.957 17.2264 170.553 16.486 171.296 15.916C172.928 14.6943 174.928 14.0674 176.965 14.1394C178.585 14.1186 180.184 14.5135 181.608 15.2862C182.991 16.0548 184.13 17.1945 184.899 18.5763L180.344 21.0815C180.075 20.4241 179.608 19.8662 179.009 19.4843C178.41 19.1022 177.707 18.9147 176.997 18.9477C176.386 18.9274 175.782 19.0911 175.263 19.4177C175.047 19.5461 174.87 19.7283 174.746 19.9467C174.622 20.1653 174.557 20.4122 174.558 20.6631Z" fill="#17161A"/>
<path d="M192.725 20.6637C192.725 21.2231 193.096 21.679 193.834 22.0268C194.703 22.4246 195.608 22.7395 196.537 22.9667C197.615 23.2361 198.676 23.5705 199.714 23.968C200.785 24.3795 201.721 25.0828 202.412 25.9984C203.177 27.0227 203.569 28.2785 203.522 29.5564C203.569 30.5185 203.373 31.4768 202.951 32.3433C202.531 33.2098 201.9 33.9566 201.115 34.515C199.351 35.7196 197.247 36.3273 195.113 36.2495C190.817 36.2495 187.887 34.5903 186.324 31.272L191.024 28.6352C191.65 30.4495 193.017 31.3565 195.126 31.3565C197.051 31.3565 198.014 30.7565 198.014 29.5564C198.014 28.997 197.642 28.5458 196.904 28.1933C196.034 27.8005 195.131 27.4858 194.206 27.2533C193.125 26.9695 192.062 26.621 191.024 26.2099C189.966 25.7932 189.037 25.108 188.326 24.2217C187.566 23.2506 187.173 22.042 187.216 20.8095C187.178 19.8739 187.365 18.9428 187.762 18.0947C188.159 17.2464 188.753 16.5059 189.496 15.9354C191.129 14.7147 193.131 14.088 195.17 14.1587C196.79 14.138 198.388 14.5328 199.813 15.3056C201.195 16.0732 202.335 17.213 203.103 18.5956L198.502 21.1056C198.231 20.4481 197.766 19.8903 197.167 19.5083C196.567 19.1264 195.864 18.9389 195.155 18.9717C194.542 18.9515 193.936 19.1152 193.416 19.4417C193.207 19.5697 193.033 19.7492 192.912 19.9631C192.792 20.1768 192.726 20.418 192.725 20.6637Z" fill="#17161A"/>
</g>
<defs>
<clipPath id="clip0_1920_18558">
<rect width="204.195" height="41.8433" fill="white" transform="translate(0.335938 0.078125)"/>
</clipPath>
</defs>
</svg>
