<svg width="14" height="14" viewBox="0 0 14 14" fill="none" xmlns="http://www.w3.org/2000/svg">
<path d="M12.5455 0H0.72727C0.327262 0 0 0.333327 0 0.740745V2.07407C0 2.48149 0.327262 2.81481 0.72727 2.81481H12.5091C12.9091 2.81481 13.2364 2.48149 13.2364 2.07407V0.740745C13.2727 0.333327 12.9455 0 12.5455 0ZM12.5455 7.44444H0.72727C0.327262 7.44444 0 7.77775 0 8.18518V9.51852C0 9.92592 0.327262 10.2593 0.72727 10.2593H12.5091C12.9091 10.2593 13.2364 9.92592 13.2364 9.51852V8.18518C13.2727 7.77775 12.9455 7.44444 12.5455 7.44444ZM7.38182 11.1852H0.72727C0.327262 11.1852 0 11.5185 0 11.9259V13.2593C0 13.6667 0.327262 14 0.72727 14H7.38182C7.78185 14 8.1091 13.6667 8.1091 13.2593V11.9259C8.1091 11.5185 7.78185 11.1852 7.38182 11.1852ZM13.2727 3.74075H0.72727C0.327262 3.74075 0 4.07406 0 4.48145V5.81483C0 6.22222 0.327262 6.55557 0.72727 6.55557H13.2727C13.6727 6.55557 14 6.22222 14 5.81483V4.48145C14 4.07406 13.6727 3.74075 13.2727 3.74075Z" fill="#17161A"/>
</svg>
