<svg width="24" height="24" viewBox="0 0 24 24" fill="none" xmlns="http://www.w3.org/2000/svg">
<path opacity="0.1" fill-rule="evenodd" clip-rule="evenodd" d="M0 12C0 5.37258 5.37258 0 12 0C18.6274 0 24 5.37258 24 12C24 18.6274 18.6274 24 12 24C5.37258 24 0 18.6274 0 12Z" fill="white"/>
<path fill-rule="evenodd" clip-rule="evenodd" d="M8 7.19922V16.7992H9.8V13.7992H12.524C14.333 13.7512 15.8 12.2842 15.8 10.4992C15.8 8.66622 14.333 7.19922 12.524 7.19922H8V7.19922ZM12.5462 11.9992H9.8V8.99922H12.5462C13.349 8.99922 14 9.67122 14 10.4992C14 11.3272 13.349 11.9992 12.5462 11.9992Z" fill="white"/>
</svg>
