<svg width="200" height="62" viewBox="0 0 200 62" fill="none" xmlns="http://www.w3.org/2000/svg">
<path d="M16.896 5.22649C18.237 2.90367 21.5897 2.90367 22.9308 5.22649L33.6595 23.8091C35.0005 26.1319 33.3242 29.0354 30.6421 29.0354H9.18475C6.50259 29.0354 4.82623 26.1319 6.16731 23.8091L16.896 5.22649Z" fill="#17161A"/>
<path d="M35.8057 56.7738C34.4647 59.0966 31.1121 59.0966 29.7711 56.7738L19.0423 38.1912C17.7012 35.8684 19.3776 32.9648 22.0597 32.9648H43.5171C46.1992 32.9648 47.8755 35.8684 46.5345 38.1912L35.8057 56.7738Z" fill="#17161A"/>
<path d="M70.4768 28.8803H65.6763V38.1716C65.6763 38.9716 65.8569 39.5523 66.2183 39.9137C66.5797 40.2492 67.1087 40.4427 67.8056 40.4944C68.5282 40.5202 69.4186 40.5074 70.4768 40.4557V44.2109C67.2766 44.5981 64.9795 44.3271 63.5858 43.3979C62.1921 42.4431 61.4953 40.7009 61.4953 38.1716V28.8803H57.9336V24.8541H61.4953V20.673L65.6763 19.4342V24.8541H70.4768V28.8803ZM84.4507 24.3508C86.6702 24.3508 88.464 25.0606 89.832 26.48C91.1997 27.8995 91.8838 29.8481 91.8838 32.3258V44.2109H87.7027V32.7517C87.7027 31.3063 87.3156 30.1966 86.5413 29.4223C85.767 28.648 84.7088 28.2609 83.3668 28.2609C81.8956 28.2609 80.7083 28.7254 79.8051 29.6546C78.9017 30.558 78.4501 31.9516 78.4501 33.8356V44.2109H74.269V17.1113H78.4501V27.3317C79.7147 25.3444 81.7148 24.3508 84.4507 24.3508ZM99.6763 36.3133C99.986 37.7844 100.696 38.9201 101.806 39.7201C102.915 40.4944 104.27 40.8815 105.87 40.8815C108.09 40.8815 109.755 40.0815 110.865 38.4813L114.31 40.4944C112.4 43.3075 109.574 44.7142 105.832 44.7142C102.683 44.7142 100.141 43.7593 98.2051 41.8494C96.2695 39.9137 95.3016 37.4747 95.3016 34.5325C95.3016 31.6419 96.2567 29.2287 98.1664 27.293C100.076 25.3316 102.528 24.3508 105.522 24.3508C108.361 24.3508 110.684 25.3444 112.491 27.3317C114.323 29.3191 115.239 31.7321 115.239 34.5712C115.239 35.01 115.188 35.5907 115.084 36.3133H99.6763ZM99.6376 32.9065H111.019C110.736 31.3322 110.077 30.1449 109.045 29.3449C108.038 28.5448 106.851 28.1447 105.483 28.1447C103.935 28.1447 102.644 28.5706 101.612 29.4223C100.58 30.274 99.9215 31.4354 99.6376 32.9065ZM129.874 24.3508C132.533 24.3508 134.804 25.3444 136.688 27.3317C138.572 29.2932 139.514 31.6934 139.514 34.5325C139.514 37.3973 138.572 39.8105 136.688 41.772C134.804 43.7334 132.533 44.7142 129.874 44.7142C126.932 44.7142 124.674 43.6302 123.099 41.4622V51.9537H118.918V24.8541H123.099V27.6415C124.674 25.4477 126.932 24.3508 129.874 24.3508ZM124.842 38.9846C126.003 40.146 127.461 40.7267 129.216 40.7267C130.971 40.7267 132.429 40.146 133.591 38.9846C134.752 37.7974 135.333 36.3133 135.333 34.5325C135.333 32.7517 134.752 31.2805 133.591 30.1191C132.429 28.932 130.971 28.3383 129.216 28.3383C127.461 28.3383 126.003 28.932 124.842 30.1191C123.68 31.2805 123.099 32.7517 123.099 34.5325C123.099 36.3133 123.68 37.7974 124.842 38.9846ZM146.594 36.3133C146.904 37.7844 147.614 38.9201 148.723 39.7201C149.833 40.4944 151.188 40.8815 152.788 40.8815C155.008 40.8815 156.673 40.0815 157.782 38.4813L161.228 40.4944C159.318 43.3075 156.492 44.7142 152.749 44.7142C149.601 44.7142 147.059 43.7593 145.123 41.8494C143.187 39.9137 142.219 37.4747 142.219 34.5325C142.219 31.6419 143.174 29.2287 145.084 27.293C146.994 25.3316 149.446 24.3508 152.44 24.3508C155.279 24.3508 157.602 25.3444 159.408 27.3317C161.241 29.3191 162.157 31.7321 162.157 34.5712C162.157 35.01 162.105 35.5907 162.002 36.3133H146.594ZM146.555 32.9065H157.937C157.653 31.3322 156.995 30.1449 155.963 29.3449C154.956 28.5448 153.769 28.1447 152.401 28.1447C150.852 28.1447 149.562 28.5706 148.53 29.4223C147.497 30.274 146.839 31.4354 146.555 32.9065ZM169.013 36.3133C169.323 37.7844 170.033 38.9201 171.143 39.7201C172.252 40.4944 173.607 40.8815 175.207 40.8815C177.427 40.8815 179.092 40.0815 180.202 38.4813L183.647 40.4944C181.737 43.3075 178.911 44.7142 175.169 44.7142C172.02 44.7142 169.478 43.7593 167.542 41.8494C165.606 39.9137 164.639 37.4747 164.639 34.5325C164.639 31.6419 165.594 29.2287 167.503 27.293C169.413 25.3316 171.865 24.3508 174.859 24.3508C177.698 24.3508 180.021 25.3444 181.828 27.3317C183.66 29.3191 184.576 31.7321 184.576 34.5712C184.576 35.01 184.525 35.5907 184.421 36.3133H169.013ZM168.975 32.9065H180.356C180.072 31.3322 179.414 30.1449 178.382 29.3449C177.375 28.5448 176.188 28.1447 174.82 28.1447C173.272 28.1447 171.981 28.5706 170.949 29.4223C169.916 30.274 169.258 31.4354 168.975 32.9065ZM192.436 28.106C193.494 25.7058 195.481 24.5056 198.399 24.5056V29.0351C196.798 28.932 195.404 29.3191 194.217 30.1966C193.03 31.0483 192.436 32.4677 192.436 34.4551V44.2109H188.255V24.8541H192.436V28.106Z" fill="#17161A"/>
</svg>
