<svg width="24" height="25" viewBox="0 0 24 25" fill="none" xmlns="http://www.w3.org/2000/svg">
<path opacity="0.1" fill-rule="evenodd" clip-rule="evenodd" d="M0 12.6953C0 6.0679 5.37258 0.695312 12 0.695312C18.6274 0.695312 24 6.0679 24 12.6953C24 19.3227 18.6274 24.6953 12 24.6953C5.37258 24.6953 0 19.3227 0 12.6953Z" fill="white"/>
<path fill-rule="evenodd" clip-rule="evenodd" d="M11.6406 10.4483L11.6658 10.8635L11.2461 10.8127C9.71843 10.6178 8.38383 9.95679 7.25067 8.84669L6.69668 8.29588L6.55399 8.70263C6.25181 9.60935 6.44487 10.5669 7.0744 11.2109C7.41015 11.5669 7.33461 11.6177 6.75544 11.4058C6.55399 11.3381 6.37772 11.2872 6.36093 11.3126C6.30218 11.3719 6.50363 12.1431 6.66311 12.4482C6.88134 12.8719 7.32621 13.2871 7.81305 13.5328L8.22434 13.7277L7.73751 13.7362C7.26746 13.7362 7.25067 13.7447 7.30103 13.9226C7.46891 14.4734 8.13201 15.0581 8.87066 15.3124L9.39108 15.4903L8.93781 15.7615C8.26631 16.1513 7.4773 16.3716 6.68829 16.3886C6.31057 16.397 6 16.4309 6 16.4564C6 16.5411 7.02404 17.0156 7.61999 17.2021C9.40786 17.7529 11.5315 17.5156 13.1263 16.575C14.2595 15.9056 15.3926 14.5751 15.9214 13.2871C16.2068 12.6007 16.4922 11.3465 16.4922 10.7449C16.4922 10.3551 16.5174 10.3042 16.9874 9.83815C17.2644 9.56698 17.5246 9.27039 17.575 9.18565C17.6589 9.02465 17.6505 9.02465 17.2224 9.1687C16.509 9.42292 16.4083 9.38903 16.7608 9.0077C17.021 8.73653 17.3316 8.24504 17.3316 8.10098C17.3316 8.07556 17.2057 8.11793 17.063 8.19419C16.9119 8.27893 16.5761 8.40604 16.3243 8.48231L15.8711 8.62637L15.4598 8.34672C15.2331 8.19419 14.9142 8.02471 14.7463 7.97387C14.3182 7.85523 13.6635 7.87218 13.2774 8.00776C12.2282 8.38909 11.5651 9.37208 11.6406 10.4483Z" fill="white"/>
</svg>
