<svg width="169" height="42" viewBox="0 0 169 42" fill="none" xmlns="http://www.w3.org/2000/svg">
<g clip-path="url(#clip0_1920_18545)">
<path d="M34.9403 25.1655C34.7183 24.6892 34.5143 24.1345 34.2263 23.628C30.1225 16.4594 26.0606 9.26051 21.8128 2.17619C21.2967 1.31401 19.7848 0.6508 18.7048 0.608595C14.043 0.433748 9.3751 0.518157 4.70723 0.536245C0.657367 0.560361 -0.350602 2.24853 1.65934 5.74548C5.07923 11.7023 8.56512 17.6231 12.021 23.5618C15.0749 28.8132 18.0749 34.0948 21.2008 39.2979C22.8687 42.0834 25.1067 42.198 26.7506 39.5451C29.4204 35.2284 31.8865 30.7908 34.4303 26.3955C34.6224 26.0519 34.7363 25.6599 34.9403 25.1655ZM24.2726 1.00049C28.3706 8.13304 32.3484 15.0425 36.3983 22.0907C38.5461 20.2639 38.7921 18.7324 37.5023 16.6342C34.7363 12.1485 32.1143 7.56027 29.6064 2.92381C28.4665 0.831677 27.0986 -0.0244709 24.2726 1.00049ZM31.4664 0.988434C34.3823 6.0409 37.1662 10.8522 40.0041 15.766C42.3022 13.9995 42.4161 12.4077 41.0841 10.3819C39.5061 7.98232 38.0662 5.46813 36.7823 2.89969C35.7143 0.759325 34.2803 -0.00638378 31.4664 0.988434ZM38.4203 0.548303C40.4362 4.0151 42.02 6.75838 43.904 10.0021C45.23 7.73511 46.28 6.17958 47.078 4.50347C48.0858 2.38118 47.1018 0.735209 44.7559 0.57242C42.9081 0.445807 41.0421 0.548303 38.4203 0.548303Z" fill="#17161A"/>
<path d="M75.711 8.85938L69.3958 26.6854H66.3269L60.0117 8.85938H63.2835L67.8488 21.9743L72.4393 8.85938H75.711Z" fill="#17161A"/>
<path d="M81.6549 26.9405C80.319 26.9405 79.1608 26.6434 78.1801 26.0493C77.1995 25.4549 76.447 24.6571 75.9229 23.6555C75.3987 22.6538 75.1367 21.5502 75.1367 20.3449C75.1367 19.1394 75.3987 18.0274 75.9229 17.0088C76.447 15.9902 77.1995 15.1838 78.1801 14.5896C79.1608 13.9953 80.319 13.6982 81.6549 13.6982C82.9906 13.6982 84.1488 13.9953 85.1295 14.5896C86.1101 15.1838 86.8625 15.9902 87.3866 17.0088C87.9109 18.0274 88.1729 19.1394 88.1729 20.3449C88.1729 21.5502 87.9109 22.6538 87.3866 23.6555C86.8625 24.6571 86.1101 25.4549 85.1295 26.0493C84.1488 26.6434 82.9906 26.9405 81.6549 26.9405ZM81.6549 24.3431C82.6863 24.3431 83.4893 23.9779 84.0643 23.248C84.6561 22.5179 84.9518 21.5502 84.9518 20.3449C84.9518 19.1225 84.6561 18.1464 84.0643 17.4163C83.4893 16.6693 82.6863 16.2958 81.6549 16.2958C80.6233 16.2958 79.8119 16.6693 79.2201 17.4163C78.6451 18.1464 78.3577 19.1225 78.3577 20.3449C78.3577 21.5502 78.6451 22.5179 79.2201 23.248C79.8119 23.9779 80.6233 24.3431 81.6549 24.3431Z" fill="#17161A"/>
<path d="M95.3842 33.1033C93.5919 33.1033 92.1631 32.7723 91.0978 32.11C90.0327 31.465 89.5 30.5821 89.5 29.4617C89.5 28.2392 90.1849 27.2376 91.5544 26.4566C90.8105 25.9982 90.4385 25.3956 90.4385 24.6486C90.4385 24.258 90.5484 23.91 90.7681 23.6046C91.0049 23.2989 91.3178 23.0527 91.7066 22.8659C91.0641 22.4077 90.5737 21.8219 90.2356 21.1088C89.9144 20.3958 89.7537 19.6148 89.7537 18.7659C89.7537 17.8321 89.9565 16.9833 90.3623 16.2194C90.7681 15.4384 91.36 14.8272 92.1378 14.3858C92.9156 13.9274 93.8371 13.6982 94.9023 13.6982C96.0182 13.6982 96.982 13.9699 97.7936 14.5132C98.0811 14.3604 98.4615 14.233 98.9349 14.1312C99.4252 14.0123 99.9495 13.9529 100.507 13.9529H101.319L101.116 15.9392H99.9747C99.6873 15.9392 99.4506 15.9477 99.2646 15.9647C99.7718 16.7457 100.025 17.6794 100.025 18.7659C100.025 19.6996 99.8226 20.5571 99.4168 21.338C99.028 22.102 98.4445 22.7131 97.6667 23.1715C96.8889 23.613 95.9674 23.8336 94.9023 23.8336C94.5134 23.8336 94.0653 23.7743 93.558 23.6555C93.372 23.7403 93.2791 23.8761 93.2791 24.0628C93.2791 24.2836 93.4059 24.4619 93.6595 24.5976C93.93 24.7164 94.3782 24.8184 95.0037 24.9033L97.1848 25.1834C100.093 25.5739 101.547 26.8047 101.547 28.8759C101.547 30.1662 100.998 31.1933 99.8987 31.9573C98.8166 32.7213 97.3117 33.1033 95.3842 33.1033ZM94.9023 21.4909C95.6293 21.4909 96.1874 21.2531 96.5762 20.7777C96.982 20.2854 97.1848 19.6148 97.1848 18.7659C97.1848 17.9172 96.982 17.255 96.5762 16.7796C96.1874 16.2873 95.6293 16.0411 94.9023 16.0411C94.1584 16.0411 93.5834 16.2873 93.1776 16.7796C92.7887 17.255 92.5943 17.9172 92.5943 18.7659C92.5943 19.6148 92.7887 20.2854 93.1776 20.7777C93.5834 21.2531 94.1584 21.4909 94.9023 21.4909ZM95.511 30.7095C97.6753 30.7095 98.7574 30.1746 98.7574 29.1051C98.7574 28.6297 98.5714 28.2732 98.1994 28.0356C97.8274 27.8148 97.2102 27.6365 96.3478 27.5007L93.558 27.0933C92.5943 27.4838 92.1124 28.0779 92.1124 28.8759C92.1124 29.4871 92.4083 29.9454 93.0001 30.2511C93.5919 30.5567 94.4289 30.7095 95.511 30.7095Z" fill="#17161A"/>
<path d="M114.126 13.9531V26.686H111.184L111.133 25.9221C110.745 26.2106 110.296 26.4568 109.789 26.6606C109.282 26.8473 108.792 26.9407 108.318 26.9407C106.441 26.9407 105.072 26.3975 104.209 25.311C103.364 24.2243 102.941 22.7219 102.941 20.8035V13.9531H106.086V20.8035C106.086 21.9918 106.281 22.8747 106.67 23.4519C107.075 24.0121 107.718 24.2922 108.597 24.2922C109.578 24.2922 110.372 23.9358 110.981 23.2227V13.9531H114.126Z" fill="#17161A"/>
<path d="M123.174 26.9404C121.703 26.9404 120.443 26.6433 119.395 26.0491C118.364 25.4378 117.586 24.6314 117.062 23.6298C116.554 22.6112 116.301 21.4822 116.301 20.2428C116.301 19.0544 116.546 17.9679 117.036 16.9832C117.527 15.9985 118.237 15.2176 119.167 14.6403C120.097 14.0461 121.204 13.749 122.489 13.749C123.673 13.749 124.67 13.9952 125.482 14.4875C126.311 14.9799 126.928 15.642 127.333 16.4739C127.756 17.3057 127.967 18.2395 127.967 19.2751C127.967 19.7845 127.9 20.3617 127.765 21.0068H119.573C119.742 22.1272 120.181 22.9677 120.891 23.528C121.602 24.0712 122.455 24.3429 123.453 24.3429C124.823 24.3429 126.091 23.9948 127.257 23.2988L127.41 25.9727C126.869 26.2613 126.234 26.4989 125.507 26.6856C124.797 26.8555 124.019 26.9404 123.174 26.9404ZM124.772 18.8677C124.772 18.2055 124.586 17.6199 124.214 17.1105C123.842 16.6012 123.267 16.3466 122.489 16.3466C121.711 16.3466 121.086 16.5757 120.612 17.0341C120.139 17.4926 119.818 18.1037 119.649 18.8677H124.772Z" fill="#17161A"/>
<path d="M130.199 8.85938H136.515C140.725 8.85938 142.83 10.7778 142.83 14.6147C142.83 16.601 142.297 18.078 141.232 19.0457C140.167 20.0135 138.62 20.4973 136.591 20.4973H133.446V26.6854H130.199V8.85938ZM136.21 17.7725C137.326 17.7725 138.155 17.5177 138.696 17.0085C139.254 16.4992 139.533 15.7182 139.533 14.6656C139.533 13.613 139.254 12.8405 138.696 12.3482C138.138 11.8389 137.284 11.5842 136.134 11.5842H133.446V17.7725H136.21Z" fill="#17161A"/>
<path d="M147.244 26.9404C146.196 26.9404 145.316 26.6008 144.606 25.9218C143.913 25.2256 143.566 24.2918 143.566 23.1205C143.566 22.017 143.964 21.1342 144.758 20.4719C145.553 19.7929 146.492 19.3176 147.574 19.0459C148.656 18.7573 149.696 18.596 150.693 18.5621C150.659 17.815 150.465 17.2803 150.11 16.9577C149.772 16.6352 149.205 16.4739 148.411 16.4739C147.853 16.4739 147.303 16.5503 146.762 16.7031C146.238 16.8559 145.629 17.102 144.936 17.4416L144.657 14.8695C146.196 14.1225 147.734 13.749 149.273 13.749C150.761 13.749 151.894 14.1565 152.672 14.9714C153.466 15.7863 153.864 17.0851 153.864 18.8677V22.3055C153.864 22.9508 153.889 23.4176 153.94 23.7062C154.007 23.9778 154.109 24.1561 154.244 24.2409C154.396 24.3088 154.641 24.3429 154.98 24.3429H155.385L155.106 26.9404H153.965C153.272 26.9404 152.688 26.813 152.215 26.5584C151.742 26.2867 151.378 25.9218 151.125 25.4634C150.719 25.9218 150.161 26.2867 149.451 26.5584C148.757 26.813 148.022 26.9404 147.244 26.9404ZM148.563 24.521C148.884 24.521 149.248 24.4447 149.653 24.2918C150.059 24.1221 150.414 23.8929 150.719 23.6044V20.7011C149.704 20.7522 148.808 20.9729 148.03 21.3634C147.253 21.7539 146.864 22.2971 146.864 22.9931C146.864 23.5194 146.999 23.9099 147.269 24.1646C147.54 24.4022 147.971 24.521 148.563 24.521Z" fill="#17161A"/>
<path d="M160.42 25.8457L155.145 13.9531H158.644L161.891 22.1531L165.188 13.9531H168.688L160.75 32.8488H157.605L160.42 25.8457Z" fill="#17161A"/>
</g>
<defs>
<clipPath id="clip0_1920_18545">
<rect width="168.033" height="41" fill="white" transform="translate(0.65625 0.5)"/>
</clipPath>
</defs>
</svg>
