<svg width="24" height="25" viewBox="0 0 24 25" fill="none" xmlns="http://www.w3.org/2000/svg">
<path opacity="0.1" fill-rule="evenodd" clip-rule="evenodd" d="M0 12.6953C0 6.0679 5.37258 0.695312 12 0.695312C18.6274 0.695312 24 6.0679 24 12.6953C24 19.3227 18.6274 24.6953 12 24.6953C5.37258 24.6953 0 19.3227 0 12.6953Z" fill="white"/>
<path fill-rule="evenodd" clip-rule="evenodd" d="M17.0024 8.56959C17.5531 8.72072 17.9869 9.16603 18.1341 9.73153C18.4016 10.7564 18.4016 12.8949 18.4016 12.8949C18.4016 12.8949 18.4016 15.0333 18.1341 16.0583C17.9869 16.6238 17.5531 17.0691 17.0024 17.2203C16.0043 17.4949 12.0016 17.4949 12.0016 17.4949C12.0016 17.4949 7.99887 17.4949 7.00069 17.2203C6.44993 17.0691 6.01618 16.6238 5.86898 16.0583C5.60156 15.0333 5.60156 12.8949 5.60156 12.8949C5.60156 12.8949 5.60156 10.7564 5.86898 9.73153C6.01618 9.16603 6.44993 8.72072 7.00069 8.56959C7.99887 8.29492 12.0016 8.29492 12.0016 8.29492C12.0016 8.29492 16.0043 8.29492 17.0024 8.56959ZM10.8016 11.0949V15.0949L14.0016 13.095L10.8016 11.0949Z" fill="white"/>
</svg>
