<svg width="38" height="39" viewBox="0 0 38 39" fill="none" xmlns="http://www.w3.org/2000/svg">
<path d="M37.2071 13.1373C37.2044 11.7966 36.8461 10.48 36.1681 9.31891C35.4901 8.15784 34.516 7.19282 33.3431 6.52012L21.9144 0L7.5755 8.18517L0 12.5122V26.9427C0.000781619 27.8655 0.246904 28.772 0.713695 29.5711C1.18049 30.3703 1.85154 31.0341 2.6596 31.496L15.2873 38.695L30.58 29.9656L37.2071 26.1937V13.1373ZM26.7813 27.7994L23.8111 29.4968V16.3758L12.317 9.81786L15.2873 8.12051L26.4925 14.5167C26.5804 14.567 26.6535 14.6392 26.7042 14.7263C26.7549 14.8133 26.7815 14.912 26.7813 15.0125V27.7994ZM4.5562 28.2359C4.33062 28.1016 4.14389 27.9119 4.01405 27.6854C3.88421 27.4589 3.81566 27.2031 3.815 26.9427V14.6784L8.5347 11.9841L18.1158 17.4589L6.2457 24.2484L8.1423 27.4815L20.0124 20.7135V31.663L15.2873 34.3573L4.5562 28.2359ZM33.4085 24.0167L30.58 25.6333V15.0125C30.5835 14.2499 30.3839 13.4998 30.0012 12.8376C29.6185 12.1755 29.0663 11.6246 28.4 11.2405L19.075 5.95432L21.909 4.33777L31.4356 9.78016C32.0331 10.1207 32.5295 10.6106 32.8749 11.2009C33.2202 11.7911 33.4024 12.4608 33.4031 13.1427L33.4085 24.0167Z" fill="white"/>
</svg>
